<?xml version="1.0" encoding="UTF-8" standalone="no"?>
<!DOCTYPE svg PUBLIC "-//W3C//DTD SVG 1.1//EN"
 "http://www.w3.org/Graphics/SVG/1.1/DTD/svg11.dtd">
<!-- Generated by graphviz version 2.28.0 (20110509.1545)
 -->
<!-- Title: G Pages: 1 -->
<svg width="534pt" height="1108pt"
 viewBox="0.00 0.00 534.00 1108.00" xmlns="http://www.w3.org/2000/svg" xmlns:xlink="http://www.w3.org/1999/xlink">
<g id="graph1" class="graph" transform="scale(1 1) rotate(0) translate(4 1104)">
<title>G</title>
<polygon fill="white" stroke="white" points="-4,5 -4,-1104 531,-1104 531,5 -4,5"/>
<g id="graph2" class="cluster"><title>cluster_Aura</title>
<polyline fill="none" stroke="gray" points="172,-8 506,-8 "/>
<path fill="none" stroke="gray" d="M506,-8C512,-8 518,-14 518,-20"/>
<polyline fill="none" stroke="gray" points="518,-20 518,-1080 "/>
<path fill="none" stroke="gray" d="M518,-1080C518,-1086 512,-1092 506,-1092"/>
<polyline fill="none" stroke="gray" points="506,-1092 172,-1092 "/>
<path fill="none" stroke="gray" d="M172,-1092C166,-1092 160,-1086 160,-1080"/>
<polyline fill="none" stroke="gray" points="160,-1080 160,-20 "/>
<path fill="none" stroke="gray" d="M160,-20C160,-14 166,-8 172,-8"/>
<text text-anchor="middle" x="339" y="-1077" font-family="Times,serif" font-size="11.00" fill="gray">Aura</text>
</g>
<g id="graph3" class="cluster"><title>cluster_Aura\View</title>
<polyline fill="none" stroke="gray" points="180,-16 498,-16 "/>
<path fill="none" stroke="gray" d="M498,-16C504,-16 510,-22 510,-28"/>
<polyline fill="none" stroke="gray" points="510,-28 510,-1051 "/>
<path fill="none" stroke="gray" d="M510,-1051C510,-1057 504,-1063 498,-1063"/>
<polyline fill="none" stroke="gray" points="498,-1063 180,-1063 "/>
<path fill="none" stroke="gray" d="M180,-1063C174,-1063 168,-1057 168,-1051"/>
<polyline fill="none" stroke="gray" points="168,-1051 168,-28 "/>
<path fill="none" stroke="gray" d="M168,-28C168,-22 174,-16 180,-16"/>
<text text-anchor="middle" x="339" y="-1048" font-family="Times,serif" font-size="11.00" fill="gray">View</text>
</g>
<g id="graph4" class="cluster"><title>cluster_Aura\View\Exception</title>
<polyline fill="none" stroke="gray" points="376,-907 490,-907 "/>
<path fill="none" stroke="gray" d="M490,-907C496,-907 502,-913 502,-919"/>
<polyline fill="none" stroke="gray" points="502,-919 502,-1022 "/>
<path fill="none" stroke="gray" d="M502,-1022C502,-1028 496,-1034 490,-1034"/>
<polyline fill="none" stroke="gray" points="490,-1034 376,-1034 "/>
<path fill="none" stroke="gray" d="M376,-1034C370,-1034 364,-1028 364,-1022"/>
<polyline fill="none" stroke="gray" points="364,-1022 364,-919 "/>
<path fill="none" stroke="gray" d="M364,-919C364,-913 370,-907 376,-907"/>
<text text-anchor="middle" x="433" y="-1019" font-family="Times,serif" font-size="11.00" fill="gray">Exception</text>
</g>
<g id="graph5" class="cluster"><title>cluster_Aura\View\Helper</title>
<polyline fill="none" stroke="gray" points="188,-286 464,-286 "/>
<path fill="none" stroke="gray" d="M464,-286C470,-286 476,-292 476,-298"/>
<polyline fill="none" stroke="gray" points="476,-298 476,-887 "/>
<path fill="none" stroke="gray" d="M476,-887C476,-893 470,-899 464,-899"/>
<polyline fill="none" stroke="gray" points="464,-899 188,-899 "/>
<path fill="none" stroke="gray" d="M188,-899C182,-899 176,-893 176,-887"/>
<polyline fill="none" stroke="gray" points="176,-887 176,-298 "/>
<path fill="none" stroke="gray" d="M176,-298C176,-292 182,-286 188,-286"/>
<text text-anchor="middle" x="326" y="-884" font-family="Times,serif" font-size="11.00" fill="gray">Helper</text>
</g>
<!-- \\Aura\\View\\Exception\\HelperNotMapped -->
<g id="node4" class="node"><title>\\Aura\\View\\Exception\\HelperNotMapped</title>
<a xlink:href="db_Aura_View_Exception_HelperNotMapped.html" xlink:title="HelperNotMapped" target="_parent">
<polygon fill="none" stroke="black" points="490.516,-1005 375.484,-1005 375.484,-969 490.516,-969 490.516,-1005"/>
<text text-anchor="middle" x="433" y="-982.6" font-family="Courier,monospace" font-size="11.00">HelperNotMapped</text>
</a>
</g>
<!-- \\Aura\\View\\Exception -->
<g id="node20" class="node"><title>\\Aura\\View\\Exception</title>
<a xlink:href="db_Aura_View_Exception.html" xlink:title="Exception" target="_parent">
<polygon fill="none" stroke="black" points="276.911,-978 201.089,-978 201.089,-942 276.911,-942 276.911,-978"/>
<text text-anchor="middle" x="239" y="-955.6" font-family="Courier,monospace" font-size="11.00">Exception</text>
</a>
</g>
<!-- \\Aura\\View\\Exception\\HelperNotMapped&#45;&gt;\\Aura\\View\\Exception -->
<g id="edge8" class="edge"><title>\\Aura\\View\\Exception\\HelperNotMapped&#45;&gt;\\Aura\\View\\Exception</title>
<path fill="none" stroke="black" d="M375.432,-979.045C347.308,-975.09 313.719,-970.367 287.028,-966.613"/>
<polygon fill="none" stroke="black" points="287.182,-963.101 276.792,-965.174 286.208,-970.032 287.182,-963.101"/>
</g>
<!-- \\Aura\\View\\Exception\\TemplateNotFound -->
<g id="node5" class="node"><title>\\Aura\\View\\Exception\\TemplateNotFound</title>
<a xlink:href="db_Aura_View_Exception_TemplateNotFound.html" xlink:title="TemplateNotFound" target="_parent">
<polygon fill="none" stroke="black" points="493.618,-951 372.382,-951 372.382,-915 493.618,-915 493.618,-951"/>
<text text-anchor="middle" x="433" y="-928.6" font-family="Courier,monospace" font-size="11.00">TemplateNotFound</text>
</a>
</g>
<!-- \\Aura\\View\\Exception\\TemplateNotFound&#45;&gt;\\Aura\\View\\Exception -->
<g id="edge10" class="edge"><title>\\Aura\\View\\Exception\\TemplateNotFound&#45;&gt;\\Aura\\View\\Exception</title>
<path fill="none" stroke="black" d="M372.302,-941.395C344.825,-945.259 312.694,-949.777 286.978,-953.394"/>
<polygon fill="none" stroke="black" points="286.158,-949.975 276.743,-954.833 287.133,-956.906 286.158,-949.975"/>
</g>
<!-- \\Aura\\View\\Helper\\AbstractHelper -->
<g id="node7" class="node"><title>\\Aura\\View\\Helper\\AbstractHelper</title>
<a xlink:href="db_Aura_View_Helper_AbstractHelper.html" xlink:title="«abstract»&lt;br/&gt;AbstractHelper" target="_parent">
<polygon fill="none" stroke="black" points="293.5,-600 184.5,-600 184.5,-564 293.5,-564 293.5,-600"/>
<text text-anchor="start" x="206" y="-583.5" font-family="Courier,monospace" font-size="11.00">«abstract»</text>
<text text-anchor="start" x="193" y="-572.5" font-family="Courier,monospace" font-size="11.00">AbstractHelper</text>
</a>
</g>
<!-- \\Aura\\View\\Helper\\Anchor -->
<g id="node8" class="node"><title>\\Aura\\View\\Helper\\Anchor</title>
<a xlink:href="db_Aura_View_Helper_Anchor.html" xlink:title="Anchor" target="_parent">
<polygon fill="none" stroke="black" points="460.608,-870 405.392,-870 405.392,-834 460.608,-834 460.608,-870"/>
<text text-anchor="middle" x="433" y="-847.6" font-family="Courier,monospace" font-size="11.00">Anchor</text>
</a>
</g>
<!-- \\Aura\\View\\Helper\\Anchor&#45;&gt;\\Aura\\View\\Helper\\AbstractHelper -->
<g id="edge14" class="edge"><title>\\Aura\\View\\Helper\\Anchor&#45;&gt;\\Aura\\View\\Helper\\AbstractHelper</title>
<path fill="none" stroke="black" d="M405.191,-847.259C391.138,-843.466 374.675,-836.753 364,-825 297.397,-751.669 365.233,-683.191 300.22,-605.777"/>
<polygon fill="none" stroke="black" points="302.776,-603.385 293.504,-598.257 297.554,-608.047 302.776,-603.385"/>
</g>
<!-- \\Aura\\View\\Helper\\Attribs -->
<g id="node9" class="node"><title>\\Aura\\View\\Helper\\Attribs</title>
<a xlink:href="db_Aura_View_Helper_Attribs.html" xlink:title="Attribs" target="_parent">
<polygon fill="none" stroke="black" points="464.208,-816 401.792,-816 401.792,-780 464.208,-780 464.208,-816"/>
<text text-anchor="middle" x="433" y="-793.6" font-family="Courier,monospace" font-size="11.00">Attribs</text>
</a>
</g>
<!-- \\Aura\\View\\Helper\\Attribs&#45;&gt;\\Aura\\View\\Helper\\AbstractHelper -->
<g id="edge16" class="edge"><title>\\Aura\\View\\Helper\\Attribs&#45;&gt;\\Aura\\View\\Helper\\AbstractHelper</title>
<path fill="none" stroke="black" d="M401.838,-791.802C388.775,-787.781 374.178,-781.3 364,-771 310.425,-716.778 352.811,-664.283 300.779,-606.147"/>
<polygon fill="none" stroke="black" points="303.026,-603.434 293.57,-598.656 297.982,-608.288 303.026,-603.434"/>
</g>
<!-- \\Aura\\View\\Helper\\Base -->
<g id="node10" class="node"><title>\\Aura\\View\\Helper\\Base</title>
<a xlink:href="db_Aura_View_Helper_Base.html" xlink:title="Base" target="_parent">
<polygon fill="none" stroke="black" points="460,-762 406,-762 406,-726 460,-726 460,-762"/>
<text text-anchor="middle" x="433" y="-739.6" font-family="Courier,monospace" font-size="11.00">Base</text>
</a>
</g>
<!-- \\Aura\\View\\Helper\\Base&#45;&gt;\\Aura\\View\\Helper\\AbstractHelper -->
<g id="edge18" class="edge"><title>\\Aura\\View\\Helper\\Base&#45;&gt;\\Aura\\View\\Helper\\AbstractHelper</title>
<path fill="none" stroke="black" d="M405.879,-738.12C392.201,-734.005 375.875,-727.347 364,-717 322.863,-681.158 341.643,-645.465 301.158,-606.085"/>
<polygon fill="none" stroke="black" points="303.29,-603.295 293.514,-599.212 298.61,-608.501 303.29,-603.295"/>
</g>
<!-- \\Aura\\View\\Helper\\Datetime -->
<g id="node11" class="node"><title>\\Aura\\View\\Helper\\Datetime</title>
<a xlink:href="db_Aura_View_Helper_Datetime.html" xlink:title="Datetime" target="_parent">
<polygon fill="none" stroke="black" points="467.309,-708 398.691,-708 398.691,-672 467.309,-672 467.309,-708"/>
<text text-anchor="middle" x="433" y="-685.6" font-family="Courier,monospace" font-size="11.00">Datetime</text>
</a>
</g>
<!-- \\Aura\\View\\Helper\\Datetime&#45;&gt;\\Aura\\View\\Helper\\AbstractHelper -->
<g id="edge20" class="edge"><title>\\Aura\\View\\Helper\\Datetime&#45;&gt;\\Aura\\View\\Helper\\AbstractHelper</title>
<path fill="none" stroke="black" d="M398.654,-679.544C387.226,-675.249 374.645,-669.694 364,-663 333.809,-644.014 332.954,-627.024 301.586,-605.587"/>
<polygon fill="none" stroke="black" points="303.226,-602.482 292.917,-600.038 299.452,-608.377 303.226,-602.482"/>
</g>
<!-- \\Aura\\View\\Helper\\Escape -->
<g id="node12" class="node"><title>\\Aura\\View\\Helper\\Escape</title>
<a xlink:href="db_Aura_View_Helper_Escape.html" xlink:title="Escape" target="_parent">
<polygon fill="none" stroke="black" points="460.608,-654 405.392,-654 405.392,-618 460.608,-618 460.608,-654"/>
<text text-anchor="middle" x="433" y="-631.6" font-family="Courier,monospace" font-size="11.00">Escape</text>
</a>
</g>
<!-- \\Aura\\View\\Helper\\Escape&#45;&gt;\\Aura\\View\\Helper\\AbstractHelper -->
<g id="edge22" class="edge"><title>\\Aura\\View\\Helper\\Escape&#45;&gt;\\Aura\\View\\Helper\\AbstractHelper</title>
<path fill="none" stroke="black" d="M405.303,-628.492C379.138,-621.133 338.265,-609.637 303.71,-599.919"/>
<polygon fill="none" stroke="black" points="304.256,-596.436 293.682,-597.098 302.361,-603.175 304.256,-596.436"/>
</g>
<!-- \\Aura\\View\\Helper\\Image -->
<g id="node13" class="node"><title>\\Aura\\View\\Helper\\Image</title>
<a xlink:href="db_Aura_View_Helper_Image.html" xlink:title="Image" target="_parent">
<polygon fill="none" stroke="black" points="460,-600 406,-600 406,-564 460,-564 460,-600"/>
<text text-anchor="middle" x="433" y="-577.6" font-family="Courier,monospace" font-size="11.00">Image</text>
</a>
</g>
<!-- \\Aura\\View\\Helper\\Image&#45;&gt;\\Aura\\View\\Helper\\AbstractHelper -->
<g id="edge24" class="edge"><title>\\Aura\\View\\Helper\\Image&#45;&gt;\\Aura\\View\\Helper\\AbstractHelper</title>
<path fill="none" stroke="black" d="M405.706,-582C379.533,-582 338.361,-582 303.607,-582"/>
<polygon fill="none" stroke="black" points="303.523,-578.5 293.523,-582 303.523,-585.5 303.523,-578.5"/>
</g>
<!-- \\Aura\\View\\Helper\\Links -->
<g id="node14" class="node"><title>\\Aura\\View\\Helper\\Links</title>
<a xlink:href="db_Aura_View_Helper_Links.html" xlink:title="Links" target="_parent">
<polygon fill="none" stroke="black" points="460,-546 406,-546 406,-510 460,-510 460,-546"/>
<text text-anchor="middle" x="433" y="-523.6" font-family="Courier,monospace" font-size="11.00">Links</text>
</a>
</g>
<!-- \\Aura\\View\\Helper\\Links&#45;&gt;\\Aura\\View\\Helper\\AbstractHelper -->
<g id="edge26" class="edge"><title>\\Aura\\View\\Helper\\Links&#45;&gt;\\Aura\\View\\Helper\\AbstractHelper</title>
<path fill="none" stroke="black" d="M405.706,-535.395C379.42,-542.788 338.008,-554.435 303.159,-564.236"/>
<polygon fill="none" stroke="black" points="302.201,-560.87 293.523,-566.947 304.097,-567.609 302.201,-560.87"/>
</g>
<!-- \\Aura\\View\\Helper\\Metas -->
<g id="node15" class="node"><title>\\Aura\\View\\Helper\\Metas</title>
<a xlink:href="db_Aura_View_Helper_Metas.html" xlink:title="Metas" target="_parent">
<polygon fill="none" stroke="black" points="460,-492 406,-492 406,-456 460,-456 460,-492"/>
<text text-anchor="middle" x="433" y="-469.6" font-family="Courier,monospace" font-size="11.00">Metas</text>
</a>
</g>
<!-- \\Aura\\View\\Helper\\Metas&#45;&gt;\\Aura\\View\\Helper\\AbstractHelper -->
<g id="edge28" class="edge"><title>\\Aura\\View\\Helper\\Metas&#45;&gt;\\Aura\\View\\Helper\\AbstractHelper</title>
<path fill="none" stroke="black" d="M405.742,-481.894C392.651,-486.446 376.903,-492.886 364,-501 333.809,-519.986 332.954,-536.976 301.586,-558.413"/>
<polygon fill="none" stroke="black" points="299.452,-555.623 292.917,-563.962 303.226,-561.518 299.452,-555.623"/>
</g>
<!-- \\Aura\\View\\Helper\\Scripts -->
<g id="node16" class="node"><title>\\Aura\\View\\Helper\\Scripts</title>
<a xlink:href="db_Aura_View_Helper_Scripts.html" xlink:title="Scripts" target="_parent">
<polygon fill="none" stroke="black" points="464.208,-438 401.792,-438 401.792,-402 464.208,-402 464.208,-438"/>
<text text-anchor="middle" x="433" y="-415.6" font-family="Courier,monospace" font-size="11.00">Scripts</text>
</a>
</g>
<!-- \\Aura\\View\\Helper\\Scripts&#45;&gt;\\Aura\\View\\Helper\\AbstractHelper -->
<g id="edge30" class="edge"><title>\\Aura\\View\\Helper\\Scripts&#45;&gt;\\Aura\\View\\Helper\\AbstractHelper</title>
<path fill="none" stroke="black" d="M401.84,-427.147C389.083,-431.318 374.726,-437.654 364,-447 322.863,-482.842 341.643,-518.535 301.158,-557.915"/>
<polygon fill="none" stroke="black" points="298.61,-555.499 293.514,-564.788 303.29,-560.705 298.61,-555.499"/>
</g>
<!-- \\Aura\\View\\Helper\\Styles -->
<g id="node17" class="node"><title>\\Aura\\View\\Helper\\Styles</title>
<a xlink:href="db_Aura_View_Helper_Styles.html" xlink:title="Styles" target="_parent">
<polygon fill="none" stroke="black" points="460.608,-384 405.392,-384 405.392,-348 460.608,-348 460.608,-384"/>
<text text-anchor="middle" x="433" y="-361.6" font-family="Courier,monospace" font-size="11.00">Styles</text>
</a>
</g>
<!-- \\Aura\\View\\Helper\\Styles&#45;&gt;\\Aura\\View\\Helper\\AbstractHelper -->
<g id="edge32" class="edge"><title>\\Aura\\View\\Helper\\Styles&#45;&gt;\\Aura\\View\\Helper\\AbstractHelper</title>
<path fill="none" stroke="black" d="M405.237,-371.196C391.37,-375.111 375.07,-381.796 364,-393 310.425,-447.222 352.811,-499.717 300.779,-557.853"/>
<polygon fill="none" stroke="black" points="297.982,-555.712 293.57,-565.344 303.026,-560.566 297.982,-555.712"/>
</g>
<!-- \\Aura\\View\\Helper\\Title -->
<g id="node18" class="node"><title>\\Aura\\View\\Helper\\Title</title>
<a xlink:href="db_Aura_View_Helper_Title.html" xlink:title="Title" target="_parent">
<polygon fill="none" stroke="black" points="460,-330 406,-330 406,-294 460,-294 460,-330"/>
<text text-anchor="middle" x="433" y="-307.6" font-family="Courier,monospace" font-size="11.00">Title</text>
</a>
</g>
<!-- \\Aura\\View\\Helper\\Title&#45;&gt;\\Aura\\View\\Helper\\AbstractHelper -->
<g id="edge34" class="edge"><title>\\Aura\\View\\Helper\\Title&#45;&gt;\\Aura\\View\\Helper\\AbstractHelper</title>
<path fill="none" stroke="black" d="M405.864,-316.562C391.666,-320.32 374.846,-327.059 364,-339 297.397,-412.331 365.233,-480.809 300.22,-558.223"/>
<polygon fill="none" stroke="black" points="297.554,-555.953 293.504,-565.743 302.776,-560.615 297.554,-555.953"/>
</g>
<!-- \\Aura\\View\\AbstractTemplate -->
<g id="node19" class="node"><title>\\Aura\\View\\AbstractTemplate</title>
<a xlink:href="db_Aura_View_AbstractTemplate.html" xlink:title="«abstract»&lt;br/&gt;AbstractTemplate" target="_parent">
<polygon fill="none" stroke="black" points="300,-168 178,-168 178,-132 300,-132 300,-168"/>
<text text-anchor="start" x="206" y="-151.5" font-family="Courier,monospace" font-size="11.00">«abstract»</text>
<text text-anchor="start" x="186.5" y="-140.5" font-family="Courier,monospace" font-size="11.00">AbstractTemplate</text>
</a>
</g>
<!-- \\Exception -->
<g id="node31" class="node"><title>\\Exception</title>
<ellipse fill="none" stroke="black" cx="53" cy="-960" rx="52.7417" ry="18"/>
<text text-anchor="middle" x="53" y="-954.4" font-family="Times,serif" font-size="14.00" fill="gray">\Exception</text>
</g>
<!-- \\Aura\\View\\Exception&#45;&gt;\\Exception -->
<g id="edge12" class="edge"><title>\\Aura\\View\\Exception&#45;&gt;\\Exception</title>
<path fill="none" stroke="black" d="M201.207,-960C176.922,-960 144.493,-960 116.254,-960"/>
<polygon fill="none" stroke="black" points="116.062,-956.5 106.062,-960 116.062,-963.5 116.062,-956.5"/>
</g>
<!-- \\Aura\\View\\FormatTypes -->
<g id="node21" class="node"><title>\\Aura\\View\\FormatTypes</title>
<a xlink:href="db_Aura_View_FormatTypes.html" xlink:title="FormatTypes" target="_parent">
<polygon fill="none" stroke="black" points="477.113,-276 388.887,-276 388.887,-240 477.113,-240 477.113,-276"/>
<text text-anchor="middle" x="433" y="-253.6" font-family="Courier,monospace" font-size="11.00">FormatTypes</text>
</a>
</g>
<!-- \\Aura\\View\\HelperLocator -->
<g id="node22" class="node"><title>\\Aura\\View\\HelperLocator</title>
<a xlink:href="db_Aura_View_HelperLocator.html" xlink:title="HelperLocator" target="_parent">
<polygon fill="none" stroke="black" points="483.814,-222 382.186,-222 382.186,-186 483.814,-186 483.814,-222"/>
<text text-anchor="middle" x="433" y="-199.6" font-family="Courier,monospace" font-size="11.00">HelperLocator</text>
</a>
</g>
<!-- \\Aura\\View\\Template -->
<g id="node23" class="node"><title>\\Aura\\View\\Template</title>
<a xlink:href="db_Aura_View_Template.html" xlink:title="Template" target="_parent">
<polygon fill="none" stroke="black" points="467.309,-168 398.691,-168 398.691,-132 467.309,-132 467.309,-168"/>
<text text-anchor="middle" x="433" y="-145.6" font-family="Courier,monospace" font-size="11.00">Template</text>
</a>
</g>
<!-- \\Aura\\View\\Template&#45;&gt;\\Aura\\View\\AbstractTemplate -->
<g id="edge36" class="edge"><title>\\Aura\\View\\Template&#45;&gt;\\Aura\\View\\AbstractTemplate</title>
<path fill="none" stroke="black" d="M398.556,-150C374.231,-150 340.415,-150 310.258,-150"/>
<polygon fill="none" stroke="black" points="310.19,-146.5 300.19,-150 310.19,-153.5 310.19,-146.5"/>
</g>
<!-- \\Aura\\View\\TemplateFinder -->
<g id="node24" class="node"><title>\\Aura\\View\\TemplateFinder</title>
<a xlink:href="db_Aura_View_TemplateFinder.html" xlink:title="TemplateFinder" target="_parent">
<polygon fill="none" stroke="black" points="487.416,-114 378.584,-114 378.584,-78 487.416,-78 487.416,-114"/>
<text text-anchor="middle" x="433" y="-91.6" font-family="Courier,monospace" font-size="11.00">TemplateFinder</text>
</a>
</g>
<!-- \\Aura\\View\\TwoStep -->
<g id="node25" class="node"><title>\\Aura\\View\\TwoStep</title>
<a xlink:href="db_Aura_View_TwoStep.html" xlink:title="TwoStep" target="_parent">
<polygon fill="none" stroke="black" points="464.208,-60 401.792,-60 401.792,-24 464.208,-24 464.208,-60"/>
<text text-anchor="middle" x="433" y="-37.6" font-family="Courier,monospace" font-size="11.00">TwoStep</text>
</a>
</g>
</g>
</svg>
