<?xml version="1.0" encoding="UTF-8" standalone="no"?>
<!DOCTYPE svg PUBLIC "-//W3C//DTD SVG 1.1//EN"
 "http://www.w3.org/Graphics/SVG/1.1/DTD/svg11.dtd">
<!-- Generated by graphviz version 2.28.0 (20111028.1807)
 -->
<!-- Title: G Pages: 1 -->
<svg width="574pt" height="1135pt"
 viewBox="0.00 0.00 574.00 1135.00" xmlns="http://www.w3.org/2000/svg" xmlns:xlink="http://www.w3.org/1999/xlink">
<g id="graph1" class="graph" transform="scale(1 1) rotate(0) translate(4 1131)">
<title>G</title>
<polygon fill="white" stroke="white" points="-4,5 -4,-1131 571,-1131 571,5 -4,5"/>
<g id="graph2" class="cluster"><title>cluster_Aura</title>
<polyline fill="none" stroke="gray" points="174,-8 546,-8 "/>
<path fill="none" stroke="gray" d="M546,-8C552,-8 558,-14 558,-20"/>
<polyline fill="none" stroke="gray" points="558,-20 558,-1107 "/>
<path fill="none" stroke="gray" d="M558,-1107C558,-1113 552,-1119 546,-1119"/>
<polyline fill="none" stroke="gray" points="546,-1119 174,-1119 "/>
<path fill="none" stroke="gray" d="M174,-1119C168,-1119 162,-1113 162,-1107"/>
<polyline fill="none" stroke="gray" points="162,-1107 162,-20 "/>
<path fill="none" stroke="gray" d="M162,-20C162,-14 168,-8 174,-8"/>
<text text-anchor="middle" x="360" y="-1104" font-family="Times,serif" font-size="11.00" fill="gray">Aura</text>
</g>
<g id="graph3" class="cluster"><title>cluster_Aura\Cli</title>
<polyline fill="none" stroke="gray" points="182,-16 538,-16 "/>
<path fill="none" stroke="gray" d="M538,-16C544,-16 550,-22 550,-28"/>
<polyline fill="none" stroke="gray" points="550,-28 550,-1078 "/>
<path fill="none" stroke="gray" d="M550,-1078C550,-1084 544,-1090 538,-1090"/>
<polyline fill="none" stroke="gray" points="538,-1090 182,-1090 "/>
<path fill="none" stroke="gray" d="M182,-1090C176,-1090 170,-1084 170,-1078"/>
<polyline fill="none" stroke="gray" points="170,-1078 170,-28 "/>
<path fill="none" stroke="gray" d="M170,-28C170,-22 176,-16 182,-16"/>
<text text-anchor="middle" x="360" y="-1075" font-family="Times,serif" font-size="11.00" fill="gray">Cli</text>
</g>
<g id="graph4" class="cluster"><title>cluster_Aura\Cli\Exception</title>
<polyline fill="none" stroke="gray" points="396,-610 530,-610 "/>
<path fill="none" stroke="gray" d="M530,-610C536,-610 542,-616 542,-622"/>
<polyline fill="none" stroke="gray" points="542,-622 542,-1049 "/>
<path fill="none" stroke="gray" d="M542,-1049C542,-1055 536,-1061 530,-1061"/>
<polyline fill="none" stroke="gray" points="530,-1061 396,-1061 "/>
<path fill="none" stroke="gray" d="M396,-1061C390,-1061 384,-1055 384,-1049"/>
<polyline fill="none" stroke="gray" points="384,-1049 384,-622 "/>
<path fill="none" stroke="gray" d="M384,-622C384,-616 390,-610 396,-610"/>
<text text-anchor="middle" x="463" y="-1046" font-family="Times,serif" font-size="11.00" fill="gray">Exception</text>
</g>
<!-- \\Aura\\Cli\\Exception\\GetoptInitialized -->
<g id="node4" class="node"><title>\\Aura\\Cli\\Exception\\GetoptInitialized</title>
<a xlink:href="Exception.GetoptInitialized.html" xlink:title="GetoptInitialized" target="_parent">
<polygon fill="none" stroke="black" points="527.218,-1032 398.782,-1032 398.782,-996 527.218,-996 527.218,-1032"/>
<text text-anchor="middle" x="463" y="-1009.6" font-family="Courier,monospace" font-size="11.00">GetoptInitialized</text>
</a>
</g>
<!-- \\Aura\\Cli\\Exception -->
<g id="node14" class="node"><title>\\Aura\\Cli\\Exception</title>
<a xlink:href="Exception.html" xlink:title="Exception" target="_parent">
<polygon fill="none" stroke="black" points="286.911,-843 211.089,-843 211.089,-807 286.911,-807 286.911,-843"/>
<text text-anchor="middle" x="249" y="-820.6" font-family="Courier,monospace" font-size="11.00">Exception</text>
</a>
</g>
<!-- \\Aura\\Cli\\Exception\\GetoptInitialized&#45;&gt;\\Aura\\Cli\\Exception -->
<g id="edge6" class="edge"><title>\\Aura\\Cli\\Exception\\GetoptInitialized&#45;&gt;\\Aura\\Cli\\Exception</title>
<path fill="none" stroke="black" d="M399.576,-995.942C394.109,-993.317 388.828,-990.349 384,-987 331.28,-950.428 287.778,-887.695 265.694,-851.973"/>
<polygon fill="none" stroke="black" points="268.477,-849.813 260.295,-843.082 262.494,-853.447 268.477,-849.813"/>
</g>
<!-- \\Aura\\Cli\\Exception\\OptionArray -->
<g id="node5" class="node"><title>\\Aura\\Cli\\Exception\\OptionArray</title>
<a xlink:href="Exception.OptionArray.html" xlink:title="OptionArray" target="_parent">
<polygon fill="none" stroke="black" points="507.113,-978 418.887,-978 418.887,-942 507.113,-942 507.113,-978"/>
<text text-anchor="middle" x="463" y="-955.6" font-family="Courier,monospace" font-size="11.00">OptionArray</text>
</a>
</g>
<!-- \\Aura\\Cli\\Exception\\OptionArray&#45;&gt;\\Aura\\Cli\\Exception -->
<g id="edge8" class="edge"><title>\\Aura\\Cli\\Exception\\OptionArray&#45;&gt;\\Aura\\Cli\\Exception</title>
<path fill="none" stroke="black" d="M418.756,-947.993C407.121,-943.977 394.781,-938.971 384,-933 342.784,-910.172 301.502,-874.49 275.873,-850.45"/>
<polygon fill="none" stroke="black" points="278.1,-847.739 268.439,-843.39 273.28,-852.815 278.1,-847.739"/>
</g>
<!-- \\Aura\\Cli\\Exception\\OptionName -->
<g id="node6" class="node"><title>\\Aura\\Cli\\Exception\\OptionName</title>
<a xlink:href="Exception.OptionName.html" xlink:title="OptionName" target="_parent">
<polygon fill="none" stroke="black" points="504.011,-924 421.989,-924 421.989,-888 504.011,-888 504.011,-924"/>
<text text-anchor="middle" x="463" y="-901.6" font-family="Courier,monospace" font-size="11.00">OptionName</text>
</a>
</g>
<!-- \\Aura\\Cli\\Exception\\OptionName&#45;&gt;\\Aura\\Cli\\Exception -->
<g id="edge10" class="edge"><title>\\Aura\\Cli\\Exception\\OptionName&#45;&gt;\\Aura\\Cli\\Exception</title>
<path fill="none" stroke="black" d="M421.781,-892.507C409.599,-888.304 396.213,-883.571 384,-879 354.631,-868.007 321.987,-854.871 296.272,-844.308"/>
<polygon fill="none" stroke="black" points="297.356,-840.97 286.777,-840.396 294.689,-847.442 297.356,-840.97"/>
</g>
<!-- \\Aura\\Cli\\Exception\\OptionNotDefined -->
<g id="node7" class="node"><title>\\Aura\\Cli\\Exception\\OptionNotDefined</title>
<a xlink:href="Exception.OptionNotDefined.html" xlink:title="OptionNotDefined" target="_parent">
<polygon fill="none" stroke="black" points="523.618,-870 402.382,-870 402.382,-834 523.618,-834 523.618,-870"/>
<text text-anchor="middle" x="463" y="-847.6" font-family="Courier,monospace" font-size="11.00">OptionNotDefined</text>
</a>
</g>
<!-- \\Aura\\Cli\\Exception\\OptionNotDefined&#45;&gt;\\Aura\\Cli\\Exception -->
<g id="edge12" class="edge"><title>\\Aura\\Cli\\Exception\\OptionNotDefined&#45;&gt;\\Aura\\Cli\\Exception</title>
<path fill="none" stroke="black" d="M402.382,-844.407C369.043,-840.161 328.078,-834.944 297.021,-830.989"/>
<polygon fill="none" stroke="black" points="297.257,-827.49 286.894,-829.699 296.372,-834.434 297.257,-827.49"/>
</g>
<!-- \\Aura\\Cli\\Exception\\OptionNotMulti -->
<g id="node8" class="node"><title>\\Aura\\Cli\\Exception\\OptionNotMulti</title>
<a xlink:href="Exception.OptionNotMulti.html" xlink:title="OptionNotMulti" target="_parent">
<polygon fill="none" stroke="black" points="517.416,-816 408.584,-816 408.584,-780 517.416,-780 517.416,-816"/>
<text text-anchor="middle" x="463" y="-793.6" font-family="Courier,monospace" font-size="11.00">OptionNotMulti</text>
</a>
</g>
<!-- \\Aura\\Cli\\Exception\\OptionNotMulti&#45;&gt;\\Aura\\Cli\\Exception -->
<g id="edge14" class="edge"><title>\\Aura\\Cli\\Exception\\OptionNotMulti&#45;&gt;\\Aura\\Cli\\Exception</title>
<path fill="none" stroke="black" d="M408.777,-804.778C374.468,-809.148 330.254,-814.779 297.2,-818.989"/>
<polygon fill="none" stroke="black" points="296.365,-815.567 286.887,-820.302 297.249,-822.511 296.365,-815.567"/>
</g>
<!-- \\Aura\\Cli\\Exception\\OptionParam -->
<g id="node9" class="node"><title>\\Aura\\Cli\\Exception\\OptionParam</title>
<a xlink:href="Exception.OptionParam.html" xlink:title="OptionParam" target="_parent">
<polygon fill="none" stroke="black" points="507.113,-762 418.887,-762 418.887,-726 507.113,-726 507.113,-762"/>
<text text-anchor="middle" x="463" y="-739.6" font-family="Courier,monospace" font-size="11.00">OptionParam</text>
</a>
</g>
<!-- \\Aura\\Cli\\Exception\\OptionParam&#45;&gt;\\Aura\\Cli\\Exception -->
<g id="edge16" class="edge"><title>\\Aura\\Cli\\Exception\\OptionParam&#45;&gt;\\Aura\\Cli\\Exception</title>
<path fill="none" stroke="black" d="M418.542,-758.614C407.254,-762.527 395.139,-766.831 384,-771 354.631,-781.993 321.987,-795.129 296.272,-805.692"/>
<polygon fill="none" stroke="black" points="294.689,-802.558 286.777,-809.604 297.356,-809.03 294.689,-802.558"/>
</g>
<!-- \\Aura\\Cli\\Exception\\OptionParamRejected -->
<g id="node10" class="node"><title>\\Aura\\Cli\\Exception\\OptionParamRejected</title>
<a xlink:href="Exception.OptionParamRejected.html" xlink:title="OptionParamRejected" target="_parent">
<polygon fill="none" stroke="black" points="533.921,-708 392.079,-708 392.079,-672 533.921,-672 533.921,-708"/>
<text text-anchor="middle" x="463" y="-685.6" font-family="Courier,monospace" font-size="11.00">OptionParamRejected</text>
</a>
</g>
<!-- \\Aura\\Cli\\Exception\\OptionParamRejected&#45;&gt;\\Aura\\Cli\\Exception -->
<g id="edge18" class="edge"><title>\\Aura\\Cli\\Exception\\OptionParamRejected&#45;&gt;\\Aura\\Cli\\Exception</title>
<path fill="none" stroke="black" d="M402.703,-708.079C396.249,-710.762 389.892,-713.737 384,-717 342.784,-739.828 301.502,-775.51 275.873,-799.55"/>
<polygon fill="none" stroke="black" points="273.28,-797.185 268.439,-806.61 278.1,-802.261 273.28,-797.185"/>
</g>
<!-- \\Aura\\Cli\\Exception\\OptionParamRequired -->
<g id="node11" class="node"><title>\\Aura\\Cli\\Exception\\OptionParamRequired</title>
<a xlink:href="Exception.OptionParamRequired.html" xlink:title="OptionParamRequired" target="_parent">
<polygon fill="none" stroke="black" points="533.921,-654 392.079,-654 392.079,-618 533.921,-618 533.921,-654"/>
<text text-anchor="middle" x="463" y="-631.6" font-family="Courier,monospace" font-size="11.00">OptionParamRequired</text>
</a>
</g>
<!-- \\Aura\\Cli\\Exception\\OptionParamRequired&#45;&gt;\\Aura\\Cli\\Exception -->
<g id="edge20" class="edge"><title>\\Aura\\Cli\\Exception\\OptionParamRequired&#45;&gt;\\Aura\\Cli\\Exception</title>
<path fill="none" stroke="black" d="M399.576,-654.058C394.109,-656.683 388.828,-659.651 384,-663 331.28,-699.572 287.778,-762.305 265.694,-798.027"/>
<polygon fill="none" stroke="black" points="262.494,-796.553 260.295,-806.918 268.477,-800.187 262.494,-796.553"/>
</g>
<!-- \\Aura\\Cli\\AbstractCommand -->
<g id="node12" class="node"><title>\\Aura\\Cli\\AbstractCommand</title>
<a xlink:href="AbstractCommand.html" xlink:title="AbstractCommand" target="_parent">
<polygon fill="none" stroke="black" points="520.516,-600 405.484,-600 405.484,-564 520.516,-564 520.516,-600"/>
<text text-anchor="middle" x="463" y="-577.6" font-family="Courier,monospace" font-size="11.00">AbstractCommand</text>
</a>
</g>
<!-- \\Aura\\Cli\\Context -->
<g id="node13" class="node"><title>\\Aura\\Cli\\Context</title>
<a xlink:href="Context.html" xlink:title="Context" target="_parent">
<polygon fill="none" stroke="black" points="494.208,-546 431.792,-546 431.792,-510 494.208,-510 494.208,-546"/>
<text text-anchor="middle" x="463" y="-523.6" font-family="Courier,monospace" font-size="11.00">Context</text>
</a>
</g>
<!-- \\Exception -->
<g id="node36" class="node"><title>\\Exception</title>
<ellipse fill="none" stroke="black" cx="53" cy="-825" rx="52.7417" ry="18"/>
<text text-anchor="middle" x="53" y="-819.4" font-family="Times,serif" font-size="14.00" fill="gray">\Exception</text>
</g>
<!-- \\Aura\\Cli\\Exception&#45;&gt;\\Exception -->
<g id="edge22" class="edge"><title>\\Aura\\Cli\\Exception&#45;&gt;\\Exception</title>
<path fill="none" stroke="black" d="M211.053,-825C184.385,-825 147.733,-825 116.543,-825"/>
<polygon fill="none" stroke="black" points="116.198,-821.5 106.198,-825 116.198,-828.5 116.198,-821.5"/>
</g>
<!-- \\Aura\\Cli\\ExceptionFactory -->
<g id="node15" class="node"><title>\\Aura\\Cli\\ExceptionFactory</title>
<a xlink:href="ExceptionFactory.html" xlink:title="ExceptionFactory" target="_parent">
<polygon fill="none" stroke="black" points="523.618,-492 402.382,-492 402.382,-456 523.618,-456 523.618,-492"/>
<text text-anchor="middle" x="463" y="-469.6" font-family="Courier,monospace" font-size="11.00">ExceptionFactory</text>
</a>
</g>
<!-- \\Aura\\Cli\\Getopt -->
<g id="node16" class="node"><title>\\Aura\\Cli\\Getopt</title>
<a xlink:href="Getopt.html" xlink:title="Getopt" target="_parent">
<polygon fill="none" stroke="black" points="490.608,-438 435.392,-438 435.392,-402 490.608,-402 490.608,-438"/>
<text text-anchor="middle" x="463" y="-415.6" font-family="Courier,monospace" font-size="11.00">Getopt</text>
</a>
</g>
<!-- \\Aura\\Cli\\Option -->
<g id="node17" class="node"><title>\\Aura\\Cli\\Option</title>
<a xlink:href="Option.html" xlink:title="Option" target="_parent">
<polygon fill="none" stroke="black" points="490.608,-384 435.392,-384 435.392,-348 490.608,-348 490.608,-384"/>
<text text-anchor="middle" x="463" y="-361.6" font-family="Courier,monospace" font-size="11.00">Option</text>
</a>
</g>
<!-- \\Aura\\Cli\\OptionFactory -->
<g id="node18" class="node"><title>\\Aura\\Cli\\OptionFactory</title>
<a xlink:href="OptionFactory.html" xlink:title="OptionFactory" target="_parent">
<polygon fill="none" stroke="black" points="513.814,-330 412.186,-330 412.186,-294 513.814,-294 513.814,-330"/>
<text text-anchor="middle" x="463" y="-307.6" font-family="Courier,monospace" font-size="11.00">OptionFactory</text>
</a>
</g>
<!-- \\Aura\\Cli\\Signal -->
<g id="node19" class="node"><title>\\Aura\\Cli\\Signal</title>
<a xlink:href="Signal.html" xlink:title="Signal" target="_parent">
<polygon fill="none" stroke="black" points="490.608,-276 435.392,-276 435.392,-240 490.608,-240 490.608,-276"/>
<text text-anchor="middle" x="463" y="-253.6" font-family="Courier,monospace" font-size="11.00">Signal</text>
</a>
</g>
<!-- \\Aura\\Cli\\SignalInterface -->
<g id="node20" class="node"><title>\\Aura\\Cli\\SignalInterface</title>
<a xlink:href="SignalInterface.html" xlink:title="SignalInterface" target="_parent">
<polygon fill="none" stroke="black" points="306.516,-276 191.484,-276 191.484,-240 306.516,-240 306.516,-276"/>
<text text-anchor="middle" x="249" y="-253.6" font-family="Courier,monospace" font-size="11.00">SignalInterface</text>
</a>
</g>
<!-- \\Aura\\Cli\\Signal&#45;&gt;\\Aura\\Cli\\SignalInterface -->
<g id="edge24" class="edge"><title>\\Aura\\Cli\\Signal&#45;&gt;\\Aura\\Cli\\SignalInterface</title>
<path fill="none" stroke="black" stroke-dasharray="1,5" d="M435.15,-258C405.631,-258 357.086,-258 317.109,-258"/>
<polygon fill="none" stroke="black" points="316.882,-254.5 306.882,-258 316.882,-261.5 316.882,-254.5"/>
</g>
<!-- \\Aura\\Cli\\Stdio -->
<g id="node21" class="node"><title>\\Aura\\Cli\\Stdio</title>
<a xlink:href="Stdio.html" xlink:title="Stdio" target="_parent">
<polygon fill="none" stroke="black" points="490,-222 436,-222 436,-186 490,-186 490,-222"/>
<text text-anchor="middle" x="463" y="-199.6" font-family="Courier,monospace" font-size="11.00">Stdio</text>
</a>
</g>
<!-- \\Aura\\Cli\\StdioResource -->
<g id="node22" class="node"><title>\\Aura\\Cli\\StdioResource</title>
<a xlink:href="StdioResource.html" xlink:title="StdioResource" target="_parent">
<polygon fill="none" stroke="black" points="513.814,-168 412.186,-168 412.186,-132 513.814,-132 513.814,-168"/>
<text text-anchor="middle" x="463" y="-145.6" font-family="Courier,monospace" font-size="11.00">StdioResource</text>
</a>
</g>
<!-- \\Aura\\Cli\\Translator -->
<g id="node23" class="node"><title>\\Aura\\Cli\\Translator</title>
<a xlink:href="Translator.html" xlink:title="Translator" target="_parent">
<polygon fill="none" stroke="black" points="504.011,-114 421.989,-114 421.989,-78 504.011,-78 504.011,-114"/>
<text text-anchor="middle" x="463" y="-91.6" font-family="Courier,monospace" font-size="11.00">Translator</text>
</a>
</g>
<!-- \\Aura\\Cli\\TranslatorInterface -->
<g id="node24" class="node"><title>\\Aura\\Cli\\TranslatorInterface</title>
<a xlink:href="TranslatorInterface.html" xlink:title="TranslatorInterface" target="_parent">
<polygon fill="none" stroke="black" points="319.921,-114 178.079,-114 178.079,-78 319.921,-78 319.921,-114"/>
<text text-anchor="middle" x="249" y="-91.6" font-family="Courier,monospace" font-size="11.00">TranslatorInterface</text>
</a>
</g>
<!-- \\Aura\\Cli\\Translator&#45;&gt;\\Aura\\Cli\\TranslatorInterface -->
<g id="edge26" class="edge"><title>\\Aura\\Cli\\Translator&#45;&gt;\\Aura\\Cli\\TranslatorInterface</title>
<path fill="none" stroke="black" stroke-dasharray="1,5" d="M421.625,-96C395.717,-96 361.185,-96 329.89,-96"/>
<polygon fill="none" stroke="black" points="329.858,-92.5001 319.858,-96 329.858,-99.5001 329.858,-92.5001"/>
</g>
<!-- \\Aura\\Cli\\Vt100 -->
<g id="node25" class="node"><title>\\Aura\\Cli\\Vt100</title>
<a xlink:href="Vt100.html" xlink:title="Vt100" target="_parent">
<polygon fill="none" stroke="black" points="490,-60 436,-60 436,-24 490,-24 490,-60"/>
<text text-anchor="middle" x="463" y="-37.6" font-family="Courier,monospace" font-size="11.00">Vt100</text>
</a>
</g>
</g>
</svg>
