<?xml version="1.0" encoding="UTF-8" standalone="no"?>
<!DOCTYPE svg PUBLIC "-//W3C//DTD SVG 1.1//EN"
 "http://www.w3.org/Graphics/SVG/1.1/DTD/svg11.dtd">
<!-- Generated by graphviz version 2.28.0 (20111028.1807)
 -->
<!-- Title: G Pages: 1 -->
<svg width="956pt" height="1901pt"
 viewBox="0.00 0.00 956.00 1901.00" xmlns="http://www.w3.org/2000/svg" xmlns:xlink="http://www.w3.org/1999/xlink">
<g id="graph1" class="graph" transform="scale(1 1) rotate(0) translate(4 1897)">
<title>G</title>
<polygon fill="white" stroke="white" points="-4,5 -4,-1897 953,-1897 953,5 -4,5"/>
<g id="graph2" class="cluster"><title>cluster_Aura</title>
<polyline fill="none" stroke="gray" points="464,-206 928,-206 "/>
<path fill="none" stroke="gray" d="M928,-206C934,-206 940,-212 940,-218"/>
<polyline fill="none" stroke="gray" points="940,-218 940,-1873 "/>
<path fill="none" stroke="gray" d="M940,-1873C940,-1879 934,-1885 928,-1885"/>
<polyline fill="none" stroke="gray" points="928,-1885 464,-1885 "/>
<path fill="none" stroke="gray" d="M464,-1885C458,-1885 452,-1879 452,-1873"/>
<polyline fill="none" stroke="gray" points="452,-1873 452,-218 "/>
<path fill="none" stroke="gray" d="M452,-218C452,-212 458,-206 464,-206"/>
<text text-anchor="middle" x="696" y="-1870" font-family="Times,serif" font-size="11.00" fill="gray">Aura</text>
</g>
<g id="graph3" class="cluster"><title>cluster_Aura\Framework</title>
<polyline fill="none" stroke="gray" points="472,-214 920,-214 "/>
<path fill="none" stroke="gray" d="M920,-214C926,-214 932,-220 932,-226"/>
<polyline fill="none" stroke="gray" points="932,-226 932,-1844 "/>
<path fill="none" stroke="gray" d="M932,-1844C932,-1850 926,-1856 920,-1856"/>
<polyline fill="none" stroke="gray" points="920,-1856 472,-1856 "/>
<path fill="none" stroke="gray" d="M472,-1856C466,-1856 460,-1850 460,-1844"/>
<polyline fill="none" stroke="gray" points="460,-1844 460,-226 "/>
<path fill="none" stroke="gray" d="M460,-226C460,-220 466,-214 472,-214"/>
<text text-anchor="middle" x="696" y="-1841" font-family="Times,serif" font-size="11.00" fill="gray">Framework</text>
</g>
<g id="graph4" class="cluster"><title>cluster_Aura\Framework\Cli</title>
<polyline fill="none" stroke="gray" points="480,-1393 881,-1393 "/>
<path fill="none" stroke="gray" d="M881,-1393C887,-1393 893,-1399 893,-1405"/>
<polyline fill="none" stroke="gray" points="893,-1405 893,-1815 "/>
<path fill="none" stroke="gray" d="M893,-1815C893,-1821 887,-1827 881,-1827"/>
<polyline fill="none" stroke="gray" points="881,-1827 480,-1827 "/>
<path fill="none" stroke="gray" d="M480,-1827C474,-1827 468,-1821 468,-1815"/>
<polyline fill="none" stroke="gray" points="468,-1815 468,-1405 "/>
<path fill="none" stroke="gray" d="M468,-1405C468,-1399 474,-1393 480,-1393"/>
<text text-anchor="middle" x="680.5" y="-1812" font-family="Times,serif" font-size="11.00" fill="gray">Cli</text>
</g>
<g id="graph5" class="cluster"><title>cluster_Aura\Framework\Cli\CacheClassmap</title>
<polyline fill="none" stroke="gray" points="811,-1725 873,-1725 "/>
<path fill="none" stroke="gray" d="M873,-1725C879,-1725 885,-1731 885,-1737"/>
<polyline fill="none" stroke="gray" points="885,-1737 885,-1786 "/>
<path fill="none" stroke="gray" d="M885,-1786C885,-1792 879,-1798 873,-1798"/>
<polyline fill="none" stroke="gray" points="873,-1798 811,-1798 "/>
<path fill="none" stroke="gray" d="M811,-1798C805,-1798 799,-1792 799,-1786"/>
<polyline fill="none" stroke="gray" points="799,-1786 799,-1737 "/>
<path fill="none" stroke="gray" d="M799,-1737C799,-1731 805,-1725 811,-1725"/>
<text text-anchor="middle" x="842" y="-1783" font-family="Times,serif" font-size="11.00" fill="gray">CacheClassmap</text>
</g>
<g id="graph6" class="cluster"><title>cluster_Aura\Framework\Cli\CacheConfig</title>
<polyline fill="none" stroke="gray" points="815,-1644 869,-1644 "/>
<path fill="none" stroke="gray" d="M869,-1644C875,-1644 881,-1650 881,-1656"/>
<polyline fill="none" stroke="gray" points="881,-1656 881,-1705 "/>
<path fill="none" stroke="gray" d="M881,-1705C881,-1711 875,-1717 869,-1717"/>
<polyline fill="none" stroke="gray" points="869,-1717 815,-1717 "/>
<path fill="none" stroke="gray" d="M815,-1717C809,-1717 803,-1711 803,-1705"/>
<polyline fill="none" stroke="gray" points="803,-1705 803,-1656 "/>
<path fill="none" stroke="gray" d="M803,-1656C803,-1650 809,-1644 815,-1644"/>
<text text-anchor="middle" x="842" y="-1702" font-family="Times,serif" font-size="11.00" fill="gray">CacheConfig</text>
</g>
<g id="graph7" class="cluster"><title>cluster_Aura\Framework\Cli\HelloWorld</title>
<polyline fill="none" stroke="gray" points="815,-1563 869,-1563 "/>
<path fill="none" stroke="gray" d="M869,-1563C875,-1563 881,-1569 881,-1575"/>
<polyline fill="none" stroke="gray" points="881,-1575 881,-1624 "/>
<path fill="none" stroke="gray" d="M881,-1624C881,-1630 875,-1636 869,-1636"/>
<polyline fill="none" stroke="gray" points="869,-1636 815,-1636 "/>
<path fill="none" stroke="gray" d="M815,-1636C809,-1636 803,-1630 803,-1624"/>
<polyline fill="none" stroke="gray" points="803,-1624 803,-1575 "/>
<path fill="none" stroke="gray" d="M803,-1575C803,-1569 809,-1563 815,-1563"/>
<text text-anchor="middle" x="842" y="-1621" font-family="Times,serif" font-size="11.00" fill="gray">HelloWorld</text>
</g>
<g id="graph8" class="cluster"><title>cluster_Aura\Framework\Cli\MakeTest</title>
<polyline fill="none" stroke="gray" points="815,-1482 869,-1482 "/>
<path fill="none" stroke="gray" d="M869,-1482C875,-1482 881,-1488 881,-1494"/>
<polyline fill="none" stroke="gray" points="881,-1494 881,-1543 "/>
<path fill="none" stroke="gray" d="M881,-1543C881,-1549 875,-1555 869,-1555"/>
<polyline fill="none" stroke="gray" points="869,-1555 815,-1555 "/>
<path fill="none" stroke="gray" d="M815,-1555C809,-1555 803,-1549 803,-1543"/>
<polyline fill="none" stroke="gray" points="803,-1543 803,-1494 "/>
<path fill="none" stroke="gray" d="M803,-1494C803,-1488 809,-1482 815,-1482"/>
<text text-anchor="middle" x="842" y="-1540" font-family="Times,serif" font-size="11.00" fill="gray">MakeTest</text>
</g>
<g id="graph9" class="cluster"><title>cluster_Aura\Framework\Cli\Server</title>
<polyline fill="none" stroke="gray" points="815,-1401 869,-1401 "/>
<path fill="none" stroke="gray" d="M869,-1401C875,-1401 881,-1407 881,-1413"/>
<polyline fill="none" stroke="gray" points="881,-1413 881,-1462 "/>
<path fill="none" stroke="gray" d="M881,-1462C881,-1468 875,-1474 869,-1474"/>
<polyline fill="none" stroke="gray" points="869,-1474 815,-1474 "/>
<path fill="none" stroke="gray" d="M815,-1474C809,-1474 803,-1468 803,-1462"/>
<polyline fill="none" stroke="gray" points="803,-1462 803,-1413 "/>
<path fill="none" stroke="gray" d="M803,-1413C803,-1407 809,-1401 815,-1401"/>
<text text-anchor="middle" x="842" y="-1459" font-family="Times,serif" font-size="11.00" fill="gray">Server</text>
</g>
<g id="graph15" class="cluster"><title>cluster_Aura\Framework\Exception</title>
<polyline fill="none" stroke="gray" points="772,-681 912,-681 "/>
<path fill="none" stroke="gray" d="M912,-681C918,-681 924,-687 924,-693"/>
<polyline fill="none" stroke="gray" points="924,-693 924,-1012 "/>
<path fill="none" stroke="gray" d="M924,-1012C924,-1018 918,-1024 912,-1024"/>
<polyline fill="none" stroke="gray" points="912,-1024 772,-1024 "/>
<path fill="none" stroke="gray" d="M772,-1024C766,-1024 760,-1018 760,-1012"/>
<polyline fill="none" stroke="gray" points="760,-1012 760,-693 "/>
<path fill="none" stroke="gray" d="M760,-693C760,-687 766,-681 772,-681"/>
<text text-anchor="middle" x="842" y="-1009" font-family="Times,serif" font-size="11.00" fill="gray">Exception</text>
</g>
<g id="graph16" class="cluster"><title>cluster_Aura\Framework\Signal</title>
<polyline fill="none" stroke="gray" points="815,-600 869,-600 "/>
<path fill="none" stroke="gray" d="M869,-600C875,-600 881,-606 881,-612"/>
<polyline fill="none" stroke="gray" points="881,-612 881,-661 "/>
<path fill="none" stroke="gray" d="M881,-661C881,-667 875,-673 869,-673"/>
<polyline fill="none" stroke="gray" points="869,-673 815,-673 "/>
<path fill="none" stroke="gray" d="M815,-673C809,-673 803,-667 803,-661"/>
<polyline fill="none" stroke="gray" points="803,-661 803,-612 "/>
<path fill="none" stroke="gray" d="M803,-612C803,-606 809,-600 815,-600"/>
<text text-anchor="middle" x="842" y="-658" font-family="Times,serif" font-size="11.00" fill="gray">Signal</text>
</g>
<g id="graph17" class="cluster"><title>cluster_Aura\Framework\View</title>
<polyline fill="none" stroke="gray" points="800,-428 884,-428 "/>
<path fill="none" stroke="gray" d="M884,-428C890,-428 896,-434 896,-440"/>
<polyline fill="none" stroke="gray" points="896,-440 896,-580 "/>
<path fill="none" stroke="gray" d="M896,-580C896,-586 890,-592 884,-592"/>
<polyline fill="none" stroke="gray" points="884,-592 800,-592 "/>
<path fill="none" stroke="gray" d="M800,-592C794,-592 788,-586 788,-580"/>
<polyline fill="none" stroke="gray" points="788,-580 788,-440 "/>
<path fill="none" stroke="gray" d="M788,-440C788,-434 794,-428 800,-428"/>
<text text-anchor="middle" x="842" y="-577" font-family="Times,serif" font-size="11.00" fill="gray">View</text>
</g>
<g id="graph18" class="cluster"><title>cluster_Aura\Framework\View\Helper</title>
<polyline fill="none" stroke="gray" points="808,-436 876,-436 "/>
<path fill="none" stroke="gray" d="M876,-436C882,-436 888,-442 888,-448"/>
<polyline fill="none" stroke="gray" points="888,-448 888,-551 "/>
<path fill="none" stroke="gray" d="M888,-551C888,-557 882,-563 876,-563"/>
<polyline fill="none" stroke="gray" points="876,-563 808,-563 "/>
<path fill="none" stroke="gray" d="M808,-563C802,-563 796,-557 796,-551"/>
<polyline fill="none" stroke="gray" points="796,-551 796,-448 "/>
<path fill="none" stroke="gray" d="M796,-448C796,-442 802,-436 808,-436"/>
<text text-anchor="middle" x="842" y="-548" font-family="Times,serif" font-size="11.00" fill="gray">Helper</text>
</g>
<g id="graph20" class="cluster"><title>cluster_Aura\Framework\Web</title>
<polyline fill="none" stroke="gray" points="482,-1032 904,-1032 "/>
<path fill="none" stroke="gray" d="M904,-1032C910,-1032 916,-1038 916,-1044"/>
<polyline fill="none" stroke="gray" points="916,-1044 916,-1373 "/>
<path fill="none" stroke="gray" d="M916,-1373C916,-1379 910,-1385 904,-1385"/>
<polyline fill="none" stroke="gray" points="904,-1385 482,-1385 "/>
<path fill="none" stroke="gray" d="M482,-1385C476,-1385 470,-1379 470,-1373"/>
<polyline fill="none" stroke="gray" points="470,-1373 470,-1044 "/>
<path fill="none" stroke="gray" d="M470,-1044C470,-1038 476,-1032 482,-1032"/>
<text text-anchor="middle" x="693" y="-1370" font-family="Times,serif" font-size="11.00" fill="gray">Web</text>
</g>
<g id="graph21" class="cluster"><title>cluster_Aura\Framework\Web\Asset</title>
<polyline fill="none" stroke="gray" points="819,-1121 865,-1121 "/>
<path fill="none" stroke="gray" d="M865,-1121C871,-1121 877,-1127 877,-1133"/>
<polyline fill="none" stroke="gray" points="877,-1133 877,-1182 "/>
<path fill="none" stroke="gray" d="M877,-1182C877,-1188 871,-1194 865,-1194"/>
<polyline fill="none" stroke="gray" points="865,-1194 819,-1194 "/>
<path fill="none" stroke="gray" d="M819,-1194C813,-1194 807,-1188 807,-1182"/>
<polyline fill="none" stroke="gray" points="807,-1182 807,-1133 "/>
<path fill="none" stroke="gray" d="M807,-1133C807,-1127 813,-1121 819,-1121"/>
<text text-anchor="middle" x="842" y="-1179" font-family="Times,serif" font-size="11.00" fill="gray">Asset</text>
</g>
<g id="graph22" class="cluster"><title>cluster_Aura\Framework\Web\Controller</title>
<polyline fill="none" stroke="gray" points="490,-1094 578,-1094 "/>
<path fill="none" stroke="gray" d="M578,-1094C584,-1094 590,-1100 590,-1106"/>
<polyline fill="none" stroke="gray" points="590,-1106 590,-1263 "/>
<path fill="none" stroke="gray" d="M590,-1263C590,-1269 584,-1275 578,-1275"/>
<polyline fill="none" stroke="gray" points="578,-1275 490,-1275 "/>
<path fill="none" stroke="gray" d="M490,-1275C484,-1275 478,-1269 478,-1263"/>
<polyline fill="none" stroke="gray" points="478,-1263 478,-1106 "/>
<path fill="none" stroke="gray" d="M478,-1106C478,-1100 484,-1094 490,-1094"/>
<text text-anchor="middle" x="534" y="-1260" font-family="Times,serif" font-size="11.00" fill="gray">Controller</text>
</g>
<g id="graph23" class="cluster"><title>cluster_Aura\Framework\Web\Hello</title>
<polyline fill="none" stroke="gray" points="819,-1283 865,-1283 "/>
<path fill="none" stroke="gray" d="M865,-1283C871,-1283 877,-1289 877,-1295"/>
<polyline fill="none" stroke="gray" points="877,-1295 877,-1344 "/>
<path fill="none" stroke="gray" d="M877,-1344C877,-1350 871,-1356 865,-1356"/>
<polyline fill="none" stroke="gray" points="865,-1356 819,-1356 "/>
<path fill="none" stroke="gray" d="M819,-1356C813,-1356 807,-1350 807,-1344"/>
<polyline fill="none" stroke="gray" points="807,-1344 807,-1295 "/>
<path fill="none" stroke="gray" d="M807,-1295C807,-1289 813,-1283 819,-1283"/>
<text text-anchor="middle" x="842" y="-1341" font-family="Times,serif" font-size="11.00" fill="gray">Hello</text>
</g>
<g id="graph24" class="cluster"><title>cluster_Aura\Framework\Web\NotFound</title>
<polyline fill="none" stroke="gray" points="819,-1202 865,-1202 "/>
<path fill="none" stroke="gray" d="M865,-1202C871,-1202 877,-1208 877,-1214"/>
<polyline fill="none" stroke="gray" points="877,-1214 877,-1263 "/>
<path fill="none" stroke="gray" d="M877,-1263C877,-1269 871,-1275 865,-1275"/>
<polyline fill="none" stroke="gray" points="865,-1275 819,-1275 "/>
<path fill="none" stroke="gray" d="M819,-1275C813,-1275 807,-1269 807,-1263"/>
<polyline fill="none" stroke="gray" points="807,-1263 807,-1214 "/>
<path fill="none" stroke="gray" d="M807,-1214C807,-1208 813,-1202 819,-1202"/>
<text text-anchor="middle" x="842" y="-1260" font-family="Times,serif" font-size="11.00" fill="gray">NotFound</text>
</g>
<g id="graph25" class="cluster"><title>cluster_Aura\Framework\Web\Renderer</title>
<polyline fill="none" stroke="gray" points="788,-1040 896,-1040 "/>
<path fill="none" stroke="gray" d="M896,-1040C902,-1040 908,-1046 908,-1052"/>
<polyline fill="none" stroke="gray" points="908,-1052 908,-1101 "/>
<path fill="none" stroke="gray" d="M908,-1101C908,-1107 902,-1113 896,-1113"/>
<polyline fill="none" stroke="gray" points="896,-1113 788,-1113 "/>
<path fill="none" stroke="gray" d="M788,-1113C782,-1113 776,-1107 776,-1101"/>
<polyline fill="none" stroke="gray" points="776,-1101 776,-1052 "/>
<path fill="none" stroke="gray" d="M776,-1052C776,-1046 782,-1040 788,-1040"/>
<text text-anchor="middle" x="842" y="-1098" font-family="Times,serif" font-size="11.00" fill="gray">Renderer</text>
</g>
<!-- \\Aura\\Framework\\Cli\\CacheClassmap\\Command -->
<g id="node5" class="node"><title>\\Aura\\Framework\\Cli\\CacheClassmap\\Command</title>
<a xlink:href="Cli.CacheClassmap.Command.html" xlink:title="Command" target="_parent">
<polygon fill="none" stroke="black" points="873.208,-1769 810.792,-1769 810.792,-1733 873.208,-1733 873.208,-1769"/>
<text text-anchor="middle" x="842" y="-1746.6" font-family="Courier,monospace" font-size="11.00">Command</text>
</a>
</g>
<!-- \\Aura\\Framework\\Cli\\AbstractCommand -->
<g id="node14" class="node"><title>\\Aura\\Framework\\Cli\\AbstractCommand</title>
<a xlink:href="Cli.AbstractCommand.html" xlink:title="AbstractCommand" target="_parent">
<polygon fill="none" stroke="black" points="591.516,-1607 476.484,-1607 476.484,-1571 591.516,-1571 591.516,-1607"/>
<text text-anchor="middle" x="534" y="-1584.6" font-family="Courier,monospace" font-size="11.00">AbstractCommand</text>
</a>
</g>
<!-- \\Aura\\Framework\\Cli\\CacheClassmap\\Command&#45;&gt;\\Aura\\Framework\\Cli\\AbstractCommand -->
<g id="edge60" class="edge"><title>\\Aura\\Framework\\Cli\\CacheClassmap\\Command&#45;&gt;\\Aura\\Framework\\Cli\\AbstractCommand</title>
<path fill="none" stroke="black" d="M810.86,-1741.25C795.389,-1735.9 776.396,-1728.77 760,-1721 690.51,-1688.06 614.215,-1640.75 570.714,-1612.62"/>
<polygon fill="none" stroke="black" points="572.496,-1609.6 562.203,-1607.09 568.682,-1615.47 572.496,-1609.6"/>
</g>
<!-- \\Aura\\Framework\\Cli\\CacheConfig\\Command -->
<g id="node7" class="node"><title>\\Aura\\Framework\\Cli\\CacheConfig\\Command</title>
<a xlink:href="Cli.CacheConfig.Command.html" xlink:title="Command" target="_parent">
<polygon fill="none" stroke="black" points="873.208,-1688 810.792,-1688 810.792,-1652 873.208,-1652 873.208,-1688"/>
<text text-anchor="middle" x="842" y="-1665.6" font-family="Courier,monospace" font-size="11.00">Command</text>
</a>
</g>
<!-- \\Aura\\Framework\\Cli\\CacheConfig\\Command&#45;&gt;\\Aura\\Framework\\Cli\\AbstractCommand -->
<g id="edge62" class="edge"><title>\\Aura\\Framework\\Cli\\CacheConfig\\Command&#45;&gt;\\Aura\\Framework\\Cli\\AbstractCommand</title>
<path fill="none" stroke="black" d="M810.822,-1662.01C762.419,-1649.2 666.281,-1623.75 601.296,-1606.55"/>
<polygon fill="none" stroke="black" points="602.108,-1603.14 591.545,-1603.97 600.316,-1609.91 602.108,-1603.14"/>
</g>
<!-- \\Aura\\Framework\\Cli\\HelloWorld\\Command -->
<g id="node9" class="node"><title>\\Aura\\Framework\\Cli\\HelloWorld\\Command</title>
<a xlink:href="Cli.HelloWorld.Command.html" xlink:title="Command" target="_parent">
<polygon fill="none" stroke="black" points="873.208,-1607 810.792,-1607 810.792,-1571 873.208,-1571 873.208,-1607"/>
<text text-anchor="middle" x="842" y="-1584.6" font-family="Courier,monospace" font-size="11.00">Command</text>
</a>
</g>
<!-- \\Aura\\Framework\\Cli\\HelloWorld\\Command&#45;&gt;\\Aura\\Framework\\Cli\\AbstractCommand -->
<g id="edge64" class="edge"><title>\\Aura\\Framework\\Cli\\HelloWorld\\Command&#45;&gt;\\Aura\\Framework\\Cli\\AbstractCommand</title>
<path fill="none" stroke="black" d="M810.822,-1589C762.518,-1589 666.676,-1589 601.697,-1589"/>
<polygon fill="none" stroke="black" points="601.545,-1585.5 591.545,-1589 601.545,-1592.5 601.545,-1585.5"/>
</g>
<!-- \\Aura\\Framework\\Cli\\MakeTest\\Command -->
<g id="node11" class="node"><title>\\Aura\\Framework\\Cli\\MakeTest\\Command</title>
<a xlink:href="Cli.MakeTest.Command.html" xlink:title="Command" target="_parent">
<polygon fill="none" stroke="black" points="873.208,-1526 810.792,-1526 810.792,-1490 873.208,-1490 873.208,-1526"/>
<text text-anchor="middle" x="842" y="-1503.6" font-family="Courier,monospace" font-size="11.00">Command</text>
</a>
</g>
<!-- \\Aura\\Framework\\Cli\\MakeTest\\Command&#45;&gt;\\Aura\\Framework\\Cli\\AbstractCommand -->
<g id="edge66" class="edge"><title>\\Aura\\Framework\\Cli\\MakeTest\\Command&#45;&gt;\\Aura\\Framework\\Cli\\AbstractCommand</title>
<path fill="none" stroke="black" d="M810.822,-1515.99C762.419,-1528.8 666.281,-1554.25 601.296,-1571.45"/>
<polygon fill="none" stroke="black" points="600.316,-1568.09 591.545,-1574.03 602.108,-1574.86 600.316,-1568.09"/>
</g>
<!-- \\Aura\\Framework\\Cli\\Server\\Command -->
<g id="node13" class="node"><title>\\Aura\\Framework\\Cli\\Server\\Command</title>
<a xlink:href="Cli.Server.Command.html" xlink:title="Command" target="_parent">
<polygon fill="none" stroke="black" points="873.208,-1445 810.792,-1445 810.792,-1409 873.208,-1409 873.208,-1445"/>
<text text-anchor="middle" x="842" y="-1422.6" font-family="Courier,monospace" font-size="11.00">Command</text>
</a>
</g>
<!-- \\Aura\\Framework\\Cli\\Server\\Command&#45;&gt;\\Aura\\Framework\\Cli\\AbstractCommand -->
<g id="edge68" class="edge"><title>\\Aura\\Framework\\Cli\\Server\\Command&#45;&gt;\\Aura\\Framework\\Cli\\AbstractCommand</title>
<path fill="none" stroke="black" d="M810.822,-1442.98C756.212,-1471.89 640.839,-1532.97 577.998,-1566.24"/>
<polygon fill="none" stroke="black" points="576.322,-1563.16 569.121,-1570.94 579.597,-1569.35 576.322,-1563.16"/>
</g>
<!-- \\Aura\\Cli\\AbstractCommand -->
<g id="node85" class="node"><title>\\Aura\\Cli\\AbstractCommand</title>
<ellipse fill="none" stroke="black" cx="150" cy="-1589" rx="123.295" ry="18"/>
<text text-anchor="middle" x="150" y="-1583.4" font-family="Times,serif" font-size="14.00" fill="gray">\Aura\Cli\AbstractCommand</text>
</g>
<!-- \\Aura\\Framework\\Cli\\AbstractCommand&#45;&gt;\\Aura\\Cli\\AbstractCommand -->
<g id="edge58" class="edge"><title>\\Aura\\Framework\\Cli\\AbstractCommand&#45;&gt;\\Aura\\Cli\\AbstractCommand</title>
<path fill="none" stroke="black" d="M476.223,-1589C425.516,-1589 349.287,-1589 283.373,-1589"/>
<polygon fill="none" stroke="black" points="283.308,-1585.5 273.308,-1589 283.308,-1592.5 283.308,-1585.5"/>
</g>
<!-- \\Aura\\Framework\\Exception\\NoClassForController -->
<g id="node21" class="node"><title>\\Aura\\Framework\\Exception\\NoClassForController</title>
<a xlink:href="Exception.NoClassForController.html" xlink:title="NoClassForController" target="_parent">
<polygon fill="none" stroke="black" points="916.021,-887 767.979,-887 767.979,-851 916.021,-851 916.021,-887"/>
<text text-anchor="middle" x="842" y="-864.6" font-family="Courier,monospace" font-size="11.00">NoClassForController</text>
</a>
</g>
<!-- \\Aura\\Framework\\Exception -->
<g id="node54" class="node"><title>\\Aura\\Framework\\Exception</title>
<a xlink:href="Exception.html" xlink:title="Exception" target="_parent">
<polygon fill="none" stroke="black" points="571.911,-860 496.089,-860 496.089,-824 571.911,-824 571.911,-860"/>
<text text-anchor="middle" x="534" y="-837.6" font-family="Courier,monospace" font-size="11.00">Exception</text>
</a>
</g>
<!-- \\Aura\\Framework\\Exception\\NoClassForController&#45;&gt;\\Aura\\Framework\\Exception -->
<g id="edge70" class="edge"><title>\\Aura\\Framework\\Exception\\NoClassForController&#45;&gt;\\Aura\\Framework\\Exception</title>
<path fill="none" stroke="black" d="M767.705,-862.533C710.096,-857.45 631.569,-850.521 582.078,-846.154"/>
<polygon fill="none" stroke="black" points="582.245,-842.655 571.976,-845.263 581.63,-849.628 582.245,-842.655"/>
</g>
<!-- \\Aura\\Framework\\Exception\\SourceNotFound -->
<g id="node22" class="node"><title>\\Aura\\Framework\\Exception\\SourceNotFound</title>
<a xlink:href="Exception.SourceNotFound.html" xlink:title="SourceNotFound" target="_parent">
<polygon fill="none" stroke="black" points="896.416,-833 787.584,-833 787.584,-797 896.416,-797 896.416,-833"/>
<text text-anchor="middle" x="842" y="-810.6" font-family="Courier,monospace" font-size="11.00">SourceNotFound</text>
</a>
</g>
<!-- \\Aura\\Framework\\Exception\\SourceNotFound&#45;&gt;\\Aura\\Framework\\Exception -->
<g id="edge72" class="edge"><title>\\Aura\\Framework\\Exception\\SourceNotFound&#45;&gt;\\Aura\\Framework\\Exception</title>
<path fill="none" stroke="black" d="M787.699,-819.703C729.627,-824.827 637.614,-832.946 582.103,-837.844"/>
<polygon fill="none" stroke="black" points="581.498,-834.384 571.844,-838.749 582.113,-841.356 581.498,-834.384"/>
</g>
<!-- \\Aura\\Framework\\Exception\\TestFileExists -->
<g id="node23" class="node"><title>\\Aura\\Framework\\Exception\\TestFileExists</title>
<a xlink:href="Exception.TestFileExists.html" xlink:title="TestFileExists" target="_parent">
<polygon fill="none" stroke="black" points="896.416,-779 787.584,-779 787.584,-743 896.416,-743 896.416,-779"/>
<text text-anchor="middle" x="842" y="-756.6" font-family="Courier,monospace" font-size="11.00">TestFileExists</text>
</a>
</g>
<!-- \\Aura\\Framework\\Exception\\TestFileExists&#45;&gt;\\Aura\\Framework\\Exception -->
<g id="edge74" class="edge"><title>\\Aura\\Framework\\Exception\\TestFileExists&#45;&gt;\\Aura\\Framework\\Exception</title>
<path fill="none" stroke="black" d="M787.447,-777.655C778.21,-780.867 768.765,-784.37 760,-788 730.619,-800.17 726.384,-810.61 696,-820 658.667,-831.537 614.601,-837.03 582.017,-839.642"/>
<polygon fill="none" stroke="black" points="581.579,-836.165 571.864,-840.393 582.095,-843.146 581.579,-836.165"/>
</g>
<!-- \\Aura\\Framework\\Exception\\TestFileNotCreated -->
<g id="node24" class="node"><title>\\Aura\\Framework\\Exception\\TestFileNotCreated</title>
<a xlink:href="Exception.TestFileNotCreated.html" xlink:title="TestFileNotCreated" target="_parent">
<polygon fill="none" stroke="black" points="909.319,-725 774.681,-725 774.681,-689 909.319,-689 909.319,-725"/>
<text text-anchor="middle" x="842" y="-702.6" font-family="Courier,monospace" font-size="11.00">TestFileNotCreated</text>
</a>
</g>
<!-- \\Aura\\Framework\\Exception\\TestFileNotCreated&#45;&gt;\\Aura\\Framework\\Exception -->
<g id="edge76" class="edge"><title>\\Aura\\Framework\\Exception\\TestFileNotCreated&#45;&gt;\\Aura\\Framework\\Exception</title>
<path fill="none" stroke="black" d="M775.163,-725.006C769.82,-727.628 764.684,-730.611 760,-734 721.401,-761.93 737.026,-795.774 696,-820 661.547,-840.345 615.853,-844.9 581.948,-844.915"/>
<polygon fill="none" stroke="black" points="581.873,-841.414 571.829,-844.787 581.784,-848.414 581.873,-841.414"/>
</g>
<!-- \\Aura\\Framework\\Exception\\TestFileNotFound -->
<g id="node25" class="node"><title>\\Aura\\Framework\\Exception\\TestFileNotFound</title>
<a xlink:href="Exception.TestFileNotFound.html" xlink:title="TestFileNotFound" target="_parent">
<polygon fill="none" stroke="black" points="902.618,-995 781.382,-995 781.382,-959 902.618,-959 902.618,-995"/>
<text text-anchor="middle" x="842" y="-972.6" font-family="Courier,monospace" font-size="11.00">TestFileNotFound</text>
</a>
</g>
<!-- \\Aura\\Framework\\Exception\\TestFileNotFound&#45;&gt;\\Aura\\Framework\\Exception -->
<g id="edge78" class="edge"><title>\\Aura\\Framework\\Exception\\TestFileNotFound&#45;&gt;\\Aura\\Framework\\Exception</title>
<path fill="none" stroke="black" d="M783.586,-958.861C775.606,-956.05 767.557,-953.059 760,-950 695.319,-923.817 622.975,-887.836 578.206,-864.747"/>
<polygon fill="none" stroke="black" points="579.574,-861.513 569.084,-860.023 576.355,-867.73 579.574,-861.513"/>
</g>
<!-- \\Aura\\Framework\\Exception\\TestFileNotMoved -->
<g id="node26" class="node"><title>\\Aura\\Framework\\Exception\\TestFileNotMoved</title>
<a xlink:href="Exception.TestFileNotMoved.html" xlink:title="TestFileNotMoved" target="_parent">
<polygon fill="none" stroke="black" points="902.618,-941 781.382,-941 781.382,-905 902.618,-905 902.618,-941"/>
<text text-anchor="middle" x="842" y="-918.6" font-family="Courier,monospace" font-size="11.00">TestFileNotMoved</text>
</a>
</g>
<!-- \\Aura\\Framework\\Exception\\TestFileNotMoved&#45;&gt;\\Aura\\Framework\\Exception -->
<g id="edge80" class="edge"><title>\\Aura\\Framework\\Exception\\TestFileNotMoved&#45;&gt;\\Aura\\Framework\\Exception</title>
<path fill="none" stroke="black" d="M781.274,-907.19C722.941,-891.749 635.356,-868.565 581.873,-854.408"/>
<polygon fill="none" stroke="black" points="582.537,-850.963 571.974,-851.787 580.745,-857.73 582.537,-850.963"/>
</g>
<!-- \\Aura\\Framework\\Signal\\Manager -->
<g id="node28" class="node"><title>\\Aura\\Framework\\Signal\\Manager</title>
<a xlink:href="Signal.Manager.html" xlink:title="Manager" target="_parent">
<polygon fill="none" stroke="black" points="873.208,-644 810.792,-644 810.792,-608 873.208,-608 873.208,-644"/>
<text text-anchor="middle" x="842" y="-621.6" font-family="Courier,monospace" font-size="11.00">Manager</text>
</a>
</g>
<!-- \\Aura\\Signal\\Manager -->
<g id="node100" class="node"><title>\\Aura\\Signal\\Manager</title>
<ellipse fill="none" stroke="black" cx="534" cy="-126" rx="97.2759" ry="18"/>
<text text-anchor="middle" x="534" y="-120.4" font-family="Times,serif" font-size="14.00" fill="gray">\Aura\Signal\Manager</text>
</g>
<!-- \\Aura\\Framework\\Signal\\Manager&#45;&gt;\\Aura\\Signal\\Manager -->
<g id="edge84" class="edge"><title>\\Aura\\Framework\\Signal\\Manager&#45;&gt;\\Aura\\Signal\\Manager</title>
<path fill="none" stroke="black" d="M810.81,-611.685C793.113,-601.684 771.951,-586.61 760,-567 663.109,-408.012 826.809,-285.492 696,-153 681.045,-137.853 661.007,-129.269 640.156,-124.702"/>
<polygon fill="none" stroke="black" points="640.681,-121.239 630.206,-122.824 639.383,-128.118 640.681,-121.239"/>
</g>
<!-- \\Aura\\Web\\SignalInterface -->
<g id="node112" class="node"><title>\\Aura\\Web\\SignalInterface</title>
<ellipse fill="none" stroke="black" cx="534" cy="-72" rx="122.767" ry="18"/>
<text text-anchor="middle" x="534" y="-66.4" font-family="Times,serif" font-size="14.00" fill="gray">\\Aura\\Web\\SignalInterface</text>
</g>
<!-- \\Aura\\Framework\\Signal\\Manager&#45;&gt;\\Aura\\Web\\SignalInterface -->
<g id="edge100" class="edge"><title>\\Aura\\Framework\\Signal\\Manager&#45;&gt;\\Aura\\Web\\SignalInterface</title>
<path fill="none" stroke="black" stroke-dasharray="1,5" d="M810.689,-611.758C792.946,-601.784 771.779,-586.714 760,-567 652.319,-386.784 842.185,-249.675 696,-99 687.202,-89.9314 676.585,-83.2025 665.05,-78.2735"/>
<polygon fill="none" stroke="black" points="666.211,-74.9705 655.62,-74.696 663.728,-81.5154 666.211,-74.9705"/>
</g>
<!-- \\Aura\\Framework\\View\\Helper\\AssetHref -->
<g id="node31" class="node"><title>\\Aura\\Framework\\View\\Helper\\AssetHref</title>
<a xlink:href="View.Helper.AssetHref.html" xlink:title="AssetHref" target="_parent">
<polygon fill="none" stroke="black" points="879.911,-534 804.089,-534 804.089,-498 879.911,-498 879.911,-534"/>
<text text-anchor="middle" x="842" y="-511.6" font-family="Courier,monospace" font-size="11.00">AssetHref</text>
</a>
</g>
<!-- \\Aura\\View\\Helper\\AbstractHelper -->
<g id="node102" class="node"><title>\\Aura\\View\\Helper\\AbstractHelper</title>
<ellipse fill="none" stroke="black" cx="534" cy="-18" rx="146.854" ry="18"/>
<text text-anchor="middle" x="534" y="-12.4" font-family="Times,serif" font-size="14.00" fill="gray">\Aura\View\Helper\AbstractHelper</text>
</g>
<!-- \\Aura\\Framework\\View\\Helper\\AssetHref&#45;&gt;\\Aura\\View\\Helper\\AbstractHelper -->
<g id="edge86" class="edge"><title>\\Aura\\Framework\\View\\Helper\\AssetHref&#45;&gt;\\Aura\\View\\Helper\\AbstractHelper</title>
<path fill="none" stroke="black" d="M803.884,-512.263C788.084,-508.739 770.836,-501.967 760,-489 632.156,-336.012 835.348,-187.59 696,-45 690.289,-39.1566 683.823,-34.2869 676.844,-30.2456"/>
<polygon fill="none" stroke="black" points="678.241,-27.0279 667.748,-25.5589 675.035,-33.2505 678.241,-27.0279"/>
</g>
<!-- \\Aura\\Framework\\View\\Helper\\Route -->
<g id="node32" class="node"><title>\\Aura\\Framework\\View\\Helper\\Route</title>
<a xlink:href="View.Helper.Route.html" xlink:title="Route" target="_parent">
<polygon fill="none" stroke="black" points="869,-480 815,-480 815,-444 869,-444 869,-480"/>
<text text-anchor="middle" x="842" y="-457.6" font-family="Courier,monospace" font-size="11.00">Route</text>
</a>
</g>
<!-- \\Aura\\Framework\\View\\Helper\\Route&#45;&gt;\\Aura\\View\\Helper\\AbstractHelper -->
<g id="edge88" class="edge"><title>\\Aura\\Framework\\View\\Helper\\Route&#45;&gt;\\Aura\\View\\Helper\\AbstractHelper</title>
<path fill="none" stroke="black" d="M814.972,-461.913C796.925,-460.391 773.749,-455.268 760,-440 640.989,-307.844 821.407,-171.102 696,-45 690.168,-39.1361 683.574,-34.2581 676.468,-30.2176"/>
<polygon fill="none" stroke="black" points="677.714,-26.9257 667.21,-25.5363 674.555,-33.1724 677.714,-26.9257"/>
</g>
<!-- \\Aura\\Framework\\Web\\Asset\\Page -->
<g id="node36" class="node"><title>\\Aura\\Framework\\Web\\Asset\\Page</title>
<a xlink:href="Web.Asset.Page.html" xlink:title="Page" target="_parent">
<polygon fill="none" stroke="black" points="869,-1165 815,-1165 815,-1129 869,-1129 869,-1165"/>
<text text-anchor="middle" x="842" y="-1142.6" font-family="Courier,monospace" font-size="11.00">Page</text>
</a>
</g>
<!-- \\Aura\\Framework\\Web\\Controller\\AbstractPage -->
<g id="node38" class="node"><title>\\Aura\\Framework\\Web\\Controller\\AbstractPage</title>
<a xlink:href="Web.Controller.AbstractPage.html" xlink:title="AbstractPage" target="_parent">
<polygon fill="none" stroke="black" points="581.713,-1246 486.287,-1246 486.287,-1210 581.713,-1210 581.713,-1246"/>
<text text-anchor="middle" x="534" y="-1223.6" font-family="Courier,monospace" font-size="11.00">AbstractPage</text>
</a>
</g>
<!-- \\Aura\\Framework\\Web\\Asset\\Page&#45;&gt;\\Aura\\Framework\\Web\\Controller\\AbstractPage -->
<g id="edge90" class="edge"><title>\\Aura\\Framework\\Web\\Asset\\Page&#45;&gt;\\Aura\\Framework\\Web\\Controller\\AbstractPage</title>
<path fill="none" stroke="black" d="M814.769,-1158.5C786.097,-1170.66 738.559,-1189.62 696,-1201 661.931,-1210.11 622.943,-1216.74 591.868,-1221.16"/>
<polygon fill="none" stroke="black" points="591.078,-1217.73 581.651,-1222.57 592.036,-1224.67 591.078,-1217.73"/>
</g>
<!-- \\Aura\\Web\\Controller\\AbstractPage -->
<g id="node106" class="node"><title>\\Aura\\Web\\Controller\\AbstractPage</title>
<ellipse fill="none" stroke="black" cx="150" cy="-1228" rx="149.928" ry="18"/>
<text text-anchor="middle" x="150" y="-1222.4" font-family="Times,serif" font-size="14.00" fill="gray">\Aura\Web\Controller\AbstractPage</text>
</g>
<!-- \\Aura\\Framework\\Web\\Controller\\AbstractPage&#45;&gt;\\Aura\\Web\\Controller\\AbstractPage -->
<g id="edge92" class="edge"><title>\\Aura\\Framework\\Web\\Controller\\AbstractPage&#45;&gt;\\Aura\\Web\\Controller\\AbstractPage</title>
<path fill="none" stroke="black" d="M486.159,-1228C442.096,-1228 373.561,-1228 309.919,-1228"/>
<polygon fill="none" stroke="black" points="309.751,-1224.5 299.751,-1228 309.751,-1231.5 309.751,-1224.5"/>
</g>
<!-- \\Aura\\Framework\\Web\\Controller\\Factory -->
<g id="node39" class="node"><title>\\Aura\\Framework\\Web\\Controller\\Factory</title>
<a xlink:href="Web.Controller.Factory.html" xlink:title="Factory" target="_parent">
<polygon fill="none" stroke="black" points="565.208,-1192 502.792,-1192 502.792,-1156 565.208,-1156 565.208,-1192"/>
<text text-anchor="middle" x="534" y="-1169.6" font-family="Courier,monospace" font-size="11.00">Factory</text>
</a>
</g>
<!-- \\Aura\\Framework\\Web\\Controller\\Front -->
<g id="node40" class="node"><title>\\Aura\\Framework\\Web\\Controller\\Front</title>
<a xlink:href="Web.Controller.Front.html" xlink:title="Front" target="_parent">
<polygon fill="none" stroke="black" points="561,-1138 507,-1138 507,-1102 561,-1102 561,-1138"/>
<text text-anchor="middle" x="534" y="-1115.6" font-family="Courier,monospace" font-size="11.00">Front</text>
</a>
</g>
<!-- \\Aura\\Framework\\Web\\Hello\\Page -->
<g id="node42" class="node"><title>\\Aura\\Framework\\Web\\Hello\\Page</title>
<a xlink:href="Web.Hello.Page.html" xlink:title="Page" target="_parent">
<polygon fill="none" stroke="black" points="869,-1327 815,-1327 815,-1291 869,-1291 869,-1327"/>
<text text-anchor="middle" x="842" y="-1304.6" font-family="Courier,monospace" font-size="11.00">Page</text>
</a>
</g>
<!-- \\Aura\\Framework\\Web\\Hello\\Page&#45;&gt;\\Aura\\Framework\\Web\\Controller\\AbstractPage -->
<g id="edge94" class="edge"><title>\\Aura\\Framework\\Web\\Hello\\Page&#45;&gt;\\Aura\\Framework\\Web\\Controller\\AbstractPage</title>
<path fill="none" stroke="black" d="M814.911,-1302.09C765.695,-1289.07 658.132,-1260.59 591.601,-1242.98"/>
<polygon fill="none" stroke="black" points="592.256,-1239.54 581.693,-1240.36 590.465,-1246.3 592.256,-1239.54"/>
</g>
<!-- \\Aura\\Framework\\Web\\NotFound\\Page -->
<g id="node44" class="node"><title>\\Aura\\Framework\\Web\\NotFound\\Page</title>
<a xlink:href="Web.NotFound.Page.html" xlink:title="Page" target="_parent">
<polygon fill="none" stroke="black" points="869,-1246 815,-1246 815,-1210 869,-1210 869,-1246"/>
<text text-anchor="middle" x="842" y="-1223.6" font-family="Courier,monospace" font-size="11.00">Page</text>
</a>
</g>
<!-- \\Aura\\Framework\\Web\\NotFound\\Page&#45;&gt;\\Aura\\Framework\\Web\\Controller\\AbstractPage -->
<g id="edge96" class="edge"><title>\\Aura\\Framework\\Web\\NotFound\\Page&#45;&gt;\\Aura\\Framework\\Web\\Controller\\AbstractPage</title>
<path fill="none" stroke="black" d="M814.911,-1228C765.796,-1228 658.573,-1228 592.012,-1228"/>
<polygon fill="none" stroke="black" points="591.693,-1224.5 581.693,-1228 591.693,-1231.5 591.693,-1224.5"/>
</g>
<!-- \\Aura\\Framework\\Web\\Renderer\\AuraViewTwoStep -->
<g id="node46" class="node"><title>\\Aura\\Framework\\Web\\Renderer\\AuraViewTwoStep</title>
<a xlink:href="Web.Renderer.AuraViewTwoStep.html" xlink:title="AuraViewTwoStep" target="_parent">
<polygon fill="none" stroke="black" points="899.516,-1084 784.484,-1084 784.484,-1048 899.516,-1048 899.516,-1084"/>
<text text-anchor="middle" x="842" y="-1061.6" font-family="Courier,monospace" font-size="11.00">AuraViewTwoStep</text>
</a>
</g>
<!-- \\Aura\\Web\\Renderer\\AbstractRenderer -->
<g id="node110" class="node"><title>\\Aura\\Web\\Renderer\\AbstractRenderer</title>
<ellipse fill="none" stroke="black" cx="534" cy="-180" rx="162.051" ry="18"/>
<text text-anchor="middle" x="534" y="-174.4" font-family="Times,serif" font-size="14.00" fill="gray">\Aura\Web\Renderer\AbstractRenderer</text>
</g>
<!-- \\Aura\\Framework\\Web\\Renderer\\AuraViewTwoStep&#45;&gt;\\Aura\\Web\\Renderer\\AbstractRenderer -->
<g id="edge98" class="edge"><title>\\Aura\\Framework\\Web\\Renderer\\AuraViewTwoStep&#45;&gt;\\Aura\\Web\\Renderer\\AbstractRenderer</title>
<path fill="none" stroke="black" d="M784.241,-1048.9C774.792,-1043.64 766.097,-1036.81 760,-1028 656.279,-878.042 817.908,-345.587 696,-210 690.772,-204.186 684.81,-199.274 678.331,-195.139"/>
<polygon fill="none" stroke="black" points="679.623,-191.849 669.196,-189.969 676.175,-197.941 679.623,-191.849"/>
</g>
<!-- \\Aura\\Framework\\Bootstrap -->
<g id="node52" class="node"><title>\\Aura\\Framework\\Bootstrap</title>
<a xlink:href="Bootstrap.html" xlink:title="Bootstrap" target="_parent">
<polygon fill="none" stroke="black" points="879.911,-420 804.089,-420 804.089,-384 879.911,-384 879.911,-420"/>
<text text-anchor="middle" x="842" y="-397.6" font-family="Courier,monospace" font-size="11.00">Bootstrap</text>
</a>
</g>
<!-- \\Aura\\Framework\\Config -->
<g id="node53" class="node"><title>\\Aura\\Framework\\Config</title>
<a xlink:href="Config.html" xlink:title="Config" target="_parent">
<polygon fill="none" stroke="black" points="869.608,-366 814.392,-366 814.392,-330 869.608,-330 869.608,-366"/>
<text text-anchor="middle" x="842" y="-343.6" font-family="Courier,monospace" font-size="11.00">Config</text>
</a>
</g>
<!-- \\Exception -->
<g id="node98" class="node"><title>\\Exception</title>
<ellipse fill="none" stroke="black" cx="150" cy="-842" rx="52.7417" ry="18"/>
<text text-anchor="middle" x="150" y="-836.4" font-family="Times,serif" font-size="14.00" fill="gray">\Exception</text>
</g>
<!-- \\Aura\\Framework\\Exception&#45;&gt;\\Exception -->
<g id="edge82" class="edge"><title>\\Aura\\Framework\\Exception&#45;&gt;\\Exception</title>
<path fill="none" stroke="black" d="M496.025,-842C430.619,-842 293.859,-842 213.554,-842"/>
<polygon fill="none" stroke="black" points="213.091,-838.5 203.091,-842 213.091,-845.5 213.091,-838.5"/>
</g>
<!-- \\Aura\\Framework\\Inflect -->
<g id="node55" class="node"><title>\\Aura\\Framework\\Inflect</title>
<a xlink:href="Inflect.html" xlink:title="Inflect" target="_parent">
<polygon fill="none" stroke="black" points="873.208,-312 810.792,-312 810.792,-276 873.208,-276 873.208,-312"/>
<text text-anchor="middle" x="842" y="-289.6" font-family="Courier,monospace" font-size="11.00">Inflect</text>
</a>
</g>
<!-- \\Aura\\Framework\\System -->
<g id="node56" class="node"><title>\\Aura\\Framework\\System</title>
<a xlink:href="System.html" xlink:title="System" target="_parent">
<polygon fill="none" stroke="black" points="869.608,-258 814.392,-258 814.392,-222 869.608,-222 869.608,-258"/>
<text text-anchor="middle" x="842" y="-235.6" font-family="Courier,monospace" font-size="11.00">System</text>
</a>
</g>
</g>
</svg>
