<?xml version="1.0" encoding="UTF-8" standalone="no"?>
<!DOCTYPE svg PUBLIC "-//W3C//DTD SVG 1.1//EN"
 "http://www.w3.org/Graphics/SVG/1.1/DTD/svg11.dtd">
<!-- Generated by graphviz version 2.28.0 (20111028.1807)
 -->
<!-- Title: G Pages: 1 -->
<svg width="424pt" height="602pt"
 viewBox="0.00 0.00 424.00 602.00" xmlns="http://www.w3.org/2000/svg" xmlns:xlink="http://www.w3.org/1999/xlink">
<g id="graph1" class="graph" transform="scale(1 1) rotate(0) translate(4 598)">
<title>G</title>
<polygon fill="white" stroke="white" points="-4,5 -4,-598 421,-598 421,5 -4,5"/>
<g id="graph2" class="cluster"><title>cluster_Aura</title>
<polyline fill="none" stroke="gray" points="20,-44 396,-44 "/>
<path fill="none" stroke="gray" d="M396,-44C402,-44 408,-50 408,-56"/>
<polyline fill="none" stroke="gray" points="408,-56 408,-574 "/>
<path fill="none" stroke="gray" d="M408,-574C408,-580 402,-586 396,-586"/>
<polyline fill="none" stroke="gray" points="396,-586 20,-586 "/>
<path fill="none" stroke="gray" d="M20,-586C14,-586 8,-580 8,-574"/>
<polyline fill="none" stroke="gray" points="8,-574 8,-56 "/>
<path fill="none" stroke="gray" d="M8,-56C8,-50 14,-44 20,-44"/>
<text text-anchor="middle" x="208" y="-571" font-family="Times,serif" font-size="11.00" fill="gray">Aura</text>
</g>
<g id="graph3" class="cluster"><title>cluster_Aura\Intl</title>
<polyline fill="none" stroke="gray" points="28,-52 388,-52 "/>
<path fill="none" stroke="gray" d="M388,-52C394,-52 400,-58 400,-64"/>
<polyline fill="none" stroke="gray" points="400,-64 400,-545 "/>
<path fill="none" stroke="gray" d="M400,-545C400,-551 394,-557 388,-557"/>
<polyline fill="none" stroke="gray" points="388,-557 28,-557 "/>
<path fill="none" stroke="gray" d="M28,-557C22,-557 16,-551 16,-545"/>
<polyline fill="none" stroke="gray" points="16,-545 16,-64 "/>
<path fill="none" stroke="gray" d="M16,-64C16,-58 22,-52 28,-52"/>
<text text-anchor="middle" x="208" y="-542" font-family="Times,serif" font-size="11.00" fill="gray">Intl</text>
</g>
<!-- \\Aura\\Intl\\BasicFormatter -->
<g id="node3" class="node"><title>\\Aura\\Intl\\BasicFormatter</title>
<a xlink:href="BasicFormatter.html" xlink:title="BasicFormatter" target="_parent">
<polygon fill="none" stroke="black" points="382.416,-474 273.584,-474 273.584,-438 382.416,-438 382.416,-474"/>
<text text-anchor="middle" x="328" y="-451.6" font-family="Courier,monospace" font-size="11.00">BasicFormatter</text>
</a>
</g>
<!-- \\Aura\\Intl\\FormatterInterface -->
<g id="node5" class="node"><title>\\Aura\\Intl\\FormatterInterface</title>
<a xlink:href="FormatterInterface.html" xlink:title="FormatterInterface" target="_parent">
<polygon fill="none" stroke="black" points="175.319,-501 40.6805,-501 40.6805,-465 175.319,-465 175.319,-501"/>
<text text-anchor="middle" x="108" y="-478.6" font-family="Courier,monospace" font-size="11.00">FormatterInterface</text>
</a>
</g>
<!-- \\Aura\\Intl\\BasicFormatter&#45;&gt;\\Aura\\Intl\\FormatterInterface -->
<g id="edge6" class="edge"><title>\\Aura\\Intl\\BasicFormatter&#45;&gt;\\Aura\\Intl\\FormatterInterface</title>
<path fill="none" stroke="black" stroke-dasharray="1,5" d="M273.671,-462.605C247.173,-465.887 214.675,-469.912 185.571,-473.516"/>
<polygon fill="none" stroke="black" points="184.927,-470.069 175.433,-474.772 185.787,-477.016 184.927,-470.069"/>
</g>
<!-- \\Aura\\Intl\\Exception -->
<g id="node4" class="node"><title>\\Aura\\Intl\\Exception</title>
<a xlink:href="Exception.html" xlink:title="Exception" target="_parent">
<polygon fill="none" stroke="black" points="365.911,-204 290.089,-204 290.089,-168 365.911,-168 365.911,-204"/>
<text text-anchor="middle" x="328" y="-181.6" font-family="Courier,monospace" font-size="11.00">Exception</text>
</a>
</g>
<!-- \\Exception -->
<g id="node16" class="node"><title>\\Exception</title>
<ellipse fill="none" stroke="black" cx="108" cy="-18" rx="52.7417" ry="18"/>
<text text-anchor="middle" x="108" y="-12.4" font-family="Times,serif" font-size="14.00" fill="gray">\Exception</text>
</g>
<!-- \\Aura\\Intl\\Exception&#45;&gt;\\Exception -->
<g id="edge4" class="edge"><title>\\Aura\\Intl\\Exception&#45;&gt;\\Exception</title>
<path fill="none" stroke="black" d="M290.25,-174.535C281.055,-170.561 271.644,-165.44 264,-159 219.03,-121.112 238.051,-84.5666 192,-48 183.272,-41.0698 172.804,-35.6559 162.289,-31.4561"/>
<polygon fill="none" stroke="black" points="163.261,-28.0849 152.667,-27.9318 160.853,-34.6578 163.261,-28.0849"/>
</g>
<!-- \\Aura\\Intl\\FormatterLocator -->
<g id="node6" class="node"><title>\\Aura\\Intl\\FormatterLocator</title>
<a xlink:href="FormatterLocator.html" xlink:title="FormatterLocator" target="_parent">
<polygon fill="none" stroke="black" points="388.618,-420 267.382,-420 267.382,-384 388.618,-384 388.618,-420"/>
<text text-anchor="middle" x="328" y="-397.6" font-family="Courier,monospace" font-size="11.00">FormatterLocator</text>
</a>
</g>
<!-- \\Aura\\Intl\\IntlFormatter -->
<g id="node7" class="node"><title>\\Aura\\Intl\\IntlFormatter</title>
<a xlink:href="IntlFormatter.html" xlink:title="IntlFormatter" target="_parent">
<polygon fill="none" stroke="black" points="378.814,-528 277.186,-528 277.186,-492 378.814,-492 378.814,-528"/>
<text text-anchor="middle" x="328" y="-505.6" font-family="Courier,monospace" font-size="11.00">IntlFormatter</text>
</a>
</g>
<!-- \\Aura\\Intl\\IntlFormatter&#45;&gt;\\Aura\\Intl\\FormatterInterface -->
<g id="edge8" class="edge"><title>\\Aura\\Intl\\IntlFormatter&#45;&gt;\\Aura\\Intl\\FormatterInterface</title>
<path fill="none" stroke="black" stroke-dasharray="1,5" d="M276.986,-503.806C249.994,-500.463 216.096,-496.264 185.832,-492.516"/>
<polygon fill="none" stroke="black" points="186.077,-489.02 175.723,-491.264 185.217,-495.967 186.077,-489.02"/>
</g>
<!-- \\Aura\\Intl\\Package -->
<g id="node8" class="node"><title>\\Aura\\Intl\\Package</title>
<a xlink:href="Package.html" xlink:title="Package" target="_parent">
<polygon fill="none" stroke="black" points="359.208,-312 296.792,-312 296.792,-276 359.208,-276 359.208,-312"/>
<text text-anchor="middle" x="328" y="-289.6" font-family="Courier,monospace" font-size="11.00">Package</text>
</a>
</g>
<!-- \\Aura\\Intl\\PackageLocator -->
<g id="node9" class="node"><title>\\Aura\\Intl\\PackageLocator</title>
<a xlink:href="PackageLocator.html" xlink:title="PackageLocator" target="_parent">
<polygon fill="none" stroke="black" points="382.416,-366 273.584,-366 273.584,-330 382.416,-330 382.416,-366"/>
<text text-anchor="middle" x="328" y="-343.6" font-family="Courier,monospace" font-size="11.00">PackageLocator</text>
</a>
</g>
<!-- \\Aura\\Intl\\PackageLocatorInterface -->
<g id="node10" class="node"><title>\\Aura\\Intl\\PackageLocatorInterface</title>
<a xlink:href="PackageLocatorInterface.html" xlink:title="PackageLocatorInterface" target="_parent">
<polygon fill="none" stroke="black" points="191.825,-366 24.1752,-366 24.1752,-330 191.825,-330 191.825,-366"/>
<text text-anchor="middle" x="108" y="-343.6" font-family="Courier,monospace" font-size="11.00">PackageLocatorInterface</text>
</a>
</g>
<!-- \\Aura\\Intl\\PackageLocator&#45;&gt;\\Aura\\Intl\\PackageLocatorInterface -->
<g id="edge10" class="edge"><title>\\Aura\\Intl\\PackageLocator&#45;&gt;\\Aura\\Intl\\PackageLocatorInterface</title>
<path fill="none" stroke="black" stroke-dasharray="1,5" d="M273.671,-348C252.068,-348 226.476,-348 201.986,-348"/>
<polygon fill="none" stroke="black" points="201.94,-344.5 191.94,-348 201.94,-351.5 201.94,-344.5"/>
</g>
<!-- \\Aura\\Intl\\Translator -->
<g id="node11" class="node"><title>\\Aura\\Intl\\Translator</title>
<a xlink:href="Translator.html" xlink:title="Translator" target="_parent">
<polygon fill="none" stroke="black" points="369.011,-258 286.989,-258 286.989,-222 369.011,-222 369.011,-258"/>
<text text-anchor="middle" x="328" y="-235.6" font-family="Courier,monospace" font-size="11.00">Translator</text>
</a>
</g>
<!-- \\Aura\\Intl\\TranslatorInterface -->
<g id="node13" class="node"><title>\\Aura\\Intl\\TranslatorInterface</title>
<a xlink:href="TranslatorInterface.html" xlink:title="TranslatorInterface" target="_parent">
<polygon fill="none" stroke="black" points="178.921,-258 37.079,-258 37.079,-222 178.921,-222 178.921,-258"/>
<text text-anchor="middle" x="108" y="-235.6" font-family="Courier,monospace" font-size="11.00">TranslatorInterface</text>
</a>
</g>
<!-- \\Aura\\Intl\\Translator&#45;&gt;\\Aura\\Intl\\TranslatorInterface -->
<g id="edge12" class="edge"><title>\\Aura\\Intl\\Translator&#45;&gt;\\Aura\\Intl\\TranslatorInterface</title>
<path fill="none" stroke="black" stroke-dasharray="1,5" d="M286.761,-240C259.446,-240 222.392,-240 189.183,-240"/>
<polygon fill="none" stroke="black" points="189.015,-236.5 179.015,-240 189.015,-243.5 189.015,-236.5"/>
</g>
<!-- \\Aura\\Intl\\TranslatorFactory -->
<g id="node12" class="node"><title>\\Aura\\Intl\\TranslatorFactory</title>
<a xlink:href="TranslatorFactory.html" xlink:title="TranslatorFactory" target="_parent">
<polygon fill="none" stroke="black" points="392.218,-150 263.782,-150 263.782,-114 392.218,-114 392.218,-150"/>
<text text-anchor="middle" x="328" y="-127.6" font-family="Courier,monospace" font-size="11.00">TranslatorFactory</text>
</a>
</g>
<!-- \\Aura\\Intl\\TranslatorLocator -->
<g id="node14" class="node"><title>\\Aura\\Intl\\TranslatorLocator</title>
<a xlink:href="TranslatorLocator.html" xlink:title="TranslatorLocator" target="_parent">
<polygon fill="none" stroke="black" points="392.218,-96 263.782,-96 263.782,-60 392.218,-60 392.218,-96"/>
<text text-anchor="middle" x="328" y="-73.6" font-family="Courier,monospace" font-size="11.00">TranslatorLocator</text>
</a>
</g>
</g>
</svg>
