<?xml version="1.0" encoding="UTF-8" standalone="no"?>
<!DOCTYPE svg PUBLIC "-//W3C//DTD SVG 1.1//EN"
 "http://www.w3.org/Graphics/SVG/1.1/DTD/svg11.dtd">
<!-- Generated by graphviz version 2.28.0 (20110509.1545)
 -->
<!-- Title: G Pages: 1 -->
<svg width="538pt" height="730pt"
 viewBox="0.00 0.00 538.00 730.00" xmlns="http://www.w3.org/2000/svg" xmlns:xlink="http://www.w3.org/1999/xlink">
<g id="graph1" class="graph" transform="scale(1 1) rotate(0) translate(4 726)">
<title>G</title>
<polygon fill="white" stroke="white" points="-4,5 -4,-726 535,-726 535,5 -4,5"/>
<g id="graph2" class="cluster"><title>cluster_Aura</title>
<polyline fill="none" stroke="gray" points="172,-8 510,-8 "/>
<path fill="none" stroke="gray" d="M510,-8C516,-8 522,-14 522,-20"/>
<polyline fill="none" stroke="gray" points="522,-20 522,-702 "/>
<path fill="none" stroke="gray" d="M522,-702C522,-708 516,-714 510,-714"/>
<polyline fill="none" stroke="gray" points="510,-714 172,-714 "/>
<path fill="none" stroke="gray" d="M172,-714C166,-714 160,-708 160,-702"/>
<polyline fill="none" stroke="gray" points="160,-702 160,-20 "/>
<path fill="none" stroke="gray" d="M160,-20C160,-14 166,-8 172,-8"/>
<text text-anchor="middle" x="341" y="-699" font-family="Times,serif" font-size="11.00" fill="gray">Aura</text>
</g>
<g id="graph3" class="cluster"><title>cluster_Aura\Sql</title>
<polyline fill="none" stroke="gray" points="180,-16 502,-16 "/>
<path fill="none" stroke="gray" d="M502,-16C508,-16 514,-22 514,-28"/>
<polyline fill="none" stroke="gray" points="514,-28 514,-673 "/>
<path fill="none" stroke="gray" d="M514,-673C514,-679 508,-685 502,-685"/>
<polyline fill="none" stroke="gray" points="502,-685 180,-685 "/>
<path fill="none" stroke="gray" d="M180,-685C174,-685 168,-679 168,-673"/>
<polyline fill="none" stroke="gray" points="168,-673 168,-28 "/>
<path fill="none" stroke="gray" d="M168,-28C168,-22 174,-16 180,-16"/>
<text text-anchor="middle" x="341" y="-670" font-family="Times,serif" font-size="11.00" fill="gray">Sql</text>
</g>
<g id="graph4" class="cluster"><title>cluster_Aura\Sql\Adapter</title>
<polyline fill="none" stroke="gray" points="188,-421 466,-421 "/>
<path fill="none" stroke="gray" d="M466,-421C472,-421 478,-427 478,-433"/>
<polyline fill="none" stroke="gray" points="478,-433 478,-644 "/>
<path fill="none" stroke="gray" d="M478,-644C478,-650 472,-656 466,-656"/>
<polyline fill="none" stroke="gray" points="466,-656 188,-656 "/>
<path fill="none" stroke="gray" d="M188,-656C182,-656 176,-650 176,-644"/>
<polyline fill="none" stroke="gray" points="176,-644 176,-433 "/>
<path fill="none" stroke="gray" d="M176,-433C176,-427 182,-421 188,-421"/>
<text text-anchor="middle" x="327" y="-641" font-family="Times,serif" font-size="11.00" fill="gray">Adapter</text>
</g>
<g id="graph5" class="cluster"><title>cluster_Aura\Sql\Exception</title>
<polyline fill="none" stroke="gray" points="398,-286 486,-286 "/>
<path fill="none" stroke="gray" d="M486,-286C492,-286 498,-292 498,-298"/>
<polyline fill="none" stroke="gray" points="498,-298 498,-401 "/>
<path fill="none" stroke="gray" d="M498,-401C498,-407 492,-413 486,-413"/>
<polyline fill="none" stroke="gray" points="486,-413 398,-413 "/>
<path fill="none" stroke="gray" d="M398,-413C392,-413 386,-407 386,-401"/>
<polyline fill="none" stroke="gray" points="386,-401 386,-298 "/>
<path fill="none" stroke="gray" d="M386,-298C386,-292 392,-286 398,-286"/>
<text text-anchor="middle" x="442" y="-398" font-family="Times,serif" font-size="11.00" fill="gray">Exception</text>
</g>
<!-- \\Aura\\Sql\\Adapter\\AbstractAdapter -->
<g id="node4" class="node"><title>\\Aura\\Sql\\Adapter\\AbstractAdapter</title>
<a xlink:href="db_Aura_Sql_Adapter_AbstractAdapter.html" xlink:title="«abstract»&lt;br/&gt;AbstractAdapter" target="_parent">
<polygon fill="none" stroke="black" points="300,-546 184,-546 184,-510 300,-510 300,-546"/>
<text text-anchor="start" x="209" y="-529.5" font-family="Courier,monospace" font-size="11.00">«abstract»</text>
<text text-anchor="start" x="192.5" y="-518.5" font-family="Courier,monospace" font-size="11.00">AbstractAdapter</text>
</a>
</g>
<!-- \\Aura\\Sql\\Adapter\\Mysql -->
<g id="node5" class="node"><title>\\Aura\\Sql\\Adapter\\Mysql</title>
<a xlink:href="db_Aura_Sql_Adapter_Mysql.html" xlink:title="Mysql" target="_parent">
<polygon fill="none" stroke="black" points="469,-627 415,-627 415,-591 469,-591 469,-627"/>
<text text-anchor="middle" x="442" y="-604.6" font-family="Courier,monospace" font-size="11.00">Mysql</text>
</a>
</g>
<!-- \\Aura\\Sql\\Adapter\\Mysql&#45;&gt;\\Aura\\Sql\\Adapter\\AbstractAdapter -->
<g id="edge8" class="edge"><title>\\Aura\\Sql\\Adapter\\Mysql&#45;&gt;\\Aura\\Sql\\Adapter\\AbstractAdapter</title>
<path fill="none" stroke="black" d="M414.707,-598.244C384.741,-585.985 334.969,-565.624 296.705,-549.97"/>
<polygon fill="none" stroke="black" points="297.824,-546.647 287.243,-546.1 295.174,-553.125 297.824,-546.647"/>
</g>
<!-- \\Aura\\Sql\\Adapter\\Pgsql -->
<g id="node6" class="node"><title>\\Aura\\Sql\\Adapter\\Pgsql</title>
<a xlink:href="db_Aura_Sql_Adapter_Pgsql.html" xlink:title="Pgsql" target="_parent">
<polygon fill="none" stroke="black" points="469,-573 415,-573 415,-537 469,-537 469,-573"/>
<text text-anchor="middle" x="442" y="-550.6" font-family="Courier,monospace" font-size="11.00">Pgsql</text>
</a>
</g>
<!-- \\Aura\\Sql\\Adapter\\Pgsql&#45;&gt;\\Aura\\Sql\\Adapter\\AbstractAdapter -->
<g id="edge10" class="edge"><title>\\Aura\\Sql\\Adapter\\Pgsql&#45;&gt;\\Aura\\Sql\\Adapter\\AbstractAdapter</title>
<path fill="none" stroke="black" d="M414.707,-551.415C388.168,-547.796 346.094,-542.058 310.238,-537.169"/>
<polygon fill="none" stroke="black" points="310.688,-533.698 300.307,-535.815 309.743,-540.634 310.688,-533.698"/>
</g>
<!-- \\Aura\\Sql\\Adapter\\Sqlite -->
<g id="node7" class="node"><title>\\Aura\\Sql\\Adapter\\Sqlite</title>
<a xlink:href="db_Aura_Sql_Adapter_Sqlite.html" xlink:title="Sqlite" target="_parent">
<polygon fill="none" stroke="black" points="469.608,-519 414.392,-519 414.392,-483 469.608,-483 469.608,-519"/>
<text text-anchor="middle" x="442" y="-496.6" font-family="Courier,monospace" font-size="11.00">Sqlite</text>
</a>
</g>
<!-- \\Aura\\Sql\\Adapter\\Sqlite&#45;&gt;\\Aura\\Sql\\Adapter\\AbstractAdapter -->
<g id="edge12" class="edge"><title>\\Aura\\Sql\\Adapter\\Sqlite&#45;&gt;\\Aura\\Sql\\Adapter\\AbstractAdapter</title>
<path fill="none" stroke="black" d="M414.297,-504.641C387.78,-508.257 346.049,-513.948 310.416,-518.807"/>
<polygon fill="none" stroke="black" points="309.498,-515.4 300.062,-520.219 310.443,-522.335 309.498,-515.4"/>
</g>
<!-- \\Aura\\Sql\\Adapter\\Sqlsrv -->
<g id="node8" class="node"><title>\\Aura\\Sql\\Adapter\\Sqlsrv</title>
<a xlink:href="db_Aura_Sql_Adapter_Sqlsrv.html" xlink:title="Sqlsrv" target="_parent">
<polygon fill="none" stroke="black" points="469.608,-465 414.392,-465 414.392,-429 469.608,-429 469.608,-465"/>
<text text-anchor="middle" x="442" y="-442.6" font-family="Courier,monospace" font-size="11.00">Sqlsrv</text>
</a>
</g>
<!-- \\Aura\\Sql\\Adapter\\Sqlsrv&#45;&gt;\\Aura\\Sql\\Adapter\\AbstractAdapter -->
<g id="edge14" class="edge"><title>\\Aura\\Sql\\Adapter\\Sqlsrv&#45;&gt;\\Aura\\Sql\\Adapter\\AbstractAdapter</title>
<path fill="none" stroke="black" d="M414.297,-458.351C403.073,-463.146 389.888,-468.811 378,-474 345.906,-488.009 338.558,-493.106 306,-506 305.687,-506.124 305.373,-506.248 305.058,-506.372"/>
<polygon fill="none" stroke="black" points="303.799,-503.106 295.714,-509.954 306.304,-509.642 303.799,-503.106"/>
</g>
<!-- \\Aura\\Sql\\Exception\\NoSuchMaster -->
<g id="node10" class="node"><title>\\Aura\\Sql\\Exception\\NoSuchMaster</title>
<a xlink:href="db_Aura_Sql_Exception_NoSuchMaster.html" xlink:title="NoSuchMaster" target="_parent">
<polygon fill="none" stroke="black" points="489.713,-384 394.287,-384 394.287,-348 489.713,-348 489.713,-384"/>
<text text-anchor="middle" x="442" y="-361.6" font-family="Courier,monospace" font-size="11.00">NoSuchMaster</text>
</a>
</g>
<!-- \\Aura\\Sql\\Exception -->
<g id="node16" class="node"><title>\\Aura\\Sql\\Exception</title>
<a xlink:href="db_Aura_Sql_Exception.html" xlink:title="Exception" target="_parent">
<polygon fill="none" stroke="black" points="279.911,-357 204.089,-357 204.089,-321 279.911,-321 279.911,-357"/>
<text text-anchor="middle" x="242" y="-334.6" font-family="Courier,monospace" font-size="11.00">Exception</text>
</a>
</g>
<!-- \\Aura\\Sql\\Exception\\NoSuchMaster&#45;&gt;\\Aura\\Sql\\Exception -->
<g id="edge16" class="edge"><title>\\Aura\\Sql\\Exception\\NoSuchMaster&#45;&gt;\\Aura\\Sql\\Exception</title>
<path fill="none" stroke="black" d="M394.327,-359.636C362.895,-355.349 321.588,-349.716 290.072,-345.419"/>
<polygon fill="none" stroke="black" points="290.169,-341.9 279.788,-344.017 289.224,-348.836 290.169,-341.9"/>
</g>
<!-- \\Aura\\Sql\\Exception\\NoSuchSlave -->
<g id="node11" class="node"><title>\\Aura\\Sql\\Exception\\NoSuchSlave</title>
<a xlink:href="db_Aura_Sql_Exception_NoSuchSlave.html" xlink:title="NoSuchSlave" target="_parent">
<polygon fill="none" stroke="black" points="486.113,-330 397.887,-330 397.887,-294 486.113,-294 486.113,-330"/>
<text text-anchor="middle" x="442" y="-307.6" font-family="Courier,monospace" font-size="11.00">NoSuchSlave</text>
</a>
</g>
<!-- \\Aura\\Sql\\Exception\\NoSuchSlave&#45;&gt;\\Aura\\Sql\\Exception -->
<g id="edge18" class="edge"><title>\\Aura\\Sql\\Exception\\NoSuchSlave&#45;&gt;\\Aura\\Sql\\Exception</title>
<path fill="none" stroke="black" d="M397.548,-317.925C365.705,-322.268 322.525,-328.156 289.901,-332.604"/>
<polygon fill="none" stroke="black" points="289.143,-329.175 279.708,-333.994 290.089,-336.111 289.143,-329.175"/>
</g>
<!-- \\Aura\\Sql\\AdapterFactory -->
<g id="node12" class="node"><title>\\Aura\\Sql\\AdapterFactory</title>
<a xlink:href="db_Aura_Sql_AdapterFactory.html" xlink:title="AdapterFactory" target="_parent">
<polygon fill="none" stroke="black" points="496.416,-276 387.584,-276 387.584,-240 496.416,-240 496.416,-276"/>
<text text-anchor="middle" x="442" y="-253.6" font-family="Courier,monospace" font-size="11.00">AdapterFactory</text>
</a>
</g>
<!-- \\Aura\\Sql\\Column -->
<g id="node13" class="node"><title>\\Aura\\Sql\\Column</title>
<a xlink:href="db_Aura_Sql_Column.html" xlink:title="Column" target="_parent">
<polygon fill="none" stroke="black" points="469.608,-222 414.392,-222 414.392,-186 469.608,-186 469.608,-222"/>
<text text-anchor="middle" x="442" y="-199.6" font-family="Courier,monospace" font-size="11.00">Column</text>
</a>
</g>
<!-- \\Aura\\Sql\\ColumnFactory -->
<g id="node14" class="node"><title>\\Aura\\Sql\\ColumnFactory</title>
<a xlink:href="db_Aura_Sql_ColumnFactory.html" xlink:title="ColumnFactory" target="_parent">
<polygon fill="none" stroke="black" points="492.814,-168 391.186,-168 391.186,-132 492.814,-132 492.814,-168"/>
<text text-anchor="middle" x="442" y="-145.6" font-family="Courier,monospace" font-size="11.00">ColumnFactory</text>
</a>
</g>
<!-- \\Aura\\Sql\\ConnectionManager -->
<g id="node15" class="node"><title>\\Aura\\Sql\\ConnectionManager</title>
<a xlink:href="db_Aura_Sql_ConnectionManager.html" xlink:title="ConnectionManager" target="_parent">
<polygon fill="none" stroke="black" points="506.218,-114 377.782,-114 377.782,-78 506.218,-78 506.218,-114"/>
<text text-anchor="middle" x="442" y="-91.6" font-family="Courier,monospace" font-size="11.00">ConnectionManager</text>
</a>
</g>
<!-- \\Exception -->
<g id="node28" class="node"><title>\\Exception</title>
<ellipse fill="none" stroke="black" cx="53" cy="-339" rx="52.7417" ry="18"/>
<text text-anchor="middle" x="53" y="-333.4" font-family="Times,serif" font-size="14.00" fill="gray">\Exception</text>
</g>
<!-- \\Aura\\Sql\\Exception&#45;&gt;\\Exception -->
<g id="edge20" class="edge"><title>\\Aura\\Sql\\Exception&#45;&gt;\\Exception</title>
<path fill="none" stroke="black" d="M204.055,-339C179.013,-339 145.303,-339 116.177,-339"/>
<polygon fill="none" stroke="black" points="116.088,-335.5 106.088,-339 116.088,-342.5 116.088,-335.5"/>
</g>
<!-- \\Aura\\Sql\\Profiler -->
<g id="node17" class="node"><title>\\Aura\\Sql\\Profiler</title>
<a xlink:href="db_Aura_Sql_Profiler.html" xlink:title="Profiler" target="_parent">
<polygon fill="none" stroke="black" points="476.309,-60 407.691,-60 407.691,-24 476.309,-24 476.309,-60"/>
<text text-anchor="middle" x="442" y="-37.6" font-family="Courier,monospace" font-size="11.00">Profiler</text>
</a>
</g>
<!-- \\Aura\\Sql\\ProfilerInterface -->
<g id="node18" class="node"><title>\\Aura\\Sql\\ProfilerInterface</title>
<a xlink:href="db_Aura_Sql_ProfilerInterface.html" xlink:title="ProfilerInterface" target="_parent">
<polygon fill="none" stroke="black" points="306.218,-60 177.782,-60 177.782,-24 306.218,-24 306.218,-60"/>
<text text-anchor="middle" x="242" y="-37.6" font-family="Courier,monospace" font-size="11.00">ProfilerInterface</text>
</a>
</g>
<!-- \\Aura\\Sql\\Profiler&#45;&gt;\\Aura\\Sql\\ProfilerInterface -->
<g id="edge22" class="edge"><title>\\Aura\\Sql\\Profiler&#45;&gt;\\Aura\\Sql\\ProfilerInterface</title>
<path fill="none" stroke="black" stroke-dasharray="1,5" d="M407.412,-42C382.63,-42 347.951,-42 316.826,-42"/>
<polygon fill="none" stroke="black" points="316.427,-38.5001 306.427,-42 316.427,-45.5001 316.427,-38.5001"/>
</g>
</g>
</svg>
