<?xml version="1.0" encoding="UTF-8" standalone="no"?>
<!DOCTYPE svg PUBLIC "-//W3C//DTD SVG 1.1//EN"
 "http://www.w3.org/Graphics/SVG/1.1/DTD/svg11.dtd">
<!-- Generated by graphviz version 2.28.0 (20111028.1807)
 -->
<!-- Title: G Pages: 1 -->
<svg width="544pt" height="1900pt"
 viewBox="0.00 0.00 544.00 1900.00" xmlns="http://www.w3.org/2000/svg" xmlns:xlink="http://www.w3.org/1999/xlink">
<g id="graph1" class="graph" transform="scale(1 1) rotate(0) translate(4 1896)">
<title>G</title>
<polygon fill="white" stroke="white" points="-4,5 -4,-1896 541,-1896 541,5 -4,5"/>
<g id="graph2" class="cluster"><title>cluster_Aura</title>
<polyline fill="none" stroke="gray" points="20,-44 516,-44 "/>
<path fill="none" stroke="gray" d="M516,-44C522,-44 528,-50 528,-56"/>
<polyline fill="none" stroke="gray" points="528,-56 528,-1872 "/>
<path fill="none" stroke="gray" d="M528,-1872C528,-1878 522,-1884 516,-1884"/>
<polyline fill="none" stroke="gray" points="516,-1884 20,-1884 "/>
<path fill="none" stroke="gray" d="M20,-1884C14,-1884 8,-1878 8,-1872"/>
<polyline fill="none" stroke="gray" points="8,-1872 8,-56 "/>
<path fill="none" stroke="gray" d="M8,-56C8,-50 14,-44 20,-44"/>
<text text-anchor="middle" x="268" y="-1869" font-family="Times,serif" font-size="11.00" fill="gray">Aura</text>
</g>
<g id="graph3" class="cluster"><title>cluster_Aura\Filter</title>
<polyline fill="none" stroke="gray" points="28,-52 508,-52 "/>
<path fill="none" stroke="gray" d="M508,-52C514,-52 520,-58 520,-64"/>
<polyline fill="none" stroke="gray" points="520,-64 520,-1843 "/>
<path fill="none" stroke="gray" d="M520,-1843C520,-1849 514,-1855 508,-1855"/>
<polyline fill="none" stroke="gray" points="508,-1855 28,-1855 "/>
<path fill="none" stroke="gray" d="M28,-1855C22,-1855 16,-1849 16,-1843"/>
<polyline fill="none" stroke="gray" points="16,-1843 16,-64 "/>
<path fill="none" stroke="gray" d="M16,-64C16,-58 22,-52 28,-52"/>
<text text-anchor="middle" x="268" y="-1840" font-family="Times,serif" font-size="11.00" fill="gray">Filter</text>
</g>
<g id="graph4" class="cluster"><title>cluster_Aura\Filter\Exception</title>
<polyline fill="none" stroke="gray" points="389,-160 483,-160 "/>
<path fill="none" stroke="gray" d="M483,-160C489,-160 495,-166 495,-172"/>
<polyline fill="none" stroke="gray" points="495,-172 495,-221 "/>
<path fill="none" stroke="gray" d="M495,-221C495,-227 489,-233 483,-233"/>
<polyline fill="none" stroke="gray" points="483,-233 389,-233 "/>
<path fill="none" stroke="gray" d="M389,-233C383,-233 377,-227 377,-221"/>
<polyline fill="none" stroke="gray" points="377,-221 377,-172 "/>
<path fill="none" stroke="gray" d="M377,-172C377,-166 383,-160 389,-160"/>
<text text-anchor="middle" x="436" y="-218" font-family="Times,serif" font-size="11.00" fill="gray">Exception</text>
</g>
<g id="graph5" class="cluster"><title>cluster_Aura\Filter\Rule</title>
<polyline fill="none" stroke="gray" points="372,-241 500,-241 "/>
<path fill="none" stroke="gray" d="M500,-241C506,-241 512,-247 512,-253"/>
<polyline fill="none" stroke="gray" points="512,-253 512,-1814 "/>
<path fill="none" stroke="gray" d="M512,-1814C512,-1820 506,-1826 500,-1826"/>
<polyline fill="none" stroke="gray" points="500,-1826 372,-1826 "/>
<path fill="none" stroke="gray" d="M372,-1826C366,-1826 360,-1820 360,-1814"/>
<polyline fill="none" stroke="gray" points="360,-1814 360,-253 "/>
<path fill="none" stroke="gray" d="M360,-253C360,-247 366,-241 372,-241"/>
<text text-anchor="middle" x="436" y="-1811" font-family="Times,serif" font-size="11.00" fill="gray">Rule</text>
</g>
<!-- \\Aura\\Filter\\Exception\\RuleNotMapped -->
<g id="node4" class="node"><title>\\Aura\\Filter\\Exception\\RuleNotMapped</title>
<a xlink:href="Exception.RuleNotMapped.html" xlink:title="RuleNotMapped" target="_parent">
<polygon fill="none" stroke="black" points="486.814,-204 385.186,-204 385.186,-168 486.814,-168 486.814,-204"/>
<text text-anchor="middle" x="436" y="-181.6" font-family="Courier,monospace" font-size="11.00">RuleNotMapped</text>
</a>
</g>
<!-- \\Aura\\Filter\\Exception -->
<g id="node36" class="node"><title>\\Aura\\Filter\\Exception</title>
<a xlink:href="Exception.html" xlink:title="Exception" target="_parent">
<polygon fill="none" stroke="black" points="285.911,-150 210.089,-150 210.089,-114 285.911,-114 285.911,-150"/>
<text text-anchor="middle" x="248" y="-127.6" font-family="Courier,monospace" font-size="11.00">Exception</text>
</a>
</g>
<!-- \\Aura\\Filter\\Exception\\RuleNotMapped&#45;&gt;\\Aura\\Filter\\Exception -->
<g id="edge8" class="edge"><title>\\Aura\\Filter\\Exception\\RuleNotMapped&#45;&gt;\\Aura\\Filter\\Exception</title>
<path fill="none" stroke="black" d="M385.155,-171.529C357.362,-163.46 322.962,-153.473 295.693,-145.556"/>
<polygon fill="none" stroke="black" points="296.574,-142.167 285.994,-142.74 294.622,-148.89 296.574,-142.167"/>
</g>
<!-- \\Aura\\Filter\\Rule\\Alnum -->
<g id="node6" class="node"><title>\\Aura\\Filter\\Rule\\Alnum</title>
<a xlink:href="Rule.Alnum.html" xlink:title="Alnum" target="_parent">
<polygon fill="none" stroke="black" points="463,-1797 409,-1797 409,-1761 463,-1761 463,-1797"/>
<text text-anchor="middle" x="436" y="-1774.6" font-family="Courier,monospace" font-size="11.00">Alnum</text>
</a>
</g>
<!-- \\Aura\\Filter\\AbstractRule -->
<g id="node35" class="node"><title>\\Aura\\Filter\\AbstractRule</title>
<a xlink:href="AbstractRule.html" xlink:title="AbstractRule" target="_parent">
<polygon fill="none" stroke="black" points="295.713,-1041 200.287,-1041 200.287,-1005 295.713,-1005 295.713,-1041"/>
<text text-anchor="middle" x="248" y="-1018.6" font-family="Courier,monospace" font-size="11.00">AbstractRule</text>
</a>
</g>
<!-- \\Aura\\Filter\\Rule\\Alnum&#45;&gt;\\Aura\\Filter\\AbstractRule -->
<g id="edge12" class="edge"><title>\\Aura\\Filter\\Rule\\Alnum&#45;&gt;\\Aura\\Filter\\AbstractRule</title>
<path fill="none" stroke="black" d="M408.891,-1776.35C392.374,-1773.25 371.954,-1766.54 360,-1752 269.522,-1641.96 252.468,-1172.3 249.556,-1051.45"/>
<polygon fill="none" stroke="black" points="253.049,-1051.09 249.323,-1041.17 246.05,-1051.25 253.049,-1051.09"/>
</g>
<!-- \\Aura\\Filter\\Rule\\Alpha -->
<g id="node7" class="node"><title>\\Aura\\Filter\\Rule\\Alpha</title>
<a xlink:href="Rule.Alpha.html" xlink:title="Alpha" target="_parent">
<polygon fill="none" stroke="black" points="463,-1743 409,-1743 409,-1707 463,-1707 463,-1743"/>
<text text-anchor="middle" x="436" y="-1720.6" font-family="Courier,monospace" font-size="11.00">Alpha</text>
</a>
</g>
<!-- \\Aura\\Filter\\Rule\\Alpha&#45;&gt;\\Aura\\Filter\\AbstractRule -->
<g id="edge14" class="edge"><title>\\Aura\\Filter\\Rule\\Alpha&#45;&gt;\\Aura\\Filter\\AbstractRule</title>
<path fill="none" stroke="black" d="M408.947,-1722.3C392.454,-1719.18 372.04,-1712.47 360,-1698 275.914,-1596.97 254.251,-1165.97 249.928,-1051.18"/>
<polygon fill="none" stroke="black" points="253.422,-1050.95 249.563,-1041.08 246.427,-1051.2 253.422,-1050.95"/>
</g>
<!-- \\Aura\\Filter\\Rule\\Between -->
<g id="node8" class="node"><title>\\Aura\\Filter\\Rule\\Between</title>
<a xlink:href="Rule.Between.html" xlink:title="Between" target="_parent">
<polygon fill="none" stroke="black" points="467.208,-1689 404.792,-1689 404.792,-1653 467.208,-1653 467.208,-1689"/>
<text text-anchor="middle" x="436" y="-1666.6" font-family="Courier,monospace" font-size="11.00">Between</text>
</a>
</g>
<!-- \\Aura\\Filter\\Rule\\Between&#45;&gt;\\Aura\\Filter\\AbstractRule -->
<g id="edge16" class="edge"><title>\\Aura\\Filter\\Rule\\Between&#45;&gt;\\Aura\\Filter\\AbstractRule</title>
<path fill="none" stroke="black" d="M404.571,-1667.33C389.011,-1663.86 371.069,-1657.11 360,-1644 282.396,-1552.06 256.238,-1160.54 250.381,-1051.36"/>
<polygon fill="none" stroke="black" points="253.864,-1050.94 249.848,-1041.14 246.874,-1051.31 253.864,-1050.94"/>
</g>
<!-- \\Aura\\Filter\\Rule\\Blank -->
<g id="node9" class="node"><title>\\Aura\\Filter\\Rule\\Blank</title>
<a xlink:href="Rule.Blank.html" xlink:title="Blank" target="_parent">
<polygon fill="none" stroke="black" points="463,-1635 409,-1635 409,-1599 463,-1599 463,-1635"/>
<text text-anchor="middle" x="436" y="-1612.6" font-family="Courier,monospace" font-size="11.00">Blank</text>
</a>
</g>
<!-- \\Aura\\Filter\\Rule\\Blank&#45;&gt;\\Aura\\Filter\\AbstractRule -->
<g id="edge18" class="edge"><title>\\Aura\\Filter\\Rule\\Blank&#45;&gt;\\Aura\\Filter\\AbstractRule</title>
<path fill="none" stroke="black" d="M408.728,-1614.11C392.359,-1610.91 372.168,-1604.18 360,-1590 288.853,-1507.11 258.42,-1154.81 250.923,-1051.55"/>
<polygon fill="none" stroke="black" points="254.394,-1051.01 250.195,-1041.28 247.411,-1051.5 254.394,-1051.01"/>
</g>
<!-- \\Aura\\Filter\\Rule\\Bool -->
<g id="node10" class="node"><title>\\Aura\\Filter\\Rule\\Bool</title>
<a xlink:href="Rule.Bool.html" xlink:title="Bool" target="_parent">
<polygon fill="none" stroke="black" points="463,-1581 409,-1581 409,-1545 463,-1545 463,-1581"/>
<text text-anchor="middle" x="436" y="-1558.6" font-family="Courier,monospace" font-size="11.00">Bool</text>
</a>
</g>
<!-- \\Aura\\Filter\\Rule\\Bool&#45;&gt;\\Aura\\Filter\\AbstractRule -->
<g id="edge20" class="edge"><title>\\Aura\\Filter\\Rule\\Bool&#45;&gt;\\Aura\\Filter\\AbstractRule</title>
<path fill="none" stroke="black" d="M408.822,-1560.03C392.491,-1556.8 372.307,-1550.06 360,-1536 295.191,-1461.98 260.741,-1147.86 251.544,-1051.33"/>
<polygon fill="none" stroke="black" points="255.009,-1050.8 250.593,-1041.17 248.04,-1051.45 255.009,-1050.8"/>
</g>
<!-- \\Aura\\Filter\\Rule\\CreditCard -->
<g id="node11" class="node"><title>\\Aura\\Filter\\Rule\\CreditCard</title>
<a xlink:href="Rule.CreditCard.html" xlink:title="CreditCard" target="_parent">
<polygon fill="none" stroke="black" points="477.011,-1527 394.989,-1527 394.989,-1491 477.011,-1491 477.011,-1527"/>
<text text-anchor="middle" x="436" y="-1504.6" font-family="Courier,monospace" font-size="11.00">CreditCard</text>
</a>
</g>
<!-- \\Aura\\Filter\\Rule\\CreditCard&#45;&gt;\\Aura\\Filter\\AbstractRule -->
<g id="edge22" class="edge"><title>\\Aura\\Filter\\Rule\\CreditCard&#45;&gt;\\Aura\\Filter\\AbstractRule</title>
<path fill="none" stroke="black" d="M394.908,-1502.38C382.17,-1498.42 369.057,-1492.09 360,-1482 301.47,-1416.76 263.28,-1140.32 252.282,-1050.98"/>
<polygon fill="none" stroke="black" points="255.755,-1050.54 251.076,-1041.04 248.806,-1051.38 255.755,-1050.54"/>
</g>
<!-- \\Aura\\Filter\\Rule\\DateTime -->
<g id="node12" class="node"><title>\\Aura\\Filter\\Rule\\DateTime</title>
<a xlink:href="Rule.DateTime.html" xlink:title="DateTime" target="_parent">
<polygon fill="none" stroke="black" points="470.309,-1473 401.691,-1473 401.691,-1437 470.309,-1437 470.309,-1473"/>
<text text-anchor="middle" x="436" y="-1450.6" font-family="Courier,monospace" font-size="11.00">DateTime</text>
</a>
</g>
<!-- \\Aura\\Filter\\Rule\\DateTime&#45;&gt;\\Aura\\Filter\\AbstractRule -->
<g id="edge24" class="edge"><title>\\Aura\\Filter\\Rule\\DateTime&#45;&gt;\\Aura\\Filter\\AbstractRule</title>
<path fill="none" stroke="black" d="M401.641,-1450.08C387.038,-1446.32 370.806,-1439.68 360,-1428 258.298,-1318.03 248.344,-1123.72 248.379,-1051.27"/>
<polygon fill="none" stroke="black" points="251.88,-1051.13 248.452,-1041.11 244.88,-1051.08 251.88,-1051.13"/>
</g>
<!-- \\Aura\\Filter\\Rule\\Email -->
<g id="node13" class="node"><title>\\Aura\\Filter\\Rule\\Email</title>
<a xlink:href="Rule.Email.html" xlink:title="Email" target="_parent">
<polygon fill="none" stroke="black" points="463,-1419 409,-1419 409,-1383 463,-1383 463,-1419"/>
<text text-anchor="middle" x="436" y="-1396.6" font-family="Courier,monospace" font-size="11.00">Email</text>
</a>
</g>
<!-- \\Aura\\Filter\\Rule\\Email&#45;&gt;\\Aura\\Filter\\AbstractRule -->
<g id="edge26" class="edge"><title>\\Aura\\Filter\\Rule\\Email&#45;&gt;\\Aura\\Filter\\AbstractRule</title>
<path fill="none" stroke="black" d="M408.892,-1397.56C392.799,-1394.14 372.853,-1387.37 360,-1374 270.624,-1281.04 253.18,-1116.58 249.801,-1051.07"/>
<polygon fill="none" stroke="black" points="253.297,-1050.91 249.357,-1041.08 246.304,-1051.22 253.297,-1050.91"/>
</g>
<!-- \\Aura\\Filter\\Rule\\EqualToField -->
<g id="node14" class="node"><title>\\Aura\\Filter\\Rule\\EqualToField</title>
<a xlink:href="Rule.EqualToField.html" xlink:title="EqualToField" target="_parent">
<polygon fill="none" stroke="black" points="483.713,-1365 388.287,-1365 388.287,-1329 483.713,-1329 483.713,-1365"/>
<text text-anchor="middle" x="436" y="-1342.6" font-family="Courier,monospace" font-size="11.00">EqualToField</text>
</a>
</g>
<!-- \\Aura\\Filter\\Rule\\EqualToField&#45;&gt;\\Aura\\Filter\\AbstractRule -->
<g id="edge28" class="edge"><title>\\Aura\\Filter\\Rule\\EqualToField&#45;&gt;\\Aura\\Filter\\AbstractRule</title>
<path fill="none" stroke="black" d="M388.172,-1337.15C377.897,-1333.2 367.777,-1327.68 360,-1320 282.955,-1243.88 258.771,-1109.33 251.704,-1051.13"/>
<polygon fill="none" stroke="black" points="255.18,-1050.72 250.575,-1041.18 248.225,-1051.51 255.18,-1050.72"/>
</g>
<!-- \\Aura\\Filter\\Rule\\EqualToValue -->
<g id="node15" class="node"><title>\\Aura\\Filter\\Rule\\EqualToValue</title>
<a xlink:href="Rule.EqualToValue.html" xlink:title="EqualToValue" target="_parent">
<polygon fill="none" stroke="black" points="483.713,-1311 388.287,-1311 388.287,-1275 483.713,-1275 483.713,-1311"/>
<text text-anchor="middle" x="436" y="-1288.6" font-family="Courier,monospace" font-size="11.00">EqualToValue</text>
</a>
</g>
<!-- \\Aura\\Filter\\Rule\\EqualToValue&#45;&gt;\\Aura\\Filter\\AbstractRule -->
<g id="edge30" class="edge"><title>\\Aura\\Filter\\Rule\\EqualToValue&#45;&gt;\\Aura\\Filter\\AbstractRule</title>
<path fill="none" stroke="black" d="M388.165,-1282.59C378.008,-1278.67 367.943,-1273.31 360,-1266 295.004,-1206.18 265.281,-1100.87 254.321,-1050.87"/>
<polygon fill="none" stroke="black" points="257.745,-1050.14 252.261,-1041.07 250.894,-1051.58 257.745,-1050.14"/>
</g>
<!-- \\Aura\\Filter\\Rule\\Float -->
<g id="node16" class="node"><title>\\Aura\\Filter\\Rule\\Float</title>
<a xlink:href="Rule.Float.html" xlink:title="Float" target="_parent">
<polygon fill="none" stroke="black" points="463,-1257 409,-1257 409,-1221 463,-1221 463,-1257"/>
<text text-anchor="middle" x="436" y="-1234.6" font-family="Courier,monospace" font-size="11.00">Float</text>
</a>
</g>
<!-- \\Aura\\Filter\\Rule\\Float&#45;&gt;\\Aura\\Filter\\AbstractRule -->
<g id="edge32" class="edge"><title>\\Aura\\Filter\\Rule\\Float&#45;&gt;\\Aura\\Filter\\AbstractRule</title>
<path fill="none" stroke="black" d="M408.797,-1234.25C393.263,-1230.38 373.951,-1223.58 360,-1212 306.953,-1167.98 273.4,-1091.62 258.314,-1050.74"/>
<polygon fill="none" stroke="black" points="261.546,-1049.38 254.876,-1041.15 254.956,-1051.74 261.546,-1049.38"/>
</g>
<!-- \\Aura\\Filter\\Rule\\InKeys -->
<g id="node17" class="node"><title>\\Aura\\Filter\\Rule\\InKeys</title>
<a xlink:href="Rule.InKeys.html" xlink:title="InKeys" target="_parent">
<polygon fill="none" stroke="black" points="463.608,-1203 408.392,-1203 408.392,-1167 463.608,-1167 463.608,-1203"/>
<text text-anchor="middle" x="436" y="-1180.6" font-family="Courier,monospace" font-size="11.00">InKeys</text>
</a>
</g>
<!-- \\Aura\\Filter\\Rule\\InKeys&#45;&gt;\\Aura\\Filter\\AbstractRule -->
<g id="edge34" class="edge"><title>\\Aura\\Filter\\Rule\\InKeys&#45;&gt;\\Aura\\Filter\\AbstractRule</title>
<path fill="none" stroke="black" d="M408.358,-1179.16C393.227,-1174.96 374.477,-1168.21 360,-1158 318.648,-1128.84 284.072,-1080.39 264.989,-1050.15"/>
<polygon fill="none" stroke="black" points="267.81,-1048.06 259.574,-1041.4 261.856,-1051.74 267.81,-1048.06"/>
</g>
<!-- \\Aura\\Filter\\Rule\\Int -->
<g id="node18" class="node"><title>\\Aura\\Filter\\Rule\\Int</title>
<a xlink:href="Rule.Int.html" xlink:title="Int" target="_parent">
<polygon fill="none" stroke="black" points="463,-1149 409,-1149 409,-1113 463,-1113 463,-1149"/>
<text text-anchor="middle" x="436" y="-1126.6" font-family="Courier,monospace" font-size="11.00">Int</text>
</a>
</g>
<!-- \\Aura\\Filter\\Rule\\Int&#45;&gt;\\Aura\\Filter\\AbstractRule -->
<g id="edge36" class="edge"><title>\\Aura\\Filter\\Rule\\Int&#45;&gt;\\Aura\\Filter\\AbstractRule</title>
<path fill="none" stroke="black" d="M408.886,-1123.62C394.103,-1118.95 375.524,-1112.24 360,-1104 330.104,-1088.13 299.253,-1064.97 277.687,-1047.48"/>
<polygon fill="none" stroke="black" points="279.846,-1044.72 269.898,-1041.08 275.402,-1050.13 279.846,-1044.72"/>
</g>
<!-- \\Aura\\Filter\\Rule\\InValues -->
<g id="node19" class="node"><title>\\Aura\\Filter\\Rule\\InValues</title>
<a xlink:href="Rule.InValues.html" xlink:title="InValues" target="_parent">
<polygon fill="none" stroke="black" points="470.309,-1095 401.691,-1095 401.691,-1059 470.309,-1059 470.309,-1095"/>
<text text-anchor="middle" x="436" y="-1072.6" font-family="Courier,monospace" font-size="11.00">InValues</text>
</a>
</g>
<!-- \\Aura\\Filter\\Rule\\InValues&#45;&gt;\\Aura\\Filter\\AbstractRule -->
<g id="edge38" class="edge"><title>\\Aura\\Filter\\Rule\\InValues&#45;&gt;\\Aura\\Filter\\AbstractRule</title>
<path fill="none" stroke="black" d="M401.317,-1067.22C374.678,-1059.49 336.895,-1048.52 305.625,-1039.44"/>
<polygon fill="none" stroke="black" points="306.303,-1035.99 295.724,-1036.56 304.351,-1042.71 306.303,-1035.99"/>
</g>
<!-- \\Aura\\Filter\\Rule\\Ipv4 -->
<g id="node20" class="node"><title>\\Aura\\Filter\\Rule\\Ipv4</title>
<a xlink:href="Rule.Ipv4.html" xlink:title="Ipv4" target="_parent">
<polygon fill="none" stroke="black" points="463,-1041 409,-1041 409,-1005 463,-1005 463,-1041"/>
<text text-anchor="middle" x="436" y="-1018.6" font-family="Courier,monospace" font-size="11.00">Ipv4</text>
</a>
</g>
<!-- \\Aura\\Filter\\Rule\\Ipv4&#45;&gt;\\Aura\\Filter\\AbstractRule -->
<g id="edge40" class="edge"><title>\\Aura\\Filter\\Rule\\Ipv4&#45;&gt;\\Aura\\Filter\\AbstractRule</title>
<path fill="none" stroke="black" d="M408.745,-1023C382.246,-1023 340.466,-1023 306.28,-1023"/>
<polygon fill="none" stroke="black" points="305.939,-1019.5 295.939,-1023 305.939,-1026.5 305.939,-1019.5"/>
</g>
<!-- \\Aura\\Filter\\Rule\\Max -->
<g id="node21" class="node"><title>\\Aura\\Filter\\Rule\\Max</title>
<a xlink:href="Rule.Max.html" xlink:title="Max" target="_parent">
<polygon fill="none" stroke="black" points="463,-987 409,-987 409,-951 463,-951 463,-987"/>
<text text-anchor="middle" x="436" y="-964.6" font-family="Courier,monospace" font-size="11.00">Max</text>
</a>
</g>
<!-- \\Aura\\Filter\\Rule\\Max&#45;&gt;\\Aura\\Filter\\AbstractRule -->
<g id="edge42" class="edge"><title>\\Aura\\Filter\\Rule\\Max&#45;&gt;\\Aura\\Filter\\AbstractRule</title>
<path fill="none" stroke="black" d="M408.745,-976.622C382.132,-984.349 340.106,-996.55 305.838,-1006.5"/>
<polygon fill="none" stroke="black" points="304.567,-1003.22 295.939,-1009.37 306.519,-1009.95 304.567,-1003.22"/>
</g>
<!-- \\Aura\\Filter\\Rule\\Min -->
<g id="node22" class="node"><title>\\Aura\\Filter\\Rule\\Min</title>
<a xlink:href="Rule.Min.html" xlink:title="Min" target="_parent">
<polygon fill="none" stroke="black" points="463,-933 409,-933 409,-897 463,-897 463,-933"/>
<text text-anchor="middle" x="436" y="-910.6" font-family="Courier,monospace" font-size="11.00">Min</text>
</a>
</g>
<!-- \\Aura\\Filter\\Rule\\Min&#45;&gt;\\Aura\\Filter\\AbstractRule -->
<g id="edge44" class="edge"><title>\\Aura\\Filter\\Rule\\Min&#45;&gt;\\Aura\\Filter\\AbstractRule</title>
<path fill="none" stroke="black" d="M408.886,-922.381C394.103,-927.051 375.524,-933.76 360,-942 330.104,-957.868 299.253,-981.026 277.687,-998.52"/>
<polygon fill="none" stroke="black" points="275.402,-995.868 269.898,-1004.92 279.846,-1001.28 275.402,-995.868"/>
</g>
<!-- \\Aura\\Filter\\Rule\\Regex -->
<g id="node23" class="node"><title>\\Aura\\Filter\\Rule\\Regex</title>
<a xlink:href="Rule.Regex.html" xlink:title="Regex" target="_parent">
<polygon fill="none" stroke="black" points="463,-879 409,-879 409,-843 463,-843 463,-879"/>
<text text-anchor="middle" x="436" y="-856.6" font-family="Courier,monospace" font-size="11.00">Regex</text>
</a>
</g>
<!-- \\Aura\\Filter\\Rule\\Regex&#45;&gt;\\Aura\\Filter\\AbstractRule -->
<g id="edge46" class="edge"><title>\\Aura\\Filter\\Rule\\Regex&#45;&gt;\\Aura\\Filter\\AbstractRule</title>
<path fill="none" stroke="black" d="M408.712,-866.747C393.521,-870.938 374.59,-877.713 360,-888 318.648,-917.155 284.072,-965.606 264.989,-995.846"/>
<polygon fill="none" stroke="black" points="261.856,-994.259 259.574,-1004.6 267.81,-997.94 261.856,-994.259"/>
</g>
<!-- \\Aura\\Filter\\Rule\\StrictEqualToField -->
<g id="node24" class="node"><title>\\Aura\\Filter\\Rule\\StrictEqualToField</title>
<a xlink:href="Rule.StrictEqualToField.html" xlink:title="StrictEqualToField" target="_parent">
<polygon fill="none" stroke="black" points="503.319,-825 368.681,-825 368.681,-789 503.319,-789 503.319,-825"/>
<text text-anchor="middle" x="436" y="-802.6" font-family="Courier,monospace" font-size="11.00">StrictEqualToField</text>
</a>
</g>
<!-- \\Aura\\Filter\\Rule\\StrictEqualToField&#45;&gt;\\Aura\\Filter\\AbstractRule -->
<g id="edge48" class="edge"><title>\\Aura\\Filter\\Rule\\StrictEqualToField&#45;&gt;\\Aura\\Filter\\AbstractRule</title>
<path fill="none" stroke="black" d="M373.271,-825.086C368.545,-827.686 364.047,-830.642 360,-834 306.953,-878.019 273.4,-954.376 258.314,-995.265"/>
<polygon fill="none" stroke="black" points="254.956,-994.26 254.876,-1004.85 261.546,-996.623 254.956,-994.26"/>
</g>
<!-- \\Aura\\Filter\\Rule\\StrictEqualToValue -->
<g id="node25" class="node"><title>\\Aura\\Filter\\Rule\\StrictEqualToValue</title>
<a xlink:href="Rule.StrictEqualToValue.html" xlink:title="StrictEqualToValue" target="_parent">
<polygon fill="none" stroke="black" points="503.319,-771 368.681,-771 368.681,-735 503.319,-735 503.319,-771"/>
<text text-anchor="middle" x="436" y="-748.6" font-family="Courier,monospace" font-size="11.00">StrictEqualToValue</text>
</a>
</g>
<!-- \\Aura\\Filter\\Rule\\StrictEqualToValue&#45;&gt;\\Aura\\Filter\\AbstractRule -->
<g id="edge50" class="edge"><title>\\Aura\\Filter\\Rule\\StrictEqualToValue&#45;&gt;\\Aura\\Filter\\AbstractRule</title>
<path fill="none" stroke="black" d="M372.154,-771.074C367.784,-773.667 363.666,-776.626 360,-780 295.004,-839.818 265.281,-945.126 254.321,-995.131"/>
<polygon fill="none" stroke="black" points="250.894,-994.419 252.261,-1004.93 257.745,-995.86 250.894,-994.419"/>
</g>
<!-- \\Aura\\Filter\\Rule\\String -->
<g id="node26" class="node"><title>\\Aura\\Filter\\Rule\\String</title>
<a xlink:href="Rule.String.html" xlink:title="String" target="_parent">
<polygon fill="none" stroke="black" points="463.608,-717 408.392,-717 408.392,-681 463.608,-681 463.608,-717"/>
<text text-anchor="middle" x="436" y="-694.6" font-family="Courier,monospace" font-size="11.00">String</text>
</a>
</g>
<!-- \\Aura\\Filter\\Rule\\String&#45;&gt;\\Aura\\Filter\\AbstractRule -->
<g id="edge52" class="edge"><title>\\Aura\\Filter\\Rule\\String&#45;&gt;\\Aura\\Filter\\AbstractRule</title>
<path fill="none" stroke="black" d="M408.042,-702.912C392.233,-706.487 372.896,-713.259 360,-726 282.955,-802.118 258.771,-936.67 251.704,-994.872"/>
<polygon fill="none" stroke="black" points="248.225,-994.488 250.575,-1004.82 255.18,-995.278 248.225,-994.488"/>
</g>
<!-- \\Aura\\Filter\\Rule\\Strlen -->
<g id="node27" class="node"><title>\\Aura\\Filter\\Rule\\Strlen</title>
<a xlink:href="Rule.Strlen.html" xlink:title="Strlen" target="_parent">
<polygon fill="none" stroke="black" points="463.608,-663 408.392,-663 408.392,-627 463.608,-627 463.608,-663"/>
<text text-anchor="middle" x="436" y="-640.6" font-family="Courier,monospace" font-size="11.00">Strlen</text>
</a>
</g>
<!-- \\Aura\\Filter\\Rule\\Strlen&#45;&gt;\\Aura\\Filter\\AbstractRule -->
<g id="edge54" class="edge"><title>\\Aura\\Filter\\Rule\\Strlen&#45;&gt;\\Aura\\Filter\\AbstractRule</title>
<path fill="none" stroke="black" d="M408.169,-648.599C392.205,-652.065 372.661,-658.832 360,-672 270.624,-764.957 253.18,-929.422 249.801,-994.932"/>
<polygon fill="none" stroke="black" points="246.304,-994.778 249.357,-1004.92 253.297,-995.089 246.304,-994.778"/>
</g>
<!-- \\Aura\\Filter\\Rule\\StrlenBetween -->
<g id="node28" class="node"><title>\\Aura\\Filter\\Rule\\StrlenBetween</title>
<a xlink:href="Rule.StrlenBetween.html" xlink:title="StrlenBetween" target="_parent">
<polygon fill="none" stroke="black" points="486.814,-609 385.186,-609 385.186,-573 486.814,-573 486.814,-609"/>
<text text-anchor="middle" x="436" y="-586.6" font-family="Courier,monospace" font-size="11.00">StrlenBetween</text>
</a>
</g>
<!-- \\Aura\\Filter\\Rule\\StrlenBetween&#45;&gt;\\Aura\\Filter\\AbstractRule -->
<g id="edge56" class="edge"><title>\\Aura\\Filter\\Rule\\StrlenBetween&#45;&gt;\\Aura\\Filter\\AbstractRule</title>
<path fill="none" stroke="black" d="M384.946,-601.457C375.658,-605.349 366.765,-610.685 360,-618 258.298,-727.967 248.344,-922.281 248.379,-994.729"/>
<polygon fill="none" stroke="black" points="244.88,-994.92 248.452,-1004.89 251.88,-994.87 244.88,-994.92"/>
</g>
<!-- \\Aura\\Filter\\Rule\\StrlenMax -->
<g id="node29" class="node"><title>\\Aura\\Filter\\Rule\\StrlenMax</title>
<a xlink:href="Rule.StrlenMax.html" xlink:title="StrlenMax" target="_parent">
<polygon fill="none" stroke="black" points="473.911,-555 398.089,-555 398.089,-519 473.911,-519 473.911,-555"/>
<text text-anchor="middle" x="436" y="-532.6" font-family="Courier,monospace" font-size="11.00">StrlenMax</text>
</a>
</g>
<!-- \\Aura\\Filter\\Rule\\StrlenMax&#45;&gt;\\Aura\\Filter\\AbstractRule -->
<g id="edge58" class="edge"><title>\\Aura\\Filter\\Rule\\StrlenMax&#45;&gt;\\Aura\\Filter\\AbstractRule</title>
<path fill="none" stroke="black" d="M398.017,-542.7C384.338,-546.575 369.796,-553.081 360,-564 301.47,-629.237 263.28,-905.675 252.282,-995.023"/>
<polygon fill="none" stroke="black" points="248.806,-994.616 251.076,-1004.96 255.755,-995.459 248.806,-994.616"/>
</g>
<!-- \\Aura\\Filter\\Rule\\StrlenMin -->
<g id="node30" class="node"><title>\\Aura\\Filter\\Rule\\StrlenMin</title>
<a xlink:href="Rule.StrlenMin.html" xlink:title="StrlenMin" target="_parent">
<polygon fill="none" stroke="black" points="473.911,-501 398.089,-501 398.089,-465 473.911,-465 473.911,-501"/>
<text text-anchor="middle" x="436" y="-478.6" font-family="Courier,monospace" font-size="11.00">StrlenMin</text>
</a>
</g>
<!-- \\Aura\\Filter\\Rule\\StrlenMin&#45;&gt;\\Aura\\Filter\\AbstractRule -->
<g id="edge60" class="edge"><title>\\Aura\\Filter\\Rule\\StrlenMin&#45;&gt;\\Aura\\Filter\\AbstractRule</title>
<path fill="none" stroke="black" d="M398.268,-488.47C384.457,-492.315 369.755,-498.859 360,-510 295.191,-584.017 260.741,-898.141 251.544,-994.667"/>
<polygon fill="none" stroke="black" points="248.04,-994.549 250.593,-1004.83 255.009,-995.201 248.04,-994.549"/>
</g>
<!-- \\Aura\\Filter\\Rule\\Trim -->
<g id="node31" class="node"><title>\\Aura\\Filter\\Rule\\Trim</title>
<a xlink:href="Rule.Trim.html" xlink:title="Trim" target="_parent">
<polygon fill="none" stroke="black" points="463,-447 409,-447 409,-411 463,-411 463,-447"/>
<text text-anchor="middle" x="436" y="-424.6" font-family="Courier,monospace" font-size="11.00">Trim</text>
</a>
</g>
<!-- \\Aura\\Filter\\Rule\\Trim&#45;&gt;\\Aura\\Filter\\AbstractRule -->
<g id="edge62" class="edge"><title>\\Aura\\Filter\\Rule\\Trim&#45;&gt;\\Aura\\Filter\\AbstractRule</title>
<path fill="none" stroke="black" d="M408.728,-431.892C392.359,-435.09 372.168,-441.823 360,-456 288.853,-538.895 258.42,-891.192 250.923,-994.449"/>
<polygon fill="none" stroke="black" points="247.411,-994.496 250.195,-1004.72 254.394,-994.992 247.411,-994.496"/>
</g>
<!-- \\Aura\\Filter\\Rule\\Upload -->
<g id="node32" class="node"><title>\\Aura\\Filter\\Rule\\Upload</title>
<a xlink:href="Rule.Upload.html" xlink:title="Upload" target="_parent">
<polygon fill="none" stroke="black" points="463.608,-393 408.392,-393 408.392,-357 463.608,-357 463.608,-393"/>
<text text-anchor="middle" x="436" y="-370.6" font-family="Courier,monospace" font-size="11.00">Upload</text>
</a>
</g>
<!-- \\Aura\\Filter\\Rule\\Upload&#45;&gt;\\Aura\\Filter\\AbstractRule -->
<g id="edge64" class="edge"><title>\\Aura\\Filter\\Rule\\Upload&#45;&gt;\\Aura\\Filter\\AbstractRule</title>
<path fill="none" stroke="black" d="M408.285,-377.897C391.95,-381.096 371.961,-387.829 360,-402 282.396,-493.937 256.238,-885.463 250.381,-994.635"/>
<polygon fill="none" stroke="black" points="246.874,-994.692 249.848,-1004.86 253.864,-995.056 246.874,-994.692"/>
</g>
<!-- \\Aura\\Filter\\Rule\\Url -->
<g id="node33" class="node"><title>\\Aura\\Filter\\Rule\\Url</title>
<a xlink:href="Rule.Url.html" xlink:title="Url" target="_parent">
<polygon fill="none" stroke="black" points="463,-339 409,-339 409,-303 463,-303 463,-339"/>
<text text-anchor="middle" x="436" y="-316.6" font-family="Courier,monospace" font-size="11.00">Url</text>
</a>
</g>
<!-- \\Aura\\Filter\\Rule\\Url&#45;&gt;\\Aura\\Filter\\AbstractRule -->
<g id="edge66" class="edge"><title>\\Aura\\Filter\\Rule\\Url&#45;&gt;\\Aura\\Filter\\AbstractRule</title>
<path fill="none" stroke="black" d="M408.947,-323.7C392.454,-326.818 372.04,-333.534 360,-348 275.914,-449.031 254.251,-880.026 249.928,-994.816"/>
<polygon fill="none" stroke="black" points="246.427,-994.796 249.563,-1004.92 253.422,-995.05 246.427,-994.796"/>
</g>
<!-- \\Aura\\Filter\\Rule\\Word -->
<g id="node34" class="node"><title>\\Aura\\Filter\\Rule\\Word</title>
<a xlink:href="Rule.Word.html" xlink:title="Word" target="_parent">
<polygon fill="none" stroke="black" points="463,-285 409,-285 409,-249 463,-249 463,-285"/>
<text text-anchor="middle" x="436" y="-262.6" font-family="Courier,monospace" font-size="11.00">Word</text>
</a>
</g>
<!-- \\Aura\\Filter\\Rule\\Word&#45;&gt;\\Aura\\Filter\\AbstractRule -->
<g id="edge68" class="edge"><title>\\Aura\\Filter\\Rule\\Word&#45;&gt;\\Aura\\Filter\\AbstractRule</title>
<path fill="none" stroke="black" d="M408.891,-269.653C392.374,-272.751 371.954,-279.463 360,-294 269.522,-404.035 252.468,-873.703 249.556,-994.553"/>
<polygon fill="none" stroke="black" points="246.05,-994.753 249.323,-1004.83 253.049,-994.912 246.05,-994.753"/>
</g>
<!-- \\Aura\\Filter\\RuleInterface -->
<g id="node38" class="node"><title>\\Aura\\Filter\\RuleInterface</title>
<a xlink:href="RuleInterface.html" xlink:title="RuleInterface" target="_parent">
<polygon fill="none" stroke="black" points="125.814,-1041 24.1859,-1041 24.1859,-1005 125.814,-1005 125.814,-1041"/>
<text text-anchor="middle" x="75" y="-1018.6" font-family="Courier,monospace" font-size="11.00">RuleInterface</text>
</a>
</g>
<!-- \\Aura\\Filter\\AbstractRule&#45;&gt;\\Aura\\Filter\\RuleInterface -->
<g id="edge70" class="edge"><title>\\Aura\\Filter\\AbstractRule&#45;&gt;\\Aura\\Filter\\RuleInterface</title>
<path fill="none" stroke="black" stroke-dasharray="1,5" d="M200.273,-1023C180.473,-1023 157.153,-1023 136.094,-1023"/>
<polygon fill="none" stroke="black" points="135.963,-1019.5 125.963,-1023 135.963,-1026.5 135.963,-1019.5"/>
</g>
<!-- \\Exception -->
<g id="node44" class="node"><title>\\Exception</title>
<ellipse fill="none" stroke="black" cx="75" cy="-18" rx="52.7417" ry="18"/>
<text text-anchor="middle" x="75" y="-12.4" font-family="Times,serif" font-size="14.00" fill="gray">\Exception</text>
</g>
<!-- \\Aura\\Filter\\Exception&#45;&gt;\\Exception -->
<g id="edge10" class="edge"><title>\\Aura\\Filter\\Exception&#45;&gt;\\Exception</title>
<path fill="none" stroke="black" d="M222.833,-113.959C199.101,-96.4786 161.661,-69.5266 128,-48 122.994,-44.7984 117.638,-41.5349 112.337,-38.3957"/>
<polygon fill="none" stroke="black" points="113.94,-35.2788 103.539,-33.2631 110.413,-41.3252 113.94,-35.2788"/>
</g>
<!-- \\Aura\\Filter\\RuleCollection -->
<g id="node37" class="node"><title>\\Aura\\Filter\\RuleCollection</title>
<a xlink:href="RuleCollection.html" xlink:title="RuleCollection" target="_parent">
<polygon fill="none" stroke="black" points="490.416,-150 381.584,-150 381.584,-114 490.416,-114 490.416,-150"/>
<text text-anchor="middle" x="436" y="-127.6" font-family="Courier,monospace" font-size="11.00">RuleCollection</text>
</a>
</g>
<!-- \\Aura\\Filter\\RuleLocator -->
<g id="node39" class="node"><title>\\Aura\\Filter\\RuleLocator</title>
<a xlink:href="RuleLocator.html" xlink:title="RuleLocator" target="_parent">
<polygon fill="none" stroke="black" points="480.113,-96 391.887,-96 391.887,-60 480.113,-60 480.113,-96"/>
<text text-anchor="middle" x="436" y="-73.6" font-family="Courier,monospace" font-size="11.00">RuleLocator</text>
</a>
</g>
</g>
</svg>
