<?xml version="1.0" encoding="UTF-8" standalone="no"?>
<!DOCTYPE svg PUBLIC "-//W3C//DTD SVG 1.1//EN"
 "http://www.w3.org/Graphics/SVG/1.1/DTD/svg11.dtd">
<!-- Generated by graphviz version 2.28.0 (20111028.1807)
 -->
<!-- Title: G Pages: 1 -->
<svg width="554pt" height="595pt"
 viewBox="0.00 0.00 554.00 595.00" xmlns="http://www.w3.org/2000/svg" xmlns:xlink="http://www.w3.org/1999/xlink">
<g id="graph1" class="graph" transform="scale(1 1) rotate(0) translate(4 591)">
<title>G</title>
<polygon fill="white" stroke="white" points="-4,5 -4,-591 551,-591 551,5 -4,5"/>
<g id="graph2" class="cluster"><title>cluster_Aura</title>
<polyline fill="none" stroke="gray" points="174,-8 526,-8 "/>
<path fill="none" stroke="gray" d="M526,-8C532,-8 538,-14 538,-20"/>
<polyline fill="none" stroke="gray" points="538,-20 538,-567 "/>
<path fill="none" stroke="gray" d="M538,-567C538,-573 532,-579 526,-579"/>
<polyline fill="none" stroke="gray" points="526,-579 174,-579 "/>
<path fill="none" stroke="gray" d="M174,-579C168,-579 162,-573 162,-567"/>
<polyline fill="none" stroke="gray" points="162,-567 162,-20 "/>
<path fill="none" stroke="gray" d="M162,-20C162,-14 168,-8 174,-8"/>
<text text-anchor="middle" x="350" y="-564" font-family="Times,serif" font-size="11.00" fill="gray">Aura</text>
</g>
<g id="graph3" class="cluster"><title>cluster_Aura\Di</title>
<polyline fill="none" stroke="gray" points="182,-16 518,-16 "/>
<path fill="none" stroke="gray" d="M518,-16C524,-16 530,-22 530,-28"/>
<polyline fill="none" stroke="gray" points="530,-28 530,-538 "/>
<path fill="none" stroke="gray" d="M530,-538C530,-544 524,-550 518,-550"/>
<polyline fill="none" stroke="gray" points="518,-550 182,-550 "/>
<path fill="none" stroke="gray" d="M182,-550C176,-550 170,-544 170,-538"/>
<polyline fill="none" stroke="gray" points="170,-538 170,-28 "/>
<path fill="none" stroke="gray" d="M170,-28C170,-22 176,-16 182,-16"/>
<text text-anchor="middle" x="350" y="-535" font-family="Times,serif" font-size="11.00" fill="gray">Di</text>
</g>
<g id="graph4" class="cluster"><title>cluster_Aura\Di\Exception</title>
<polyline fill="none" stroke="gray" points="390,-232 510,-232 "/>
<path fill="none" stroke="gray" d="M510,-232C516,-232 522,-238 522,-244"/>
<polyline fill="none" stroke="gray" points="522,-244 522,-509 "/>
<path fill="none" stroke="gray" d="M522,-509C522,-515 516,-521 510,-521"/>
<polyline fill="none" stroke="gray" points="510,-521 390,-521 "/>
<path fill="none" stroke="gray" d="M390,-521C384,-521 378,-515 378,-509"/>
<polyline fill="none" stroke="gray" points="378,-509 378,-244 "/>
<path fill="none" stroke="gray" d="M378,-244C378,-238 384,-232 390,-232"/>
<text text-anchor="middle" x="450" y="-506" font-family="Times,serif" font-size="11.00" fill="gray">Exception</text>
</g>
<!-- \\Aura\\Di\\Exception\\ContainerExists -->
<g id="node4" class="node"><title>\\Aura\\Di\\Exception\\ContainerExists</title>
<a xlink:href="Exception.ContainerExists.html" xlink:title="ContainerExists" target="_parent">
<polygon fill="none" stroke="black" points="507.516,-492 392.484,-492 392.484,-456 507.516,-456 507.516,-492"/>
<text text-anchor="middle" x="450" y="-469.6" font-family="Courier,monospace" font-size="11.00">ContainerExists</text>
</a>
</g>
<!-- \\Aura\\Di\\Exception -->
<g id="node13" class="node"><title>\\Aura\\Di\\Exception</title>
<a xlink:href="Exception.html" xlink:title="Exception" target="_parent">
<polygon fill="none" stroke="black" points="283.911,-384 208.089,-384 208.089,-348 283.911,-348 283.911,-384"/>
<text text-anchor="middle" x="246" y="-361.6" font-family="Courier,monospace" font-size="11.00">Exception</text>
</a>
</g>
<!-- \\Aura\\Di\\Exception\\ContainerExists&#45;&gt;\\Aura\\Di\\Exception -->
<g id="edge6" class="edge"><title>\\Aura\\Di\\Exception\\ContainerExists&#45;&gt;\\Aura\\Di\\Exception</title>
<path fill="none" stroke="black" d="M398.072,-455.986C391.236,-453.176 384.386,-450.152 378,-447 343.964,-430.197 307.395,-407.123 281.567,-389.899"/>
<polygon fill="none" stroke="black" points="283.491,-386.975 273.239,-384.3 279.585,-392.784 283.491,-386.975"/>
</g>
<!-- \\Aura\\Di\\Exception\\ContainerLocked -->
<g id="node5" class="node"><title>\\Aura\\Di\\Exception\\ContainerLocked</title>
<a xlink:href="Exception.ContainerLocked.html" xlink:title="ContainerLocked" target="_parent">
<polygon fill="none" stroke="black" points="507.516,-438 392.484,-438 392.484,-402 507.516,-402 507.516,-438"/>
<text text-anchor="middle" x="450" y="-415.6" font-family="Courier,monospace" font-size="11.00">ContainerLocked</text>
</a>
</g>
<!-- \\Aura\\Di\\Exception\\ContainerLocked&#45;&gt;\\Aura\\Di\\Exception -->
<g id="edge8" class="edge"><title>\\Aura\\Di\\Exception\\ContainerLocked&#45;&gt;\\Aura\\Di\\Exception</title>
<path fill="none" stroke="black" d="M392.463,-404.886C361.35,-396.569 323.204,-386.371 293.782,-378.506"/>
<polygon fill="none" stroke="black" points="294.329,-375.03 283.765,-375.828 292.521,-381.792 294.329,-375.03"/>
</g>
<!-- \\Aura\\Di\\Exception\\ContainerNotFound -->
<g id="node6" class="node"><title>\\Aura\\Di\\Exception\\ContainerNotFound</title>
<a xlink:href="Exception.ContainerNotFound.html" xlink:title="ContainerNotFound" target="_parent">
<polygon fill="none" stroke="black" points="514.218,-384 385.782,-384 385.782,-348 514.218,-348 514.218,-384"/>
<text text-anchor="middle" x="450" y="-361.6" font-family="Courier,monospace" font-size="11.00">ContainerNotFound</text>
</a>
</g>
<!-- \\Aura\\Di\\Exception\\ContainerNotFound&#45;&gt;\\Aura\\Di\\Exception -->
<g id="edge10" class="edge"><title>\\Aura\\Di\\Exception\\ContainerNotFound&#45;&gt;\\Aura\\Di\\Exception</title>
<path fill="none" stroke="black" d="M385.64,-366C355.99,-366 321.289,-366 294.022,-366"/>
<polygon fill="none" stroke="black" points="293.961,-362.5 283.961,-366 293.961,-369.5 293.961,-362.5"/>
</g>
<!-- \\Aura\\Di\\Exception\\ServiceInvalid -->
<g id="node7" class="node"><title>\\Aura\\Di\\Exception\\ServiceInvalid</title>
<a xlink:href="Exception.ServiceInvalid.html" xlink:title="ServiceInvalid" target="_parent">
<polygon fill="none" stroke="black" points="504.416,-330 395.584,-330 395.584,-294 504.416,-294 504.416,-330"/>
<text text-anchor="middle" x="450" y="-307.6" font-family="Courier,monospace" font-size="11.00">ServiceInvalid</text>
</a>
</g>
<!-- \\Aura\\Di\\Exception\\ServiceInvalid&#45;&gt;\\Aura\\Di\\Exception -->
<g id="edge12" class="edge"><title>\\Aura\\Di\\Exception\\ServiceInvalid&#45;&gt;\\Aura\\Di\\Exception</title>
<path fill="none" stroke="black" d="M395.663,-326.258C364.053,-334.709 324.361,-345.319 293.943,-353.451"/>
<polygon fill="none" stroke="black" points="292.765,-350.143 284.008,-356.107 294.573,-356.905 292.765,-350.143"/>
</g>
<!-- \\Aura\\Di\\Exception\\ServiceNotFound -->
<g id="node8" class="node"><title>\\Aura\\Di\\Exception\\ServiceNotFound</title>
<a xlink:href="Exception.ServiceNotFound.html" xlink:title="ServiceNotFound" target="_parent">
<polygon fill="none" stroke="black" points="507.516,-276 392.484,-276 392.484,-240 507.516,-240 507.516,-276"/>
<text text-anchor="middle" x="450" y="-253.6" font-family="Courier,monospace" font-size="11.00">ServiceNotFound</text>
</a>
</g>
<!-- \\Aura\\Di\\Exception\\ServiceNotFound&#45;&gt;\\Aura\\Di\\Exception -->
<g id="edge14" class="edge"><title>\\Aura\\Di\\Exception\\ServiceNotFound&#45;&gt;\\Aura\\Di\\Exception</title>
<path fill="none" stroke="black" d="M398.072,-276.014C391.236,-278.824 384.386,-281.848 378,-285 343.964,-301.803 307.395,-324.877 281.567,-342.101"/>
<polygon fill="none" stroke="black" points="279.585,-339.216 273.239,-347.7 283.491,-345.025 279.585,-339.216"/>
</g>
<!-- \\Aura\\Di\\Config -->
<g id="node9" class="node"><title>\\Aura\\Di\\Config</title>
<a xlink:href="Config.html" xlink:title="Config" target="_parent">
<polygon fill="none" stroke="black" points="477.608,-222 422.392,-222 422.392,-186 477.608,-186 477.608,-222"/>
<text text-anchor="middle" x="450" y="-199.6" font-family="Courier,monospace" font-size="11.00">Config</text>
</a>
</g>
<!-- \\Aura\\Di\\ConfigInterface -->
<g id="node10" class="node"><title>\\Aura\\Di\\ConfigInterface</title>
<a xlink:href="ConfigInterface.html" xlink:title="ConfigInterface" target="_parent">
<polygon fill="none" stroke="black" points="303.516,-222 188.484,-222 188.484,-186 303.516,-186 303.516,-222"/>
<text text-anchor="middle" x="246" y="-199.6" font-family="Courier,monospace" font-size="11.00">ConfigInterface</text>
</a>
</g>
<!-- \\Aura\\Di\\Config&#45;&gt;\\Aura\\Di\\ConfigInterface -->
<g id="edge18" class="edge"><title>\\Aura\\Di\\Config&#45;&gt;\\Aura\\Di\\ConfigInterface</title>
<path fill="none" stroke="black" stroke-dasharray="1,5" d="M422.176,-204C394.709,-204 350.929,-204 314.01,-204"/>
<polygon fill="none" stroke="black" points="313.797,-200.5 303.797,-204 313.797,-207.5 313.797,-200.5"/>
</g>
<!-- \\Aura\\Di\\Container -->
<g id="node11" class="node"><title>\\Aura\\Di\\Container</title>
<a xlink:href="Container.html" xlink:title="Container" target="_parent">
<polygon fill="none" stroke="black" points="487.911,-168 412.089,-168 412.089,-132 487.911,-132 487.911,-168"/>
<text text-anchor="middle" x="450" y="-145.6" font-family="Courier,monospace" font-size="11.00">Container</text>
</a>
</g>
<!-- \\Aura\\Di\\ContainerInterface -->
<g id="node12" class="node"><title>\\Aura\\Di\\ContainerInterface</title>
<a xlink:href="ContainerInterface.html" xlink:title="ContainerInterface" target="_parent">
<polygon fill="none" stroke="black" points="313.319,-168 178.681,-168 178.681,-132 313.319,-132 313.319,-168"/>
<text text-anchor="middle" x="246" y="-145.6" font-family="Courier,monospace" font-size="11.00">ContainerInterface</text>
</a>
</g>
<!-- \\Aura\\Di\\Container&#45;&gt;\\Aura\\Di\\ContainerInterface -->
<g id="edge20" class="edge"><title>\\Aura\\Di\\Container&#45;&gt;\\Aura\\Di\\ContainerInterface</title>
<path fill="none" stroke="black" stroke-dasharray="1,5" d="M411.95,-150C387.289,-150 353.986,-150 323.761,-150"/>
<polygon fill="none" stroke="black" points="323.645,-146.5 313.645,-150 323.645,-153.5 323.645,-146.5"/>
</g>
<!-- \\Exception -->
<g id="node24" class="node"><title>\\Exception</title>
<ellipse fill="none" stroke="black" cx="53" cy="-366" rx="52.7417" ry="18"/>
<text text-anchor="middle" x="53" y="-360.4" font-family="Times,serif" font-size="14.00" fill="gray">\Exception</text>
</g>
<!-- \\Aura\\Di\\Exception&#45;&gt;\\Exception -->
<g id="edge16" class="edge"><title>\\Aura\\Di\\Exception&#45;&gt;\\Exception</title>
<path fill="none" stroke="black" d="M208.173,-366C182.072,-366 146.423,-366 115.98,-366"/>
<polygon fill="none" stroke="black" points="115.876,-362.5 105.876,-366 115.876,-369.5 115.876,-362.5"/>
</g>
<!-- \\Aura\\Di\\Forge -->
<g id="node14" class="node"><title>\\Aura\\Di\\Forge</title>
<a xlink:href="Forge.html" xlink:title="Forge" target="_parent">
<polygon fill="none" stroke="black" points="477,-114 423,-114 423,-78 477,-78 477,-114"/>
<text text-anchor="middle" x="450" y="-91.6" font-family="Courier,monospace" font-size="11.00">Forge</text>
</a>
</g>
<!-- \\Aura\\Di\\ForgeInterface -->
<g id="node15" class="node"><title>\\Aura\\Di\\ForgeInterface</title>
<a xlink:href="ForgeInterface.html" xlink:title="ForgeInterface" target="_parent">
<polygon fill="none" stroke="black" points="300.416,-114 191.584,-114 191.584,-78 300.416,-78 300.416,-114"/>
<text text-anchor="middle" x="246" y="-91.6" font-family="Courier,monospace" font-size="11.00">ForgeInterface</text>
</a>
</g>
<!-- \\Aura\\Di\\Forge&#45;&gt;\\Aura\\Di\\ForgeInterface -->
<g id="edge22" class="edge"><title>\\Aura\\Di\\Forge&#45;&gt;\\Aura\\Di\\ForgeInterface</title>
<path fill="none" stroke="black" stroke-dasharray="1,5" d="M422.592,-96C394.342,-96 348.5,-96 310.74,-96"/>
<polygon fill="none" stroke="black" points="310.325,-92.5001 300.325,-96 310.325,-99.5001 310.325,-92.5001"/>
</g>
<!-- \\Aura\\Di\\Lazy -->
<g id="node16" class="node"><title>\\Aura\\Di\\Lazy</title>
<a xlink:href="Lazy.html" xlink:title="Lazy" target="_parent">
<polygon fill="none" stroke="black" points="477,-60 423,-60 423,-24 477,-24 477,-60"/>
<text text-anchor="middle" x="450" y="-37.6" font-family="Courier,monospace" font-size="11.00">Lazy</text>
</a>
</g>
</g>
</svg>
