<?xml version="1.0" encoding="UTF-8" standalone="no"?>
<!DOCTYPE svg PUBLIC "-//W3C//DTD SVG 1.1//EN"
 "http://www.w3.org/Graphics/SVG/1.1/DTD/svg11.dtd">
<!-- Generated by graphviz version 2.28.0 (20110509.1545)
 -->
<!-- Title: G Pages: 1 -->
<svg width="468pt" height="325pt"
 viewBox="0.00 0.00 468.00 325.00" xmlns="http://www.w3.org/2000/svg" xmlns:xlink="http://www.w3.org/1999/xlink">
<g id="graph1" class="graph" transform="scale(1 1) rotate(0) translate(4 321)">
<title>G</title>
<polygon fill="white" stroke="white" points="-4,5 -4,-321 465,-321 465,5 -4,5"/>
<g id="graph2" class="cluster"><title>cluster_Aura</title>
<polyline fill="none" stroke="gray" points="174,-8 440,-8 "/>
<path fill="none" stroke="gray" d="M440,-8C446,-8 452,-14 452,-20"/>
<polyline fill="none" stroke="gray" points="452,-20 452,-297 "/>
<path fill="none" stroke="gray" d="M452,-297C452,-303 446,-309 440,-309"/>
<polyline fill="none" stroke="gray" points="440,-309 174,-309 "/>
<path fill="none" stroke="gray" d="M174,-309C168,-309 162,-303 162,-297"/>
<polyline fill="none" stroke="gray" points="162,-297 162,-20 "/>
<path fill="none" stroke="gray" d="M162,-20C162,-14 168,-8 174,-8"/>
<text text-anchor="middle" x="307" y="-294" font-family="Times,serif" font-size="11.00" fill="gray">Aura</text>
</g>
<g id="graph3" class="cluster"><title>cluster_Aura\Autoload</title>
<polyline fill="none" stroke="gray" points="182,-16 432,-16 "/>
<path fill="none" stroke="gray" d="M432,-16C438,-16 444,-22 444,-28"/>
<polyline fill="none" stroke="gray" points="444,-28 444,-268 "/>
<path fill="none" stroke="gray" d="M444,-268C444,-274 438,-280 432,-280"/>
<polyline fill="none" stroke="gray" points="432,-280 182,-280 "/>
<path fill="none" stroke="gray" d="M182,-280C176,-280 170,-274 170,-268"/>
<polyline fill="none" stroke="gray" points="170,-268 170,-28 "/>
<path fill="none" stroke="gray" d="M170,-28C170,-22 176,-16 182,-16"/>
<text text-anchor="middle" x="307" y="-265" font-family="Times,serif" font-size="11.00" fill="gray">Autoload</text>
</g>
<g id="graph4" class="cluster"><title>cluster_Aura\Autoload\Exception</title>
<polyline fill="none" stroke="gray" points="330,-70 424,-70 "/>
<path fill="none" stroke="gray" d="M424,-70C430,-70 436,-76 436,-82"/>
<polyline fill="none" stroke="gray" points="436,-82 436,-239 "/>
<path fill="none" stroke="gray" d="M436,-239C436,-245 430,-251 424,-251"/>
<polyline fill="none" stroke="gray" points="424,-251 330,-251 "/>
<path fill="none" stroke="gray" d="M330,-251C324,-251 318,-245 318,-239"/>
<polyline fill="none" stroke="gray" points="318,-239 318,-82 "/>
<path fill="none" stroke="gray" d="M318,-82C318,-76 324,-70 330,-70"/>
<text text-anchor="middle" x="377" y="-236" font-family="Times,serif" font-size="11.00" fill="gray">Exception</text>
</g>
<!-- \\Aura\\Autoload\\Exception\\AlreadyLoaded -->
<g id="node4" class="node"><title>\\Aura\\Autoload\\Exception\\AlreadyLoaded</title>
<a xlink:href="db_Aura_Autoload_Exception_AlreadyLoaded.html" xlink:title="AlreadyLoaded" target="_parent">
<polygon fill="none" stroke="black" points="427.814,-222 326.186,-222 326.186,-186 427.814,-186 427.814,-222"/>
<text text-anchor="middle" x="377" y="-199.6" font-family="Courier,monospace" font-size="11.00">AlreadyLoaded</text>
</a>
</g>
<!-- \\Aura\\Autoload\\Exception -->
<g id="node7" class="node"><title>\\Aura\\Autoload\\Exception</title>
<a xlink:href="db_Aura_Autoload_Exception.html" xlink:title="Exception" target="_parent">
<polygon fill="none" stroke="black" points="253.911,-168 178.089,-168 178.089,-132 253.911,-132 253.911,-168"/>
<text text-anchor="middle" x="216" y="-145.6" font-family="Courier,monospace" font-size="11.00">Exception</text>
</a>
</g>
<!-- \\Aura\\Autoload\\Exception\\AlreadyLoaded&#45;&gt;\\Aura\\Autoload\\Exception -->
<g id="edge6" class="edge"><title>\\Aura\\Autoload\\Exception\\AlreadyLoaded&#45;&gt;\\Aura\\Autoload\\Exception</title>
<path fill="none" stroke="black" d="M326.128,-187.062C306.183,-180.288 283.334,-172.529 263.715,-165.866"/>
<polygon fill="none" stroke="black" points="264.672,-162.494 254.078,-162.592 262.421,-169.122 264.672,-162.494"/>
</g>
<!-- \\Aura\\Autoload\\Exception\\NotDeclared -->
<g id="node5" class="node"><title>\\Aura\\Autoload\\Exception\\NotDeclared</title>
<a xlink:href="db_Aura_Autoload_Exception_NotDeclared.html" xlink:title="NotDeclared" target="_parent">
<polygon fill="none" stroke="black" points="421.113,-168 332.887,-168 332.887,-132 421.113,-132 421.113,-168"/>
<text text-anchor="middle" x="377" y="-145.6" font-family="Courier,monospace" font-size="11.00">NotDeclared</text>
</a>
</g>
<!-- \\Aura\\Autoload\\Exception\\NotDeclared&#45;&gt;\\Aura\\Autoload\\Exception -->
<g id="edge8" class="edge"><title>\\Aura\\Autoload\\Exception\\NotDeclared&#45;&gt;\\Aura\\Autoload\\Exception</title>
<path fill="none" stroke="black" d="M332.553,-150C311.376,-150 285.869,-150 264.213,-150"/>
<polygon fill="none" stroke="black" points="263.928,-146.5 253.927,-150 263.927,-153.5 263.928,-146.5"/>
</g>
<!-- \\Aura\\Autoload\\Exception\\NotReadable -->
<g id="node6" class="node"><title>\\Aura\\Autoload\\Exception\\NotReadable</title>
<a xlink:href="db_Aura_Autoload_Exception_NotReadable.html" xlink:title="NotReadable" target="_parent">
<polygon fill="none" stroke="black" points="421.113,-114 332.887,-114 332.887,-78 421.113,-78 421.113,-114"/>
<text text-anchor="middle" x="377" y="-91.6" font-family="Courier,monospace" font-size="11.00">NotReadable</text>
</a>
</g>
<!-- \\Aura\\Autoload\\Exception\\NotReadable&#45;&gt;\\Aura\\Autoload\\Exception -->
<g id="edge10" class="edge"><title>\\Aura\\Autoload\\Exception\\NotReadable&#45;&gt;\\Aura\\Autoload\\Exception</title>
<path fill="none" stroke="black" d="M332.553,-110.756C311.183,-118.013 285.405,-126.768 263.624,-134.166"/>
<polygon fill="none" stroke="black" points="262.271,-130.929 253.927,-137.459 264.522,-137.557 262.271,-130.929"/>
</g>
<!-- \\Exception -->
<g id="node14" class="node"><title>\\Exception</title>
<ellipse fill="none" stroke="black" cx="53" cy="-150" rx="52.7417" ry="18"/>
<text text-anchor="middle" x="53" y="-144.4" font-family="Times,serif" font-size="14.00" fill="gray">\Exception</text>
</g>
<!-- \\Aura\\Autoload\\Exception&#45;&gt;\\Exception -->
<g id="edge12" class="edge"><title>\\Aura\\Autoload\\Exception&#45;&gt;\\Exception</title>
<path fill="none" stroke="black" d="M178.063,-150C159.713,-150 137.042,-150 116.12,-150"/>
<polygon fill="none" stroke="black" points="116.017,-146.5 106.017,-150 116.017,-153.5 116.017,-146.5"/>
</g>
<!-- \\Aura\\Autoload\\Loader -->
<g id="node8" class="node"><title>\\Aura\\Autoload\\Loader</title>
<a xlink:href="db_Aura_Autoload_Loader.html" xlink:title="Loader" target="_parent">
<polygon fill="none" stroke="black" points="404.608,-60 349.392,-60 349.392,-24 404.608,-24 404.608,-60"/>
<text text-anchor="middle" x="377" y="-37.6" font-family="Courier,monospace" font-size="11.00">Loader</text>
</a>
</g>
</g>
</svg>
