<?xml version="1.0" encoding="UTF-8" standalone="no"?>
<!DOCTYPE svg PUBLIC "-//W3C//DTD SVG 1.1//EN"
 "http://www.w3.org/Graphics/SVG/1.1/DTD/svg11.dtd">
<!-- Generated by graphviz version 2.28.0 (20111028.1807)
 -->
<!-- Title: G Pages: 1 -->
<svg width="492pt" height="891pt"
 viewBox="0.00 0.00 492.00 891.00" xmlns="http://www.w3.org/2000/svg" xmlns:xlink="http://www.w3.org/1999/xlink">
<g id="graph1" class="graph" transform="scale(1 1) rotate(0) translate(4 887)">
<title>G</title>
<polygon fill="white" stroke="white" points="-4,5 -4,-887 489,-887 489,5 -4,5"/>
<g id="graph2" class="cluster"><title>cluster_Aura</title>
<polyline fill="none" stroke="gray" points="20,-44 464,-44 "/>
<path fill="none" stroke="gray" d="M464,-44C470,-44 476,-50 476,-56"/>
<polyline fill="none" stroke="gray" points="476,-56 476,-863 "/>
<path fill="none" stroke="gray" d="M476,-863C476,-869 470,-875 464,-875"/>
<polyline fill="none" stroke="gray" points="464,-875 20,-875 "/>
<path fill="none" stroke="gray" d="M20,-875C14,-875 8,-869 8,-863"/>
<polyline fill="none" stroke="gray" points="8,-863 8,-56 "/>
<path fill="none" stroke="gray" d="M8,-56C8,-50 14,-44 20,-44"/>
<text text-anchor="middle" x="242" y="-860" font-family="Times,serif" font-size="11.00" fill="gray">Aura</text>
</g>
<g id="graph3" class="cluster"><title>cluster_Aura\Intl</title>
<polyline fill="none" stroke="gray" points="28,-52 456,-52 "/>
<path fill="none" stroke="gray" d="M456,-52C462,-52 468,-58 468,-64"/>
<polyline fill="none" stroke="gray" points="468,-64 468,-834 "/>
<path fill="none" stroke="gray" d="M468,-834C468,-840 462,-846 456,-846"/>
<polyline fill="none" stroke="gray" points="456,-846 28,-846 "/>
<path fill="none" stroke="gray" d="M28,-846C22,-846 16,-840 16,-834"/>
<polyline fill="none" stroke="gray" points="16,-834 16,-64 "/>
<path fill="none" stroke="gray" d="M16,-64C16,-58 22,-52 28,-52"/>
<text text-anchor="middle" x="242" y="-831" font-family="Times,serif" font-size="11.00" fill="gray">Intl</text>
</g>
<g id="graph4" class="cluster"><title>cluster_Aura\Intl\Exception</title>
<polyline fill="none" stroke="gray" points="268,-214 448,-214 "/>
<path fill="none" stroke="gray" d="M448,-214C454,-214 460,-220 460,-226"/>
<polyline fill="none" stroke="gray" points="460,-226 460,-437 "/>
<path fill="none" stroke="gray" d="M460,-437C460,-443 454,-449 448,-449"/>
<polyline fill="none" stroke="gray" points="448,-449 268,-449 "/>
<path fill="none" stroke="gray" d="M268,-449C262,-449 256,-443 256,-437"/>
<polyline fill="none" stroke="gray" points="256,-437 256,-226 "/>
<path fill="none" stroke="gray" d="M256,-226C256,-220 262,-214 268,-214"/>
<text text-anchor="middle" x="358" y="-434" font-family="Times,serif" font-size="11.00" fill="gray">Exception</text>
</g>
<!-- \\Aura\\Intl\\Exception\\CannotFormat -->
<g id="node4" class="node"><title>\\Aura\\Intl\\Exception\\CannotFormat</title>
<a xlink:href="Exception.CannotFormat.html" xlink:title="CannotFormat" target="_parent">
<polygon fill="none" stroke="black" points="405.713,-420 310.287,-420 310.287,-384 405.713,-384 405.713,-420"/>
<text text-anchor="middle" x="358" y="-397.6" font-family="Courier,monospace" font-size="11.00">CannotFormat</text>
</a>
</g>
<!-- \\Exception -->
<g id="node23" class="node"><title>\\Exception</title>
<ellipse fill="none" stroke="black" cx="108" cy="-18" rx="52.7417" ry="18"/>
<text text-anchor="middle" x="108" y="-12.4" font-family="Times,serif" font-size="14.00" fill="gray">\Exception</text>
</g>
<!-- \\Aura\\Intl\\Exception\\CannotFormat&#45;&gt;\\Exception -->
<g id="edge6" class="edge"><title>\\Aura\\Intl\\Exception\\CannotFormat&#45;&gt;\\Exception</title>
<path fill="none" stroke="black" d="M310.254,-400.082C290.945,-396.879 269.878,-389.854 256,-375 154.901,-266.788 288.375,-160.44 192,-48 184.9,-39.7166 175.329,-33.7202 165.21,-29.3795"/>
<polygon fill="none" stroke="black" points="166.411,-26.0917 155.819,-25.8404 163.942,-32.642 166.411,-26.0917"/>
</g>
<!-- \\Aura\\Intl\\Exception\\CannotInstantiateFormatter -->
<g id="node5" class="node"><title>\\Aura\\Intl\\Exception\\CannotInstantiateFormatter</title>
<a xlink:href="Exception.CannotInstantiateFormatter.html" xlink:title="CannotInstantiateFormatter" target="_parent">
<polygon fill="none" stroke="black" points="451.628,-366 264.372,-366 264.372,-330 451.628,-330 451.628,-366"/>
<text text-anchor="middle" x="358" y="-343.6" font-family="Courier,monospace" font-size="11.00">CannotInstantiateFormatter</text>
</a>
</g>
<!-- \\Aura\\Intl\\Exception\\CannotInstantiateFormatter&#45;&gt;\\Exception -->
<g id="edge8" class="edge"><title>\\Aura\\Intl\\Exception\\CannotInstantiateFormatter&#45;&gt;\\Exception</title>
<path fill="none" stroke="black" d="M266.868,-329.984C262.944,-327.367 259.285,-324.388 256,-321 169.252,-231.525 274.839,-141.105 192,-48 184.748,-39.8493 175.109,-33.9119 164.972,-29.587"/>
<polygon fill="none" stroke="black" points="166.169,-26.2978 155.577,-26.0513 163.704,-32.8492 166.169,-26.2978"/>
</g>
<!-- \\Aura\\Intl\\Exception\\FormatterNotMapped -->
<g id="node6" class="node"><title>\\Aura\\Intl\\Exception\\FormatterNotMapped</title>
<a xlink:href="Exception.FormatterNotMapped.html" xlink:title="FormatterNotMapped" target="_parent">
<polygon fill="none" stroke="black" points="425.319,-312 290.681,-312 290.681,-276 425.319,-276 425.319,-312"/>
<text text-anchor="middle" x="358" y="-289.6" font-family="Courier,monospace" font-size="11.00">FormatterNotMapped</text>
</a>
</g>
<!-- \\Aura\\Intl\\Exception\\FormatterNotMapped&#45;&gt;\\Exception -->
<g id="edge10" class="edge"><title>\\Aura\\Intl\\Exception\\FormatterNotMapped&#45;&gt;\\Exception</title>
<path fill="none" stroke="black" d="M290.482,-286.53C277.761,-282.435 265.477,-276.26 256,-267 183.473,-196.129 261.428,-121.91 192,-48 184.53,-40.0483 174.795,-34.1991 164.632,-29.898"/>
<polygon fill="none" stroke="black" points="165.824,-26.6068 155.232,-26.3673 163.362,-33.1599 165.824,-26.6068"/>
</g>
<!-- \\Aura\\Intl\\Exception\\IcuVersionTooLow -->
<g id="node7" class="node"><title>\\Aura\\Intl\\Exception\\IcuVersionTooLow</title>
<a xlink:href="Exception.IcuVersionTooLow.html" xlink:title="IcuVersionTooLow" target="_parent">
<polygon fill="none" stroke="black" points="418.618,-258 297.382,-258 297.382,-222 418.618,-222 418.618,-258"/>
<text text-anchor="middle" x="358" y="-235.6" font-family="Courier,monospace" font-size="11.00">IcuVersionTooLow</text>
</a>
</g>
<!-- \\Aura\\Intl\\Exception\\IcuVersionTooLow&#45;&gt;\\Exception -->
<g id="edge12" class="edge"><title>\\Aura\\Intl\\Exception\\IcuVersionTooLow&#45;&gt;\\Exception</title>
<path fill="none" stroke="black" d="M297.197,-236.957C282.378,-233.681 267.474,-227.914 256,-218 194.913,-165.217 249.463,-104.708 192,-48 184.151,-40.2544 174.156,-34.4928 163.841,-30.2119"/>
<polygon fill="none" stroke="black" points="164.924,-26.8805 154.331,-26.6822 162.488,-33.4431 164.924,-26.8805"/>
</g>
<!-- \\Aura\\Intl\\BasicFormatter -->
<g id="node8" class="node"><title>\\Aura\\Intl\\BasicFormatter</title>
<a xlink:href="BasicFormatter.html" xlink:title="BasicFormatter" target="_parent">
<polygon fill="none" stroke="black" points="412.416,-763 303.584,-763 303.584,-727 412.416,-727 412.416,-763"/>
<text text-anchor="middle" x="358" y="-740.6" font-family="Courier,monospace" font-size="11.00">BasicFormatter</text>
</a>
</g>
<!-- \\Aura\\Intl\\FormatterInterface -->
<g id="node10" class="node"><title>\\Aura\\Intl\\FormatterInterface</title>
<a xlink:href="FormatterInterface.html" xlink:title="FormatterInterface" target="_parent">
<polygon fill="none" stroke="black" points="175.319,-790 40.6805,-790 40.6805,-754 175.319,-754 175.319,-790"/>
<text text-anchor="middle" x="108" y="-767.6" font-family="Courier,monospace" font-size="11.00">FormatterInterface</text>
</a>
</g>
<!-- \\Aura\\Intl\\BasicFormatter&#45;&gt;\\Aura\\Intl\\FormatterInterface -->
<g id="edge16" class="edge"><title>\\Aura\\Intl\\BasicFormatter&#45;&gt;\\Aura\\Intl\\FormatterInterface</title>
<path fill="none" stroke="black" stroke-dasharray="1,5" d="M303.493,-750.825C269.116,-754.568 223.914,-759.489 185.74,-763.645"/>
<polygon fill="none" stroke="black" points="185.249,-760.178 175.687,-764.74 186.007,-767.137 185.249,-760.178"/>
</g>
<!-- \\Aura\\Intl\\Exception -->
<g id="node9" class="node"><title>\\Aura\\Intl\\Exception</title>
<a xlink:href="Exception.html" xlink:title="Exception" target="_parent">
<polygon fill="none" stroke="black" points="395.911,-204 320.089,-204 320.089,-168 395.911,-168 395.911,-204"/>
<text text-anchor="middle" x="358" y="-181.6" font-family="Courier,monospace" font-size="11.00">Exception</text>
</a>
</g>
<!-- \\Aura\\Intl\\Exception&#45;&gt;\\Exception -->
<g id="edge14" class="edge"><title>\\Aura\\Intl\\Exception&#45;&gt;\\Exception</title>
<path fill="none" stroke="black" d="M319.839,-183.031C299.288,-179.787 274.288,-173.033 256,-159 210.822,-124.333 235.653,-84.5683 192,-48 183.457,-40.8435 173.068,-35.3319 162.573,-31.1082"/>
<polygon fill="none" stroke="black" points="163.547,-27.7377 152.953,-27.5811 161.137,-34.3098 163.547,-27.7377"/>
</g>
<!-- \\Aura\\Intl\\FormatterLocator -->
<g id="node11" class="node"><title>\\Aura\\Intl\\FormatterLocator</title>
<a xlink:href="FormatterLocator.html" xlink:title="FormatterLocator" target="_parent">
<polygon fill="none" stroke="black" points="418.618,-655 297.382,-655 297.382,-619 418.618,-619 418.618,-655"/>
<text text-anchor="middle" x="358" y="-632.6" font-family="Courier,monospace" font-size="11.00">FormatterLocator</text>
</a>
</g>
<!-- \\Aura\\Intl\\IntlFormatter -->
<g id="node12" class="node"><title>\\Aura\\Intl\\IntlFormatter</title>
<a xlink:href="IntlFormatter.html" xlink:title="IntlFormatter" target="_parent">
<polygon fill="none" stroke="black" points="408.814,-817 307.186,-817 307.186,-781 408.814,-781 408.814,-817"/>
<text text-anchor="middle" x="358" y="-794.6" font-family="Courier,monospace" font-size="11.00">IntlFormatter</text>
</a>
</g>
<!-- \\Aura\\Intl\\IntlFormatter&#45;&gt;\\Aura\\Intl\\FormatterInterface -->
<g id="edge18" class="edge"><title>\\Aura\\Intl\\IntlFormatter&#45;&gt;\\Aura\\Intl\\FormatterInterface</title>
<path fill="none" stroke="black" stroke-dasharray="1,5" d="M307.112,-793.569C272.37,-789.786 225.369,-784.669 185.865,-780.368"/>
<polygon fill="none" stroke="black" points="186.053,-776.868 175.733,-779.265 185.295,-783.827 186.053,-776.868"/>
</g>
<!-- \\Aura\\Intl\\Package -->
<g id="node13" class="node"><title>\\Aura\\Intl\\Package</title>
<a xlink:href="Package.html" xlink:title="Package" target="_parent">
<polygon fill="none" stroke="black" points="389.208,-547 326.792,-547 326.792,-511 389.208,-511 389.208,-547"/>
<text text-anchor="middle" x="358" y="-524.6" font-family="Courier,monospace" font-size="11.00">Package</text>
</a>
</g>
<!-- \\Aura\\Intl\\PackageFactory -->
<g id="node14" class="node"><title>\\Aura\\Intl\\PackageFactory</title>
<a xlink:href="PackageFactory.html" xlink:title="PackageFactory" target="_parent">
<polygon fill="none" stroke="black" points="412.416,-493 303.584,-493 303.584,-457 412.416,-457 412.416,-493"/>
<text text-anchor="middle" x="358" y="-470.6" font-family="Courier,monospace" font-size="11.00">PackageFactory</text>
</a>
</g>
<!-- \\Aura\\Intl\\PackageLocator -->
<g id="node15" class="node"><title>\\Aura\\Intl\\PackageLocator</title>
<a xlink:href="PackageLocator.html" xlink:title="PackageLocator" target="_parent">
<polygon fill="none" stroke="black" points="412.416,-709 303.584,-709 303.584,-673 412.416,-673 412.416,-709"/>
<text text-anchor="middle" x="358" y="-686.6" font-family="Courier,monospace" font-size="11.00">PackageLocator</text>
</a>
</g>
<!-- \\Aura\\Intl\\PackageLocatorInterface -->
<g id="node16" class="node"><title>\\Aura\\Intl\\PackageLocatorInterface</title>
<a xlink:href="PackageLocatorInterface.html" xlink:title="PackageLocatorInterface" target="_parent">
<polygon fill="none" stroke="black" points="191.825,-709 24.1752,-709 24.1752,-673 191.825,-673 191.825,-709"/>
<text text-anchor="middle" x="108" y="-686.6" font-family="Courier,monospace" font-size="11.00">PackageLocatorInterface</text>
</a>
</g>
<!-- \\Aura\\Intl\\PackageLocator&#45;&gt;\\Aura\\Intl\\PackageLocatorInterface -->
<g id="edge20" class="edge"><title>\\Aura\\Intl\\PackageLocator&#45;&gt;\\Aura\\Intl\\PackageLocatorInterface</title>
<path fill="none" stroke="black" stroke-dasharray="1,5" d="M303.493,-691C273.944,-691 236.398,-691 202.192,-691"/>
<polygon fill="none" stroke="black" points="202.171,-687.5 192.171,-691 202.17,-694.5 202.171,-687.5"/>
</g>
<!-- \\Aura\\Intl\\Translator -->
<g id="node17" class="node"><title>\\Aura\\Intl\\Translator</title>
<a xlink:href="Translator.html" xlink:title="Translator" target="_parent">
<polygon fill="none" stroke="black" points="399.011,-601 316.989,-601 316.989,-565 399.011,-565 399.011,-601"/>
<text text-anchor="middle" x="358" y="-578.6" font-family="Courier,monospace" font-size="11.00">Translator</text>
</a>
</g>
<!-- \\Aura\\Intl\\TranslatorInterface -->
<g id="node19" class="node"><title>\\Aura\\Intl\\TranslatorInterface</title>
<a xlink:href="TranslatorInterface.html" xlink:title="TranslatorInterface" target="_parent">
<polygon fill="none" stroke="black" points="178.921,-601 37.079,-601 37.079,-565 178.921,-565 178.921,-601"/>
<text text-anchor="middle" x="108" y="-578.6" font-family="Courier,monospace" font-size="11.00">TranslatorInterface</text>
</a>
</g>
<!-- \\Aura\\Intl\\Translator&#45;&gt;\\Aura\\Intl\\TranslatorInterface -->
<g id="edge22" class="edge"><title>\\Aura\\Intl\\Translator&#45;&gt;\\Aura\\Intl\\TranslatorInterface</title>
<path fill="none" stroke="black" stroke-dasharray="1,5" d="M316.879,-583C282.485,-583 231.884,-583 189.217,-583"/>
<polygon fill="none" stroke="black" points="189.121,-579.5 179.121,-583 189.121,-586.5 189.121,-579.5"/>
</g>
<!-- \\Aura\\Intl\\TranslatorFactory -->
<g id="node18" class="node"><title>\\Aura\\Intl\\TranslatorFactory</title>
<a xlink:href="TranslatorFactory.html" xlink:title="TranslatorFactory" target="_parent">
<polygon fill="none" stroke="black" points="422.218,-150 293.782,-150 293.782,-114 422.218,-114 422.218,-150"/>
<text text-anchor="middle" x="358" y="-127.6" font-family="Courier,monospace" font-size="11.00">TranslatorFactory</text>
</a>
</g>
<!-- \\Aura\\Intl\\TranslatorLocator -->
<g id="node20" class="node"><title>\\Aura\\Intl\\TranslatorLocator</title>
<a xlink:href="TranslatorLocator.html" xlink:title="TranslatorLocator" target="_parent">
<polygon fill="none" stroke="black" points="422.218,-96 293.782,-96 293.782,-60 422.218,-60 422.218,-96"/>
<text text-anchor="middle" x="358" y="-73.6" font-family="Courier,monospace" font-size="11.00">TranslatorLocator</text>
</a>
</g>
</g>
</svg>
