<?xml version="1.0" encoding="UTF-8" standalone="no"?>
<!DOCTYPE svg PUBLIC "-//W3C//DTD SVG 1.1//EN"
 "http://www.w3.org/Graphics/SVG/1.1/DTD/svg11.dtd">
<!-- Generated by graphviz version 2.28.0 (20111028.1807)
 -->
<!-- Title: G Pages: 1 -->
<svg width="956pt" height="1893pt"
 viewBox="0.00 0.00 956.00 1893.00" xmlns="http://www.w3.org/2000/svg" xmlns:xlink="http://www.w3.org/1999/xlink">
<g id="graph1" class="graph" transform="scale(1 1) rotate(0) translate(4 1889)">
<title>G</title>
<polygon fill="white" stroke="white" points="-4,5 -4,-1889 953,-1889 953,5 -4,5"/>
<g id="graph2" class="cluster"><title>cluster_Aura</title>
<polyline fill="none" stroke="gray" points="464,-476 928,-476 "/>
<path fill="none" stroke="gray" d="M928,-476C934,-476 940,-482 940,-488"/>
<polyline fill="none" stroke="gray" points="940,-488 940,-1865 "/>
<path fill="none" stroke="gray" d="M940,-1865C940,-1871 934,-1877 928,-1877"/>
<polyline fill="none" stroke="gray" points="928,-1877 464,-1877 "/>
<path fill="none" stroke="gray" d="M464,-1877C458,-1877 452,-1871 452,-1865"/>
<polyline fill="none" stroke="gray" points="452,-1865 452,-488 "/>
<path fill="none" stroke="gray" d="M452,-488C452,-482 458,-476 464,-476"/>
<text text-anchor="middle" x="696" y="-1862" font-family="Times,serif" font-size="11.00" fill="gray">Aura</text>
</g>
<g id="graph3" class="cluster"><title>cluster_Aura\Framework</title>
<polyline fill="none" stroke="gray" points="472,-484 920,-484 "/>
<path fill="none" stroke="gray" d="M920,-484C926,-484 932,-490 932,-496"/>
<polyline fill="none" stroke="gray" points="932,-496 932,-1836 "/>
<path fill="none" stroke="gray" d="M932,-1836C932,-1842 926,-1848 920,-1848"/>
<polyline fill="none" stroke="gray" points="920,-1848 472,-1848 "/>
<path fill="none" stroke="gray" d="M472,-1848C466,-1848 460,-1842 460,-1836"/>
<polyline fill="none" stroke="gray" points="460,-1836 460,-496 "/>
<path fill="none" stroke="gray" d="M460,-496C460,-490 466,-484 472,-484"/>
<text text-anchor="middle" x="696" y="-1833" font-family="Times,serif" font-size="11.00" fill="gray">Framework</text>
</g>
<g id="graph4" class="cluster"><title>cluster_Aura\Framework\Autoload</title>
<polyline fill="none" stroke="gray" points="818,-1746 866,-1746 "/>
<path fill="none" stroke="gray" d="M866,-1746C872,-1746 878,-1752 878,-1758"/>
<polyline fill="none" stroke="gray" points="878,-1758 878,-1807 "/>
<path fill="none" stroke="gray" d="M878,-1807C878,-1813 872,-1819 866,-1819"/>
<polyline fill="none" stroke="gray" points="866,-1819 818,-1819 "/>
<path fill="none" stroke="gray" d="M818,-1819C812,-1819 806,-1813 806,-1807"/>
<polyline fill="none" stroke="gray" points="806,-1807 806,-1758 "/>
<path fill="none" stroke="gray" d="M806,-1758C806,-1752 812,-1746 818,-1746"/>
<text text-anchor="middle" x="842" y="-1804" font-family="Times,serif" font-size="11.00" fill="gray">Autoload</text>
</g>
<g id="graph5" class="cluster"><title>cluster_Aura\Framework\Bootstrap</title>
<polyline fill="none" stroke="gray" points="815,-1557 869,-1557 "/>
<path fill="none" stroke="gray" d="M869,-1557C875,-1557 881,-1563 881,-1569"/>
<polyline fill="none" stroke="gray" points="881,-1569 881,-1726 "/>
<path fill="none" stroke="gray" d="M881,-1726C881,-1732 875,-1738 869,-1738"/>
<polyline fill="none" stroke="gray" points="869,-1738 815,-1738 "/>
<path fill="none" stroke="gray" d="M815,-1738C809,-1738 803,-1732 803,-1726"/>
<polyline fill="none" stroke="gray" points="803,-1726 803,-1569 "/>
<path fill="none" stroke="gray" d="M803,-1569C803,-1563 809,-1557 815,-1557"/>
<text text-anchor="middle" x="842" y="-1723" font-family="Times,serif" font-size="11.00" fill="gray">Bootstrap</text>
</g>
<g id="graph6" class="cluster"><title>cluster_Aura\Framework\Cli</title>
<polyline fill="none" stroke="gray" points="480,-1231 881,-1231 "/>
<path fill="none" stroke="gray" d="M881,-1231C887,-1231 893,-1237 893,-1243"/>
<polyline fill="none" stroke="gray" points="893,-1243 893,-1537 "/>
<path fill="none" stroke="gray" d="M893,-1537C893,-1543 887,-1549 881,-1549"/>
<polyline fill="none" stroke="gray" points="881,-1549 480,-1549 "/>
<path fill="none" stroke="gray" d="M480,-1549C474,-1549 468,-1543 468,-1537"/>
<polyline fill="none" stroke="gray" points="468,-1537 468,-1243 "/>
<path fill="none" stroke="gray" d="M468,-1243C468,-1237 474,-1231 480,-1231"/>
<text text-anchor="middle" x="680.5" y="-1534" font-family="Times,serif" font-size="11.00" fill="gray">Cli</text>
</g>
<g id="graph7" class="cluster"><title>cluster_Aura\Framework\Cli\CacheClassmap</title>
<polyline fill="none" stroke="gray" points="811,-1285 873,-1285 "/>
<path fill="none" stroke="gray" d="M873,-1285C879,-1285 885,-1291 885,-1297"/>
<polyline fill="none" stroke="gray" points="885,-1297 885,-1346 "/>
<path fill="none" stroke="gray" d="M885,-1346C885,-1352 879,-1358 873,-1358"/>
<polyline fill="none" stroke="gray" points="873,-1358 811,-1358 "/>
<path fill="none" stroke="gray" d="M811,-1358C805,-1358 799,-1352 799,-1346"/>
<polyline fill="none" stroke="gray" points="799,-1346 799,-1297 "/>
<path fill="none" stroke="gray" d="M799,-1297C799,-1291 805,-1285 811,-1285"/>
<text text-anchor="middle" x="842" y="-1343" font-family="Times,serif" font-size="11.00" fill="gray">CacheClassmap</text>
</g>
<g id="graph8" class="cluster"><title>cluster_Aura\Framework\Cli\CacheConfig</title>
<polyline fill="none" stroke="gray" points="815,-1447 869,-1447 "/>
<path fill="none" stroke="gray" d="M869,-1447C875,-1447 881,-1453 881,-1459"/>
<polyline fill="none" stroke="gray" points="881,-1459 881,-1508 "/>
<path fill="none" stroke="gray" d="M881,-1508C881,-1514 875,-1520 869,-1520"/>
<polyline fill="none" stroke="gray" points="869,-1520 815,-1520 "/>
<path fill="none" stroke="gray" d="M815,-1520C809,-1520 803,-1514 803,-1508"/>
<polyline fill="none" stroke="gray" points="803,-1508 803,-1459 "/>
<path fill="none" stroke="gray" d="M803,-1459C803,-1453 809,-1447 815,-1447"/>
<text text-anchor="middle" x="842" y="-1505" font-family="Times,serif" font-size="11.00" fill="gray">CacheConfig</text>
</g>
<g id="graph9" class="cluster"><title>cluster_Aura\Framework\Cli\Server</title>
<polyline fill="none" stroke="gray" points="815,-1366 869,-1366 "/>
<path fill="none" stroke="gray" d="M869,-1366C875,-1366 881,-1372 881,-1378"/>
<polyline fill="none" stroke="gray" points="881,-1378 881,-1427 "/>
<path fill="none" stroke="gray" d="M881,-1427C881,-1433 875,-1439 869,-1439"/>
<polyline fill="none" stroke="gray" points="869,-1439 815,-1439 "/>
<path fill="none" stroke="gray" d="M815,-1439C809,-1439 803,-1433 803,-1427"/>
<polyline fill="none" stroke="gray" points="803,-1427 803,-1378 "/>
<path fill="none" stroke="gray" d="M803,-1378C803,-1372 809,-1366 815,-1366"/>
<text text-anchor="middle" x="842" y="-1424" font-family="Times,serif" font-size="11.00" fill="gray">Server</text>
</g>
<g id="graph13" class="cluster"><title>cluster_Aura\Framework\Exception</title>
<polyline fill="none" stroke="gray" points="772,-924 912,-924 "/>
<path fill="none" stroke="gray" d="M912,-924C918,-924 924,-930 924,-936"/>
<polyline fill="none" stroke="gray" points="924,-936 924,-985 "/>
<path fill="none" stroke="gray" d="M924,-985C924,-991 918,-997 912,-997"/>
<polyline fill="none" stroke="gray" points="912,-997 772,-997 "/>
<path fill="none" stroke="gray" d="M772,-997C766,-997 760,-991 760,-985"/>
<polyline fill="none" stroke="gray" points="760,-985 760,-936 "/>
<path fill="none" stroke="gray" d="M760,-936C760,-930 766,-924 772,-924"/>
<text text-anchor="middle" x="842" y="-982" font-family="Times,serif" font-size="11.00" fill="gray">Exception</text>
</g>
<g id="graph14" class="cluster"><title>cluster_Aura\Framework\Intl</title>
<polyline fill="none" stroke="gray" points="782,-789 902,-789 "/>
<path fill="none" stroke="gray" d="M902,-789C908,-789 914,-795 914,-801"/>
<polyline fill="none" stroke="gray" points="914,-801 914,-904 "/>
<path fill="none" stroke="gray" d="M914,-904C914,-910 908,-916 902,-916"/>
<polyline fill="none" stroke="gray" points="902,-916 782,-916 "/>
<path fill="none" stroke="gray" d="M782,-916C776,-916 770,-910 770,-904"/>
<polyline fill="none" stroke="gray" points="770,-904 770,-801 "/>
<path fill="none" stroke="gray" d="M770,-801C770,-795 776,-789 782,-789"/>
<text text-anchor="middle" x="842" y="-901" font-family="Times,serif" font-size="11.00" fill="gray">Intl</text>
</g>
<g id="graph15" class="cluster"><title>cluster_Aura\Framework\Signal</title>
<polyline fill="none" stroke="gray" points="815,-708 869,-708 "/>
<path fill="none" stroke="gray" d="M869,-708C875,-708 881,-714 881,-720"/>
<polyline fill="none" stroke="gray" points="881,-720 881,-769 "/>
<path fill="none" stroke="gray" d="M881,-769C881,-775 875,-781 869,-781"/>
<polyline fill="none" stroke="gray" points="869,-781 815,-781 "/>
<path fill="none" stroke="gray" d="M815,-781C809,-781 803,-775 803,-769"/>
<polyline fill="none" stroke="gray" points="803,-769 803,-720 "/>
<path fill="none" stroke="gray" d="M803,-720C803,-714 809,-708 815,-708"/>
<text text-anchor="middle" x="842" y="-766" font-family="Times,serif" font-size="11.00" fill="gray">Signal</text>
</g>
<g id="graph16" class="cluster"><title>cluster_Aura\Framework\View</title>
<polyline fill="none" stroke="gray" points="811,-590 873,-590 "/>
<path fill="none" stroke="gray" d="M873,-590C879,-590 885,-596 885,-602"/>
<polyline fill="none" stroke="gray" points="885,-602 885,-688 "/>
<path fill="none" stroke="gray" d="M885,-688C885,-694 879,-700 873,-700"/>
<polyline fill="none" stroke="gray" points="873,-700 811,-700 "/>
<path fill="none" stroke="gray" d="M811,-700C805,-700 799,-694 799,-688"/>
<polyline fill="none" stroke="gray" points="799,-688 799,-602 "/>
<path fill="none" stroke="gray" d="M799,-602C799,-596 805,-590 811,-590"/>
<text text-anchor="middle" x="842" y="-685" font-family="Times,serif" font-size="11.00" fill="gray">View</text>
</g>
<g id="graph17" class="cluster"><title>cluster_Aura\Framework\View\Helper</title>
<polyline fill="none" stroke="gray" points="819,-598 865,-598 "/>
<path fill="none" stroke="gray" d="M865,-598C871,-598 877,-604 877,-610"/>
<polyline fill="none" stroke="gray" points="877,-610 877,-659 "/>
<path fill="none" stroke="gray" d="M877,-659C877,-665 871,-671 865,-671"/>
<polyline fill="none" stroke="gray" points="865,-671 819,-671 "/>
<path fill="none" stroke="gray" d="M819,-671C813,-671 807,-665 807,-659"/>
<polyline fill="none" stroke="gray" points="807,-659 807,-610 "/>
<path fill="none" stroke="gray" d="M807,-610C807,-604 813,-598 819,-598"/>
<text text-anchor="middle" x="842" y="-656" font-family="Times,serif" font-size="11.00" fill="gray">Helper</text>
</g>
<g id="graph19" class="cluster"><title>cluster_Aura\Framework\Web</title>
<polyline fill="none" stroke="gray" points="482,-1005 904,-1005 "/>
<path fill="none" stroke="gray" d="M904,-1005C910,-1005 916,-1011 916,-1017"/>
<polyline fill="none" stroke="gray" points="916,-1017 916,-1211 "/>
<path fill="none" stroke="gray" d="M916,-1211C916,-1217 910,-1223 904,-1223"/>
<polyline fill="none" stroke="gray" points="904,-1223 482,-1223 "/>
<path fill="none" stroke="gray" d="M482,-1223C476,-1223 470,-1217 470,-1211"/>
<polyline fill="none" stroke="gray" points="470,-1211 470,-1017 "/>
<path fill="none" stroke="gray" d="M470,-1017C470,-1011 476,-1005 482,-1005"/>
<text text-anchor="middle" x="693" y="-1208" font-family="Times,serif" font-size="11.00" fill="gray">Web</text>
</g>
<g id="graph20" class="cluster"><title>cluster_Aura\Framework\Web\Controller</title>
<polyline fill="none" stroke="gray" points="490,-1013 578,-1013 "/>
<path fill="none" stroke="gray" d="M578,-1013C584,-1013 590,-1019 590,-1025"/>
<polyline fill="none" stroke="gray" points="590,-1025 590,-1182 "/>
<path fill="none" stroke="gray" d="M590,-1182C590,-1188 584,-1194 578,-1194"/>
<polyline fill="none" stroke="gray" points="578,-1194 490,-1194 "/>
<path fill="none" stroke="gray" d="M490,-1194C484,-1194 478,-1188 478,-1182"/>
<polyline fill="none" stroke="gray" points="478,-1182 478,-1025 "/>
<path fill="none" stroke="gray" d="M478,-1025C478,-1019 484,-1013 490,-1013"/>
<text text-anchor="middle" x="534" y="-1179" font-family="Times,serif" font-size="11.00" fill="gray">Controller</text>
</g>
<g id="graph21" class="cluster"><title>cluster_Aura\Framework\Web\NotFound</title>
<polyline fill="none" stroke="gray" points="819,-1121 865,-1121 "/>
<path fill="none" stroke="gray" d="M865,-1121C871,-1121 877,-1127 877,-1133"/>
<polyline fill="none" stroke="gray" points="877,-1133 877,-1182 "/>
<path fill="none" stroke="gray" d="M877,-1182C877,-1188 871,-1194 865,-1194"/>
<polyline fill="none" stroke="gray" points="865,-1194 819,-1194 "/>
<path fill="none" stroke="gray" d="M819,-1194C813,-1194 807,-1188 807,-1182"/>
<polyline fill="none" stroke="gray" points="807,-1182 807,-1133 "/>
<path fill="none" stroke="gray" d="M807,-1133C807,-1127 813,-1121 819,-1121"/>
<text text-anchor="middle" x="842" y="-1179" font-family="Times,serif" font-size="11.00" fill="gray">NotFound</text>
</g>
<g id="graph22" class="cluster"><title>cluster_Aura\Framework\Web\Renderer</title>
<polyline fill="none" stroke="gray" points="788,-1013 896,-1013 "/>
<path fill="none" stroke="gray" d="M896,-1013C902,-1013 908,-1019 908,-1025"/>
<polyline fill="none" stroke="gray" points="908,-1025 908,-1074 "/>
<path fill="none" stroke="gray" d="M908,-1074C908,-1080 902,-1086 896,-1086"/>
<polyline fill="none" stroke="gray" points="896,-1086 788,-1086 "/>
<path fill="none" stroke="gray" d="M788,-1086C782,-1086 776,-1080 776,-1074"/>
<polyline fill="none" stroke="gray" points="776,-1074 776,-1025 "/>
<path fill="none" stroke="gray" d="M776,-1025C776,-1019 782,-1013 788,-1013"/>
<text text-anchor="middle" x="842" y="-1071" font-family="Times,serif" font-size="11.00" fill="gray">Renderer</text>
</g>
<!-- \\Aura\\Framework\\Autoload\\Loader -->
<g id="node4" class="node"><title>\\Aura\\Framework\\Autoload\\Loader</title>
<a xlink:href="Autoload.Loader.html" xlink:title="Loader" target="_parent">
<polygon fill="none" stroke="black" points="869.608,-1790 814.392,-1790 814.392,-1754 869.608,-1754 869.608,-1790"/>
<text text-anchor="middle" x="842" y="-1767.6" font-family="Courier,monospace" font-size="11.00">Loader</text>
</a>
</g>
<!-- \\Aura\\Autoload\\Loader -->
<g id="node70" class="node"><title>\\Aura\\Autoload\\Loader</title>
<ellipse fill="none" stroke="black" cx="534" cy="-450" rx="101.848" ry="18"/>
<text text-anchor="middle" x="534" y="-444.4" font-family="Times,serif" font-size="14.00" fill="gray">\Aura\Autoload\Loader</text>
</g>
<!-- \\Aura\\Framework\\Autoload\\Loader&#45;&gt;\\Aura\\Autoload\\Loader -->
<g id="edge48" class="edge"><title>\\Aura\\Framework\\Autoload\\Loader&#45;&gt;\\Aura\\Autoload\\Loader</title>
<path fill="none" stroke="black" d="M814.225,-1769.6C795.816,-1766.41 772.515,-1759.04 760,-1742 676.9,-1628.83 788.434,-585.683 696,-480 682.789,-464.896 664.626,-455.839 645.245,-450.644"/>
<polygon fill="none" stroke="black" points="645.869,-447.196 635.335,-448.331 644.278,-454.013 645.869,-447.196"/>
</g>
<!-- \\Aura\\Framework\\Bootstrap\\Cli -->
<g id="node6" class="node"><title>\\Aura\\Framework\\Bootstrap\\Cli</title>
<a xlink:href="Bootstrap.Cli.html" xlink:title="Cli" target="_parent">
<polygon fill="none" stroke="black" points="869,-1709 815,-1709 815,-1673 869,-1673 869,-1709"/>
<text text-anchor="middle" x="842" y="-1686.6" font-family="Courier,monospace" font-size="11.00">Cli</text>
</a>
</g>
<!-- \\Aura\\Framework\\Bootstrap\\Factory -->
<g id="node7" class="node"><title>\\Aura\\Framework\\Bootstrap\\Factory</title>
<a xlink:href="Bootstrap.Factory.html" xlink:title="Factory" target="_parent">
<polygon fill="none" stroke="black" points="873.208,-1655 810.792,-1655 810.792,-1619 873.208,-1619 873.208,-1655"/>
<text text-anchor="middle" x="842" y="-1632.6" font-family="Courier,monospace" font-size="11.00">Factory</text>
</a>
</g>
<!-- \\Aura\\Framework\\Bootstrap\\Web -->
<g id="node8" class="node"><title>\\Aura\\Framework\\Bootstrap\\Web</title>
<a xlink:href="Bootstrap.Web.html" xlink:title="Web" target="_parent">
<polygon fill="none" stroke="black" points="869,-1601 815,-1601 815,-1565 869,-1565 869,-1601"/>
<text text-anchor="middle" x="842" y="-1578.6" font-family="Courier,monospace" font-size="11.00">Web</text>
</a>
</g>
<!-- \\Aura\\Framework\\Cli\\CacheClassmap\\Command -->
<g id="node11" class="node"><title>\\Aura\\Framework\\Cli\\CacheClassmap\\Command</title>
<a xlink:href="Cli.CacheClassmap.Command.html" xlink:title="Command" target="_parent">
<polygon fill="none" stroke="black" points="873.208,-1329 810.792,-1329 810.792,-1293 873.208,-1293 873.208,-1329"/>
<text text-anchor="middle" x="842" y="-1306.6" font-family="Courier,monospace" font-size="11.00">Command</text>
</a>
</g>
<!-- \\Aura\\Framework\\Cli\\AbstractCommand -->
<g id="node16" class="node"><title>\\Aura\\Framework\\Cli\\AbstractCommand</title>
<a xlink:href="Cli.AbstractCommand.html" xlink:title="AbstractCommand" target="_parent">
<polygon fill="none" stroke="black" points="591.516,-1410 476.484,-1410 476.484,-1374 591.516,-1374 591.516,-1410"/>
<text text-anchor="middle" x="534" y="-1387.6" font-family="Courier,monospace" font-size="11.00">AbstractCommand</text>
</a>
</g>
<!-- \\Aura\\Framework\\Cli\\CacheClassmap\\Command&#45;&gt;\\Aura\\Framework\\Cli\\AbstractCommand -->
<g id="edge52" class="edge"><title>\\Aura\\Framework\\Cli\\CacheClassmap\\Command&#45;&gt;\\Aura\\Framework\\Cli\\AbstractCommand</title>
<path fill="none" stroke="black" d="M810.822,-1318.99C762.419,-1331.8 666.281,-1357.25 601.296,-1374.45"/>
<polygon fill="none" stroke="black" points="600.316,-1371.09 591.545,-1377.03 602.108,-1377.86 600.316,-1371.09"/>
</g>
<!-- \\Aura\\Framework\\Cli\\CacheConfig\\Command -->
<g id="node13" class="node"><title>\\Aura\\Framework\\Cli\\CacheConfig\\Command</title>
<a xlink:href="Cli.CacheConfig.Command.html" xlink:title="Command" target="_parent">
<polygon fill="none" stroke="black" points="873.208,-1491 810.792,-1491 810.792,-1455 873.208,-1455 873.208,-1491"/>
<text text-anchor="middle" x="842" y="-1468.6" font-family="Courier,monospace" font-size="11.00">Command</text>
</a>
</g>
<!-- \\Aura\\Framework\\Cli\\CacheConfig\\Command&#45;&gt;\\Aura\\Framework\\Cli\\AbstractCommand -->
<g id="edge54" class="edge"><title>\\Aura\\Framework\\Cli\\CacheConfig\\Command&#45;&gt;\\Aura\\Framework\\Cli\\AbstractCommand</title>
<path fill="none" stroke="black" d="M810.822,-1465.01C762.419,-1452.2 666.281,-1426.75 601.296,-1409.55"/>
<polygon fill="none" stroke="black" points="602.108,-1406.14 591.545,-1406.97 600.316,-1412.91 602.108,-1406.14"/>
</g>
<!-- \\Aura\\Framework\\Cli\\Server\\Command -->
<g id="node15" class="node"><title>\\Aura\\Framework\\Cli\\Server\\Command</title>
<a xlink:href="Cli.Server.Command.html" xlink:title="Command" target="_parent">
<polygon fill="none" stroke="black" points="873.208,-1410 810.792,-1410 810.792,-1374 873.208,-1374 873.208,-1410"/>
<text text-anchor="middle" x="842" y="-1387.6" font-family="Courier,monospace" font-size="11.00">Command</text>
</a>
</g>
<!-- \\Aura\\Framework\\Cli\\Server\\Command&#45;&gt;\\Aura\\Framework\\Cli\\AbstractCommand -->
<g id="edge56" class="edge"><title>\\Aura\\Framework\\Cli\\Server\\Command&#45;&gt;\\Aura\\Framework\\Cli\\AbstractCommand</title>
<path fill="none" stroke="black" d="M810.822,-1392C762.518,-1392 666.676,-1392 601.697,-1392"/>
<polygon fill="none" stroke="black" points="601.545,-1388.5 591.545,-1392 601.545,-1395.5 601.545,-1388.5"/>
</g>
<!-- \\Aura\\Cli\\AbstractCommand -->
<g id="node72" class="node"><title>\\Aura\\Cli\\AbstractCommand</title>
<ellipse fill="none" stroke="black" cx="150" cy="-1392" rx="123.295" ry="18"/>
<text text-anchor="middle" x="150" y="-1386.4" font-family="Times,serif" font-size="14.00" fill="gray">\Aura\Cli\AbstractCommand</text>
</g>
<!-- \\Aura\\Framework\\Cli\\AbstractCommand&#45;&gt;\\Aura\\Cli\\AbstractCommand -->
<g id="edge50" class="edge"><title>\\Aura\\Framework\\Cli\\AbstractCommand&#45;&gt;\\Aura\\Cli\\AbstractCommand</title>
<path fill="none" stroke="black" d="M476.223,-1392C425.516,-1392 349.287,-1392 283.373,-1392"/>
<polygon fill="none" stroke="black" points="283.308,-1388.5 273.308,-1392 283.308,-1395.5 283.308,-1388.5"/>
</g>
<!-- \\Aura\\Framework\\Cli\\Factory -->
<g id="node17" class="node"><title>\\Aura\\Framework\\Cli\\Factory</title>
<a xlink:href="Cli.Factory.html" xlink:title="Factory" target="_parent">
<polygon fill="none" stroke="black" points="873.208,-1275 810.792,-1275 810.792,-1239 873.208,-1239 873.208,-1275"/>
<text text-anchor="middle" x="842" y="-1252.6" font-family="Courier,monospace" font-size="11.00">Factory</text>
</a>
</g>
<!-- \\Aura\\Framework\\Exception\\NoClassForController -->
<g id="node22" class="node"><title>\\Aura\\Framework\\Exception\\NoClassForController</title>
<a xlink:href="Exception.NoClassForController.html" xlink:title="NoClassForController" target="_parent">
<polygon fill="none" stroke="black" points="916.021,-968 767.979,-968 767.979,-932 916.021,-932 916.021,-968"/>
<text text-anchor="middle" x="842" y="-945.6" font-family="Courier,monospace" font-size="11.00">NoClassForController</text>
</a>
</g>
<!-- \\Aura\\Framework\\Exception -->
<g id="node44" class="node"><title>\\Aura\\Framework\\Exception</title>
<a xlink:href="Exception.html" xlink:title="Exception" target="_parent">
<polygon fill="none" stroke="black" points="571.911,-968 496.089,-968 496.089,-932 571.911,-932 571.911,-968"/>
<text text-anchor="middle" x="534" y="-945.6" font-family="Courier,monospace" font-size="11.00">Exception</text>
</a>
</g>
<!-- \\Aura\\Framework\\Exception\\NoClassForController&#45;&gt;\\Aura\\Framework\\Exception -->
<g id="edge58" class="edge"><title>\\Aura\\Framework\\Exception\\NoClassForController&#45;&gt;\\Aura\\Framework\\Exception</title>
<path fill="none" stroke="black" d="M767.705,-950C710.096,-950 631.569,-950 582.078,-950"/>
<polygon fill="none" stroke="black" points="581.976,-946.5 571.976,-950 581.976,-953.5 581.976,-946.5"/>
</g>
<!-- \\Aura\\Framework\\Intl\\Translator -->
<g id="node24" class="node"><title>\\Aura\\Framework\\Intl\\Translator</title>
<a xlink:href="Intl.Translator.html" xlink:title="Translator" target="_parent">
<polygon fill="none" stroke="black" points="883.011,-887 800.989,-887 800.989,-851 883.011,-851 883.011,-887"/>
<text text-anchor="middle" x="842" y="-864.6" font-family="Courier,monospace" font-size="11.00">Translator</text>
</a>
</g>
<!-- \\Aura\\Intl\\Translator -->
<g id="node80" class="node"><title>\\Aura\\Intl\\Translator</title>
<ellipse fill="none" stroke="black" cx="534" cy="-288" rx="91.2993" ry="18"/>
<text text-anchor="middle" x="534" y="-282.4" font-family="Times,serif" font-size="14.00" fill="gray">\Aura\Intl\Translator</text>
</g>
<!-- \\Aura\\Framework\\Intl\\Translator&#45;&gt;\\Aura\\Intl\\Translator -->
<g id="edge62" class="edge"><title>\\Aura\\Framework\\Intl\\Translator&#45;&gt;\\Aura\\Intl\\Translator</title>
<path fill="none" stroke="black" d="M800.82,-864.691C785.831,-861.016 770.034,-854.283 760,-842 610.735,-659.273 859.015,-485.573 696,-315 679.38,-297.61 656.083,-288.783 632.364,-284.752"/>
<polygon fill="none" stroke="black" points="632.584,-281.249 622.191,-283.308 631.6,-288.179 632.584,-281.249"/>
</g>
<!-- \\Aura\\Cli\\TranslatorInterface -->
<g id="node93" class="node"><title>\\Aura\\Cli\\TranslatorInterface</title>
<ellipse fill="none" stroke="black" cx="534" cy="-342" rx="131.798" ry="18"/>
<text text-anchor="middle" x="534" y="-336.4" font-family="Times,serif" font-size="14.00" fill="gray">\\Aura\\Cli\\TranslatorInterface</text>
</g>
<!-- \\Aura\\Framework\\Intl\\Translator&#45;&gt;\\Aura\\Cli\\TranslatorInterface -->
<g id="edge76" class="edge"><title>\\Aura\\Framework\\Intl\\Translator&#45;&gt;\\Aura\\Cli\\TranslatorInterface</title>
<path fill="none" stroke="black" stroke-dasharray="1,5" d="M800.905,-864.621C785.928,-860.936 770.118,-854.215 760,-842 624.677,-678.628 843.61,-521.36 696,-369 688.677,-361.441 680.091,-355.508 670.763,-350.886"/>
<polygon fill="none" stroke="black" points="672.17,-347.682 661.609,-346.847 669.345,-354.086 672.17,-347.682"/>
</g>
<!-- \\Aura\\Framework\\Intl\\TranslatorFactory -->
<g id="node25" class="node"><title>\\Aura\\Framework\\Intl\\TranslatorFactory</title>
<a xlink:href="Intl.TranslatorFactory.html" xlink:title="TranslatorFactory" target="_parent">
<polygon fill="none" stroke="black" points="906.218,-833 777.782,-833 777.782,-797 906.218,-797 906.218,-833"/>
<text text-anchor="middle" x="842" y="-810.6" font-family="Courier,monospace" font-size="11.00">TranslatorFactory</text>
</a>
</g>
<!-- \\Aura\\Intl\\TranslatorFactory -->
<g id="node82" class="node"><title>\\Aura\\Intl\\TranslatorFactory</title>
<ellipse fill="none" stroke="black" cx="534" cy="-234" rx="120.797" ry="18"/>
<text text-anchor="middle" x="534" y="-228.4" font-family="Times,serif" font-size="14.00" fill="gray">\Aura\Intl\TranslatorFactory</text>
</g>
<!-- \\Aura\\Framework\\Intl\\TranslatorFactory&#45;&gt;\\Aura\\Intl\\TranslatorFactory -->
<g id="edge64" class="edge"><title>\\Aura\\Framework\\Intl\\TranslatorFactory&#45;&gt;\\Aura\\Intl\\TranslatorFactory</title>
<path fill="none" stroke="black" d="M777.88,-799.865C771.048,-795.988 764.835,-791.118 760,-785 614.523,-600.927 858.159,-430.561 696,-261 686.868,-251.452 675.724,-244.485 663.602,-239.477"/>
<polygon fill="none" stroke="black" points="664.753,-236.172 654.159,-236.019 662.346,-242.745 664.753,-236.172"/>
</g>
<!-- \\Aura\\Framework\\Signal\\Manager -->
<g id="node27" class="node"><title>\\Aura\\Framework\\Signal\\Manager</title>
<a xlink:href="Signal.Manager.html" xlink:title="Manager" target="_parent">
<polygon fill="none" stroke="black" points="873.208,-752 810.792,-752 810.792,-716 873.208,-716 873.208,-752"/>
<text text-anchor="middle" x="842" y="-729.6" font-family="Courier,monospace" font-size="11.00">Manager</text>
</a>
</g>
<!-- \\Aura\\Signal\\Manager -->
<g id="node84" class="node"><title>\\Aura\\Signal\\Manager</title>
<ellipse fill="none" stroke="black" cx="534" cy="-72" rx="97.2759" ry="18"/>
<text text-anchor="middle" x="534" y="-66.4" font-family="Times,serif" font-size="14.00" fill="gray">\Aura\Signal\Manager</text>
</g>
<!-- \\Aura\\Framework\\Signal\\Manager&#45;&gt;\\Aura\\Signal\\Manager -->
<g id="edge66" class="edge"><title>\\Aura\\Framework\\Signal\\Manager&#45;&gt;\\Aura\\Signal\\Manager</title>
<path fill="none" stroke="black" d="M810.513,-719.862C792.704,-709.926 771.529,-694.861 760,-675 695.343,-563.619 784.505,-192.558 696,-99 681.12,-83.27 660.781,-74.5241 639.568,-69.9946"/>
<polygon fill="none" stroke="black" points="639.908,-66.4989 629.442,-68.1489 638.652,-73.3854 639.908,-66.4989"/>
</g>
<!-- \\Aura\\Cli\\SignalInterface -->
<g id="node95" class="node"><title>\\Aura\\Cli\\SignalInterface</title>
<ellipse fill="none" stroke="black" cx="534" cy="-180" rx="117.46" ry="18"/>
<text text-anchor="middle" x="534" y="-174.4" font-family="Times,serif" font-size="14.00" fill="gray">\\Aura\\Cli\\SignalInterface</text>
</g>
<!-- \\Aura\\Framework\\Signal\\Manager&#45;&gt;\\Aura\\Cli\\SignalInterface -->
<g id="edge78" class="edge"><title>\\Aura\\Framework\\Signal\\Manager&#45;&gt;\\Aura\\Cli\\SignalInterface</title>
<path fill="none" stroke="black" stroke-dasharray="1,5" d="M810.689,-719.758C792.946,-709.784 771.779,-694.714 760,-675 652.319,-494.784 842.185,-357.675 696,-207 686.154,-196.852 674.031,-189.633 660.892,-184.588"/>
<polygon fill="none" stroke="black" points="661.758,-181.186 651.163,-181.288 659.509,-187.815 661.758,-181.186"/>
</g>
<!-- \\Aura\\Web\\SignalInterface -->
<g id="node97" class="node"><title>\\Aura\\Web\\SignalInterface</title>
<ellipse fill="none" stroke="black" cx="534" cy="-126" rx="122.767" ry="18"/>
<text text-anchor="middle" x="534" y="-120.4" font-family="Times,serif" font-size="14.00" fill="gray">\\Aura\\Web\\SignalInterface</text>
</g>
<!-- \\Aura\\Framework\\Signal\\Manager&#45;&gt;\\Aura\\Web\\SignalInterface -->
<g id="edge80" class="edge"><title>\\Aura\\Framework\\Signal\\Manager&#45;&gt;\\Aura\\Web\\SignalInterface</title>
<path fill="none" stroke="black" stroke-dasharray="1,5" d="M810.592,-719.815C792.813,-709.863 771.642,-694.795 760,-675 641.509,-473.523 857.588,-321.886 696,-153 687.265,-143.87 676.689,-137.102 665.18,-132.149"/>
<polygon fill="none" stroke="black" points="666.357,-128.852 655.766,-128.555 663.86,-135.391 666.357,-128.852"/>
</g>
<!-- \\Aura\\Framework\\View\\Helper\\Route -->
<g id="node30" class="node"><title>\\Aura\\Framework\\View\\Helper\\Route</title>
<a xlink:href="View.Helper.Route.html" xlink:title="Route" target="_parent">
<polygon fill="none" stroke="black" points="869,-642 815,-642 815,-606 869,-606 869,-642"/>
<text text-anchor="middle" x="842" y="-619.6" font-family="Courier,monospace" font-size="11.00">Route</text>
</a>
</g>
<!-- \\Aura\\View\\Helper\\AbstractHelper -->
<g id="node86" class="node"><title>\\Aura\\View\\Helper\\AbstractHelper</title>
<ellipse fill="none" stroke="black" cx="534" cy="-18" rx="146.854" ry="18"/>
<text text-anchor="middle" x="534" y="-12.4" font-family="Times,serif" font-size="14.00" fill="gray">\Aura\View\Helper\AbstractHelper</text>
</g>
<!-- \\Aura\\Framework\\View\\Helper\\Route&#45;&gt;\\Aura\\View\\Helper\\AbstractHelper -->
<g id="edge68" class="edge"><title>\\Aura\\Framework\\View\\Helper\\Route&#45;&gt;\\Aura\\View\\Helper\\AbstractHelper</title>
<path fill="none" stroke="black" d="M814.757,-624.103C796.605,-622.673 773.393,-617.582 760,-602 597.574,-413.027 867.582,-225.7 696,-45 690.443,-39.1474 684.13,-34.2627 677.298,-30.2031"/>
<polygon fill="none" stroke="black" points="678.861,-27.0704 668.384,-25.4914 675.589,-33.259 678.861,-27.0704"/>
</g>
<!-- \\Aura\\Framework\\Web\\Controller\\AbstractPage -->
<g id="node34" class="node"><title>\\Aura\\Framework\\Web\\Controller\\AbstractPage</title>
<a xlink:href="Web.Controller.AbstractPage.html" xlink:title="AbstractPage" target="_parent">
<polygon fill="none" stroke="black" points="581.713,-1165 486.287,-1165 486.287,-1129 581.713,-1129 581.713,-1165"/>
<text text-anchor="middle" x="534" y="-1142.6" font-family="Courier,monospace" font-size="11.00">AbstractPage</text>
</a>
</g>
<!-- \\Aura\\Web\\Controller\\AbstractPage -->
<g id="node88" class="node"><title>\\Aura\\Web\\Controller\\AbstractPage</title>
<ellipse fill="none" stroke="black" cx="150" cy="-1147" rx="149.928" ry="18"/>
<text text-anchor="middle" x="150" y="-1141.4" font-family="Times,serif" font-size="14.00" fill="gray">\Aura\Web\Controller\AbstractPage</text>
</g>
<!-- \\Aura\\Framework\\Web\\Controller\\AbstractPage&#45;&gt;\\Aura\\Web\\Controller\\AbstractPage -->
<g id="edge70" class="edge"><title>\\Aura\\Framework\\Web\\Controller\\AbstractPage&#45;&gt;\\Aura\\Web\\Controller\\AbstractPage</title>
<path fill="none" stroke="black" d="M486.159,-1147C442.096,-1147 373.561,-1147 309.919,-1147"/>
<polygon fill="none" stroke="black" points="309.751,-1143.5 299.751,-1147 309.751,-1150.5 309.751,-1143.5"/>
</g>
<!-- \\Aura\\Framework\\Web\\Controller\\Factory -->
<g id="node35" class="node"><title>\\Aura\\Framework\\Web\\Controller\\Factory</title>
<a xlink:href="Web.Controller.Factory.html" xlink:title="Factory" target="_parent">
<polygon fill="none" stroke="black" points="565.208,-1111 502.792,-1111 502.792,-1075 565.208,-1075 565.208,-1111"/>
<text text-anchor="middle" x="534" y="-1088.6" font-family="Courier,monospace" font-size="11.00">Factory</text>
</a>
</g>
<!-- \\Aura\\Framework\\Web\\Controller\\Front -->
<g id="node36" class="node"><title>\\Aura\\Framework\\Web\\Controller\\Front</title>
<a xlink:href="Web.Controller.Front.html" xlink:title="Front" target="_parent">
<polygon fill="none" stroke="black" points="561,-1057 507,-1057 507,-1021 561,-1021 561,-1057"/>
<text text-anchor="middle" x="534" y="-1034.6" font-family="Courier,monospace" font-size="11.00">Front</text>
</a>
</g>
<!-- \\Aura\\Framework\\Web\\NotFound\\Page -->
<g id="node38" class="node"><title>\\Aura\\Framework\\Web\\NotFound\\Page</title>
<a xlink:href="Web.NotFound.Page.html" xlink:title="Page" target="_parent">
<polygon fill="none" stroke="black" points="869,-1165 815,-1165 815,-1129 869,-1129 869,-1165"/>
<text text-anchor="middle" x="842" y="-1142.6" font-family="Courier,monospace" font-size="11.00">Page</text>
</a>
</g>
<!-- \\Aura\\Framework\\Web\\NotFound\\Page&#45;&gt;\\Aura\\Framework\\Web\\Controller\\AbstractPage -->
<g id="edge72" class="edge"><title>\\Aura\\Framework\\Web\\NotFound\\Page&#45;&gt;\\Aura\\Framework\\Web\\Controller\\AbstractPage</title>
<path fill="none" stroke="black" d="M814.911,-1147C765.796,-1147 658.573,-1147 592.012,-1147"/>
<polygon fill="none" stroke="black" points="591.693,-1143.5 581.693,-1147 591.693,-1150.5 591.693,-1143.5"/>
</g>
<!-- \\Aura\\Framework\\Web\\Renderer\\AuraViewTwoStep -->
<g id="node40" class="node"><title>\\Aura\\Framework\\Web\\Renderer\\AuraViewTwoStep</title>
<a xlink:href="Web.Renderer.AuraViewTwoStep.html" xlink:title="AuraViewTwoStep" target="_parent">
<polygon fill="none" stroke="black" points="899.516,-1057 784.484,-1057 784.484,-1021 899.516,-1021 899.516,-1057"/>
<text text-anchor="middle" x="842" y="-1034.6" font-family="Courier,monospace" font-size="11.00">AuraViewTwoStep</text>
</a>
</g>
<!-- \\Aura\\Web\\Renderer\\AbstractRenderer -->
<g id="node91" class="node"><title>\\Aura\\Web\\Renderer\\AbstractRenderer</title>
<ellipse fill="none" stroke="black" cx="534" cy="-396" rx="162.051" ry="18"/>
<text text-anchor="middle" x="534" y="-390.4" font-family="Times,serif" font-size="14.00" fill="gray">\Aura\Web\Renderer\AbstractRenderer</text>
</g>
<!-- \\Aura\\Framework\\Web\\Renderer\\AuraViewTwoStep&#45;&gt;\\Aura\\Web\\Renderer\\AbstractRenderer -->
<g id="edge74" class="edge"><title>\\Aura\\Framework\\Web\\Renderer\\AuraViewTwoStep&#45;&gt;\\Aura\\Web\\Renderer\\AbstractRenderer</title>
<path fill="none" stroke="black" d="M784.467,-1021.74C774.998,-1016.49 766.238,-1009.72 760,-1001 684.786,-895.914 784.791,-516.896 696,-423 691.527,-418.27 686.561,-414.172 681.226,-410.629"/>
<polygon fill="none" stroke="black" points="682.947,-407.581 672.557,-405.51 679.388,-413.608 682.947,-407.581"/>
</g>
<!-- \\Exception -->
<g id="node78" class="node"><title>\\Exception</title>
<ellipse fill="none" stroke="black" cx="150" cy="-950" rx="52.7417" ry="18"/>
<text text-anchor="middle" x="150" y="-944.4" font-family="Times,serif" font-size="14.00" fill="gray">\Exception</text>
</g>
<!-- \\Aura\\Framework\\Exception&#45;&gt;\\Exception -->
<g id="edge60" class="edge"><title>\\Aura\\Framework\\Exception&#45;&gt;\\Exception</title>
<path fill="none" stroke="black" d="M496.025,-950C430.619,-950 293.859,-950 213.554,-950"/>
<polygon fill="none" stroke="black" points="213.091,-946.5 203.091,-950 213.091,-953.5 213.091,-946.5"/>
</g>
<!-- \\Aura\\Framework\\Inflect -->
<g id="node45" class="node"><title>\\Aura\\Framework\\Inflect</title>
<a xlink:href="Inflect.html" xlink:title="Inflect" target="_parent">
<polygon fill="none" stroke="black" points="873.208,-582 810.792,-582 810.792,-546 873.208,-546 873.208,-582"/>
<text text-anchor="middle" x="842" y="-559.6" font-family="Courier,monospace" font-size="11.00">Inflect</text>
</a>
</g>
<!-- \\Aura\\Framework\\System -->
<g id="node46" class="node"><title>\\Aura\\Framework\\System</title>
<a xlink:href="System.html" xlink:title="System" target="_parent">
<polygon fill="none" stroke="black" points="869.608,-528 814.392,-528 814.392,-492 869.608,-492 869.608,-528"/>
<text text-anchor="middle" x="842" y="-505.6" font-family="Courier,monospace" font-size="11.00">System</text>
</a>
</g>
</g>
</svg>
