<?xml version="1.0" encoding="UTF-8" standalone="no"?>
<!DOCTYPE svg PUBLIC "-//W3C//DTD SVG 1.1//EN"
 "http://www.w3.org/Graphics/SVG/1.1/DTD/svg11.dtd">
<!-- Generated by graphviz version 2.28.0 (20110509.1545)
 -->
<!-- Title: G Pages: 1 -->
<svg width="456pt" height="325pt"
 viewBox="0.00 0.00 456.00 325.00" xmlns="http://www.w3.org/2000/svg" xmlns:xlink="http://www.w3.org/1999/xlink">
<g id="graph1" class="graph" transform="scale(1 1) rotate(0) translate(4 321)">
<title>G</title>
<polygon fill="white" stroke="white" points="-4,5 -4,-321 453,-321 453,5 -4,5"/>
<g id="graph2" class="cluster"><title>cluster_Aura</title>
<polyline fill="none" stroke="gray" points="174,-8 428,-8 "/>
<path fill="none" stroke="gray" d="M428,-8C434,-8 440,-14 440,-20"/>
<polyline fill="none" stroke="gray" points="440,-20 440,-297 "/>
<path fill="none" stroke="gray" d="M440,-297C440,-303 434,-309 428,-309"/>
<polyline fill="none" stroke="gray" points="428,-309 174,-309 "/>
<path fill="none" stroke="gray" d="M174,-309C168,-309 162,-303 162,-297"/>
<polyline fill="none" stroke="gray" points="162,-297 162,-20 "/>
<path fill="none" stroke="gray" d="M162,-20C162,-14 168,-8 174,-8"/>
<text text-anchor="middle" x="301" y="-294" font-family="Times,serif" font-size="11.00" fill="gray">Aura</text>
</g>
<g id="graph3" class="cluster"><title>cluster_Aura\Http</title>
<polyline fill="none" stroke="gray" points="182,-16 420,-16 "/>
<path fill="none" stroke="gray" d="M420,-16C426,-16 432,-22 432,-28"/>
<polyline fill="none" stroke="gray" points="432,-28 432,-268 "/>
<path fill="none" stroke="gray" d="M432,-268C432,-274 426,-280 420,-280"/>
<polyline fill="none" stroke="gray" points="420,-280 182,-280 "/>
<path fill="none" stroke="gray" d="M182,-280C176,-280 170,-274 170,-268"/>
<polyline fill="none" stroke="gray" points="170,-268 170,-28 "/>
<path fill="none" stroke="gray" d="M170,-28C170,-22 176,-16 182,-16"/>
<text text-anchor="middle" x="301" y="-265" font-family="Times,serif" font-size="11.00" fill="gray">Http</text>
</g>
<g id="graph4" class="cluster"><title>cluster_Aura\Http\Exception</title>
<polyline fill="none" stroke="gray" points="330,-178 412,-178 "/>
<path fill="none" stroke="gray" d="M412,-178C418,-178 424,-184 424,-190"/>
<polyline fill="none" stroke="gray" points="424,-190 424,-239 "/>
<path fill="none" stroke="gray" d="M424,-239C424,-245 418,-251 412,-251"/>
<polyline fill="none" stroke="gray" points="412,-251 330,-251 "/>
<path fill="none" stroke="gray" d="M330,-251C324,-251 318,-245 318,-239"/>
<polyline fill="none" stroke="gray" points="318,-239 318,-190 "/>
<path fill="none" stroke="gray" d="M318,-190C318,-184 324,-178 330,-178"/>
<text text-anchor="middle" x="371" y="-236" font-family="Times,serif" font-size="11.00" fill="gray">Exception</text>
</g>
<!-- \\Aura\\Http\\Exception\\HeadersSent -->
<g id="node4" class="node"><title>\\Aura\\Http\\Exception\\HeadersSent</title>
<a xlink:href="db_Aura_Http_Exception_HeadersSent.html" xlink:title="HeadersSent" target="_parent">
<polygon fill="none" stroke="black" points="415.113,-222 326.887,-222 326.887,-186 415.113,-186 415.113,-222"/>
<text text-anchor="middle" x="371" y="-199.6" font-family="Courier,monospace" font-size="11.00">HeadersSent</text>
</a>
</g>
<!-- \\Aura\\Http\\Exception -->
<g id="node6" class="node"><title>\\Aura\\Http\\Exception</title>
<a xlink:href="db_Aura_Http_Exception.html" xlink:title="Exception" target="_parent">
<polygon fill="none" stroke="black" points="253.911,-222 178.089,-222 178.089,-186 253.911,-186 253.911,-222"/>
<text text-anchor="middle" x="216" y="-199.6" font-family="Courier,monospace" font-size="11.00">Exception</text>
</a>
</g>
<!-- \\Aura\\Http\\Exception\\HeadersSent&#45;&gt;\\Aura\\Http\\Exception -->
<g id="edge6" class="edge"><title>\\Aura\\Http\\Exception\\HeadersSent&#45;&gt;\\Aura\\Http\\Exception</title>
<path fill="none" stroke="black" d="M326.566,-204C307.005,-204 283.873,-204 263.916,-204"/>
<polygon fill="none" stroke="black" points="263.806,-200.5 253.805,-204 263.805,-207.5 263.806,-200.5"/>
</g>
<!-- \\Aura\\Http\\Cookies -->
<g id="node5" class="node"><title>\\Aura\\Http\\Cookies</title>
<a xlink:href="db_Aura_Http_Cookies.html" xlink:title="Cookies" target="_parent">
<polygon fill="none" stroke="black" points="402.208,-168 339.792,-168 339.792,-132 402.208,-132 402.208,-168"/>
<text text-anchor="middle" x="371" y="-145.6" font-family="Courier,monospace" font-size="11.00">Cookies</text>
</a>
</g>
<!-- \\Exception -->
<g id="node12" class="node"><title>\\Exception</title>
<ellipse fill="none" stroke="black" cx="53" cy="-204" rx="52.7417" ry="18"/>
<text text-anchor="middle" x="53" y="-198.4" font-family="Times,serif" font-size="14.00" fill="gray">\Exception</text>
</g>
<!-- \\Aura\\Http\\Exception&#45;&gt;\\Exception -->
<g id="edge8" class="edge"><title>\\Aura\\Http\\Exception&#45;&gt;\\Exception</title>
<path fill="none" stroke="black" d="M178.063,-204C159.713,-204 137.042,-204 116.12,-204"/>
<polygon fill="none" stroke="black" points="116.017,-200.5 106.017,-204 116.017,-207.5 116.017,-200.5"/>
</g>
<!-- \\Aura\\Http\\Headers -->
<g id="node7" class="node"><title>\\Aura\\Http\\Headers</title>
<a xlink:href="db_Aura_Http_Headers.html" xlink:title="Headers" target="_parent">
<polygon fill="none" stroke="black" points="402.208,-114 339.792,-114 339.792,-78 402.208,-78 402.208,-114"/>
<text text-anchor="middle" x="371" y="-91.6" font-family="Courier,monospace" font-size="11.00">Headers</text>
</a>
</g>
<!-- \\Aura\\Http\\Response -->
<g id="node8" class="node"><title>\\Aura\\Http\\Response</title>
<a xlink:href="db_Aura_Http_Response.html" xlink:title="Response" target="_parent">
<polygon fill="none" stroke="black" points="405.309,-60 336.691,-60 336.691,-24 405.309,-24 405.309,-60"/>
<text text-anchor="middle" x="371" y="-37.6" font-family="Courier,monospace" font-size="11.00">Response</text>
</a>
</g>
</g>
</svg>
