<?xml version="1.0" encoding="UTF-8" standalone="no"?>
<!DOCTYPE svg PUBLIC "-//W3C//DTD SVG 1.1//EN"
 "http://www.w3.org/Graphics/SVG/1.1/DTD/svg11.dtd">
<!-- Generated by graphviz version 2.28.0 (20111028.1807)
 -->
<!-- Title: G Pages: 1 -->
<svg width="298pt" height="325pt"
 viewBox="0.00 0.00 298.00 325.00" xmlns="http://www.w3.org/2000/svg" xmlns:xlink="http://www.w3.org/1999/xlink">
<g id="graph1" class="graph" transform="scale(1 1) rotate(0) translate(4 321)">
<title>G</title>
<polygon fill="white" stroke="white" points="-4,5 -4,-321 295,-321 295,5 -4,5"/>
<g id="graph2" class="cluster"><title>cluster_Aura</title>
<polyline fill="none" stroke="gray" points="184,-8 270,-8 "/>
<path fill="none" stroke="gray" d="M270,-8C276,-8 282,-14 282,-20"/>
<polyline fill="none" stroke="gray" points="282,-20 282,-297 "/>
<path fill="none" stroke="gray" d="M282,-297C282,-303 276,-309 270,-309"/>
<polyline fill="none" stroke="gray" points="270,-309 184,-309 "/>
<path fill="none" stroke="gray" d="M184,-309C178,-309 172,-303 172,-297"/>
<polyline fill="none" stroke="gray" points="172,-297 172,-20 "/>
<path fill="none" stroke="gray" d="M172,-20C172,-14 178,-8 184,-8"/>
<text text-anchor="middle" x="227" y="-294" font-family="Times,serif" font-size="11.00" fill="gray">Aura</text>
</g>
<g id="graph3" class="cluster"><title>cluster_Aura\Uri</title>
<polyline fill="none" stroke="gray" points="192,-16 262,-16 "/>
<path fill="none" stroke="gray" d="M262,-16C268,-16 274,-22 274,-28"/>
<polyline fill="none" stroke="gray" points="274,-28 274,-268 "/>
<path fill="none" stroke="gray" d="M274,-268C274,-274 268,-280 262,-280"/>
<polyline fill="none" stroke="gray" points="262,-280 192,-280 "/>
<path fill="none" stroke="gray" d="M192,-280C186,-280 180,-274 180,-268"/>
<polyline fill="none" stroke="gray" points="180,-268 180,-28 "/>
<path fill="none" stroke="gray" d="M180,-28C180,-22 186,-16 192,-16"/>
<text text-anchor="middle" x="227" y="-265" font-family="Times,serif" font-size="11.00" fill="gray">Uri</text>
</g>
<g id="graph4" class="cluster"><title>cluster_Aura\Uri\Url</title>
<polyline fill="none" stroke="gray" points="200,-178 254,-178 "/>
<path fill="none" stroke="gray" d="M254,-178C260,-178 266,-184 266,-190"/>
<polyline fill="none" stroke="gray" points="266,-190 266,-239 "/>
<path fill="none" stroke="gray" d="M266,-239C266,-245 260,-251 254,-251"/>
<polyline fill="none" stroke="gray" points="254,-251 200,-251 "/>
<path fill="none" stroke="gray" d="M200,-251C194,-251 188,-245 188,-239"/>
<polyline fill="none" stroke="gray" points="188,-239 188,-190 "/>
<path fill="none" stroke="gray" d="M188,-190C188,-184 194,-178 200,-178"/>
<text text-anchor="middle" x="227" y="-236" font-family="Times,serif" font-size="11.00" fill="gray">Url</text>
</g>
<!-- \\Aura\\Uri\\Url\\Factory -->
<g id="node4" class="node"><title>\\Aura\\Uri\\Url\\Factory</title>
<a xlink:href="Url.Factory.html" xlink:title="Factory" target="_parent">
<polygon fill="none" stroke="black" points="258.208,-222 195.792,-222 195.792,-186 258.208,-186 258.208,-222"/>
<text text-anchor="middle" x="227" y="-199.6" font-family="Courier,monospace" font-size="11.00">Factory</text>
</a>
</g>
<!-- \\Aura\\Uri\\Path -->
<g id="node5" class="node"><title>\\Aura\\Uri\\Path</title>
<a xlink:href="Path.html" xlink:title="Path" target="_parent">
<polygon fill="none" stroke="black" points="254,-168 200,-168 200,-132 254,-132 254,-168"/>
<text text-anchor="middle" x="227" y="-145.6" font-family="Courier,monospace" font-size="11.00">Path</text>
</a>
</g>
<!-- \\ArrayObject -->
<g id="node10" class="node"><title>\\ArrayObject</title>
<ellipse fill="none" stroke="black" cx="62" cy="-123" rx="61.9613" ry="18"/>
<text text-anchor="middle" x="62" y="-117.4" font-family="Times,serif" font-size="14.00" fill="gray">\ArrayObject</text>
</g>
<!-- \\Aura\\Uri\\Path&#45;&gt;\\ArrayObject -->
<g id="edge6" class="edge"><title>\\Aura\\Uri\\Path&#45;&gt;\\ArrayObject</title>
<path fill="none" stroke="black" d="M199.811,-145.662C179.95,-142.372 151.79,-137.707 126.176,-133.465"/>
<polygon fill="none" stroke="black" points="126.574,-129.983 116.136,-131.802 125.43,-136.889 126.574,-129.983"/>
</g>
<!-- \\Aura\\Uri\\Query -->
<g id="node6" class="node"><title>\\Aura\\Uri\\Query</title>
<a xlink:href="Query.html" xlink:title="Query" target="_parent">
<polygon fill="none" stroke="black" points="254,-114 200,-114 200,-78 254,-78 254,-114"/>
<text text-anchor="middle" x="227" y="-91.6" font-family="Courier,monospace" font-size="11.00">Query</text>
</a>
</g>
<!-- \\Aura\\Uri\\Query&#45;&gt;\\ArrayObject -->
<g id="edge8" class="edge"><title>\\Aura\\Uri\\Query&#45;&gt;\\ArrayObject</title>
<path fill="none" stroke="black" d="M199.811,-100.338C179.95,-103.628 151.79,-108.293 126.176,-112.535"/>
<polygon fill="none" stroke="black" points="125.43,-109.111 116.136,-114.198 126.574,-116.017 125.43,-109.111"/>
</g>
<!-- \\Aura\\Uri\\Url -->
<g id="node7" class="node"><title>\\Aura\\Uri\\Url</title>
<a xlink:href="Url.html" xlink:title="Url" target="_parent">
<polygon fill="none" stroke="black" points="254,-60 200,-60 200,-24 254,-24 254,-60"/>
<text text-anchor="middle" x="227" y="-37.6" font-family="Courier,monospace" font-size="11.00">Url</text>
</a>
</g>
</g>
</svg>
