<?xml version="1.0" encoding="UTF-8" standalone="no"?>
<!DOCTYPE svg PUBLIC "-//W3C//DTD SVG 1.1//EN"
 "http://www.w3.org/Graphics/SVG/1.1/DTD/svg11.dtd">
<!-- Generated by graphviz version 2.28.0 (20111028.1807)
 -->
<!-- Title: G Pages: 1 -->
<svg width="622pt" height="631pt"
 viewBox="0.00 0.00 622.00 631.00" xmlns="http://www.w3.org/2000/svg" xmlns:xlink="http://www.w3.org/1999/xlink">
<g id="graph1" class="graph" transform="scale(1 1) rotate(0) translate(4 627)">
<title>G</title>
<polygon fill="white" stroke="white" points="-4,5 -4,-627 619,-627 619,5 -4,5"/>
<g id="graph2" class="cluster"><title>cluster_Aura</title>
<polyline fill="none" stroke="gray" points="20,-44 594,-44 "/>
<path fill="none" stroke="gray" d="M594,-44C600,-44 606,-50 606,-56"/>
<polyline fill="none" stroke="gray" points="606,-56 606,-603 "/>
<path fill="none" stroke="gray" d="M606,-603C606,-609 600,-615 594,-615"/>
<polyline fill="none" stroke="gray" points="594,-615 20,-615 "/>
<path fill="none" stroke="gray" d="M20,-615C14,-615 8,-609 8,-603"/>
<polyline fill="none" stroke="gray" points="8,-603 8,-56 "/>
<path fill="none" stroke="gray" d="M8,-56C8,-50 14,-44 20,-44"/>
<text text-anchor="middle" x="307" y="-600" font-family="Times,serif" font-size="11.00" fill="gray">Aura</text>
</g>
<g id="graph3" class="cluster"><title>cluster_Aura\Web</title>
<polyline fill="none" stroke="gray" points="28,-52 586,-52 "/>
<path fill="none" stroke="gray" d="M586,-52C592,-52 598,-58 598,-64"/>
<polyline fill="none" stroke="gray" points="598,-64 598,-574 "/>
<path fill="none" stroke="gray" d="M598,-574C598,-580 592,-586 586,-586"/>
<polyline fill="none" stroke="gray" points="586,-586 28,-586 "/>
<path fill="none" stroke="gray" d="M28,-586C22,-586 16,-580 16,-574"/>
<polyline fill="none" stroke="gray" points="16,-574 16,-64 "/>
<path fill="none" stroke="gray" d="M16,-64C16,-58 22,-52 28,-52"/>
<text text-anchor="middle" x="307" y="-571" font-family="Times,serif" font-size="11.00" fill="gray">Web</text>
</g>
<g id="graph4" class="cluster"><title>cluster_Aura\Web\Controller</title>
<polyline fill="none" stroke="gray" points="36,-484 562,-484 "/>
<path fill="none" stroke="gray" d="M562,-484C568,-484 574,-490 574,-496"/>
<polyline fill="none" stroke="gray" points="574,-496 574,-545 "/>
<path fill="none" stroke="gray" d="M574,-545C574,-551 568,-557 562,-557"/>
<polyline fill="none" stroke="gray" points="562,-557 36,-557 "/>
<path fill="none" stroke="gray" d="M36,-557C30,-557 24,-551 24,-545"/>
<polyline fill="none" stroke="gray" points="24,-545 24,-496 "/>
<path fill="none" stroke="gray" d="M24,-496C24,-490 30,-484 36,-484"/>
<text text-anchor="middle" x="299" y="-542" font-family="Times,serif" font-size="11.00" fill="gray">Controller</text>
</g>
<g id="graph5" class="cluster"><title>cluster_Aura\Web\Exception</title>
<polyline fill="none" stroke="gray" points="458,-268 578,-268 "/>
<path fill="none" stroke="gray" d="M578,-268C584,-268 590,-274 590,-280"/>
<polyline fill="none" stroke="gray" points="590,-280 590,-383 "/>
<path fill="none" stroke="gray" d="M590,-383C590,-389 584,-395 578,-395"/>
<polyline fill="none" stroke="gray" points="578,-395 458,-395 "/>
<path fill="none" stroke="gray" d="M458,-395C452,-395 446,-389 446,-383"/>
<polyline fill="none" stroke="gray" points="446,-383 446,-280 "/>
<path fill="none" stroke="gray" d="M446,-280C446,-274 452,-268 458,-268"/>
<text text-anchor="middle" x="518" y="-380" font-family="Times,serif" font-size="11.00" fill="gray">Exception</text>
</g>
<g id="graph6" class="cluster"><title>cluster_Aura\Web\Renderer</title>
<polyline fill="none" stroke="gray" points="43,-403 541,-403 "/>
<path fill="none" stroke="gray" d="M541,-403C547,-403 553,-409 553,-415"/>
<polyline fill="none" stroke="gray" points="553,-415 553,-464 "/>
<path fill="none" stroke="gray" d="M553,-464C553,-470 547,-476 541,-476"/>
<polyline fill="none" stroke="gray" points="541,-476 43,-476 "/>
<path fill="none" stroke="gray" d="M43,-476C37,-476 31,-470 31,-464"/>
<polyline fill="none" stroke="gray" points="31,-464 31,-415 "/>
<path fill="none" stroke="gray" d="M31,-415C31,-409 37,-403 43,-403"/>
<text text-anchor="middle" x="292" y="-461" font-family="Times,serif" font-size="11.00" fill="gray">Renderer</text>
</g>
<!-- \\Aura\\Web\\Controller\\AbstractController -->
<g id="node4" class="node"><title>\\Aura\\Web\\Controller\\AbstractController</title>
<a xlink:href="Controller.AbstractController.html" xlink:title="AbstractController" target="_parent">
<polygon fill="none" stroke="black" points="381.319,-528 246.681,-528 246.681,-492 381.319,-492 381.319,-528"/>
<text text-anchor="middle" x="314" y="-505.6" font-family="Courier,monospace" font-size="11.00">AbstractController</text>
</a>
</g>
<!-- \\Aura\\Web\\Controller\\ControllerInterface -->
<g id="node6" class="node"><title>\\Aura\\Web\\Controller\\ControllerInterface</title>
<a xlink:href="Controller.ControllerInterface.html" xlink:title="ControllerInterface" target="_parent">
<polygon fill="none" stroke="black" points="173.921,-528 32.079,-528 32.079,-492 173.921,-492 173.921,-528"/>
<text text-anchor="middle" x="103" y="-505.6" font-family="Courier,monospace" font-size="11.00">ControllerInterface</text>
</a>
</g>
<!-- \\Aura\\Web\\Controller\\AbstractController&#45;&gt;\\Aura\\Web\\Controller\\ControllerInterface -->
<g id="edge20" class="edge"><title>\\Aura\\Web\\Controller\\AbstractController&#45;&gt;\\Aura\\Web\\Controller\\ControllerInterface</title>
<path fill="none" stroke="black" stroke-dasharray="1,5" d="M246.584,-510C226.656,-510 204.588,-510 183.887,-510"/>
<polygon fill="none" stroke="black" points="183.849,-506.5 173.849,-510 183.849,-513.5 183.849,-506.5"/>
</g>
<!-- \\Aura\\Web\\Controller\\AbstractPage -->
<g id="node5" class="node"><title>\\Aura\\Web\\Controller\\AbstractPage</title>
<a xlink:href="Controller.AbstractPage.html" xlink:title="AbstractPage" target="_parent">
<polygon fill="none" stroke="black" points="565.713,-528 470.287,-528 470.287,-492 565.713,-492 565.713,-528"/>
<text text-anchor="middle" x="518" y="-505.6" font-family="Courier,monospace" font-size="11.00">AbstractPage</text>
</a>
</g>
<!-- \\Aura\\Web\\Controller\\AbstractPage&#45;&gt;\\Aura\\Web\\Controller\\AbstractController -->
<g id="edge10" class="edge"><title>\\Aura\\Web\\Controller\\AbstractPage&#45;&gt;\\Aura\\Web\\Controller\\AbstractController</title>
<path fill="none" stroke="black" d="M470.149,-510C446.793,-510 417.952,-510 391.498,-510"/>
<polygon fill="none" stroke="black" points="391.492,-506.5 381.492,-510 391.492,-513.5 391.492,-506.5"/>
</g>
<!-- \\Aura\\Web\\Exception\\Context -->
<g id="node8" class="node"><title>\\Aura\\Web\\Exception\\Context</title>
<a xlink:href="Exception.Context.html" xlink:title="Context" target="_parent">
<polygon fill="none" stroke="black" points="549.208,-366 486.792,-366 486.792,-330 549.208,-330 549.208,-366"/>
<text text-anchor="middle" x="518" y="-343.6" font-family="Courier,monospace" font-size="11.00">Context</text>
</a>
</g>
<!-- \\Aura\\Web\\Exception -->
<g id="node16" class="node"><title>\\Aura\\Web\\Exception</title>
<a xlink:href="Exception.html" xlink:title="Exception" target="_parent">
<polygon fill="none" stroke="black" points="351.911,-312 276.089,-312 276.089,-276 351.911,-276 351.911,-312"/>
<text text-anchor="middle" x="314" y="-289.6" font-family="Courier,monospace" font-size="11.00">Exception</text>
</a>
</g>
<!-- \\Aura\\Web\\Exception\\Context&#45;&gt;\\Aura\\Web\\Exception -->
<g id="edge12" class="edge"><title>\\Aura\\Web\\Exception\\Context&#45;&gt;\\Aura\\Web\\Exception</title>
<path fill="none" stroke="black" d="M486.759,-339.916C453.721,-331.084 400.384,-316.825 361.906,-306.539"/>
<polygon fill="none" stroke="black" points="362.537,-303.085 351.972,-303.884 360.729,-309.847 362.537,-303.085"/>
</g>
<!-- \\Aura\\Web\\Exception\\NoMethodForAction -->
<g id="node9" class="node"><title>\\Aura\\Web\\Exception\\NoMethodForAction</title>
<a xlink:href="Exception.NoMethodForAction.html" xlink:title="NoMethodForAction" target="_parent">
<polygon fill="none" stroke="black" points="582.218,-312 453.782,-312 453.782,-276 582.218,-276 582.218,-312"/>
<text text-anchor="middle" x="518" y="-289.6" font-family="Courier,monospace" font-size="11.00">NoMethodForAction</text>
</a>
</g>
<!-- \\Aura\\Web\\Exception\\NoMethodForAction&#45;&gt;\\Aura\\Web\\Exception -->
<g id="edge14" class="edge"><title>\\Aura\\Web\\Exception\\NoMethodForAction&#45;&gt;\\Aura\\Web\\Exception</title>
<path fill="none" stroke="black" d="M453.64,-294C423.99,-294 389.289,-294 362.022,-294"/>
<polygon fill="none" stroke="black" points="361.961,-290.5 351.961,-294 361.961,-297.5 361.961,-290.5"/>
</g>
<!-- \\Aura\\Web\\Renderer\\AbstractRenderer -->
<g id="node11" class="node"><title>\\Aura\\Web\\Renderer\\AbstractRenderer</title>
<a xlink:href="Renderer.AbstractRenderer.html" xlink:title="AbstractRenderer" target="_parent">
<polygon fill="none" stroke="black" points="374.618,-447 253.382,-447 253.382,-411 374.618,-411 374.618,-447"/>
<text text-anchor="middle" x="314" y="-424.6" font-family="Courier,monospace" font-size="11.00">AbstractRenderer</text>
</a>
</g>
<!-- \\Aura\\Web\\Renderer\\RendererInterface -->
<g id="node13" class="node"><title>\\Aura\\Web\\Renderer\\RendererInterface</title>
<a xlink:href="Renderer.RendererInterface.html" xlink:title="RendererInterface" target="_parent">
<polygon fill="none" stroke="black" points="167.218,-447 38.7816,-447 38.7816,-411 167.218,-411 167.218,-447"/>
<text text-anchor="middle" x="103" y="-424.6" font-family="Courier,monospace" font-size="11.00">RendererInterface</text>
</a>
</g>
<!-- \\Aura\\Web\\Renderer\\AbstractRenderer&#45;&gt;\\Aura\\Web\\Renderer\\RendererInterface -->
<g id="edge22" class="edge"><title>\\Aura\\Web\\Renderer\\AbstractRenderer&#45;&gt;\\Aura\\Web\\Renderer\\RendererInterface</title>
<path fill="none" stroke="black" stroke-dasharray="1,5" d="M253.109,-429C229.467,-429 202.076,-429 177.269,-429"/>
<polygon fill="none" stroke="black" points="177.18,-425.5 167.18,-429 177.18,-432.5 177.18,-425.5"/>
</g>
<!-- \\Aura\\Web\\Renderer\\None -->
<g id="node12" class="node"><title>\\Aura\\Web\\Renderer\\None</title>
<a xlink:href="Renderer.None.html" xlink:title="None" target="_parent">
<polygon fill="none" stroke="black" points="545,-447 491,-447 491,-411 545,-411 545,-447"/>
<text text-anchor="middle" x="518" y="-424.6" font-family="Courier,monospace" font-size="11.00">None</text>
</a>
</g>
<!-- \\Aura\\Web\\Renderer\\None&#45;&gt;\\Aura\\Web\\Renderer\\AbstractRenderer -->
<g id="edge18" class="edge"><title>\\Aura\\Web\\Renderer\\None&#45;&gt;\\Aura\\Web\\Renderer\\AbstractRenderer</title>
<path fill="none" stroke="black" d="M490.592,-429C463.906,-429 421.522,-429 385.081,-429"/>
<polygon fill="none" stroke="black" points="384.979,-425.5 374.979,-429 384.979,-432.5 384.979,-425.5"/>
</g>
<!-- \\Aura\\Web\\Accept -->
<g id="node14" class="node"><title>\\Aura\\Web\\Accept</title>
<a xlink:href="Accept.html" xlink:title="Accept" target="_parent">
<polygon fill="none" stroke="black" points="545.608,-258 490.392,-258 490.392,-222 545.608,-222 545.608,-258"/>
<text text-anchor="middle" x="518" y="-235.6" font-family="Courier,monospace" font-size="11.00">Accept</text>
</a>
</g>
<!-- \\Aura\\Web\\Context -->
<g id="node15" class="node"><title>\\Aura\\Web\\Context</title>
<a xlink:href="Context.html" xlink:title="Context" target="_parent">
<polygon fill="none" stroke="black" points="549.208,-204 486.792,-204 486.792,-168 549.208,-168 549.208,-204"/>
<text text-anchor="middle" x="518" y="-181.6" font-family="Courier,monospace" font-size="11.00">Context</text>
</a>
</g>
<!-- \\Exception -->
<g id="node27" class="node"><title>\\Exception</title>
<ellipse fill="none" stroke="black" cx="103" cy="-18" rx="52.7417" ry="18"/>
<text text-anchor="middle" x="103" y="-12.4" font-family="Times,serif" font-size="14.00" fill="gray">\Exception</text>
</g>
<!-- \\Aura\\Web\\Exception&#45;&gt;\\Exception -->
<g id="edge16" class="edge"><title>\\Aura\\Web\\Exception&#45;&gt;\\Exception</title>
<path fill="none" stroke="black" d="M299.287,-275.891C263.168,-228.193 165.323,-98.982 123.445,-43.6787"/>
<polygon fill="none" stroke="black" points="126.05,-41.3206 117.223,-35.4613 120.469,-45.5464 126.05,-41.3206"/>
</g>
<!-- \\Aura\\Web\\Response -->
<g id="node17" class="node"><title>\\Aura\\Web\\Response</title>
<a xlink:href="Response.html" xlink:title="Response" target="_parent">
<polygon fill="none" stroke="black" points="552.309,-150 483.691,-150 483.691,-114 552.309,-114 552.309,-150"/>
<text text-anchor="middle" x="518" y="-127.6" font-family="Courier,monospace" font-size="11.00">Response</text>
</a>
</g>
<!-- \\Aura\\Web\\Signal -->
<g id="node18" class="node"><title>\\Aura\\Web\\Signal</title>
<a xlink:href="Signal.html" xlink:title="Signal" target="_parent">
<polygon fill="none" stroke="black" points="545.608,-96 490.392,-96 490.392,-60 545.608,-60 545.608,-96"/>
<text text-anchor="middle" x="518" y="-73.6" font-family="Courier,monospace" font-size="11.00">Signal</text>
</a>
</g>
<!-- \\Aura\\Web\\SignalInterface -->
<g id="node19" class="node"><title>\\Aura\\Web\\SignalInterface</title>
<a xlink:href="SignalInterface.html" xlink:title="SignalInterface" target="_parent">
<polygon fill="none" stroke="black" points="371.516,-96 256.484,-96 256.484,-60 371.516,-60 371.516,-96"/>
<text text-anchor="middle" x="314" y="-73.6" font-family="Courier,monospace" font-size="11.00">SignalInterface</text>
</a>
</g>
<!-- \\Aura\\Web\\Signal&#45;&gt;\\Aura\\Web\\SignalInterface -->
<g id="edge24" class="edge"><title>\\Aura\\Web\\Signal&#45;&gt;\\Aura\\Web\\SignalInterface</title>
<path fill="none" stroke="black" stroke-dasharray="1,5" d="M490.176,-78C462.709,-78 418.929,-78 382.01,-78"/>
<polygon fill="none" stroke="black" points="381.797,-74.5001 371.797,-78 381.797,-81.5001 381.797,-74.5001"/>
</g>
</g>
</svg>
