<?xml version="1.0" encoding="UTF-8" standalone="no"?>
<!DOCTYPE svg PUBLIC "-//W3C//DTD SVG 1.1//EN"
 "http://www.w3.org/Graphics/SVG/1.1/DTD/svg11.dtd">
<!-- Generated by graphviz version 2.28.0 (20111028.1807)
 -->
<!-- Title: G Pages: 1 -->
<svg width="486pt" height="487pt"
 viewBox="0.00 0.00 486.00 487.00" xmlns="http://www.w3.org/2000/svg" xmlns:xlink="http://www.w3.org/1999/xlink">
<g id="graph1" class="graph" transform="scale(1 1) rotate(0) translate(4 483)">
<title>G</title>
<polygon fill="white" stroke="white" points="-4,5 -4,-483 483,-483 483,5 -4,5"/>
<g id="graph2" class="cluster"><title>cluster_Aura</title>
<polyline fill="none" stroke="gray" points="174,-8 458,-8 "/>
<path fill="none" stroke="gray" d="M458,-8C464,-8 470,-14 470,-20"/>
<polyline fill="none" stroke="gray" points="470,-20 470,-459 "/>
<path fill="none" stroke="gray" d="M470,-459C470,-465 464,-471 458,-471"/>
<polyline fill="none" stroke="gray" points="458,-471 174,-471 "/>
<path fill="none" stroke="gray" d="M174,-471C168,-471 162,-465 162,-459"/>
<polyline fill="none" stroke="gray" points="162,-459 162,-20 "/>
<path fill="none" stroke="gray" d="M162,-20C162,-14 168,-8 174,-8"/>
<text text-anchor="middle" x="316" y="-456" font-family="Times,serif" font-size="11.00" fill="gray">Aura</text>
</g>
<g id="graph3" class="cluster"><title>cluster_Aura\Router</title>
<polyline fill="none" stroke="gray" points="182,-16 450,-16 "/>
<path fill="none" stroke="gray" d="M450,-16C456,-16 462,-22 462,-28"/>
<polyline fill="none" stroke="gray" points="462,-28 462,-430 "/>
<path fill="none" stroke="gray" d="M462,-430C462,-436 456,-442 450,-442"/>
<polyline fill="none" stroke="gray" points="450,-442 182,-442 "/>
<path fill="none" stroke="gray" d="M182,-442C176,-442 170,-436 170,-430"/>
<polyline fill="none" stroke="gray" points="170,-430 170,-28 "/>
<path fill="none" stroke="gray" d="M170,-28C170,-22 176,-16 182,-16"/>
<text text-anchor="middle" x="316" y="-427" font-family="Times,serif" font-size="11.00" fill="gray">Router</text>
</g>
<g id="graph4" class="cluster"><title>cluster_Aura\Router\Exception</title>
<polyline fill="none" stroke="gray" points="340,-286 440,-286 "/>
<path fill="none" stroke="gray" d="M440,-286C446,-286 452,-292 452,-298"/>
<polyline fill="none" stroke="gray" points="452,-298 452,-401 "/>
<path fill="none" stroke="gray" d="M452,-401C452,-407 446,-413 440,-413"/>
<polyline fill="none" stroke="gray" points="440,-413 340,-413 "/>
<path fill="none" stroke="gray" d="M340,-413C334,-413 328,-407 328,-401"/>
<polyline fill="none" stroke="gray" points="328,-401 328,-298 "/>
<path fill="none" stroke="gray" d="M328,-298C328,-292 334,-286 340,-286"/>
<text text-anchor="middle" x="390" y="-398" font-family="Times,serif" font-size="11.00" fill="gray">Exception</text>
</g>
<!-- \\Aura\\Router\\Exception\\RouteNotFound -->
<g id="node4" class="node"><title>\\Aura\\Router\\Exception\\RouteNotFound</title>
<a xlink:href="Exception.RouteNotFound.html" xlink:title="RouteNotFound" target="_parent">
<polygon fill="none" stroke="black" points="440.814,-384 339.186,-384 339.186,-348 440.814,-348 440.814,-384"/>
<text text-anchor="middle" x="390" y="-361.6" font-family="Courier,monospace" font-size="11.00">RouteNotFound</text>
</a>
</g>
<!-- \\Aura\\Router\\Exception -->
<g id="node8" class="node"><title>\\Aura\\Router\\Exception</title>
<a xlink:href="Exception.html" xlink:title="Exception" target="_parent">
<polygon fill="none" stroke="black" points="253.911,-357 178.089,-357 178.089,-321 253.911,-321 253.911,-357"/>
<text text-anchor="middle" x="216" y="-334.6" font-family="Courier,monospace" font-size="11.00">Exception</text>
</a>
</g>
<!-- \\Aura\\Router\\Exception\\RouteNotFound&#45;&gt;\\Aura\\Router\\Exception -->
<g id="edge6" class="edge"><title>\\Aura\\Router\\Exception\\RouteNotFound&#45;&gt;\\Aura\\Router\\Exception</title>
<path fill="none" stroke="black" d="M338.788,-358.118C315.121,-354.403 287.054,-349.997 263.831,-346.351"/>
<polygon fill="none" stroke="black" points="264.292,-342.881 253.87,-344.788 263.206,-349.796 264.292,-342.881"/>
</g>
<!-- \\Aura\\Router\\Exception\\UnexpectedType -->
<g id="node5" class="node"><title>\\Aura\\Router\\Exception\\UnexpectedType</title>
<a xlink:href="Exception.UnexpectedType.html" xlink:title="UnexpectedType" target="_parent">
<polygon fill="none" stroke="black" points="444.416,-330 335.584,-330 335.584,-294 444.416,-294 444.416,-330"/>
<text text-anchor="middle" x="390" y="-307.6" font-family="Courier,monospace" font-size="11.00">UnexpectedType</text>
</a>
</g>
<!-- \\Aura\\Router\\Exception\\UnexpectedType&#45;&gt;\\Aura\\Router\\Exception -->
<g id="edge8" class="edge"><title>\\Aura\\Router\\Exception\\UnexpectedType&#45;&gt;\\Aura\\Router\\Exception</title>
<path fill="none" stroke="black" d="M335.521,-320.395C312.62,-323.99 286.112,-328.151 263.979,-331.625"/>
<polygon fill="none" stroke="black" points="263.16,-328.211 253.824,-333.219 264.246,-335.126 263.16,-328.211"/>
</g>
<!-- \\Aura\\Router\\Definition -->
<g id="node6" class="node"><title>\\Aura\\Router\\Definition</title>
<a xlink:href="Definition.html" xlink:title="Definition" target="_parent">
<polygon fill="none" stroke="black" points="431.011,-276 348.989,-276 348.989,-240 431.011,-240 431.011,-276"/>
<text text-anchor="middle" x="390" y="-253.6" font-family="Courier,monospace" font-size="11.00">Definition</text>
</a>
</g>
<!-- \\Aura\\Router\\DefinitionFactory -->
<g id="node7" class="node"><title>\\Aura\\Router\\DefinitionFactory</title>
<a xlink:href="DefinitionFactory.html" xlink:title="DefinitionFactory" target="_parent">
<polygon fill="none" stroke="black" points="454.218,-222 325.782,-222 325.782,-186 454.218,-186 454.218,-222"/>
<text text-anchor="middle" x="390" y="-199.6" font-family="Courier,monospace" font-size="11.00">DefinitionFactory</text>
</a>
</g>
<!-- \\Exception -->
<g id="node16" class="node"><title>\\Exception</title>
<ellipse fill="none" stroke="black" cx="53" cy="-339" rx="52.7417" ry="18"/>
<text text-anchor="middle" x="53" y="-333.4" font-family="Times,serif" font-size="14.00" fill="gray">\Exception</text>
</g>
<!-- \\Aura\\Router\\Exception&#45;&gt;\\Exception -->
<g id="edge10" class="edge"><title>\\Aura\\Router\\Exception&#45;&gt;\\Exception</title>
<path fill="none" stroke="black" d="M178.063,-339C159.713,-339 137.042,-339 116.12,-339"/>
<polygon fill="none" stroke="black" points="116.017,-335.5 106.017,-339 116.017,-342.5 116.017,-335.5"/>
</g>
<!-- \\Aura\\Router\\Map -->
<g id="node9" class="node"><title>\\Aura\\Router\\Map</title>
<a xlink:href="Map.html" xlink:title="Map" target="_parent">
<polygon fill="none" stroke="black" points="417,-168 363,-168 363,-132 417,-132 417,-168"/>
<text text-anchor="middle" x="390" y="-145.6" font-family="Courier,monospace" font-size="11.00">Map</text>
</a>
</g>
<!-- \\Aura\\Router\\Route -->
<g id="node10" class="node"><title>\\Aura\\Router\\Route</title>
<a xlink:href="Route.html" xlink:title="Route" target="_parent">
<polygon fill="none" stroke="black" points="417,-114 363,-114 363,-78 417,-78 417,-114"/>
<text text-anchor="middle" x="390" y="-91.6" font-family="Courier,monospace" font-size="11.00">Route</text>
</a>
</g>
<!-- \\Aura\\Router\\RouteFactory -->
<g id="node11" class="node"><title>\\Aura\\Router\\RouteFactory</title>
<a xlink:href="RouteFactory.html" xlink:title="RouteFactory" target="_parent">
<polygon fill="none" stroke="black" points="437.713,-60 342.287,-60 342.287,-24 437.713,-24 437.713,-60"/>
<text text-anchor="middle" x="390" y="-37.6" font-family="Courier,monospace" font-size="11.00">RouteFactory</text>
</a>
</g>
</g>
</svg>
