<?xml version="1.0" encoding="UTF-8" standalone="no"?>
<!DOCTYPE svg PUBLIC "-//W3C//DTD SVG 1.1//EN"
 "http://www.w3.org/Graphics/SVG/1.1/DTD/svg11.dtd">
<!-- Generated by graphviz version 2.28.0 (20111028.1807)
 -->
<!-- Title: G Pages: 1 -->
<svg width="622pt" height="577pt"
 viewBox="0.00 0.00 622.00 577.00" xmlns="http://www.w3.org/2000/svg" xmlns:xlink="http://www.w3.org/1999/xlink">
<g id="graph1" class="graph" transform="scale(1 1) rotate(0) translate(4 573)">
<title>G</title>
<polygon fill="white" stroke="white" points="-4,5 -4,-573 619,-573 619,5 -4,5"/>
<g id="graph2" class="cluster"><title>cluster_Aura</title>
<polyline fill="none" stroke="gray" points="20,-44 594,-44 "/>
<path fill="none" stroke="gray" d="M594,-44C600,-44 606,-50 606,-56"/>
<polyline fill="none" stroke="gray" points="606,-56 606,-549 "/>
<path fill="none" stroke="gray" d="M606,-549C606,-555 600,-561 594,-561"/>
<polyline fill="none" stroke="gray" points="594,-561 20,-561 "/>
<path fill="none" stroke="gray" d="M20,-561C14,-561 8,-555 8,-549"/>
<polyline fill="none" stroke="gray" points="8,-549 8,-56 "/>
<path fill="none" stroke="gray" d="M8,-56C8,-50 14,-44 20,-44"/>
<text text-anchor="middle" x="307" y="-546" font-family="Times,serif" font-size="11.00" fill="gray">Aura</text>
</g>
<g id="graph3" class="cluster"><title>cluster_Aura\Web</title>
<polyline fill="none" stroke="gray" points="28,-52 586,-52 "/>
<path fill="none" stroke="gray" d="M586,-52C592,-52 598,-58 598,-64"/>
<polyline fill="none" stroke="gray" points="598,-64 598,-520 "/>
<path fill="none" stroke="gray" d="M598,-520C598,-526 592,-532 586,-532"/>
<polyline fill="none" stroke="gray" points="586,-532 28,-532 "/>
<path fill="none" stroke="gray" d="M28,-532C22,-532 16,-526 16,-520"/>
<polyline fill="none" stroke="gray" points="16,-520 16,-64 "/>
<path fill="none" stroke="gray" d="M16,-64C16,-58 22,-52 28,-52"/>
<text text-anchor="middle" x="307" y="-517" font-family="Times,serif" font-size="11.00" fill="gray">Web</text>
</g>
<g id="graph4" class="cluster"><title>cluster_Aura\Web\Controller</title>
<polyline fill="none" stroke="gray" points="36,-430 562,-430 "/>
<path fill="none" stroke="gray" d="M562,-430C568,-430 574,-436 574,-442"/>
<polyline fill="none" stroke="gray" points="574,-442 574,-491 "/>
<path fill="none" stroke="gray" d="M574,-491C574,-497 568,-503 562,-503"/>
<polyline fill="none" stroke="gray" points="562,-503 36,-503 "/>
<path fill="none" stroke="gray" d="M36,-503C30,-503 24,-497 24,-491"/>
<polyline fill="none" stroke="gray" points="24,-491 24,-442 "/>
<path fill="none" stroke="gray" d="M24,-442C24,-436 30,-430 36,-430"/>
<text text-anchor="middle" x="299" y="-488" font-family="Times,serif" font-size="11.00" fill="gray">Controller</text>
</g>
<g id="graph5" class="cluster"><title>cluster_Aura\Web\Exception</title>
<polyline fill="none" stroke="gray" points="458,-214 578,-214 "/>
<path fill="none" stroke="gray" d="M578,-214C584,-214 590,-220 590,-226"/>
<polyline fill="none" stroke="gray" points="590,-226 590,-329 "/>
<path fill="none" stroke="gray" d="M590,-329C590,-335 584,-341 578,-341"/>
<polyline fill="none" stroke="gray" points="578,-341 458,-341 "/>
<path fill="none" stroke="gray" d="M458,-341C452,-341 446,-335 446,-329"/>
<polyline fill="none" stroke="gray" points="446,-329 446,-226 "/>
<path fill="none" stroke="gray" d="M446,-226C446,-220 452,-214 458,-214"/>
<text text-anchor="middle" x="518" y="-326" font-family="Times,serif" font-size="11.00" fill="gray">Exception</text>
</g>
<g id="graph6" class="cluster"><title>cluster_Aura\Web\Renderer</title>
<polyline fill="none" stroke="gray" points="43,-349 541,-349 "/>
<path fill="none" stroke="gray" d="M541,-349C547,-349 553,-355 553,-361"/>
<polyline fill="none" stroke="gray" points="553,-361 553,-410 "/>
<path fill="none" stroke="gray" d="M553,-410C553,-416 547,-422 541,-422"/>
<polyline fill="none" stroke="gray" points="541,-422 43,-422 "/>
<path fill="none" stroke="gray" d="M43,-422C37,-422 31,-416 31,-410"/>
<polyline fill="none" stroke="gray" points="31,-410 31,-361 "/>
<path fill="none" stroke="gray" d="M31,-361C31,-355 37,-349 43,-349"/>
<text text-anchor="middle" x="292" y="-407" font-family="Times,serif" font-size="11.00" fill="gray">Renderer</text>
</g>
<!-- \\Aura\\Web\\Controller\\AbstractController -->
<g id="node4" class="node"><title>\\Aura\\Web\\Controller\\AbstractController</title>
<a xlink:href="Controller.AbstractController.html" xlink:title="AbstractController" target="_parent">
<polygon fill="none" stroke="black" points="381.319,-474 246.681,-474 246.681,-438 381.319,-438 381.319,-474"/>
<text text-anchor="middle" x="314" y="-451.6" font-family="Courier,monospace" font-size="11.00">AbstractController</text>
</a>
</g>
<!-- \\Aura\\Web\\Controller\\ControllerInterface -->
<g id="node6" class="node"><title>\\Aura\\Web\\Controller\\ControllerInterface</title>
<a xlink:href="Controller.ControllerInterface.html" xlink:title="ControllerInterface" target="_parent">
<polygon fill="none" stroke="black" points="173.921,-474 32.079,-474 32.079,-438 173.921,-438 173.921,-474"/>
<text text-anchor="middle" x="103" y="-451.6" font-family="Courier,monospace" font-size="11.00">ControllerInterface</text>
</a>
</g>
<!-- \\Aura\\Web\\Controller\\AbstractController&#45;&gt;\\Aura\\Web\\Controller\\ControllerInterface -->
<g id="edge20" class="edge"><title>\\Aura\\Web\\Controller\\AbstractController&#45;&gt;\\Aura\\Web\\Controller\\ControllerInterface</title>
<path fill="none" stroke="black" stroke-dasharray="1,5" d="M246.584,-456C226.656,-456 204.588,-456 183.887,-456"/>
<polygon fill="none" stroke="black" points="183.849,-452.5 173.849,-456 183.849,-459.5 183.849,-452.5"/>
</g>
<!-- \\Aura\\Web\\Controller\\AbstractPage -->
<g id="node5" class="node"><title>\\Aura\\Web\\Controller\\AbstractPage</title>
<a xlink:href="Controller.AbstractPage.html" xlink:title="AbstractPage" target="_parent">
<polygon fill="none" stroke="black" points="565.713,-474 470.287,-474 470.287,-438 565.713,-438 565.713,-474"/>
<text text-anchor="middle" x="518" y="-451.6" font-family="Courier,monospace" font-size="11.00">AbstractPage</text>
</a>
</g>
<!-- \\Aura\\Web\\Controller\\AbstractPage&#45;&gt;\\Aura\\Web\\Controller\\AbstractController -->
<g id="edge10" class="edge"><title>\\Aura\\Web\\Controller\\AbstractPage&#45;&gt;\\Aura\\Web\\Controller\\AbstractController</title>
<path fill="none" stroke="black" d="M470.149,-456C446.793,-456 417.952,-456 391.498,-456"/>
<polygon fill="none" stroke="black" points="391.492,-452.5 381.492,-456 391.492,-459.5 391.492,-452.5"/>
</g>
<!-- \\Aura\\Web\\Exception\\Context -->
<g id="node8" class="node"><title>\\Aura\\Web\\Exception\\Context</title>
<a xlink:href="Exception.Context.html" xlink:title="Context" target="_parent">
<polygon fill="none" stroke="black" points="549.208,-312 486.792,-312 486.792,-276 549.208,-276 549.208,-312"/>
<text text-anchor="middle" x="518" y="-289.6" font-family="Courier,monospace" font-size="11.00">Context</text>
</a>
</g>
<!-- \\Aura\\Web\\Exception -->
<g id="node15" class="node"><title>\\Aura\\Web\\Exception</title>
<a xlink:href="Exception.html" xlink:title="Exception" target="_parent">
<polygon fill="none" stroke="black" points="351.911,-258 276.089,-258 276.089,-222 351.911,-222 351.911,-258"/>
<text text-anchor="middle" x="314" y="-235.6" font-family="Courier,monospace" font-size="11.00">Exception</text>
</a>
</g>
<!-- \\Aura\\Web\\Exception\\Context&#45;&gt;\\Aura\\Web\\Exception -->
<g id="edge12" class="edge"><title>\\Aura\\Web\\Exception\\Context&#45;&gt;\\Aura\\Web\\Exception</title>
<path fill="none" stroke="black" d="M486.759,-285.916C453.721,-277.084 400.384,-262.825 361.906,-252.539"/>
<polygon fill="none" stroke="black" points="362.537,-249.085 351.972,-249.884 360.729,-255.847 362.537,-249.085"/>
</g>
<!-- \\Aura\\Web\\Exception\\NoMethodForAction -->
<g id="node9" class="node"><title>\\Aura\\Web\\Exception\\NoMethodForAction</title>
<a xlink:href="Exception.NoMethodForAction.html" xlink:title="NoMethodForAction" target="_parent">
<polygon fill="none" stroke="black" points="582.218,-258 453.782,-258 453.782,-222 582.218,-222 582.218,-258"/>
<text text-anchor="middle" x="518" y="-235.6" font-family="Courier,monospace" font-size="11.00">NoMethodForAction</text>
</a>
</g>
<!-- \\Aura\\Web\\Exception\\NoMethodForAction&#45;&gt;\\Aura\\Web\\Exception -->
<g id="edge14" class="edge"><title>\\Aura\\Web\\Exception\\NoMethodForAction&#45;&gt;\\Aura\\Web\\Exception</title>
<path fill="none" stroke="black" d="M453.64,-240C423.99,-240 389.289,-240 362.022,-240"/>
<polygon fill="none" stroke="black" points="361.961,-236.5 351.961,-240 361.961,-243.5 361.961,-236.5"/>
</g>
<!-- \\Aura\\Web\\Renderer\\AbstractRenderer -->
<g id="node11" class="node"><title>\\Aura\\Web\\Renderer\\AbstractRenderer</title>
<a xlink:href="Renderer.AbstractRenderer.html" xlink:title="AbstractRenderer" target="_parent">
<polygon fill="none" stroke="black" points="374.618,-393 253.382,-393 253.382,-357 374.618,-357 374.618,-393"/>
<text text-anchor="middle" x="314" y="-370.6" font-family="Courier,monospace" font-size="11.00">AbstractRenderer</text>
</a>
</g>
<!-- \\Aura\\Web\\Renderer\\RendererInterface -->
<g id="node13" class="node"><title>\\Aura\\Web\\Renderer\\RendererInterface</title>
<a xlink:href="Renderer.RendererInterface.html" xlink:title="RendererInterface" target="_parent">
<polygon fill="none" stroke="black" points="167.218,-393 38.7816,-393 38.7816,-357 167.218,-357 167.218,-393"/>
<text text-anchor="middle" x="103" y="-370.6" font-family="Courier,monospace" font-size="11.00">RendererInterface</text>
</a>
</g>
<!-- \\Aura\\Web\\Renderer\\AbstractRenderer&#45;&gt;\\Aura\\Web\\Renderer\\RendererInterface -->
<g id="edge22" class="edge"><title>\\Aura\\Web\\Renderer\\AbstractRenderer&#45;&gt;\\Aura\\Web\\Renderer\\RendererInterface</title>
<path fill="none" stroke="black" stroke-dasharray="1,5" d="M253.109,-375C229.467,-375 202.076,-375 177.269,-375"/>
<polygon fill="none" stroke="black" points="177.18,-371.5 167.18,-375 177.18,-378.5 177.18,-371.5"/>
</g>
<!-- \\Aura\\Web\\Renderer\\None -->
<g id="node12" class="node"><title>\\Aura\\Web\\Renderer\\None</title>
<a xlink:href="Renderer.None.html" xlink:title="None" target="_parent">
<polygon fill="none" stroke="black" points="545,-393 491,-393 491,-357 545,-357 545,-393"/>
<text text-anchor="middle" x="518" y="-370.6" font-family="Courier,monospace" font-size="11.00">None</text>
</a>
</g>
<!-- \\Aura\\Web\\Renderer\\None&#45;&gt;\\Aura\\Web\\Renderer\\AbstractRenderer -->
<g id="edge18" class="edge"><title>\\Aura\\Web\\Renderer\\None&#45;&gt;\\Aura\\Web\\Renderer\\AbstractRenderer</title>
<path fill="none" stroke="black" d="M490.592,-375C463.906,-375 421.522,-375 385.081,-375"/>
<polygon fill="none" stroke="black" points="384.979,-371.5 374.979,-375 384.979,-378.5 384.979,-371.5"/>
</g>
<!-- \\Aura\\Web\\Context -->
<g id="node14" class="node"><title>\\Aura\\Web\\Context</title>
<a xlink:href="Context.html" xlink:title="Context" target="_parent">
<polygon fill="none" stroke="black" points="549.208,-204 486.792,-204 486.792,-168 549.208,-168 549.208,-204"/>
<text text-anchor="middle" x="518" y="-181.6" font-family="Courier,monospace" font-size="11.00">Context</text>
</a>
</g>
<!-- \\Exception -->
<g id="node26" class="node"><title>\\Exception</title>
<ellipse fill="none" stroke="black" cx="103" cy="-18" rx="52.7417" ry="18"/>
<text text-anchor="middle" x="103" y="-12.4" font-family="Times,serif" font-size="14.00" fill="gray">\Exception</text>
</g>
<!-- \\Aura\\Web\\Exception&#45;&gt;\\Exception -->
<g id="edge16" class="edge"><title>\\Aura\\Web\\Exception&#45;&gt;\\Exception</title>
<path fill="none" stroke="black" d="M295.897,-221.833C258.557,-182.171 169.699,-87.7856 127.294,-42.7434"/>
<polygon fill="none" stroke="black" points="129.583,-40.0682 120.18,-35.1863 124.486,-44.8665 129.583,-40.0682"/>
</g>
<!-- \\Aura\\Web\\Response -->
<g id="node16" class="node"><title>\\Aura\\Web\\Response</title>
<a xlink:href="Response.html" xlink:title="Response" target="_parent">
<polygon fill="none" stroke="black" points="552.309,-150 483.691,-150 483.691,-114 552.309,-114 552.309,-150"/>
<text text-anchor="middle" x="518" y="-127.6" font-family="Courier,monospace" font-size="11.00">Response</text>
</a>
</g>
<!-- \\Aura\\Web\\Signal -->
<g id="node17" class="node"><title>\\Aura\\Web\\Signal</title>
<a xlink:href="Signal.html" xlink:title="Signal" target="_parent">
<polygon fill="none" stroke="black" points="545.608,-96 490.392,-96 490.392,-60 545.608,-60 545.608,-96"/>
<text text-anchor="middle" x="518" y="-73.6" font-family="Courier,monospace" font-size="11.00">Signal</text>
</a>
</g>
<!-- \\Aura\\Web\\SignalInterface -->
<g id="node18" class="node"><title>\\Aura\\Web\\SignalInterface</title>
<a xlink:href="SignalInterface.html" xlink:title="SignalInterface" target="_parent">
<polygon fill="none" stroke="black" points="371.516,-96 256.484,-96 256.484,-60 371.516,-60 371.516,-96"/>
<text text-anchor="middle" x="314" y="-73.6" font-family="Courier,monospace" font-size="11.00">SignalInterface</text>
</a>
</g>
<!-- \\Aura\\Web\\Signal&#45;&gt;\\Aura\\Web\\SignalInterface -->
<g id="edge24" class="edge"><title>\\Aura\\Web\\Signal&#45;&gt;\\Aura\\Web\\SignalInterface</title>
<path fill="none" stroke="black" stroke-dasharray="1,5" d="M490.176,-78C462.709,-78 418.929,-78 382.01,-78"/>
<polygon fill="none" stroke="black" points="381.797,-74.5001 371.797,-78 381.797,-81.5001 381.797,-74.5001"/>
</g>
</g>
</svg>
