<?xml version="1.0" encoding="UTF-8" standalone="no"?>
<!DOCTYPE svg PUBLIC "-//W3C//DTD SVG 1.1//EN"
 "http://www.w3.org/Graphics/SVG/1.1/DTD/svg11.dtd">
<!-- Generated by graphviz version 2.28.0 (20111028.1807)
 -->
<!-- Title: G Pages: 1 -->
<svg width="338pt" height="404pt"
 viewBox="0.00 0.00 338.00 404.00" xmlns="http://www.w3.org/2000/svg" xmlns:xlink="http://www.w3.org/1999/xlink">
<g id="graph1" class="graph" transform="scale(1 1) rotate(0) translate(4 400)">
<title>G</title>
<polygon fill="white" stroke="white" points="-4,5 -4,-400 335,-400 335,5 -4,5"/>
<g id="graph2" class="cluster"><title>cluster_Aura</title>
<polyline fill="none" stroke="gray" points="174,-8 310,-8 "/>
<path fill="none" stroke="gray" d="M310,-8C316,-8 322,-14 322,-20"/>
<polyline fill="none" stroke="gray" points="322,-20 322,-376 "/>
<path fill="none" stroke="gray" d="M322,-376C322,-382 316,-388 310,-388"/>
<polyline fill="none" stroke="gray" points="310,-388 174,-388 "/>
<path fill="none" stroke="gray" d="M174,-388C168,-388 162,-382 162,-376"/>
<polyline fill="none" stroke="gray" points="162,-376 162,-20 "/>
<path fill="none" stroke="gray" d="M162,-20C162,-14 168,-8 174,-8"/>
<text text-anchor="middle" x="242" y="-373" font-family="Times,serif" font-size="11.00" fill="gray">Aura</text>
</g>
<g id="graph3" class="cluster"><title>cluster_Aura\Router</title>
<polyline fill="none" stroke="gray" points="182,-16 302,-16 "/>
<path fill="none" stroke="gray" d="M302,-16C308,-16 314,-22 314,-28"/>
<polyline fill="none" stroke="gray" points="314,-28 314,-347 "/>
<path fill="none" stroke="gray" d="M314,-347C314,-353 308,-359 302,-359"/>
<polyline fill="none" stroke="gray" points="302,-359 182,-359 "/>
<path fill="none" stroke="gray" d="M182,-359C176,-359 170,-353 170,-347"/>
<polyline fill="none" stroke="gray" points="170,-347 170,-28 "/>
<path fill="none" stroke="gray" d="M170,-28C170,-22 176,-16 182,-16"/>
<text text-anchor="middle" x="242" y="-344" font-family="Times,serif" font-size="11.00" fill="gray">Router</text>
</g>
<!-- \\Aura\\Router\\Definition -->
<g id="node3" class="node"><title>\\Aura\\Router\\Definition</title>
<a xlink:href="Definition.html" xlink:title="Definition" target="_parent">
<polygon fill="none" stroke="black" points="283.011,-330 200.989,-330 200.989,-294 283.011,-294 283.011,-330"/>
<text text-anchor="middle" x="242" y="-307.6" font-family="Courier,monospace" font-size="11.00">Definition</text>
</a>
</g>
<!-- \\Aura\\Router\\DefinitionFactory -->
<g id="node4" class="node"><title>\\Aura\\Router\\DefinitionFactory</title>
<a xlink:href="DefinitionFactory.html" xlink:title="DefinitionFactory" target="_parent">
<polygon fill="none" stroke="black" points="306.218,-276 177.782,-276 177.782,-240 306.218,-240 306.218,-276"/>
<text text-anchor="middle" x="242" y="-253.6" font-family="Courier,monospace" font-size="11.00">DefinitionFactory</text>
</a>
</g>
<!-- \\Aura\\Router\\Exception -->
<g id="node5" class="node"><title>\\Aura\\Router\\Exception</title>
<a xlink:href="Exception.html" xlink:title="Exception" target="_parent">
<polygon fill="none" stroke="black" points="279.911,-222 204.089,-222 204.089,-186 279.911,-186 279.911,-222"/>
<text text-anchor="middle" x="242" y="-199.6" font-family="Courier,monospace" font-size="11.00">Exception</text>
</a>
</g>
<!-- \\Exception -->
<g id="node10" class="node"><title>\\Exception</title>
<ellipse fill="none" stroke="black" cx="53" cy="-204" rx="52.7417" ry="18"/>
<text text-anchor="middle" x="53" y="-198.4" font-family="Times,serif" font-size="14.00" fill="gray">\Exception</text>
</g>
<!-- \\Aura\\Router\\Exception&#45;&gt;\\Exception -->
<g id="edge4" class="edge"><title>\\Aura\\Router\\Exception&#45;&gt;\\Exception</title>
<path fill="none" stroke="black" d="M204.055,-204C179.013,-204 145.303,-204 116.177,-204"/>
<polygon fill="none" stroke="black" points="116.088,-200.5 106.088,-204 116.088,-207.5 116.088,-200.5"/>
</g>
<!-- \\Aura\\Router\\Map -->
<g id="node6" class="node"><title>\\Aura\\Router\\Map</title>
<a xlink:href="Map.html" xlink:title="Map" target="_parent">
<polygon fill="none" stroke="black" points="269,-168 215,-168 215,-132 269,-132 269,-168"/>
<text text-anchor="middle" x="242" y="-145.6" font-family="Courier,monospace" font-size="11.00">Map</text>
</a>
</g>
<!-- \\Aura\\Router\\Route -->
<g id="node7" class="node"><title>\\Aura\\Router\\Route</title>
<a xlink:href="Route.html" xlink:title="Route" target="_parent">
<polygon fill="none" stroke="black" points="269,-114 215,-114 215,-78 269,-78 269,-114"/>
<text text-anchor="middle" x="242" y="-91.6" font-family="Courier,monospace" font-size="11.00">Route</text>
</a>
</g>
<!-- \\Aura\\Router\\RouteFactory -->
<g id="node8" class="node"><title>\\Aura\\Router\\RouteFactory</title>
<a xlink:href="RouteFactory.html" xlink:title="RouteFactory" target="_parent">
<polygon fill="none" stroke="black" points="289.713,-60 194.287,-60 194.287,-24 289.713,-24 289.713,-60"/>
<text text-anchor="middle" x="242" y="-37.6" font-family="Courier,monospace" font-size="11.00">RouteFactory</text>
</a>
</g>
</g>
</svg>
