<?xml version="1.0" encoding="UTF-8" standalone="no"?>
<!DOCTYPE svg PUBLIC "-//W3C//DTD SVG 1.1//EN"
 "http://www.w3.org/Graphics/SVG/1.1/DTD/svg11.dtd">
<!-- Generated by graphviz version 2.28.0 (20111028.1807)
 -->
<!-- Title: G Pages: 1 -->
<svg width="635pt" height="1847pt"
 viewBox="0.00 0.00 635.00 1847.00" xmlns="http://www.w3.org/2000/svg" xmlns:xlink="http://www.w3.org/1999/xlink">
<g id="graph1" class="graph" transform="scale(1 1) rotate(0) translate(4 1843)">
<title>G</title>
<polygon fill="white" stroke="white" points="-4,5 -4,-1843 632,-1843 632,5 -4,5"/>
<g id="graph2" class="cluster"><title>cluster_Aura</title>
<polyline fill="none" stroke="gray" points="20,-98 607,-98 "/>
<path fill="none" stroke="gray" d="M607,-98C613,-98 619,-104 619,-110"/>
<polyline fill="none" stroke="gray" points="619,-110 619,-1819 "/>
<path fill="none" stroke="gray" d="M619,-1819C619,-1825 613,-1831 607,-1831"/>
<polyline fill="none" stroke="gray" points="607,-1831 20,-1831 "/>
<path fill="none" stroke="gray" d="M20,-1831C14,-1831 8,-1825 8,-1819"/>
<polyline fill="none" stroke="gray" points="8,-1819 8,-110 "/>
<path fill="none" stroke="gray" d="M8,-110C8,-104 14,-98 20,-98"/>
<text text-anchor="middle" x="313.5" y="-1816" font-family="Times,serif" font-size="11.00" fill="gray">Aura</text>
</g>
<g id="graph3" class="cluster"><title>cluster_Aura\View</title>
<polyline fill="none" stroke="gray" points="28,-106 599,-106 "/>
<path fill="none" stroke="gray" d="M599,-106C605,-106 611,-112 611,-118"/>
<polyline fill="none" stroke="gray" points="611,-118 611,-1790 "/>
<path fill="none" stroke="gray" d="M611,-1790C611,-1796 605,-1802 599,-1802"/>
<polyline fill="none" stroke="gray" points="599,-1802 28,-1802 "/>
<path fill="none" stroke="gray" d="M28,-1802C22,-1802 16,-1796 16,-1790"/>
<polyline fill="none" stroke="gray" points="16,-1790 16,-118 "/>
<path fill="none" stroke="gray" d="M16,-118C16,-112 22,-106 28,-106"/>
<text text-anchor="middle" x="313.5" y="-1787" font-family="Times,serif" font-size="11.00" fill="gray">View</text>
</g>
<g id="graph4" class="cluster"><title>cluster_Aura\View\Escaper</title>
<polyline fill="none" stroke="gray" points="286,-214 591,-214 "/>
<path fill="none" stroke="gray" d="M591,-214C597,-214 603,-220 603,-226"/>
<polyline fill="none" stroke="gray" points="603,-226 603,-329 "/>
<path fill="none" stroke="gray" d="M603,-329C603,-335 597,-341 591,-341"/>
<polyline fill="none" stroke="gray" points="591,-341 286,-341 "/>
<path fill="none" stroke="gray" d="M286,-341C280,-341 274,-335 274,-329"/>
<polyline fill="none" stroke="gray" points="274,-329 274,-226 "/>
<path fill="none" stroke="gray" d="M274,-226C274,-220 280,-214 286,-214"/>
<text text-anchor="middle" x="438.5" y="-326" font-family="Times,serif" font-size="11.00" fill="gray">Escaper</text>
</g>
<g id="graph5" class="cluster"><title>cluster_Aura\View\Exception</title>
<polyline fill="none" stroke="gray" points="474,-449 588,-449 "/>
<path fill="none" stroke="gray" d="M588,-449C594,-449 600,-455 600,-461"/>
<polyline fill="none" stroke="gray" points="600,-461 600,-564 "/>
<path fill="none" stroke="gray" d="M600,-564C600,-570 594,-576 588,-576"/>
<polyline fill="none" stroke="gray" points="588,-576 474,-576 "/>
<path fill="none" stroke="gray" d="M474,-576C468,-576 462,-570 462,-564"/>
<polyline fill="none" stroke="gray" points="462,-564 462,-461 "/>
<path fill="none" stroke="gray" d="M462,-461C462,-455 468,-449 474,-449"/>
<text text-anchor="middle" x="531" y="-561" font-family="Times,serif" font-size="11.00" fill="gray">Exception</text>
</g>
<g id="graph6" class="cluster"><title>cluster_Aura\View\Helper</title>
<polyline fill="none" stroke="gray" points="36,-628 574,-628 "/>
<path fill="none" stroke="gray" d="M574,-628C580,-628 586,-634 586,-640"/>
<polyline fill="none" stroke="gray" points="586,-640 586,-1761 "/>
<path fill="none" stroke="gray" d="M586,-1761C586,-1767 580,-1773 574,-1773"/>
<polyline fill="none" stroke="gray" points="574,-1773 36,-1773 "/>
<path fill="none" stroke="gray" d="M36,-1773C30,-1773 24,-1767 24,-1761"/>
<polyline fill="none" stroke="gray" points="24,-1761 24,-640 "/>
<path fill="none" stroke="gray" d="M24,-640C24,-634 30,-628 36,-628"/>
<text text-anchor="middle" x="305" y="-1758" font-family="Times,serif" font-size="11.00" fill="gray">Helper</text>
</g>
<g id="graph7" class="cluster"><title>cluster_Aura\View\Helper\Form</title>
<polyline fill="none" stroke="gray" points="275,-1274 566,-1274 "/>
<path fill="none" stroke="gray" d="M566,-1274C572,-1274 578,-1280 578,-1286"/>
<polyline fill="none" stroke="gray" points="578,-1286 578,-1732 "/>
<path fill="none" stroke="gray" d="M578,-1732C578,-1738 572,-1744 566,-1744"/>
<polyline fill="none" stroke="gray" points="566,-1744 275,-1744 "/>
<path fill="none" stroke="gray" d="M275,-1744C269,-1744 263,-1738 263,-1732"/>
<polyline fill="none" stroke="gray" points="263,-1732 263,-1286 "/>
<path fill="none" stroke="gray" d="M263,-1286C263,-1280 269,-1274 275,-1274"/>
<text text-anchor="middle" x="420.5" y="-1729" font-family="Times,serif" font-size="11.00" fill="gray">Form</text>
</g>
<g id="graph8" class="cluster"><title>cluster_Aura\View\Helper\Form\Input</title>
<polyline fill="none" stroke="gray" points="283,-1436 558,-1436 "/>
<path fill="none" stroke="gray" d="M558,-1436C564,-1436 570,-1442 570,-1448"/>
<polyline fill="none" stroke="gray" points="570,-1448 570,-1551 "/>
<path fill="none" stroke="gray" d="M570,-1551C570,-1557 564,-1563 558,-1563"/>
<polyline fill="none" stroke="gray" points="558,-1563 283,-1563 "/>
<path fill="none" stroke="gray" d="M283,-1563C277,-1563 271,-1557 271,-1551"/>
<polyline fill="none" stroke="gray" points="271,-1551 271,-1448 "/>
<path fill="none" stroke="gray" d="M271,-1448C271,-1442 277,-1436 283,-1436"/>
<text text-anchor="middle" x="420.5" y="-1548" font-family="Times,serif" font-size="11.00" fill="gray">Input</text>
</g>
<!-- \\Aura\\View\\Escaper\\Iterator -->
<g id="node4" class="node"><title>\\Aura\\View\\Escaper\\Iterator</title>
<a xlink:href="Escaper.Iterator.html" xlink:title="Iterator" target="_parent">
<polygon fill="none" stroke="black" points="565.309,-312 496.691,-312 496.691,-276 565.309,-276 565.309,-312"/>
<text text-anchor="middle" x="531" y="-289.6" font-family="Courier,monospace" font-size="11.00">Iterator</text>
</a>
</g>
<!-- \\Aura\\View\\Escaper\\Object -->
<g id="node6" class="node"><title>\\Aura\\View\\Escaper\\Object</title>
<a xlink:href="Escaper.Object.html" xlink:title="Object" target="_parent">
<polygon fill="none" stroke="black" points="337.608,-258 282.392,-258 282.392,-222 337.608,-222 337.608,-258"/>
<text text-anchor="middle" x="310" y="-235.6" font-family="Courier,monospace" font-size="11.00">Object</text>
</a>
</g>
<!-- \\Aura\\View\\Escaper\\Iterator&#45;&gt;\\Aura\\View\\Escaper\\Object -->
<g id="edge22" class="edge"><title>\\Aura\\View\\Escaper\\Iterator&#45;&gt;\\Aura\\View\\Escaper\\Object</title>
<path fill="none" stroke="black" d="M496.261,-285.681C456.11,-275.781 389.303,-259.308 347.836,-249.083"/>
<polygon fill="none" stroke="black" points="348.419,-245.622 337.872,-246.626 346.743,-252.418 348.419,-245.622"/>
</g>
<!-- \\Iterator -->
<g id="node88" class="node"><title>\\Iterator</title>
<ellipse fill="none" stroke="black" cx="310" cy="-72" rx="44.6347" ry="18"/>
<text text-anchor="middle" x="310" y="-66.4" font-family="Times,serif" font-size="14.00" fill="gray">\\Iterator</text>
</g>
<!-- \\Aura\\View\\Escaper\\Iterator&#45;&gt;\\Iterator -->
<g id="edge78" class="edge"><title>\\Aura\\View\\Escaper\\Iterator&#45;&gt;\\Iterator</title>
<path fill="none" stroke="black" stroke-dasharray="1,5" d="M496.677,-284.773C484.999,-280.542 472.252,-274.712 462,-267 399.146,-219.719 348.747,-139.891 325.292,-98.567"/>
<polygon fill="none" stroke="black" points="328.24,-96.6682 320.308,-89.6448 322.129,-100.082 328.24,-96.6682"/>
</g>
<!-- \\Aura\\View\\Escaper\\IteratorAggregate -->
<g id="node5" class="node"><title>\\Aura\\View\\Escaper\\IteratorAggregate</title>
<a xlink:href="Escaper.IteratorAggregate.html" xlink:title="IteratorAggregate" target="_parent">
<polygon fill="none" stroke="black" points="595.218,-258 466.782,-258 466.782,-222 595.218,-222 595.218,-258"/>
<text text-anchor="middle" x="531" y="-235.6" font-family="Courier,monospace" font-size="11.00">IteratorAggregate</text>
</a>
</g>
<!-- \\Aura\\View\\Escaper\\IteratorAggregate&#45;&gt;\\Aura\\View\\Escaper\\Object -->
<g id="edge24" class="edge"><title>\\Aura\\View\\Escaper\\IteratorAggregate&#45;&gt;\\Aura\\View\\Escaper\\Object</title>
<path fill="none" stroke="black" d="M466.656,-240C428.181,-240 380.4,-240 347.999,-240"/>
<polygon fill="none" stroke="black" points="347.636,-236.5 337.636,-240 347.636,-243.5 347.636,-236.5"/>
</g>
<!-- \\IteratorAggregate -->
<g id="node90" class="node"><title>\\IteratorAggregate</title>
<ellipse fill="none" stroke="black" cx="310" cy="-18" rx="85.0676" ry="18"/>
<text text-anchor="middle" x="310" y="-12.4" font-family="Times,serif" font-size="14.00" fill="gray">\\IteratorAggregate</text>
</g>
<!-- \\Aura\\View\\Escaper\\IteratorAggregate&#45;&gt;\\IteratorAggregate -->
<g id="edge80" class="edge"><title>\\Aura\\View\\Escaper\\IteratorAggregate&#45;&gt;\\IteratorAggregate</title>
<path fill="none" stroke="black" stroke-dasharray="1,5" d="M466.869,-222.066C465.163,-220.802 463.533,-219.449 462,-218 402.07,-161.369 454.984,-101.574 395,-45 390.891,-41.1244 386.222,-37.805 381.241,-34.9622"/>
<polygon fill="none" stroke="black" points="382.501,-31.6792 371.991,-30.3424 379.374,-37.9416 382.501,-31.6792"/>
</g>
<!-- \\ArrayAccess -->
<g id="node92" class="node"><title>\\ArrayAccess</title>
<ellipse fill="none" stroke="black" cx="86" cy="-18" rx="66.044" ry="18"/>
<text text-anchor="middle" x="86" y="-12.4" font-family="Times,serif" font-size="14.00" fill="gray">\\ArrayAccess</text>
</g>
<!-- \\Aura\\View\\Escaper\\Object&#45;&gt;\\ArrayAccess -->
<g id="edge82" class="edge"><title>\\Aura\\View\\Escaper\\Object&#45;&gt;\\ArrayAccess</title>
<path fill="none" stroke="black" stroke-dasharray="1,5" d="M282.305,-239.036C264.211,-237.062 240.805,-231.758 225,-218 162.184,-163.318 212.068,-103.711 153,-45 149.559,-41.5799 145.625,-38.5742 141.43,-35.9362"/>
<polygon fill="none" stroke="black" points="142.971,-32.7894 132.525,-31.0227 139.59,-38.9184 142.971,-32.7894"/>
</g>
<!-- \\Aura\\View\\Exception\\HelperNotMapped -->
<g id="node8" class="node"><title>\\Aura\\View\\Exception\\HelperNotMapped</title>
<a xlink:href="Exception.HelperNotMapped.html" xlink:title="HelperNotMapped" target="_parent">
<polygon fill="none" stroke="black" points="588.516,-547 473.484,-547 473.484,-511 588.516,-511 588.516,-547"/>
<text text-anchor="middle" x="531" y="-524.6" font-family="Courier,monospace" font-size="11.00">HelperNotMapped</text>
</a>
</g>
<!-- \\Aura\\View\\Exception -->
<g id="node43" class="node"><title>\\Aura\\View\\Exception</title>
<a xlink:href="Exception.html" xlink:title="Exception" target="_parent">
<polygon fill="none" stroke="black" points="347.911,-493 272.089,-493 272.089,-457 347.911,-457 347.911,-493"/>
<text text-anchor="middle" x="310" y="-470.6" font-family="Courier,monospace" font-size="11.00">Exception</text>
</a>
</g>
<!-- \\Aura\\View\\Exception\\HelperNotMapped&#45;&gt;\\Aura\\View\\Exception -->
<g id="edge26" class="edge"><title>\\Aura\\View\\Exception\\HelperNotMapped&#45;&gt;\\Aura\\View\\Exception</title>
<path fill="none" stroke="black" d="M473.317,-515.023C437.483,-506.188 391.724,-494.905 357.932,-486.572"/>
<polygon fill="none" stroke="black" points="358.4,-483.083 347.852,-484.087 356.724,-489.879 358.4,-483.083"/>
</g>
<!-- \\Aura\\View\\Exception\\TemplateNotFound -->
<g id="node9" class="node"><title>\\Aura\\View\\Exception\\TemplateNotFound</title>
<a xlink:href="Exception.TemplateNotFound.html" xlink:title="TemplateNotFound" target="_parent">
<polygon fill="none" stroke="black" points="591.618,-493 470.382,-493 470.382,-457 591.618,-457 591.618,-493"/>
<text text-anchor="middle" x="531" y="-470.6" font-family="Courier,monospace" font-size="11.00">TemplateNotFound</text>
</a>
</g>
<!-- \\Aura\\View\\Exception\\TemplateNotFound&#45;&gt;\\Aura\\View\\Exception -->
<g id="edge28" class="edge"><title>\\Aura\\View\\Exception\\TemplateNotFound&#45;&gt;\\Aura\\View\\Exception</title>
<path fill="none" stroke="black" d="M470.157,-475C434.846,-475 390.793,-475 357.993,-475"/>
<polygon fill="none" stroke="black" points="357.764,-471.5 347.764,-475 357.764,-478.5 357.764,-471.5"/>
</g>
<!-- \\Aura\\View\\Helper\\Form\\Input\\Checked -->
<g id="node13" class="node"><title>\\Aura\\View\\Helper\\Form\\Input\\Checked</title>
<a xlink:href="Helper.Form.Input.Checked.html" xlink:title="Checked" target="_parent">
<polygon fill="none" stroke="black" points="562.208,-1534 499.792,-1534 499.792,-1498 562.208,-1498 562.208,-1534"/>
<text text-anchor="middle" x="531" y="-1511.6" font-family="Courier,monospace" font-size="11.00">Checked</text>
</a>
</g>
<!-- \\Aura\\View\\Helper\\Form\\Input\\Generic -->
<g id="node14" class="node"><title>\\Aura\\View\\Helper\\Form\\Input\\Generic</title>
<a xlink:href="Helper.Form.Input.Generic.html" xlink:title="Generic" target="_parent">
<polygon fill="none" stroke="black" points="341.208,-1480 278.792,-1480 278.792,-1444 341.208,-1444 341.208,-1480"/>
<text text-anchor="middle" x="310" y="-1457.6" font-family="Courier,monospace" font-size="11.00">Generic</text>
</a>
</g>
<!-- \\Aura\\View\\Helper\\Form\\Input\\Checked&#45;&gt;\\Aura\\View\\Helper\\Form\\Input\\Generic -->
<g id="edge42" class="edge"><title>\\Aura\\View\\Helper\\Form\\Input\\Checked&#45;&gt;\\Aura\\View\\Helper\\Form\\Input\\Generic</title>
<path fill="none" stroke="black" d="M499.549,-1508.49C460.814,-1498.94 393.82,-1482.42 350.998,-1471.86"/>
<polygon fill="none" stroke="black" points="351.74,-1468.44 341.192,-1469.44 350.064,-1475.24 351.74,-1468.44"/>
</g>
<!-- \\Aura\\View\\Helper\\AbstractHelper -->
<g id="node23" class="node"><title>\\Aura\\View\\Helper\\AbstractHelper</title>
<a xlink:href="Helper.AbstractHelper.html" xlink:title="AbstractHelper" target="_parent">
<polygon fill="none" stroke="black" points="140.416,-1023 31.5842,-1023 31.5842,-987 140.416,-987 140.416,-1023"/>
<text text-anchor="middle" x="86" y="-1000.6" font-family="Courier,monospace" font-size="11.00">AbstractHelper</text>
</a>
</g>
<!-- \\Aura\\View\\Helper\\Form\\Input\\Generic&#45;&gt;\\Aura\\View\\Helper\\AbstractHelper -->
<g id="edge44" class="edge"><title>\\Aura\\View\\Helper\\Form\\Input\\Generic&#45;&gt;\\Aura\\View\\Helper\\AbstractHelper</title>
<path fill="none" stroke="black" d="M278.716,-1461.12C260.977,-1459.05 239.316,-1453.6 225,-1440 105.66,-1326.6 89.1333,-1110.72 87.1417,-1033.42"/>
<polygon fill="none" stroke="black" points="90.634,-1032.98 86.9428,-1023.04 83.6352,-1033.11 90.634,-1032.98"/>
</g>
<!-- \\Aura\\View\\Helper\\Form\\Input\\Value -->
<g id="node15" class="node"><title>\\Aura\\View\\Helper\\Form\\Input\\Value</title>
<a xlink:href="Helper.Form.Input.Value.html" xlink:title="Value" target="_parent">
<polygon fill="none" stroke="black" points="558,-1480 504,-1480 504,-1444 558,-1444 558,-1480"/>
<text text-anchor="middle" x="531" y="-1457.6" font-family="Courier,monospace" font-size="11.00">Value</text>
</a>
</g>
<!-- \\Aura\\View\\Helper\\Form\\Input\\Value&#45;&gt;\\Aura\\View\\Helper\\Form\\Input\\Generic -->
<g id="edge46" class="edge"><title>\\Aura\\View\\Helper\\Form\\Input\\Value&#45;&gt;\\Aura\\View\\Helper\\Form\\Input\\Generic</title>
<path fill="none" stroke="black" d="M503.583,-1462C465.773,-1462 395.901,-1462 351.524,-1462"/>
<polygon fill="none" stroke="black" points="351.373,-1458.5 341.373,-1462 351.373,-1465.5 351.373,-1458.5"/>
</g>
<!-- \\Aura\\View\\Helper\\Form\\Field -->
<g id="node16" class="node"><title>\\Aura\\View\\Helper\\Form\\Field</title>
<a xlink:href="Helper.Form.Field.html" xlink:title="Field" target="_parent">
<polygon fill="none" stroke="black" points="558,-1318 504,-1318 504,-1282 558,-1282 558,-1318"/>
<text text-anchor="middle" x="531" y="-1295.6" font-family="Courier,monospace" font-size="11.00">Field</text>
</a>
</g>
<!-- \\Aura\\View\\HelperLocator -->
<g id="node45" class="node"><title>\\Aura\\View\\HelperLocator</title>
<a xlink:href="HelperLocator.html" xlink:title="HelperLocator" target="_parent">
<polygon fill="none" stroke="black" points="360.814,-618 259.186,-618 259.186,-582 360.814,-582 360.814,-618"/>
<text text-anchor="middle" x="310" y="-595.6" font-family="Courier,monospace" font-size="11.00">HelperLocator</text>
</a>
</g>
<!-- \\Aura\\View\\Helper\\Form\\Field&#45;&gt;\\Aura\\View\\HelperLocator -->
<g id="edge40" class="edge"><title>\\Aura\\View\\Helper\\Form\\Field&#45;&gt;\\Aura\\View\\HelperLocator</title>
<path fill="none" stroke="black" d="M503.829,-1298.32C489.253,-1295.94 472.065,-1290.45 462,-1278 278.276,-1050.8 582.627,-847.986 395,-624 388.572,-616.326 379.875,-611.014 370.507,-607.356"/>
<polygon fill="none" stroke="black" points="371.566,-604.02 360.973,-604.223 369.381,-610.67 371.566,-604.02"/>
</g>
<!-- \\Aura\\View\\Helper\\Form\\Input -->
<g id="node17" class="node"><title>\\Aura\\View\\Helper\\Form\\Input</title>
<a xlink:href="Helper.Form.Input.html" xlink:title="Input" target="_parent">
<polygon fill="none" stroke="black" points="558,-1426 504,-1426 504,-1390 558,-1390 558,-1426"/>
<text text-anchor="middle" x="531" y="-1403.6" font-family="Courier,monospace" font-size="11.00">Input</text>
</a>
</g>
<!-- \\Aura\\View\\Helper\\Form\\Input&#45;&gt;\\Aura\\View\\HelperLocator -->
<g id="edge48" class="edge"><title>\\Aura\\View\\Helper\\Form\\Input&#45;&gt;\\Aura\\View\\HelperLocator</title>
<path fill="none" stroke="black" d="M503.969,-1404.44C489.25,-1401 471.869,-1394.24 462,-1381 361.071,-1245.6 502.549,-754.206 395,-624 388.625,-616.282 379.954,-610.949 370.595,-607.283"/>
<polygon fill="none" stroke="black" points="371.658,-603.948 361.065,-604.147 369.47,-610.598 371.658,-603.948"/>
</g>
<!-- \\Aura\\View\\Helper\\Form\\Radios -->
<g id="node18" class="node"><title>\\Aura\\View\\Helper\\Form\\Radios</title>
<a xlink:href="Helper.Form.Radios.html" xlink:title="Radios" target="_parent">
<polygon fill="none" stroke="black" points="558.608,-1607 503.392,-1607 503.392,-1571 558.608,-1571 558.608,-1607"/>
<text text-anchor="middle" x="531" y="-1584.6" font-family="Courier,monospace" font-size="11.00">Radios</text>
</a>
</g>
<!-- \\Aura\\View\\Helper\\Form\\Radios&#45;&gt;\\Aura\\View\\Helper\\AbstractHelper -->
<g id="edge50" class="edge"><title>\\Aura\\View\\Helper\\Form\\Radios&#45;&gt;\\Aura\\View\\Helper\\AbstractHelper</title>
<path fill="none" stroke="black" d="M309,-1643C267.924,-1613.89 250.801,-1610.23 225,-1567 116.126,-1384.57 92.9576,-1120.08 88.1914,-1033.55"/>
<polygon fill="none" stroke="black" points="91.681,-1033.26 87.6756,-1023.45 84.6901,-1033.62 91.681,-1033.26"/>
<path fill="none" stroke="black" d="M503.39,-1597.92C448.556,-1615.97 326.775,-1654.18 311,-1643"/>
</g>
<!-- \\Aura\\View\\Helper\\Form\\Repeat -->
<g id="node19" class="node"><title>\\Aura\\View\\Helper\\Form\\Repeat</title>
<a xlink:href="Helper.Form.Repeat.html" xlink:title="Repeat" target="_parent">
<polygon fill="none" stroke="black" points="558.608,-1372 503.392,-1372 503.392,-1336 558.608,-1336 558.608,-1372"/>
<text text-anchor="middle" x="531" y="-1349.6" font-family="Courier,monospace" font-size="11.00">Repeat</text>
</a>
</g>
<!-- \\Aura\\View\\Helper\\Form\\Repeat&#45;&gt;\\Aura\\View\\HelperLocator -->
<g id="edge52" class="edge"><title>\\Aura\\View\\Helper\\Form\\Repeat&#45;&gt;\\Aura\\View\\HelperLocator</title>
<path fill="none" stroke="black" d="M503.321,-1350.25C488.761,-1346.75 471.761,-1340 462,-1327 367.789,-1201.5 495.346,-744.656 395,-624 388.599,-616.304 379.916,-610.981 370.552,-607.319"/>
<polygon fill="none" stroke="black" points="371.613,-603.983 361.02,-604.184 369.426,-610.633 371.613,-603.983"/>
</g>
<!-- \\Aura\\View\\Helper\\Form\\Select -->
<g id="node20" class="node"><title>\\Aura\\View\\Helper\\Form\\Select</title>
<a xlink:href="Helper.Form.Select.html" xlink:title="Select" target="_parent">
<polygon fill="none" stroke="black" points="558.608,-1661 503.392,-1661 503.392,-1625 558.608,-1625 558.608,-1661"/>
<text text-anchor="middle" x="531" y="-1638.6" font-family="Courier,monospace" font-size="11.00">Select</text>
</a>
</g>
<!-- \\Aura\\View\\Helper\\Form\\Select&#45;&gt;\\Aura\\View\\Helper\\AbstractHelper -->
<g id="edge54" class="edge"><title>\\Aura\\View\\Helper\\Form\\Select&#45;&gt;\\Aura\\View\\Helper\\AbstractHelper</title>
<path fill="none" stroke="black" d="M503.132,-1652.07C458.643,-1665.26 368.852,-1684 311,-1643"/>
</g>
<!-- \\Aura\\View\\Helper\\Form\\Textarea -->
<g id="node21" class="node"><title>\\Aura\\View\\Helper\\Form\\Textarea</title>
<a xlink:href="Helper.Form.Textarea.html" xlink:title="Textarea" target="_parent">
<polygon fill="none" stroke="black" points="565.309,-1715 496.691,-1715 496.691,-1679 565.309,-1679 565.309,-1715"/>
<text text-anchor="middle" x="531" y="-1692.6" font-family="Courier,monospace" font-size="11.00">Textarea</text>
</a>
</g>
<!-- \\Aura\\View\\Helper\\Form\\Textarea&#45;&gt;\\Aura\\View\\Helper\\AbstractHelper -->
<g id="edge56" class="edge"><title>\\Aura\\View\\Helper\\Form\\Textarea&#45;&gt;\\Aura\\View\\Helper\\AbstractHelper</title>
<path fill="none" stroke="black" d="M496.461,-1696.2C450.593,-1693.55 367.55,-1683.08 311,-1643"/>
</g>
<!-- \\Aura\\View\\Helper\\Anchor -->
<g id="node24" class="node"><title>\\Aura\\View\\Helper\\Anchor</title>
<a xlink:href="Helper.Anchor.html" xlink:title="Anchor" target="_parent">
<polygon fill="none" stroke="black" points="337.608,-1266 282.392,-1266 282.392,-1230 337.608,-1230 337.608,-1266"/>
<text text-anchor="middle" x="310" y="-1243.6" font-family="Courier,monospace" font-size="11.00">Anchor</text>
</a>
</g>
<!-- \\Aura\\View\\Helper\\Anchor&#45;&gt;\\Aura\\View\\Helper\\AbstractHelper -->
<g id="edge32" class="edge"><title>\\Aura\\View\\Helper\\Anchor&#45;&gt;\\Aura\\View\\Helper\\AbstractHelper</title>
<path fill="none" stroke="black" d="M282.197,-1244.23C264.51,-1240.64 241.622,-1233.81 225,-1221 159.136,-1170.24 115.897,-1078.49 97.3465,-1032.64"/>
<polygon fill="none" stroke="black" points="100.492,-1031.08 93.5622,-1023.07 93.9819,-1033.65 100.492,-1031.08"/>
</g>
<!-- \\Aura\\View\\Helper\\Attribs -->
<g id="node25" class="node"><title>\\Aura\\View\\Helper\\Attribs</title>
<a xlink:href="Helper.Attribs.html" xlink:title="Attribs" target="_parent">
<polygon fill="none" stroke="black" points="341.208,-1212 278.792,-1212 278.792,-1176 341.208,-1176 341.208,-1212"/>
<text text-anchor="middle" x="310" y="-1189.6" font-family="Courier,monospace" font-size="11.00">Attribs</text>
</a>
</g>
<!-- \\Aura\\View\\Helper\\Attribs&#45;&gt;\\Aura\\View\\Helper\\AbstractHelper -->
<g id="edge34" class="edge"><title>\\Aura\\View\\Helper\\Attribs&#45;&gt;\\Aura\\View\\Helper\\AbstractHelper</title>
<path fill="none" stroke="black" d="M278.837,-1188.56C261.985,-1184.52 241.186,-1177.79 225,-1167 170.964,-1130.97 126.068,-1068.03 103.238,-1032.13"/>
<polygon fill="none" stroke="black" points="105.922,-1029.82 97.6562,-1023.19 99.9849,-1033.53 105.922,-1029.82"/>
</g>
<!-- \\Aura\\View\\Helper\\Base -->
<g id="node26" class="node"><title>\\Aura\\View\\Helper\\Base</title>
<a xlink:href="Helper.Base.html" xlink:title="Base" target="_parent">
<polygon fill="none" stroke="black" points="337,-1158 283,-1158 283,-1122 337,-1122 337,-1158"/>
<text text-anchor="middle" x="310" y="-1135.6" font-family="Courier,monospace" font-size="11.00">Base</text>
</a>
</g>
<!-- \\Aura\\View\\Helper\\Base&#45;&gt;\\Aura\\View\\Helper\\AbstractHelper -->
<g id="edge36" class="edge"><title>\\Aura\\View\\Helper\\Base&#45;&gt;\\Aura\\View\\Helper\\AbstractHelper</title>
<path fill="none" stroke="black" d="M282.687,-1134.1C265.631,-1129.67 243.27,-1122.69 225,-1113 182.372,-1090.4 139.598,-1054.35 113.219,-1030.19"/>
<polygon fill="none" stroke="black" points="115.289,-1027.34 105.577,-1023.1 110.529,-1032.47 115.289,-1027.34"/>
</g>
<!-- \\Aura\\View\\Helper\\Datetime -->
<g id="node27" class="node"><title>\\Aura\\View\\Helper\\Datetime</title>
<a xlink:href="Helper.Datetime.html" xlink:title="Datetime" target="_parent">
<polygon fill="none" stroke="black" points="344.309,-1104 275.691,-1104 275.691,-1068 344.309,-1068 344.309,-1104"/>
<text text-anchor="middle" x="310" y="-1081.6" font-family="Courier,monospace" font-size="11.00">Datetime</text>
</a>
</g>
<!-- \\Aura\\View\\Helper\\Datetime&#45;&gt;\\Aura\\View\\Helper\\AbstractHelper -->
<g id="edge38" class="edge"><title>\\Aura\\View\\Helper\\Datetime&#45;&gt;\\Aura\\View\\Helper\\AbstractHelper</title>
<path fill="none" stroke="black" d="M275.322,-1075.7C259.908,-1070.85 241.451,-1064.86 225,-1059 196.953,-1049.02 166.066,-1037.02 140.636,-1026.88"/>
<polygon fill="none" stroke="black" points="141.759,-1023.56 131.174,-1023.09 139.156,-1030.06 141.759,-1023.56"/>
</g>
<!-- \\Aura\\View\\Helper\\Escape -->
<g id="node28" class="node"><title>\\Aura\\View\\Helper\\Escape</title>
<a xlink:href="Helper.Escape.html" xlink:title="Escape" target="_parent">
<polygon fill="none" stroke="black" points="558.608,-1103 503.392,-1103 503.392,-1067 558.608,-1067 558.608,-1103"/>
<text text-anchor="middle" x="531" y="-1080.6" font-family="Courier,monospace" font-size="11.00">Escape</text>
</a>
</g>
<!-- \\Aura\\View\\Helper\\Image -->
<g id="node29" class="node"><title>\\Aura\\View\\Helper\\Image</title>
<a xlink:href="Helper.Image.html" xlink:title="Image" target="_parent">
<polygon fill="none" stroke="black" points="337,-1050 283,-1050 283,-1014 337,-1014 337,-1050"/>
<text text-anchor="middle" x="310" y="-1027.6" font-family="Courier,monospace" font-size="11.00">Image</text>
</a>
</g>
<!-- \\Aura\\View\\Helper\\Image&#45;&gt;\\Aura\\View\\Helper\\AbstractHelper -->
<g id="edge58" class="edge"><title>\\Aura\\View\\Helper\\Image&#45;&gt;\\Aura\\View\\Helper\\AbstractHelper</title>
<path fill="none" stroke="black" d="M282.662,-1028.8C250.269,-1024.86 194.194,-1018.04 150.356,-1012.71"/>
<polygon fill="none" stroke="black" points="150.7,-1009.22 140.351,-1011.49 149.855,-1016.17 150.7,-1009.22"/>
</g>
<!-- \\Aura\\View\\Helper\\Links -->
<g id="node30" class="node"><title>\\Aura\\View\\Helper\\Links</title>
<a xlink:href="Helper.Links.html" xlink:title="Links" target="_parent">
<polygon fill="none" stroke="black" points="337,-996 283,-996 283,-960 337,-960 337,-996"/>
<text text-anchor="middle" x="310" y="-973.6" font-family="Courier,monospace" font-size="11.00">Links</text>
</a>
</g>
<!-- \\Aura\\View\\Helper\\Links&#45;&gt;\\Aura\\View\\Helper\\AbstractHelper -->
<g id="edge60" class="edge"><title>\\Aura\\View\\Helper\\Links&#45;&gt;\\Aura\\View\\Helper\\AbstractHelper</title>
<path fill="none" stroke="black" d="M282.662,-981.203C250.269,-985.143 194.194,-991.963 150.356,-997.295"/>
<polygon fill="none" stroke="black" points="149.855,-993.83 140.351,-998.511 150.7,-1000.78 149.855,-993.83"/>
</g>
<!-- \\Aura\\View\\Helper\\Metas -->
<g id="node31" class="node"><title>\\Aura\\View\\Helper\\Metas</title>
<a xlink:href="Helper.Metas.html" xlink:title="Metas" target="_parent">
<polygon fill="none" stroke="black" points="337,-942 283,-942 283,-906 337,-906 337,-942"/>
<text text-anchor="middle" x="310" y="-919.6" font-family="Courier,monospace" font-size="11.00">Metas</text>
</a>
</g>
<!-- \\Aura\\View\\Helper\\Metas&#45;&gt;\\Aura\\View\\Helper\\AbstractHelper -->
<g id="edge62" class="edge"><title>\\Aura\\View\\Helper\\Metas&#45;&gt;\\Aura\\View\\Helper\\AbstractHelper</title>
<path fill="none" stroke="black" d="M282.642,-931.678C265.963,-936.731 244.034,-943.735 225,-951 192.284,-963.487 185.649,-970.337 153,-983 151.987,-983.393 150.963,-983.786 149.931,-984.177"/>
<polygon fill="none" stroke="black" points="148.641,-980.922 140.47,-987.666 151.063,-987.49 148.641,-980.922"/>
</g>
<!-- \\Aura\\View\\Helper\\Ol -->
<g id="node32" class="node"><title>\\Aura\\View\\Helper\\Ol</title>
<a xlink:href="Helper.Ol.html" xlink:title="Ol" target="_parent">
<polygon fill="none" stroke="black" points="558,-888 504,-888 504,-852 558,-852 558,-888"/>
<text text-anchor="middle" x="531" y="-865.6" font-family="Courier,monospace" font-size="11.00">Ol</text>
</a>
</g>
<!-- \\Aura\\View\\Helper\\Ul -->
<g id="node37" class="node"><title>\\Aura\\View\\Helper\\Ul</title>
<a xlink:href="Helper.Ul.html" xlink:title="Ul" target="_parent">
<polygon fill="none" stroke="black" points="337,-888 283,-888 283,-852 337,-852 337,-888"/>
<text text-anchor="middle" x="310" y="-865.6" font-family="Courier,monospace" font-size="11.00">Ul</text>
</a>
</g>
<!-- \\Aura\\View\\Helper\\Ol&#45;&gt;\\Aura\\View\\Helper\\Ul -->
<g id="edge64" class="edge"><title>\\Aura\\View\\Helper\\Ol&#45;&gt;\\Aura\\View\\Helper\\Ul</title>
<path fill="none" stroke="black" d="M503.583,-870C464.592,-870 391.504,-870 347.441,-870"/>
<polygon fill="none" stroke="black" points="347.169,-866.5 337.169,-870 347.169,-873.5 347.169,-866.5"/>
</g>
<!-- \\Aura\\View\\Helper\\Scripts -->
<g id="node33" class="node"><title>\\Aura\\View\\Helper\\Scripts</title>
<a xlink:href="Helper.Scripts.html" xlink:title="Scripts" target="_parent">
<polygon fill="none" stroke="black" points="341.208,-834 278.792,-834 278.792,-798 341.208,-798 341.208,-834"/>
<text text-anchor="middle" x="310" y="-811.6" font-family="Courier,monospace" font-size="11.00">Scripts</text>
</a>
</g>
<!-- \\Aura\\View\\Helper\\Scripts&#45;&gt;\\Aura\\View\\Helper\\AbstractHelper -->
<g id="edge66" class="edge"><title>\\Aura\\View\\Helper\\Scripts&#45;&gt;\\Aura\\View\\Helper\\AbstractHelper</title>
<path fill="none" stroke="black" d="M278.619,-819.905C261.282,-823.463 240.07,-830.219 225,-843 171.638,-888.256 206.118,-937.458 153,-983 151.825,-984.007 150.603,-984.969 149.34,-985.887"/>
<polygon fill="none" stroke="black" points="147.183,-983.105 140.509,-991.333 150.857,-989.063 147.183,-983.105"/>
</g>
<!-- \\Aura\\View\\Helper\\Styles -->
<g id="node34" class="node"><title>\\Aura\\View\\Helper\\Styles</title>
<a xlink:href="Helper.Styles.html" xlink:title="Styles" target="_parent">
<polygon fill="none" stroke="black" points="337.608,-780 282.392,-780 282.392,-744 337.608,-744 337.608,-780"/>
<text text-anchor="middle" x="310" y="-757.6" font-family="Courier,monospace" font-size="11.00">Styles</text>
</a>
</g>
<!-- \\Aura\\View\\Helper\\Styles&#45;&gt;\\Aura\\View\\Helper\\AbstractHelper -->
<g id="edge68" class="edge"><title>\\Aura\\View\\Helper\\Styles&#45;&gt;\\Aura\\View\\Helper\\AbstractHelper</title>
<path fill="none" stroke="black" d="M282.042,-764.541C263.828,-767.587 240.386,-774.282 225,-789 158.541,-852.573 219.116,-919.071 153,-983 151.717,-984.241 150.361,-985.412 148.947,-986.517"/>
<polygon fill="none" stroke="black" points="146.759,-983.765 140.285,-992.151 150.576,-989.632 146.759,-983.765"/>
</g>
<!-- \\Aura\\View\\Helper\\Tag -->
<g id="node35" class="node"><title>\\Aura\\View\\Helper\\Tag</title>
<a xlink:href="Helper.Tag.html" xlink:title="Tag" target="_parent">
<polygon fill="none" stroke="black" points="337,-726 283,-726 283,-690 337,-690 337,-726"/>
<text text-anchor="middle" x="310" y="-703.6" font-family="Courier,monospace" font-size="11.00">Tag</text>
</a>
</g>
<!-- \\Aura\\View\\Helper\\Tag&#45;&gt;\\Aura\\View\\Helper\\AbstractHelper -->
<g id="edge70" class="edge"><title>\\Aura\\View\\Helper\\Tag&#45;&gt;\\Aura\\View\\Helper\\AbstractHelper</title>
<path fill="none" stroke="black" d="M282.882,-710.015C264.347,-712.801 240.161,-719.402 225,-735 145.005,-817.303 232.551,-900.268 153,-983 151.619,-984.437 150.141,-985.779 148.586,-987.034"/>
<polygon fill="none" stroke="black" points="146.614,-984.142 140.243,-992.608 150.502,-989.963 146.614,-984.142"/>
</g>
<!-- \\Aura\\View\\Helper\\Title -->
<g id="node36" class="node"><title>\\Aura\\View\\Helper\\Title</title>
<a xlink:href="Helper.Title.html" xlink:title="Title" target="_parent">
<polygon fill="none" stroke="black" points="337,-672 283,-672 283,-636 337,-636 337,-672"/>
<text text-anchor="middle" x="310" y="-649.6" font-family="Courier,monospace" font-size="11.00">Title</text>
</a>
</g>
<!-- \\Aura\\View\\Helper\\Title&#45;&gt;\\Aura\\View\\Helper\\AbstractHelper -->
<g id="edge72" class="edge"><title>\\Aura\\View\\Helper\\Title&#45;&gt;\\Aura\\View\\Helper\\AbstractHelper</title>
<path fill="none" stroke="black" d="M282.655,-655.799C264.006,-658.477 239.778,-665.039 225,-681 131.256,-782.251 246.198,-881.247 153,-983 151.654,-984.47 150.207,-985.841 148.678,-987.121"/>
<polygon fill="none" stroke="black" points="146.693,-984.239 140.436,-992.789 150.659,-990.007 146.693,-984.239"/>
</g>
<!-- \\Aura\\View\\Helper\\Ul&#45;&gt;\\Aura\\View\\Helper\\AbstractHelper -->
<g id="edge74" class="edge"><title>\\Aura\\View\\Helper\\Ul&#45;&gt;\\Aura\\View\\Helper\\AbstractHelper</title>
<path fill="none" stroke="black" d="M282.708,-874.483C265.243,-878.374 242.41,-885.283 225,-897 183.645,-924.833 194.205,-954.945 153,-983 151.905,-983.746 150.782,-984.468 149.637,-985.167"/>
<polygon fill="none" stroke="black" points="147.629,-982.273 140.478,-990.091 150.944,-988.438 147.629,-982.273"/>
</g>
<!-- \\Aura\\View\\AbstractTemplate -->
<g id="node41" class="node"><title>\\Aura\\View\\AbstractTemplate</title>
<a xlink:href="AbstractTemplate.html" xlink:title="AbstractTemplate" target="_parent">
<polygon fill="none" stroke="black" points="370.618,-564 249.382,-564 249.382,-528 370.618,-528 370.618,-564"/>
<text text-anchor="middle" x="310" y="-541.6" font-family="Courier,monospace" font-size="11.00">AbstractTemplate</text>
</a>
</g>
<!-- \\Aura\\View\\EscaperFactory -->
<g id="node42" class="node"><title>\\Aura\\View\\EscaperFactory</title>
<a xlink:href="EscaperFactory.html" xlink:title="EscaperFactory" target="_parent">
<polygon fill="none" stroke="black" points="585.416,-439 476.584,-439 476.584,-403 585.416,-403 585.416,-439"/>
<text text-anchor="middle" x="531" y="-416.6" font-family="Courier,monospace" font-size="11.00">EscaperFactory</text>
</a>
</g>
<!-- \\Exception -->
<g id="node63" class="node"><title>\\Exception</title>
<ellipse fill="none" stroke="black" cx="86" cy="-72" rx="52.7417" ry="18"/>
<text text-anchor="middle" x="86" y="-66.4" font-family="Times,serif" font-size="14.00" fill="gray">\Exception</text>
</g>
<!-- \\Aura\\View\\Exception&#45;&gt;\\Exception -->
<g id="edge30" class="edge"><title>\\Aura\\View\\Exception&#45;&gt;\\Exception</title>
<path fill="none" stroke="black" d="M296.412,-456.867C279.412,-432.084 248.534,-386.022 225,-345 174.582,-257.117 122.668,-148.602 99.4895,-99.0159"/>
<polygon fill="none" stroke="black" points="102.642,-97.4941 95.2458,-89.9079 96.2966,-100.451 102.642,-97.4941"/>
</g>
<!-- \\Aura\\View\\FormatTypes -->
<g id="node44" class="node"><title>\\Aura\\View\\FormatTypes</title>
<a xlink:href="FormatTypes.html" xlink:title="FormatTypes" target="_parent">
<polygon fill="none" stroke="black" points="575.113,-385 486.887,-385 486.887,-349 575.113,-349 575.113,-385"/>
<text text-anchor="middle" x="531" y="-362.6" font-family="Courier,monospace" font-size="11.00">FormatTypes</text>
</a>
</g>
<!-- \\Aura\\View\\Template -->
<g id="node46" class="node"><title>\\Aura\\View\\Template</title>
<a xlink:href="Template.html" xlink:title="Template" target="_parent">
<polygon fill="none" stroke="black" points="565.309,-620 496.691,-620 496.691,-584 565.309,-584 565.309,-620"/>
<text text-anchor="middle" x="531" y="-597.6" font-family="Courier,monospace" font-size="11.00">Template</text>
</a>
</g>
<!-- \\Aura\\View\\Template&#45;&gt;\\Aura\\View\\AbstractTemplate -->
<g id="edge76" class="edge"><title>\\Aura\\View\\Template&#45;&gt;\\Aura\\View\\AbstractTemplate</title>
<path fill="none" stroke="black" d="M496.261,-593.373C465.642,-585.543 419.521,-573.75 380.958,-563.889"/>
<polygon fill="none" stroke="black" points="381.373,-560.382 370.818,-561.296 379.639,-567.164 381.373,-560.382"/>
</g>
<!-- \\Aura\\View\\TemplateFinder -->
<g id="node47" class="node"><title>\\Aura\\View\\TemplateFinder</title>
<a xlink:href="TemplateFinder.html" xlink:title="TemplateFinder" target="_parent">
<polygon fill="none" stroke="black" points="585.416,-204 476.584,-204 476.584,-168 585.416,-168 585.416,-204"/>
<text text-anchor="middle" x="531" y="-181.6" font-family="Courier,monospace" font-size="11.00">TemplateFinder</text>
</a>
</g>
<!-- \\Aura\\View\\TwoStep -->
<g id="node48" class="node"><title>\\Aura\\View\\TwoStep</title>
<a xlink:href="TwoStep.html" xlink:title="TwoStep" target="_parent">
<polygon fill="none" stroke="black" points="562.208,-150 499.792,-150 499.792,-114 562.208,-114 562.208,-150"/>
<text text-anchor="middle" x="531" y="-127.6" font-family="Courier,monospace" font-size="11.00">TwoStep</text>
</a>
</g>
</g>
</svg>
