<?xml version="1.0" encoding="UTF-8" standalone="no"?>
<!DOCTYPE svg PUBLIC "-//W3C//DTD SVG 1.1//EN"
 "http://www.w3.org/Graphics/SVG/1.1/DTD/svg11.dtd">
<!-- Generated by graphviz version 2.28.0 (20111028.1807)
 -->
<!-- Title: G Pages: 1 -->
<svg width="596pt" height="2386pt"
 viewBox="0.00 0.00 596.00 2386.00" xmlns="http://www.w3.org/2000/svg" xmlns:xlink="http://www.w3.org/1999/xlink">
<g id="graph1" class="graph" transform="scale(1 1) rotate(0) translate(4 2382)">
<title>G</title>
<polygon fill="white" stroke="white" points="-4,5 -4,-2382 593,-2382 593,5 -4,5"/>
<g id="graph2" class="cluster"><title>cluster_Aura</title>
<polyline fill="none" stroke="gray" points="183,-152 568,-152 "/>
<path fill="none" stroke="gray" d="M568,-152C574,-152 580,-158 580,-164"/>
<polyline fill="none" stroke="gray" points="580,-164 580,-2358 "/>
<path fill="none" stroke="gray" d="M580,-2358C580,-2364 574,-2370 568,-2370"/>
<polyline fill="none" stroke="gray" points="568,-2370 183,-2370 "/>
<path fill="none" stroke="gray" d="M183,-2370C177,-2370 171,-2364 171,-2358"/>
<polyline fill="none" stroke="gray" points="171,-2358 171,-164 "/>
<path fill="none" stroke="gray" d="M171,-164C171,-158 177,-152 183,-152"/>
<text text-anchor="middle" x="375.5" y="-2355" font-family="Times,serif" font-size="11.00" fill="gray">Aura</text>
</g>
<g id="graph3" class="cluster"><title>cluster_Aura\Http</title>
<polyline fill="none" stroke="gray" points="191,-160 560,-160 "/>
<path fill="none" stroke="gray" d="M560,-160C566,-160 572,-166 572,-172"/>
<polyline fill="none" stroke="gray" points="572,-172 572,-2329 "/>
<path fill="none" stroke="gray" d="M572,-2329C572,-2335 566,-2341 560,-2341"/>
<polyline fill="none" stroke="gray" points="560,-2341 191,-2341 "/>
<path fill="none" stroke="gray" d="M191,-2341C185,-2341 179,-2335 179,-2329"/>
<polyline fill="none" stroke="gray" points="179,-2329 179,-172 "/>
<path fill="none" stroke="gray" d="M179,-172C179,-166 185,-160 191,-160"/>
<text text-anchor="middle" x="375.5" y="-2326" font-family="Times,serif" font-size="11.00" fill="gray">Http</text>
</g>
<g id="graph4" class="cluster"><title>cluster_Aura\Http\Adapter</title>
<polyline fill="none" stroke="gray" points="206,-2185 512,-2185 "/>
<path fill="none" stroke="gray" d="M512,-2185C518,-2185 524,-2191 524,-2197"/>
<polyline fill="none" stroke="gray" points="524,-2197 524,-2300 "/>
<path fill="none" stroke="gray" d="M524,-2300C524,-2306 518,-2312 512,-2312"/>
<polyline fill="none" stroke="gray" points="512,-2312 206,-2312 "/>
<path fill="none" stroke="gray" d="M206,-2312C200,-2312 194,-2306 194,-2300"/>
<polyline fill="none" stroke="gray" points="194,-2300 194,-2197 "/>
<path fill="none" stroke="gray" d="M194,-2197C194,-2191 200,-2185 206,-2185"/>
<text text-anchor="middle" x="359" y="-2297" font-family="Times,serif" font-size="11.00" fill="gray">Adapter</text>
</g>
<g id="graph5" class="cluster"><title>cluster_Aura\Http\Cookie</title>
<polyline fill="none" stroke="gray" points="451,-1159 525,-1159 "/>
<path fill="none" stroke="gray" d="M525,-1159C531,-1159 537,-1165 537,-1171"/>
<polyline fill="none" stroke="gray" points="537,-1171 537,-1382 "/>
<path fill="none" stroke="gray" d="M537,-1382C537,-1388 531,-1394 525,-1394"/>
<polyline fill="none" stroke="gray" points="525,-1394 451,-1394 "/>
<path fill="none" stroke="gray" d="M451,-1394C445,-1394 439,-1388 439,-1382"/>
<polyline fill="none" stroke="gray" points="439,-1382 439,-1171 "/>
<path fill="none" stroke="gray" d="M439,-1171C439,-1165 445,-1159 451,-1159"/>
<text text-anchor="middle" x="488" y="-1379" font-family="Times,serif" font-size="11.00" fill="gray">Cookie</text>
</g>
<g id="graph6" class="cluster"><title>cluster_Aura\Http\Exception</title>
<polyline fill="none" stroke="gray" points="424,-1402 552,-1402 "/>
<path fill="none" stroke="gray" d="M552,-1402C558,-1402 564,-1408 564,-1414"/>
<polyline fill="none" stroke="gray" points="564,-1414 564,-2165 "/>
<path fill="none" stroke="gray" d="M564,-2165C564,-2171 558,-2177 552,-2177"/>
<polyline fill="none" stroke="gray" points="552,-2177 424,-2177 "/>
<path fill="none" stroke="gray" d="M424,-2177C418,-2177 412,-2171 412,-2165"/>
<polyline fill="none" stroke="gray" points="412,-2165 412,-1414 "/>
<path fill="none" stroke="gray" d="M412,-1414C412,-1408 418,-1402 424,-1402"/>
<text text-anchor="middle" x="488" y="-2162" font-family="Times,serif" font-size="11.00" fill="gray">Exception</text>
</g>
<g id="graph7" class="cluster"><title>cluster_Aura\Http\Header</title>
<polyline fill="none" stroke="gray" points="451,-1024 525,-1024 "/>
<path fill="none" stroke="gray" d="M525,-1024C531,-1024 537,-1030 537,-1036"/>
<polyline fill="none" stroke="gray" points="537,-1036 537,-1139 "/>
<path fill="none" stroke="gray" d="M537,-1139C537,-1145 531,-1151 525,-1151"/>
<polyline fill="none" stroke="gray" points="525,-1151 451,-1151 "/>
<path fill="none" stroke="gray" d="M451,-1151C445,-1151 439,-1145 439,-1139"/>
<polyline fill="none" stroke="gray" points="439,-1139 439,-1036 "/>
<path fill="none" stroke="gray" d="M439,-1036C439,-1030 445,-1024 451,-1024"/>
<text text-anchor="middle" x="488" y="-1136" font-family="Times,serif" font-size="11.00" fill="gray">Header</text>
</g>
<g id="graph8" class="cluster"><title>cluster_Aura\Http\Manager</title>
<polyline fill="none" stroke="gray" points="461,-943 515,-943 "/>
<path fill="none" stroke="gray" d="M515,-943C521,-943 527,-949 527,-955"/>
<polyline fill="none" stroke="gray" points="527,-955 527,-1004 "/>
<path fill="none" stroke="gray" d="M527,-1004C527,-1010 521,-1016 515,-1016"/>
<polyline fill="none" stroke="gray" points="515,-1016 461,-1016 "/>
<path fill="none" stroke="gray" d="M461,-1016C455,-1016 449,-1010 449,-1004"/>
<polyline fill="none" stroke="gray" points="449,-1004 449,-955 "/>
<path fill="none" stroke="gray" d="M449,-955C449,-949 455,-943 461,-943"/>
<text text-anchor="middle" x="488" y="-1001" font-family="Times,serif" font-size="11.00" fill="gray">Manager</text>
</g>
<g id="graph9" class="cluster"><title>cluster_Aura\Http\Message</title>
<polyline fill="none" stroke="gray" points="436,-619 540,-619 "/>
<path fill="none" stroke="gray" d="M540,-619C546,-619 552,-625 552,-631"/>
<polyline fill="none" stroke="gray" points="552,-631 552,-923 "/>
<path fill="none" stroke="gray" d="M552,-923C552,-929 546,-935 540,-935"/>
<polyline fill="none" stroke="gray" points="540,-935 436,-935 "/>
<path fill="none" stroke="gray" d="M436,-935C430,-935 424,-929 424,-923"/>
<polyline fill="none" stroke="gray" points="424,-923 424,-631 "/>
<path fill="none" stroke="gray" d="M424,-631C424,-625 430,-619 436,-619"/>
<text text-anchor="middle" x="488" y="-920" font-family="Times,serif" font-size="11.00" fill="gray">Message</text>
</g>
<g id="graph10" class="cluster"><title>cluster_Aura\Http\Message\Response</title>
<polyline fill="none" stroke="gray" points="444,-627 532,-627 "/>
<path fill="none" stroke="gray" d="M532,-627C538,-627 544,-633 544,-639"/>
<polyline fill="none" stroke="gray" points="544,-639 544,-742 "/>
<path fill="none" stroke="gray" d="M544,-742C544,-748 538,-754 532,-754"/>
<polyline fill="none" stroke="gray" points="532,-754 444,-754 "/>
<path fill="none" stroke="gray" d="M444,-754C438,-754 432,-748 432,-742"/>
<polyline fill="none" stroke="gray" points="432,-742 432,-639 "/>
<path fill="none" stroke="gray" d="M432,-639C432,-633 438,-627 444,-627"/>
<text text-anchor="middle" x="488" y="-739" font-family="Times,serif" font-size="11.00" fill="gray">Response</text>
</g>
<g id="graph12" class="cluster"><title>cluster_Aura\Http\Multipart</title>
<polyline fill="none" stroke="gray" points="447,-430 529,-430 "/>
<path fill="none" stroke="gray" d="M529,-430C535,-430 541,-436 541,-442"/>
<polyline fill="none" stroke="gray" points="541,-442 541,-599 "/>
<path fill="none" stroke="gray" d="M541,-599C541,-605 535,-611 529,-611"/>
<polyline fill="none" stroke="gray" points="529,-611 447,-611 "/>
<path fill="none" stroke="gray" d="M447,-611C441,-611 435,-605 435,-599"/>
<polyline fill="none" stroke="gray" points="435,-599 435,-442 "/>
<path fill="none" stroke="gray" d="M435,-442C435,-436 441,-430 447,-430"/>
<text text-anchor="middle" x="488" y="-596" font-family="Times,serif" font-size="11.00" fill="gray">Multipart</text>
</g>
<g id="graph13" class="cluster"><title>cluster_Aura\Http\Transport</title>
<polyline fill="none" stroke="gray" points="199,-168 327,-168 "/>
<path fill="none" stroke="gray" d="M327,-168C333,-168 339,-174 339,-180"/>
<polyline fill="none" stroke="gray" points="339,-180 339,-283 "/>
<path fill="none" stroke="gray" d="M339,-283C339,-289 333,-295 327,-295"/>
<polyline fill="none" stroke="gray" points="327,-295 199,-295 "/>
<path fill="none" stroke="gray" d="M199,-295C193,-295 187,-289 187,-283"/>
<polyline fill="none" stroke="gray" points="187,-283 187,-180 "/>
<path fill="none" stroke="gray" d="M187,-180C187,-174 193,-168 199,-168"/>
<text text-anchor="middle" x="263" y="-280" font-family="Times,serif" font-size="11.00" fill="gray">Transport</text>
</g>
<!-- \\Aura\\Http\\Adapter\\AdapterInterface -->
<g id="node4" class="node"><title>\\Aura\\Http\\Adapter\\AdapterInterface</title>
<a xlink:href="Adapter.AdapterInterface.html" xlink:title="AdapterInterface" target="_parent">
<polygon fill="none" stroke="black" points="323.618,-2256 202.382,-2256 202.382,-2220 323.618,-2220 323.618,-2256"/>
<text text-anchor="middle" x="263" y="-2233.6" font-family="Courier,monospace" font-size="11.00">AdapterInterface</text>
</a>
</g>
<!-- \\Aura\\Http\\Adapter\\Curl -->
<g id="node5" class="node"><title>\\Aura\\Http\\Adapter\\Curl</title>
<a xlink:href="Adapter.Curl.html" xlink:title="Curl" target="_parent">
<polygon fill="none" stroke="black" points="515,-2283 461,-2283 461,-2247 515,-2247 515,-2283"/>
<text text-anchor="middle" x="488" y="-2260.6" font-family="Courier,monospace" font-size="11.00">Curl</text>
</a>
</g>
<!-- \\Aura\\Http\\Adapter\\Curl&#45;&gt;\\Aura\\Http\\Adapter\\AdapterInterface -->
<g id="edge60" class="edge"><title>\\Aura\\Http\\Adapter\\Curl&#45;&gt;\\Aura\\Http\\Adapter\\AdapterInterface</title>
<path fill="none" stroke="black" stroke-dasharray="1,5" d="M460.983,-2261.85C430.03,-2258.1 377.114,-2251.7 333.917,-2246.47"/>
<polygon fill="none" stroke="black" points="334.08,-2242.96 323.731,-2245.23 333.238,-2249.91 334.08,-2242.96"/>
</g>
<!-- \\Aura\\Http\\Adapter\\Stream -->
<g id="node6" class="node"><title>\\Aura\\Http\\Adapter\\Stream</title>
<a xlink:href="Adapter.Stream.html" xlink:title="Stream" target="_parent">
<polygon fill="none" stroke="black" points="515.608,-2229 460.392,-2229 460.392,-2193 515.608,-2193 515.608,-2229"/>
<text text-anchor="middle" x="488" y="-2206.6" font-family="Courier,monospace" font-size="11.00">Stream</text>
</a>
</g>
<!-- \\Aura\\Http\\Adapter\\Stream&#45;&gt;\\Aura\\Http\\Adapter\\AdapterInterface -->
<g id="edge62" class="edge"><title>\\Aura\\Http\\Adapter\\Stream&#45;&gt;\\Aura\\Http\\Adapter\\AdapterInterface</title>
<path fill="none" stroke="black" stroke-dasharray="1,5" d="M460.101,-2214.26C429,-2218.02 376.595,-2224.37 333.781,-2229.55"/>
<polygon fill="none" stroke="black" points="333.191,-2226.1 323.684,-2230.77 334.033,-2233.05 333.191,-2226.1"/>
</g>
<!-- \\Aura\\Http\\Cookie\\Collection -->
<g id="node8" class="node"><title>\\Aura\\Http\\Cookie\\Collection</title>
<a xlink:href="Cookie.Collection.html" xlink:title="Collection" target="_parent">
<polygon fill="none" stroke="black" points="529.011,-1365 446.989,-1365 446.989,-1329 529.011,-1329 529.011,-1365"/>
<text text-anchor="middle" x="488" y="-1342.6" font-family="Courier,monospace" font-size="11.00">Collection</text>
</a>
</g>
<!-- \\IteratorAggregate -->
<g id="node87" class="node"><title>\\IteratorAggregate</title>
<ellipse fill="none" stroke="black" cx="263" cy="-126" rx="85.0676" ry="18"/>
<text text-anchor="middle" x="263" y="-120.4" font-family="Times,serif" font-size="14.00" fill="gray">\\IteratorAggregate</text>
</g>
<!-- \\Aura\\Http\\Cookie\\Collection&#45;&gt;\\IteratorAggregate -->
<g id="edge64" class="edge"><title>\\Aura\\Http\\Cookie\\Collection&#45;&gt;\\IteratorAggregate</title>
<path fill="none" stroke="black" stroke-dasharray="1,5" d="M446.994,-1341.62C433.786,-1337.78 420.35,-1331.21 412,-1320 258.296,-1113.68 493.407,-376.252 348,-164 342.562,-156.062 335.045,-149.756 326.727,-144.754"/>
<polygon fill="none" stroke="black" points="328.291,-141.622 317.821,-140 324.994,-147.797 328.291,-141.622"/>
</g>
<!-- \\Countable -->
<g id="node89" class="node"><title>\\Countable</title>
<ellipse fill="none" stroke="black" cx="263" cy="-72" rx="56.1921" ry="18"/>
<text text-anchor="middle" x="263" y="-66.4" font-family="Times,serif" font-size="14.00" fill="gray">\\Countable</text>
</g>
<!-- \\Aura\\Http\\Cookie\\Collection&#45;&gt;\\Countable -->
<g id="edge66" class="edge"><title>\\Aura\\Http\\Cookie\\Collection&#45;&gt;\\Countable</title>
<path fill="none" stroke="black" stroke-dasharray="1,5" d="M446.976,-1341.63C433.766,-1337.79 420.334,-1331.22 412,-1320 249.999,-1101.87 513.745,-314.296 348,-99 342.105,-91.3427 334.014,-85.8197 325.168,-81.8441"/>
<polygon fill="none" stroke="black" points="326.327,-78.5401 315.736,-78.2367 323.826,-85.0782 326.327,-78.5401"/>
</g>
<!-- \\Aura\\Http\\Cookie\\Factory -->
<g id="node9" class="node"><title>\\Aura\\Http\\Cookie\\Factory</title>
<a xlink:href="Cookie.Factory.html" xlink:title="Factory" target="_parent">
<polygon fill="none" stroke="black" points="519.208,-1311 456.792,-1311 456.792,-1275 519.208,-1275 519.208,-1311"/>
<text text-anchor="middle" x="488" y="-1288.6" font-family="Courier,monospace" font-size="11.00">Factory</text>
</a>
</g>
<!-- \\Aura\\Http\\Cookie\\Jar -->
<g id="node10" class="node"><title>\\Aura\\Http\\Cookie\\Jar</title>
<a xlink:href="Cookie.Jar.html" xlink:title="Jar" target="_parent">
<polygon fill="none" stroke="black" points="515,-1257 461,-1257 461,-1221 515,-1221 515,-1257"/>
<text text-anchor="middle" x="488" y="-1234.6" font-family="Courier,monospace" font-size="11.00">Jar</text>
</a>
</g>
<!-- \\Aura\\Http\\Cookie\\JarFactory -->
<g id="node11" class="node"><title>\\Aura\\Http\\Cookie\\JarFactory</title>
<a xlink:href="Cookie.JarFactory.html" xlink:title="JarFactory" target="_parent">
<polygon fill="none" stroke="black" points="529.011,-1203 446.989,-1203 446.989,-1167 529.011,-1167 529.011,-1203"/>
<text text-anchor="middle" x="488" y="-1180.6" font-family="Courier,monospace" font-size="11.00">JarFactory</text>
</a>
</g>
<!-- \\Aura\\Http\\Exception\\ConnectionFailed -->
<g id="node13" class="node"><title>\\Aura\\Http\\Exception\\ConnectionFailed</title>
<a xlink:href="Exception.ConnectionFailed.html" xlink:title="ConnectionFailed" target="_parent">
<polygon fill="none" stroke="black" points="548.618,-2148 427.382,-2148 427.382,-2112 548.618,-2112 548.618,-2148"/>
<text text-anchor="middle" x="488" y="-2125.6" font-family="Courier,monospace" font-size="11.00">ConnectionFailed</text>
</a>
</g>
<!-- \\Aura\\Http\\Exception -->
<g id="node48" class="node"><title>\\Aura\\Http\\Exception</title>
<a xlink:href="Exception.html" xlink:title="Exception" target="_parent">
<polygon fill="none" stroke="black" points="300.911,-1797 225.089,-1797 225.089,-1761 300.911,-1761 300.911,-1797"/>
<text text-anchor="middle" x="263" y="-1774.6" font-family="Courier,monospace" font-size="11.00">Exception</text>
</a>
</g>
<!-- \\Aura\\Http\\Exception\\ConnectionFailed&#45;&gt;\\Aura\\Http\\Exception -->
<g id="edge24" class="edge"><title>\\Aura\\Http\\Exception\\ConnectionFailed&#45;&gt;\\Aura\\Http\\Exception</title>
<path fill="none" stroke="black" d="M427.103,-2113.6C421.636,-2110.63 416.48,-2107.12 412,-2103 321.239,-2019.47 282.064,-1869.41 269.187,-1807.21"/>
<polygon fill="none" stroke="black" points="272.604,-1806.44 267.211,-1797.32 265.74,-1807.82 272.604,-1806.44"/>
</g>
<!-- \\Aura\\Http\\Exception\\ConnectionTimeout -->
<g id="node14" class="node"><title>\\Aura\\Http\\Exception\\ConnectionTimeout</title>
<a xlink:href="Exception.ConnectionTimeout.html" xlink:title="ConnectionTimeout" target="_parent">
<polygon fill="none" stroke="black" points="552.218,-2094 423.782,-2094 423.782,-2058 552.218,-2058 552.218,-2094"/>
<text text-anchor="middle" x="488" y="-2071.6" font-family="Courier,monospace" font-size="11.00">ConnectionTimeout</text>
</a>
</g>
<!-- \\Aura\\Http\\Exception\\ConnectionTimeout&#45;&gt;\\Aura\\Http\\Exception -->
<g id="edge26" class="edge"><title>\\Aura\\Http\\Exception\\ConnectionTimeout&#45;&gt;\\Aura\\Http\\Exception</title>
<path fill="none" stroke="black" d="M424.791,-2057.84C420.225,-2055.26 415.892,-2052.33 412,-2049 333.186,-1981.6 288.832,-1861.3 271.97,-1806.98"/>
<polygon fill="none" stroke="black" points="275.297,-1805.89 269.05,-1797.33 268.597,-1807.92 275.297,-1805.89"/>
</g>
<!-- \\Aura\\Http\\Exception\\EmptyResponse -->
<g id="node15" class="node"><title>\\Aura\\Http\\Exception\\EmptyResponse</title>
<a xlink:href="Exception.EmptyResponse.html" xlink:title="EmptyResponse" target="_parent">
<polygon fill="none" stroke="black" points="538.814,-2040 437.186,-2040 437.186,-2004 538.814,-2004 538.814,-2040"/>
<text text-anchor="middle" x="488" y="-2017.6" font-family="Courier,monospace" font-size="11.00">EmptyResponse</text>
</a>
</g>
<!-- \\Aura\\Http\\Exception\\EmptyResponse&#45;&gt;\\Aura\\Http\\Exception -->
<g id="edge28" class="edge"><title>\\Aura\\Http\\Exception\\EmptyResponse&#45;&gt;\\Aura\\Http\\Exception</title>
<path fill="none" stroke="black" d="M437.112,-2009.01C428.229,-2005.36 419.447,-2000.75 412,-1995 344.806,-1943.08 296.873,-1851.93 275.868,-1806.44"/>
<polygon fill="none" stroke="black" points="278.996,-1804.86 271.682,-1797.2 272.62,-1807.75 278.996,-1804.86"/>
</g>
<!-- \\Aura\\Http\\Exception\\FileDoesNotExist -->
<g id="node16" class="node"><title>\\Aura\\Http\\Exception\\FileDoesNotExist</title>
<a xlink:href="Exception.FileDoesNotExist.html" xlink:title="FileDoesNotExist" target="_parent">
<polygon fill="none" stroke="black" points="548.618,-1986 427.382,-1986 427.382,-1950 548.618,-1950 548.618,-1986"/>
<text text-anchor="middle" x="488" y="-1963.6" font-family="Courier,monospace" font-size="11.00">FileDoesNotExist</text>
</a>
</g>
<!-- \\Aura\\Http\\Exception\\FileDoesNotExist&#45;&gt;\\Aura\\Http\\Exception -->
<g id="edge30" class="edge"><title>\\Aura\\Http\\Exception\\FileDoesNotExist&#45;&gt;\\Aura\\Http\\Exception</title>
<path fill="none" stroke="black" d="M427.92,-1949.89C422.355,-1947.25 416.951,-1944.3 412,-1941 356.19,-1903.79 307.138,-1841.13 281.949,-1805.63"/>
<polygon fill="none" stroke="black" points="284.669,-1803.41 276.07,-1797.22 278.932,-1807.42 284.669,-1803.41"/>
</g>
<!-- \\Aura\\Http\\Exception\\HeadersSent -->
<g id="node17" class="node"><title>\\Aura\\Http\\Exception\\HeadersSent</title>
<a xlink:href="Exception.HeadersSent.html" xlink:title="HeadersSent" target="_parent">
<polygon fill="none" stroke="black" points="532.113,-1932 443.887,-1932 443.887,-1896 532.113,-1896 532.113,-1932"/>
<text text-anchor="middle" x="488" y="-1909.6" font-family="Courier,monospace" font-size="11.00">HeadersSent</text>
</a>
</g>
<!-- \\Aura\\Http\\Exception\\HeadersSent&#45;&gt;\\Aura\\Http\\Exception -->
<g id="edge32" class="edge"><title>\\Aura\\Http\\Exception\\HeadersSent&#45;&gt;\\Aura\\Http\\Exception</title>
<path fill="none" stroke="black" d="M443.654,-1900.77C433.045,-1896.89 421.901,-1892.26 412,-1887 367.506,-1863.38 321.423,-1827.65 292.745,-1803.84"/>
<polygon fill="none" stroke="black" points="294.69,-1800.9 284.779,-1797.16 290.192,-1806.26 294.69,-1800.9"/>
</g>
<!-- \\Aura\\Http\\Exception\\InvalidUsername -->
<g id="node18" class="node"><title>\\Aura\\Http\\Exception\\InvalidUsername</title>
<a xlink:href="Exception.InvalidUsername.html" xlink:title="InvalidUsername" target="_parent">
<polygon fill="none" stroke="black" points="545.516,-1878 430.484,-1878 430.484,-1842 545.516,-1842 545.516,-1878"/>
<text text-anchor="middle" x="488" y="-1855.6" font-family="Courier,monospace" font-size="11.00">InvalidUsername</text>
</a>
</g>
<!-- \\Aura\\Http\\Exception\\InvalidUsername&#45;&gt;\\Aura\\Http\\Exception -->
<g id="edge34" class="edge"><title>\\Aura\\Http\\Exception\\InvalidUsername&#45;&gt;\\Aura\\Http\\Exception</title>
<path fill="none" stroke="black" d="M436.56,-1841.88C428.349,-1838.92 419.937,-1835.88 412,-1833 377.923,-1820.65 339.467,-1806.62 310.298,-1795.95"/>
<polygon fill="none" stroke="black" points="311.375,-1792.62 300.781,-1792.47 308.971,-1799.19 311.375,-1792.62"/>
</g>
<!-- \\Aura\\Http\\Exception\\MalformedCookie -->
<g id="node19" class="node"><title>\\Aura\\Http\\Exception\\MalformedCookie</title>
<a xlink:href="Exception.MalformedCookie.html" xlink:title="MalformedCookie" target="_parent">
<polygon fill="none" stroke="black" points="545.516,-1824 430.484,-1824 430.484,-1788 545.516,-1788 545.516,-1824"/>
<text text-anchor="middle" x="488" y="-1801.6" font-family="Courier,monospace" font-size="11.00">MalformedCookie</text>
</a>
</g>
<!-- \\Aura\\Http\\Exception\\MalformedCookie&#45;&gt;\\Aura\\Http\\Exception -->
<g id="edge36" class="edge"><title>\\Aura\\Http\\Exception\\MalformedCookie&#45;&gt;\\Aura\\Http\\Exception</title>
<path fill="none" stroke="black" d="M430.439,-1799.15C393.604,-1794.69 346.103,-1788.94 311.281,-1784.72"/>
<polygon fill="none" stroke="black" points="311.256,-1781.2 300.907,-1783.47 310.414,-1788.15 311.256,-1781.2"/>
</g>
<!-- \\Aura\\Http\\Exception\\NotWriteable -->
<g id="node20" class="node"><title>\\Aura\\Http\\Exception\\NotWriteable</title>
<a xlink:href="Exception.NotWriteable.html" xlink:title="NotWriteable" target="_parent">
<polygon fill="none" stroke="black" points="535.713,-1770 440.287,-1770 440.287,-1734 535.713,-1734 535.713,-1770"/>
<text text-anchor="middle" x="488" y="-1747.6" font-family="Courier,monospace" font-size="11.00">NotWriteable</text>
</a>
</g>
<!-- \\Aura\\Http\\Exception\\NotWriteable&#45;&gt;\\Aura\\Http\\Exception -->
<g id="edge38" class="edge"><title>\\Aura\\Http\\Exception\\NotWriteable&#45;&gt;\\Aura\\Http\\Exception</title>
<path fill="none" stroke="black" d="M440.252,-1757.66C402.311,-1762.25 349.063,-1768.7 311.043,-1773.3"/>
<polygon fill="none" stroke="black" points="310.256,-1769.87 300.749,-1774.55 311.097,-1776.82 310.256,-1769.87"/>
</g>
<!-- \\Aura\\Http\\Exception\\UnknownAdapterType -->
<g id="node21" class="node"><title>\\Aura\\Http\\Exception\\UnknownAdapterType</title>
<a xlink:href="Exception.UnknownAdapterType.html" xlink:title="UnknownAdapterType" target="_parent">
<polygon fill="none" stroke="black" points="555.319,-1716 420.681,-1716 420.681,-1680 555.319,-1680 555.319,-1716"/>
<text text-anchor="middle" x="488" y="-1693.6" font-family="Courier,monospace" font-size="11.00">UnknownAdapterType</text>
</a>
</g>
<!-- \\Aura\\Http\\Exception\\UnknownAdapterType&#45;&gt;\\Aura\\Http\\Exception -->
<g id="edge40" class="edge"><title>\\Aura\\Http\\Exception\\UnknownAdapterType&#45;&gt;\\Aura\\Http\\Exception</title>
<path fill="none" stroke="black" d="M436.56,-1716.12C428.349,-1719.08 419.937,-1722.12 412,-1725 377.923,-1737.35 339.467,-1751.38 310.298,-1762.05"/>
<polygon fill="none" stroke="black" points="308.971,-1758.81 300.781,-1765.53 311.375,-1765.38 308.971,-1758.81"/>
</g>
<!-- \\Aura\\Http\\Exception\\UnknownAuthType -->
<g id="node22" class="node"><title>\\Aura\\Http\\Exception\\UnknownAuthType</title>
<a xlink:href="Exception.UnknownAuthType.html" xlink:title="UnknownAuthType" target="_parent">
<polygon fill="none" stroke="black" points="545.516,-1662 430.484,-1662 430.484,-1626 545.516,-1626 545.516,-1662"/>
<text text-anchor="middle" x="488" y="-1639.6" font-family="Courier,monospace" font-size="11.00">UnknownAuthType</text>
</a>
</g>
<!-- \\Aura\\Http\\Exception\\UnknownAuthType&#45;&gt;\\Aura\\Http\\Exception -->
<g id="edge42" class="edge"><title>\\Aura\\Http\\Exception\\UnknownAuthType&#45;&gt;\\Aura\\Http\\Exception</title>
<path fill="none" stroke="black" d="M431.338,-1662.01C424.697,-1664.75 418.112,-1667.76 412,-1671 367.506,-1694.62 321.423,-1730.35 292.745,-1754.16"/>
<polygon fill="none" stroke="black" points="290.192,-1751.74 284.779,-1760.84 294.69,-1757.1 290.192,-1751.74"/>
</g>
<!-- \\Aura\\Http\\Exception\\UnknownMessageType -->
<g id="node23" class="node"><title>\\Aura\\Http\\Exception\\UnknownMessageType</title>
<a xlink:href="Exception.UnknownMessageType.html" xlink:title="UnknownMessageType" target="_parent">
<polygon fill="none" stroke="black" points="555.319,-1608 420.681,-1608 420.681,-1572 555.319,-1572 555.319,-1608"/>
<text text-anchor="middle" x="488" y="-1585.6" font-family="Courier,monospace" font-size="11.00">UnknownMessageType</text>
</a>
</g>
<!-- \\Aura\\Http\\Exception\\UnknownMessageType&#45;&gt;\\Aura\\Http\\Exception -->
<g id="edge44" class="edge"><title>\\Aura\\Http\\Exception\\UnknownMessageType&#45;&gt;\\Aura\\Http\\Exception</title>
<path fill="none" stroke="black" d="M427.92,-1608.11C422.355,-1610.75 416.951,-1613.7 412,-1617 356.19,-1654.21 307.138,-1716.87 281.949,-1752.37"/>
<polygon fill="none" stroke="black" points="278.932,-1750.58 276.07,-1760.78 284.669,-1754.59 278.932,-1750.58"/>
</g>
<!-- \\Aura\\Http\\Exception\\UnknownMethod -->
<g id="node24" class="node"><title>\\Aura\\Http\\Exception\\UnknownMethod</title>
<a xlink:href="Exception.UnknownMethod.html" xlink:title="UnknownMethod" target="_parent">
<polygon fill="none" stroke="black" points="538.814,-1554 437.186,-1554 437.186,-1518 538.814,-1518 538.814,-1554"/>
<text text-anchor="middle" x="488" y="-1531.6" font-family="Courier,monospace" font-size="11.00">UnknownMethod</text>
</a>
</g>
<!-- \\Aura\\Http\\Exception\\UnknownMethod&#45;&gt;\\Aura\\Http\\Exception -->
<g id="edge46" class="edge"><title>\\Aura\\Http\\Exception\\UnknownMethod&#45;&gt;\\Aura\\Http\\Exception</title>
<path fill="none" stroke="black" d="M437.112,-1548.99C428.229,-1552.64 419.447,-1557.25 412,-1563 344.806,-1614.92 296.873,-1706.07 275.868,-1751.56"/>
<polygon fill="none" stroke="black" points="272.62,-1750.25 271.682,-1760.8 278.996,-1753.14 272.62,-1750.25"/>
</g>
<!-- \\Aura\\Http\\Exception\\UnknownStatus -->
<g id="node25" class="node"><title>\\Aura\\Http\\Exception\\UnknownStatus</title>
<a xlink:href="Exception.UnknownStatus.html" xlink:title="UnknownStatus" target="_parent">
<polygon fill="none" stroke="black" points="538.814,-1500 437.186,-1500 437.186,-1464 538.814,-1464 538.814,-1500"/>
<text text-anchor="middle" x="488" y="-1477.6" font-family="Courier,monospace" font-size="11.00">UnknownStatus</text>
</a>
</g>
<!-- \\Aura\\Http\\Exception\\UnknownStatus&#45;&gt;\\Aura\\Http\\Exception -->
<g id="edge48" class="edge"><title>\\Aura\\Http\\Exception\\UnknownStatus&#45;&gt;\\Aura\\Http\\Exception</title>
<path fill="none" stroke="black" d="M437.026,-1494.24C428.051,-1497.97 419.257,-1502.79 412,-1509 333.186,-1576.4 288.832,-1696.7 271.97,-1751.02"/>
<polygon fill="none" stroke="black" points="268.597,-1750.08 269.05,-1760.67 275.297,-1752.11 268.597,-1750.08"/>
</g>
<!-- \\Aura\\Http\\Exception\\UnknownVersion -->
<g id="node26" class="node"><title>\\Aura\\Http\\Exception\\UnknownVersion</title>
<a xlink:href="Exception.UnknownVersion.html" xlink:title="UnknownVersion" target="_parent">
<polygon fill="none" stroke="black" points="542.416,-1446 433.584,-1446 433.584,-1410 542.416,-1410 542.416,-1446"/>
<text text-anchor="middle" x="488" y="-1423.6" font-family="Courier,monospace" font-size="11.00">UnknownVersion</text>
</a>
</g>
<!-- \\Aura\\Http\\Exception\\UnknownVersion&#45;&gt;\\Aura\\Http\\Exception -->
<g id="edge50" class="edge"><title>\\Aura\\Http\\Exception\\UnknownVersion&#45;&gt;\\Aura\\Http\\Exception</title>
<path fill="none" stroke="black" d="M433.558,-1441.18C425.721,-1444.76 418.212,-1449.28 412,-1455 321.239,-1538.53 282.064,-1688.59 269.187,-1750.79"/>
<polygon fill="none" stroke="black" points="265.74,-1750.18 267.211,-1760.68 272.604,-1751.56 265.74,-1750.18"/>
</g>
<!-- \\Aura\\Http\\Header\\Collection -->
<g id="node28" class="node"><title>\\Aura\\Http\\Header\\Collection</title>
<a xlink:href="Header.Collection.html" xlink:title="Collection" target="_parent">
<polygon fill="none" stroke="black" points="529.011,-1122 446.989,-1122 446.989,-1086 529.011,-1086 529.011,-1122"/>
<text text-anchor="middle" x="488" y="-1099.6" font-family="Courier,monospace" font-size="11.00">Collection</text>
</a>
</g>
<!-- \\Aura\\Http\\Header\\Collection&#45;&gt;\\IteratorAggregate -->
<g id="edge68" class="edge"><title>\\Aura\\Http\\Header\\Collection&#45;&gt;\\IteratorAggregate</title>
<path fill="none" stroke="black" stroke-dasharray="1,5" d="M446.692,-1098.44C433.619,-1094.57 420.349,-1088.04 412,-1077 289.3,-914.794 464.176,-330.941 348,-164 342.436,-156.004 334.77,-149.663 326.316,-144.641"/>
<polygon fill="none" stroke="black" points="327.753,-141.442 317.276,-139.871 324.487,-147.633 327.753,-141.442"/>
</g>
<!-- \\Aura\\Http\\Header\\Collection&#45;&gt;\\Countable -->
<g id="edge70" class="edge"><title>\\Aura\\Http\\Header\\Collection&#45;&gt;\\Countable</title>
<path fill="none" stroke="black" stroke-dasharray="1,5" d="M446.664,-1098.46C433.588,-1094.59 420.323,-1088.06 412,-1077 281.009,-902.996 481.978,-270.715 348,-99 342.055,-91.3811 333.94,-85.8776 325.084,-81.9096"/>
<polygon fill="none" stroke="black" points="326.237,-78.6037 315.647,-78.306 323.74,-85.1432 326.237,-78.6037"/>
</g>
<!-- \\Aura\\Http\\Header\\Factory -->
<g id="node29" class="node"><title>\\Aura\\Http\\Header\\Factory</title>
<a xlink:href="Header.Factory.html" xlink:title="Factory" target="_parent">
<polygon fill="none" stroke="black" points="519.208,-1068 456.792,-1068 456.792,-1032 519.208,-1032 519.208,-1068"/>
<text text-anchor="middle" x="488" y="-1045.6" font-family="Courier,monospace" font-size="11.00">Factory</text>
</a>
</g>
<!-- \\Aura\\Http\\Manager\\Factory -->
<g id="node31" class="node"><title>\\Aura\\Http\\Manager\\Factory</title>
<a xlink:href="Manager.Factory.html" xlink:title="Factory" target="_parent">
<polygon fill="none" stroke="black" points="519.208,-987 456.792,-987 456.792,-951 519.208,-951 519.208,-987"/>
<text text-anchor="middle" x="488" y="-964.6" font-family="Courier,monospace" font-size="11.00">Factory</text>
</a>
</g>
<!-- \\Aura\\Http\\Message\\Response\\Stack -->
<g id="node34" class="node"><title>\\Aura\\Http\\Message\\Response\\Stack</title>
<a xlink:href="Message.Response.Stack.html" xlink:title="Stack" target="_parent">
<polygon fill="none" stroke="black" points="515,-725 461,-725 461,-689 515,-689 515,-725"/>
<text text-anchor="middle" x="488" y="-702.6" font-family="Courier,monospace" font-size="11.00">Stack</text>
</a>
</g>
<!-- \\SplStack -->
<g id="node82" class="node"><title>\\SplStack</title>
<ellipse fill="none" stroke="black" cx="263" cy="-18" rx="48.1128" ry="18"/>
<text text-anchor="middle" x="263" y="-12.4" font-family="Times,serif" font-size="14.00" fill="gray">\SplStack</text>
</g>
<!-- \\Aura\\Http\\Message\\Response\\Stack&#45;&gt;\\SplStack -->
<g id="edge56" class="edge"><title>\\Aura\\Http\\Message\\Response\\Stack&#45;&gt;\\SplStack</title>
<path fill="none" stroke="black" d="M460.645,-704.543C444.025,-701.528 423.582,-694.835 412,-680 237.451,-456.413 526.386,-265.538 348,-45 340.698,-35.9727 330.356,-29.9242 319.415,-25.8818"/>
<polygon fill="none" stroke="black" points="320.296,-22.4899 309.707,-22.8213 318.192,-29.166 320.296,-22.4899"/>
</g>
<!-- \\Aura\\Http\\Message\\Response\\StackBuilder -->
<g id="node35" class="node"><title>\\Aura\\Http\\Message\\Response\\StackBuilder</title>
<a xlink:href="Message.Response.StackBuilder.html" xlink:title="StackBuilder" target="_parent">
<polygon fill="none" stroke="black" points="535.713,-671 440.287,-671 440.287,-635 535.713,-635 535.713,-671"/>
<text text-anchor="middle" x="488" y="-648.6" font-family="Courier,monospace" font-size="11.00">StackBuilder</text>
</a>
</g>
<!-- \\Aura\\Http\\Message\\Factory -->
<g id="node36" class="node"><title>\\Aura\\Http\\Message\\Factory</title>
<a xlink:href="Message.Factory.html" xlink:title="Factory" target="_parent">
<polygon fill="none" stroke="black" points="519.208,-852 456.792,-852 456.792,-816 519.208,-816 519.208,-852"/>
<text text-anchor="middle" x="488" y="-829.6" font-family="Courier,monospace" font-size="11.00">Factory</text>
</a>
</g>
<!-- \\Aura\\Http\\Message\\Request -->
<g id="node37" class="node"><title>\\Aura\\Http\\Message\\Request</title>
<a xlink:href="Message.Request.html" xlink:title="Request" target="_parent">
<polygon fill="none" stroke="black" points="519.208,-906 456.792,-906 456.792,-870 519.208,-870 519.208,-906"/>
<text text-anchor="middle" x="488" y="-883.6" font-family="Courier,monospace" font-size="11.00">Request</text>
</a>
</g>
<!-- \\Aura\\Http\\Message -->
<g id="node51" class="node"><title>\\Aura\\Http\\Message</title>
<a xlink:href="Message.html" xlink:title="Message" target="_parent">
<polygon fill="none" stroke="black" points="294.208,-852 231.792,-852 231.792,-816 294.208,-816 294.208,-852"/>
<text text-anchor="middle" x="263" y="-829.6" font-family="Courier,monospace" font-size="11.00">Message</text>
</a>
</g>
<!-- \\Aura\\Http\\Message\\Request&#45;&gt;\\Aura\\Http\\Message -->
<g id="edge54" class="edge"><title>\\Aura\\Http\\Message\\Request&#45;&gt;\\Aura\\Http\\Message</title>
<path fill="none" stroke="black" d="M456.46,-880.605C416.842,-871.011 347.637,-854.253 303.901,-843.662"/>
<polygon fill="none" stroke="black" points="304.714,-840.258 294.171,-841.306 303.066,-847.061 304.714,-840.258"/>
</g>
<!-- \\Aura\\Http\\Message\\Response -->
<g id="node38" class="node"><title>\\Aura\\Http\\Message\\Response</title>
<a xlink:href="Message.Response.html" xlink:title="Response" target="_parent">
<polygon fill="none" stroke="black" points="522.309,-798 453.691,-798 453.691,-762 522.309,-762 522.309,-798"/>
<text text-anchor="middle" x="488" y="-775.6" font-family="Courier,monospace" font-size="11.00">Response</text>
</a>
</g>
<!-- \\Aura\\Http\\Message\\Response&#45;&gt;\\Aura\\Http\\Message -->
<g id="edge58" class="edge"><title>\\Aura\\Http\\Message\\Response&#45;&gt;\\Aura\\Http\\Message</title>
<path fill="none" stroke="black" d="M453.615,-788.084C413.682,-797.754 346.887,-813.929 304.169,-824.273"/>
<polygon fill="none" stroke="black" points="303.281,-820.887 294.386,-826.642 304.929,-827.69 303.281,-820.887"/>
</g>
<!-- \\Aura\\Http\\Multipart\\FormData -->
<g id="node41" class="node"><title>\\Aura\\Http\\Multipart\\FormData</title>
<a xlink:href="Multipart.FormData.html" xlink:title="FormData" target="_parent">
<polygon fill="none" stroke="black" points="522.309,-582 453.691,-582 453.691,-546 522.309,-546 522.309,-582"/>
<text text-anchor="middle" x="488" y="-559.6" font-family="Courier,monospace" font-size="11.00">FormData</text>
</a>
</g>
<!-- \\Aura\\Http\\Multipart\\Part -->
<g id="node42" class="node"><title>\\Aura\\Http\\Multipart\\Part</title>
<a xlink:href="Multipart.Part.html" xlink:title="Part" target="_parent">
<polygon fill="none" stroke="black" points="515,-528 461,-528 461,-492 515,-492 515,-528"/>
<text text-anchor="middle" x="488" y="-505.6" font-family="Courier,monospace" font-size="11.00">Part</text>
</a>
</g>
<!-- \\Aura\\Http\\Multipart\\PartFactory -->
<g id="node43" class="node"><title>\\Aura\\Http\\Multipart\\PartFactory</title>
<a xlink:href="Multipart.PartFactory.html" xlink:title="PartFactory" target="_parent">
<polygon fill="none" stroke="black" points="532.113,-474 443.887,-474 443.887,-438 532.113,-438 532.113,-474"/>
<text text-anchor="middle" x="488" y="-451.6" font-family="Courier,monospace" font-size="11.00">PartFactory</text>
</a>
</g>
<!-- \\Aura\\Http\\Transport\\Options -->
<g id="node45" class="node"><title>\\Aura\\Http\\Transport\\Options</title>
<a xlink:href="Transport.Options.html" xlink:title="Options" target="_parent">
<polygon fill="none" stroke="black" points="294.208,-266 231.792,-266 231.792,-230 294.208,-230 294.208,-266"/>
<text text-anchor="middle" x="263" y="-243.6" font-family="Courier,monospace" font-size="11.00">Options</text>
</a>
</g>
<!-- \\Aura\\Http\\Transport\\TransportInterface -->
<g id="node46" class="node"><title>\\Aura\\Http\\Transport\\TransportInterface</title>
<a xlink:href="Transport.TransportInterface.html" xlink:title="TransportInterface" target="_parent">
<polygon fill="none" stroke="black" points="330.319,-212 195.681,-212 195.681,-176 330.319,-176 330.319,-212"/>
<text text-anchor="middle" x="263" y="-189.6" font-family="Courier,monospace" font-size="11.00">TransportInterface</text>
</a>
</g>
<!-- \\Aura\\Http\\Cookie -->
<g id="node47" class="node"><title>\\Aura\\Http\\Cookie</title>
<a xlink:href="Cookie.html" xlink:title="Cookie" target="_parent">
<polygon fill="none" stroke="black" points="515.608,-420 460.392,-420 460.392,-384 515.608,-384 515.608,-420"/>
<text text-anchor="middle" x="488" y="-397.6" font-family="Courier,monospace" font-size="11.00">Cookie</text>
</a>
</g>
<!-- \\Exception -->
<g id="node79" class="node"><title>\\Exception</title>
<ellipse fill="none" stroke="black" cx="53" cy="-1779" rx="52.7417" ry="18"/>
<text text-anchor="middle" x="53" y="-1773.4" font-family="Times,serif" font-size="14.00" fill="gray">\Exception</text>
</g>
<!-- \\Aura\\Http\\Exception&#45;&gt;\\Exception -->
<g id="edge52" class="edge"><title>\\Aura\\Http\\Exception&#45;&gt;\\Exception</title>
<path fill="none" stroke="black" d="M225.293,-1779C195.146,-1779 151.781,-1779 116.227,-1779"/>
<polygon fill="none" stroke="black" points="115.946,-1775.5 105.946,-1779 115.946,-1782.5 115.946,-1775.5"/>
</g>
<!-- \\Aura\\Http\\Header -->
<g id="node49" class="node"><title>\\Aura\\Http\\Header</title>
<a xlink:href="Header.html" xlink:title="Header" target="_parent">
<polygon fill="none" stroke="black" points="515.608,-366 460.392,-366 460.392,-330 515.608,-330 515.608,-366"/>
<text text-anchor="middle" x="488" y="-343.6" font-family="Courier,monospace" font-size="11.00">Header</text>
</a>
</g>
<!-- \\Aura\\Http\\Manager -->
<g id="node50" class="node"><title>\\Aura\\Http\\Manager</title>
<a xlink:href="Manager.html" xlink:title="Manager" target="_parent">
<polygon fill="none" stroke="black" points="519.208,-312 456.792,-312 456.792,-276 519.208,-276 519.208,-312"/>
<text text-anchor="middle" x="488" y="-289.6" font-family="Courier,monospace" font-size="11.00">Manager</text>
</a>
</g>
<!-- \\Aura\\Http\\PhpFunc -->
<g id="node52" class="node"><title>\\Aura\\Http\\PhpFunc</title>
<a xlink:href="PhpFunc.html" xlink:title="PhpFunc" target="_parent">
<polygon fill="none" stroke="black" points="519.208,-258 456.792,-258 456.792,-222 519.208,-222 519.208,-258"/>
<text text-anchor="middle" x="488" y="-235.6" font-family="Courier,monospace" font-size="11.00">PhpFunc</text>
</a>
</g>
<!-- \\Aura\\Http\\Transport -->
<g id="node53" class="node"><title>\\Aura\\Http\\Transport</title>
<a xlink:href="Transport.html" xlink:title="Transport" target="_parent">
<polygon fill="none" stroke="black" points="525.911,-204 450.089,-204 450.089,-168 525.911,-168 525.911,-204"/>
<text text-anchor="middle" x="488" y="-181.6" font-family="Courier,monospace" font-size="11.00">Transport</text>
</a>
</g>
<!-- \\Aura\\Http\\Transport&#45;&gt;\\Aura\\Http\\Transport\\TransportInterface -->
<g id="edge72" class="edge"><title>\\Aura\\Http\\Transport&#45;&gt;\\Aura\\Http\\Transport\\TransportInterface</title>
<path fill="none" stroke="black" stroke-dasharray="1,5" d="M450.176,-187.321C420.55,-188.384 377.907,-189.914 340.905,-191.241"/>
<polygon fill="none" stroke="black" points="340.502,-187.753 330.634,-191.61 340.753,-194.749 340.502,-187.753"/>
</g>
</g>
</svg>
