<?xml version="1.0" encoding="UTF-8" standalone="no"?>
<!DOCTYPE svg PUBLIC "-//W3C//DTD SVG 1.1//EN"
 "http://www.w3.org/Graphics/SVG/1.1/DTD/svg11.dtd">
<!-- Generated by graphviz version 2.28.0 (20111028.1807)
 -->
<!-- Title: G Pages: 1 -->
<svg width="554pt" height="649pt"
 viewBox="0.00 0.00 554.00 649.00" xmlns="http://www.w3.org/2000/svg" xmlns:xlink="http://www.w3.org/1999/xlink">
<g id="graph1" class="graph" transform="scale(1 1) rotate(0) translate(4 645)">
<title>G</title>
<polygon fill="white" stroke="white" points="-4,5 -4,-645 551,-645 551,5 -4,5"/>
<g id="graph2" class="cluster"><title>cluster_Aura</title>
<polyline fill="none" stroke="gray" points="174,-8 526,-8 "/>
<path fill="none" stroke="gray" d="M526,-8C532,-8 538,-14 538,-20"/>
<polyline fill="none" stroke="gray" points="538,-20 538,-621 "/>
<path fill="none" stroke="gray" d="M538,-621C538,-627 532,-633 526,-633"/>
<polyline fill="none" stroke="gray" points="526,-633 174,-633 "/>
<path fill="none" stroke="gray" d="M174,-633C168,-633 162,-627 162,-621"/>
<polyline fill="none" stroke="gray" points="162,-621 162,-20 "/>
<path fill="none" stroke="gray" d="M162,-20C162,-14 168,-8 174,-8"/>
<text text-anchor="middle" x="350" y="-618" font-family="Times,serif" font-size="11.00" fill="gray">Aura</text>
</g>
<g id="graph3" class="cluster"><title>cluster_Aura\Di</title>
<polyline fill="none" stroke="gray" points="182,-16 518,-16 "/>
<path fill="none" stroke="gray" d="M518,-16C524,-16 530,-22 530,-28"/>
<polyline fill="none" stroke="gray" points="530,-28 530,-592 "/>
<path fill="none" stroke="gray" d="M530,-592C530,-598 524,-604 518,-604"/>
<polyline fill="none" stroke="gray" points="518,-604 182,-604 "/>
<path fill="none" stroke="gray" d="M182,-604C176,-604 170,-598 170,-592"/>
<polyline fill="none" stroke="gray" points="170,-592 170,-28 "/>
<path fill="none" stroke="gray" d="M170,-28C170,-22 176,-16 182,-16"/>
<text text-anchor="middle" x="350" y="-589" font-family="Times,serif" font-size="11.00" fill="gray">Di</text>
</g>
<g id="graph4" class="cluster"><title>cluster_Aura\Di\Exception</title>
<polyline fill="none" stroke="gray" points="390,-286 510,-286 "/>
<path fill="none" stroke="gray" d="M510,-286C516,-286 522,-292 522,-298"/>
<polyline fill="none" stroke="gray" points="522,-298 522,-563 "/>
<path fill="none" stroke="gray" d="M522,-563C522,-569 516,-575 510,-575"/>
<polyline fill="none" stroke="gray" points="510,-575 390,-575 "/>
<path fill="none" stroke="gray" d="M390,-575C384,-575 378,-569 378,-563"/>
<polyline fill="none" stroke="gray" points="378,-563 378,-298 "/>
<path fill="none" stroke="gray" d="M378,-298C378,-292 384,-286 390,-286"/>
<text text-anchor="middle" x="450" y="-560" font-family="Times,serif" font-size="11.00" fill="gray">Exception</text>
</g>
<!-- \\Aura\\Di\\Exception\\ContainerExists -->
<g id="node4" class="node"><title>\\Aura\\Di\\Exception\\ContainerExists</title>
<a xlink:href="Exception.ContainerExists.html" xlink:title="ContainerExists" target="_parent">
<polygon fill="none" stroke="black" points="507.516,-546 392.484,-546 392.484,-510 507.516,-510 507.516,-546"/>
<text text-anchor="middle" x="450" y="-523.6" font-family="Courier,monospace" font-size="11.00">ContainerExists</text>
</a>
</g>
<!-- \\Aura\\Di\\Exception -->
<g id="node13" class="node"><title>\\Aura\\Di\\Exception</title>
<a xlink:href="Exception.html" xlink:title="Exception" target="_parent">
<polygon fill="none" stroke="black" points="283.911,-438 208.089,-438 208.089,-402 283.911,-402 283.911,-438"/>
<text text-anchor="middle" x="246" y="-415.6" font-family="Courier,monospace" font-size="11.00">Exception</text>
</a>
</g>
<!-- \\Aura\\Di\\Exception\\ContainerExists&#45;&gt;\\Aura\\Di\\Exception -->
<g id="edge6" class="edge"><title>\\Aura\\Di\\Exception\\ContainerExists&#45;&gt;\\Aura\\Di\\Exception</title>
<path fill="none" stroke="black" d="M398.072,-509.986C391.236,-507.176 384.386,-504.152 378,-501 343.964,-484.197 307.395,-461.123 281.567,-443.899"/>
<polygon fill="none" stroke="black" points="283.491,-440.975 273.239,-438.3 279.585,-446.784 283.491,-440.975"/>
</g>
<!-- \\Aura\\Di\\Exception\\ContainerLocked -->
<g id="node5" class="node"><title>\\Aura\\Di\\Exception\\ContainerLocked</title>
<a xlink:href="Exception.ContainerLocked.html" xlink:title="ContainerLocked" target="_parent">
<polygon fill="none" stroke="black" points="507.516,-492 392.484,-492 392.484,-456 507.516,-456 507.516,-492"/>
<text text-anchor="middle" x="450" y="-469.6" font-family="Courier,monospace" font-size="11.00">ContainerLocked</text>
</a>
</g>
<!-- \\Aura\\Di\\Exception\\ContainerLocked&#45;&gt;\\Aura\\Di\\Exception -->
<g id="edge8" class="edge"><title>\\Aura\\Di\\Exception\\ContainerLocked&#45;&gt;\\Aura\\Di\\Exception</title>
<path fill="none" stroke="black" d="M392.463,-458.886C361.35,-450.569 323.204,-440.371 293.782,-432.506"/>
<polygon fill="none" stroke="black" points="294.329,-429.03 283.765,-429.828 292.521,-435.792 294.329,-429.03"/>
</g>
<!-- \\Aura\\Di\\Exception\\ContainerNotFound -->
<g id="node6" class="node"><title>\\Aura\\Di\\Exception\\ContainerNotFound</title>
<a xlink:href="Exception.ContainerNotFound.html" xlink:title="ContainerNotFound" target="_parent">
<polygon fill="none" stroke="black" points="514.218,-438 385.782,-438 385.782,-402 514.218,-402 514.218,-438"/>
<text text-anchor="middle" x="450" y="-415.6" font-family="Courier,monospace" font-size="11.00">ContainerNotFound</text>
</a>
</g>
<!-- \\Aura\\Di\\Exception\\ContainerNotFound&#45;&gt;\\Aura\\Di\\Exception -->
<g id="edge10" class="edge"><title>\\Aura\\Di\\Exception\\ContainerNotFound&#45;&gt;\\Aura\\Di\\Exception</title>
<path fill="none" stroke="black" d="M385.64,-420C355.99,-420 321.289,-420 294.022,-420"/>
<polygon fill="none" stroke="black" points="293.961,-416.5 283.961,-420 293.961,-423.5 293.961,-416.5"/>
</g>
<!-- \\Aura\\Di\\Exception\\ServiceInvalid -->
<g id="node7" class="node"><title>\\Aura\\Di\\Exception\\ServiceInvalid</title>
<a xlink:href="Exception.ServiceInvalid.html" xlink:title="ServiceInvalid" target="_parent">
<polygon fill="none" stroke="black" points="504.416,-384 395.584,-384 395.584,-348 504.416,-348 504.416,-384"/>
<text text-anchor="middle" x="450" y="-361.6" font-family="Courier,monospace" font-size="11.00">ServiceInvalid</text>
</a>
</g>
<!-- \\Aura\\Di\\Exception\\ServiceInvalid&#45;&gt;\\Aura\\Di\\Exception -->
<g id="edge12" class="edge"><title>\\Aura\\Di\\Exception\\ServiceInvalid&#45;&gt;\\Aura\\Di\\Exception</title>
<path fill="none" stroke="black" d="M395.663,-380.258C364.053,-388.709 324.361,-399.319 293.943,-407.451"/>
<polygon fill="none" stroke="black" points="292.765,-404.143 284.008,-410.107 294.573,-410.905 292.765,-404.143"/>
</g>
<!-- \\Aura\\Di\\Exception\\ServiceNotFound -->
<g id="node8" class="node"><title>\\Aura\\Di\\Exception\\ServiceNotFound</title>
<a xlink:href="Exception.ServiceNotFound.html" xlink:title="ServiceNotFound" target="_parent">
<polygon fill="none" stroke="black" points="507.516,-330 392.484,-330 392.484,-294 507.516,-294 507.516,-330"/>
<text text-anchor="middle" x="450" y="-307.6" font-family="Courier,monospace" font-size="11.00">ServiceNotFound</text>
</a>
</g>
<!-- \\Aura\\Di\\Exception\\ServiceNotFound&#45;&gt;\\Aura\\Di\\Exception -->
<g id="edge14" class="edge"><title>\\Aura\\Di\\Exception\\ServiceNotFound&#45;&gt;\\Aura\\Di\\Exception</title>
<path fill="none" stroke="black" d="M398.072,-330.014C391.236,-332.824 384.386,-335.848 378,-339 343.964,-355.803 307.395,-378.877 281.567,-396.101"/>
<polygon fill="none" stroke="black" points="279.585,-393.216 273.239,-401.7 283.491,-399.025 279.585,-393.216"/>
</g>
<!-- \\Aura\\Di\\Config -->
<g id="node9" class="node"><title>\\Aura\\Di\\Config</title>
<a xlink:href="Config.html" xlink:title="Config" target="_parent">
<polygon fill="none" stroke="black" points="477.608,-276 422.392,-276 422.392,-240 477.608,-240 477.608,-276"/>
<text text-anchor="middle" x="450" y="-253.6" font-family="Courier,monospace" font-size="11.00">Config</text>
</a>
</g>
<!-- \\Aura\\Di\\ConfigInterface -->
<g id="node10" class="node"><title>\\Aura\\Di\\ConfigInterface</title>
<a xlink:href="ConfigInterface.html" xlink:title="ConfigInterface" target="_parent">
<polygon fill="none" stroke="black" points="303.516,-276 188.484,-276 188.484,-240 303.516,-240 303.516,-276"/>
<text text-anchor="middle" x="246" y="-253.6" font-family="Courier,monospace" font-size="11.00">ConfigInterface</text>
</a>
</g>
<!-- \\Aura\\Di\\Config&#45;&gt;\\Aura\\Di\\ConfigInterface -->
<g id="edge18" class="edge"><title>\\Aura\\Di\\Config&#45;&gt;\\Aura\\Di\\ConfigInterface</title>
<path fill="none" stroke="black" stroke-dasharray="1,5" d="M422.176,-258C394.709,-258 350.929,-258 314.01,-258"/>
<polygon fill="none" stroke="black" points="313.797,-254.5 303.797,-258 313.797,-261.5 313.797,-254.5"/>
</g>
<!-- \\Aura\\Di\\Container -->
<g id="node11" class="node"><title>\\Aura\\Di\\Container</title>
<a xlink:href="Container.html" xlink:title="Container" target="_parent">
<polygon fill="none" stroke="black" points="487.911,-222 412.089,-222 412.089,-186 487.911,-186 487.911,-222"/>
<text text-anchor="middle" x="450" y="-199.6" font-family="Courier,monospace" font-size="11.00">Container</text>
</a>
</g>
<!-- \\Aura\\Di\\ContainerInterface -->
<g id="node12" class="node"><title>\\Aura\\Di\\ContainerInterface</title>
<a xlink:href="ContainerInterface.html" xlink:title="ContainerInterface" target="_parent">
<polygon fill="none" stroke="black" points="313.319,-222 178.681,-222 178.681,-186 313.319,-186 313.319,-222"/>
<text text-anchor="middle" x="246" y="-199.6" font-family="Courier,monospace" font-size="11.00">ContainerInterface</text>
</a>
</g>
<!-- \\Aura\\Di\\Container&#45;&gt;\\Aura\\Di\\ContainerInterface -->
<g id="edge20" class="edge"><title>\\Aura\\Di\\Container&#45;&gt;\\Aura\\Di\\ContainerInterface</title>
<path fill="none" stroke="black" stroke-dasharray="1,5" d="M411.95,-204C387.289,-204 353.986,-204 323.761,-204"/>
<polygon fill="none" stroke="black" points="323.645,-200.5 313.645,-204 323.645,-207.5 323.645,-200.5"/>
</g>
<!-- \\Exception -->
<g id="node25" class="node"><title>\\Exception</title>
<ellipse fill="none" stroke="black" cx="53" cy="-420" rx="52.7417" ry="18"/>
<text text-anchor="middle" x="53" y="-414.4" font-family="Times,serif" font-size="14.00" fill="gray">\Exception</text>
</g>
<!-- \\Aura\\Di\\Exception&#45;&gt;\\Exception -->
<g id="edge16" class="edge"><title>\\Aura\\Di\\Exception&#45;&gt;\\Exception</title>
<path fill="none" stroke="black" d="M208.173,-420C182.072,-420 146.423,-420 115.98,-420"/>
<polygon fill="none" stroke="black" points="115.876,-416.5 105.876,-420 115.876,-423.5 115.876,-416.5"/>
</g>
<!-- \\Aura\\Di\\Factory -->
<g id="node14" class="node"><title>\\Aura\\Di\\Factory</title>
<a xlink:href="Factory.html" xlink:title="Factory" target="_parent">
<polygon fill="none" stroke="black" points="481.208,-168 418.792,-168 418.792,-132 481.208,-132 481.208,-168"/>
<text text-anchor="middle" x="450" y="-145.6" font-family="Courier,monospace" font-size="11.00">Factory</text>
</a>
</g>
<!-- \\Aura\\Di\\Forge -->
<g id="node15" class="node"><title>\\Aura\\Di\\Forge</title>
<a xlink:href="Forge.html" xlink:title="Forge" target="_parent">
<polygon fill="none" stroke="black" points="477,-114 423,-114 423,-78 477,-78 477,-114"/>
<text text-anchor="middle" x="450" y="-91.6" font-family="Courier,monospace" font-size="11.00">Forge</text>
</a>
</g>
<!-- \\Aura\\Di\\ForgeInterface -->
<g id="node16" class="node"><title>\\Aura\\Di\\ForgeInterface</title>
<a xlink:href="ForgeInterface.html" xlink:title="ForgeInterface" target="_parent">
<polygon fill="none" stroke="black" points="300.416,-114 191.584,-114 191.584,-78 300.416,-78 300.416,-114"/>
<text text-anchor="middle" x="246" y="-91.6" font-family="Courier,monospace" font-size="11.00">ForgeInterface</text>
</a>
</g>
<!-- \\Aura\\Di\\Forge&#45;&gt;\\Aura\\Di\\ForgeInterface -->
<g id="edge22" class="edge"><title>\\Aura\\Di\\Forge&#45;&gt;\\Aura\\Di\\ForgeInterface</title>
<path fill="none" stroke="black" stroke-dasharray="1,5" d="M422.592,-96C394.342,-96 348.5,-96 310.74,-96"/>
<polygon fill="none" stroke="black" points="310.325,-92.5001 300.325,-96 310.325,-99.5001 310.325,-92.5001"/>
</g>
<!-- \\Aura\\Di\\Lazy -->
<g id="node17" class="node"><title>\\Aura\\Di\\Lazy</title>
<a xlink:href="Lazy.html" xlink:title="Lazy" target="_parent">
<polygon fill="none" stroke="black" points="477,-60 423,-60 423,-24 477,-24 477,-60"/>
<text text-anchor="middle" x="450" y="-37.6" font-family="Courier,monospace" font-size="11.00">Lazy</text>
</a>
</g>
</g>
</svg>
