<?xml version="1.0" encoding="UTF-8" standalone="no"?>
<!DOCTYPE svg PUBLIC "-//W3C//DTD SVG 1.1//EN"
 "http://www.w3.org/Graphics/SVG/1.1/DTD/svg11.dtd">
<!-- Generated by graphviz version 2.28.0 (20110509.1545)
 -->
<!-- Title: G Pages: 1 -->
<svg width="508pt" height="811pt"
 viewBox="0.00 0.00 508.00 811.00" xmlns="http://www.w3.org/2000/svg" xmlns:xlink="http://www.w3.org/1999/xlink">
<g id="graph1" class="graph" transform="scale(1 1) rotate(0) translate(4 807)">
<title>G</title>
<polygon fill="white" stroke="white" points="-4,5 -4,-807 505,-807 505,5 -4,5"/>
<g id="graph2" class="cluster"><title>cluster_Aura</title>
<polyline fill="none" stroke="gray" points="174,-8 480,-8 "/>
<path fill="none" stroke="gray" d="M480,-8C486,-8 492,-14 492,-20"/>
<polyline fill="none" stroke="gray" points="492,-20 492,-783 "/>
<path fill="none" stroke="gray" d="M492,-783C492,-789 486,-795 480,-795"/>
<polyline fill="none" stroke="gray" points="480,-795 174,-795 "/>
<path fill="none" stroke="gray" d="M174,-795C168,-795 162,-789 162,-783"/>
<polyline fill="none" stroke="gray" points="162,-783 162,-20 "/>
<path fill="none" stroke="gray" d="M162,-20C162,-14 168,-8 174,-8"/>
<text text-anchor="middle" x="327" y="-780" font-family="Times,serif" font-size="11.00" fill="gray">Aura</text>
</g>
<g id="graph3" class="cluster"><title>cluster_Aura\Cli</title>
<polyline fill="none" stroke="gray" points="182,-16 472,-16 "/>
<path fill="none" stroke="gray" d="M472,-16C478,-16 484,-22 484,-28"/>
<polyline fill="none" stroke="gray" points="484,-28 484,-754 "/>
<path fill="none" stroke="gray" d="M484,-754C484,-760 478,-766 472,-766"/>
<polyline fill="none" stroke="gray" points="472,-766 182,-766 "/>
<path fill="none" stroke="gray" d="M182,-766C176,-766 170,-760 170,-754"/>
<polyline fill="none" stroke="gray" points="170,-754 170,-28 "/>
<path fill="none" stroke="gray" d="M170,-28C170,-22 176,-16 182,-16"/>
<text text-anchor="middle" x="327" y="-751" font-family="Times,serif" font-size="11.00" fill="gray">Cli</text>
</g>
<g id="graph4" class="cluster"><title>cluster_Aura\Cli\Exception</title>
<polyline fill="none" stroke="gray" points="330,-394 464,-394 "/>
<path fill="none" stroke="gray" d="M464,-394C470,-394 476,-400 476,-406"/>
<polyline fill="none" stroke="gray" points="476,-406 476,-725 "/>
<path fill="none" stroke="gray" d="M476,-725C476,-731 470,-737 464,-737"/>
<polyline fill="none" stroke="gray" points="464,-737 330,-737 "/>
<path fill="none" stroke="gray" d="M330,-737C324,-737 318,-731 318,-725"/>
<polyline fill="none" stroke="gray" points="318,-725 318,-406 "/>
<path fill="none" stroke="gray" d="M318,-406C318,-400 324,-394 330,-394"/>
<text text-anchor="middle" x="397" y="-722" font-family="Times,serif" font-size="11.00" fill="gray">Exception</text>
</g>
<!-- \\Aura\\Cli\\Exception\\OptionName -->
<g id="node4" class="node"><title>\\Aura\\Cli\\Exception\\OptionName</title>
<a xlink:href="db_Aura_Cli_Exception_OptionName.html" xlink:title="OptionName" target="_parent">
<polygon fill="none" stroke="black" points="438.011,-708 355.989,-708 355.989,-672 438.011,-672 438.011,-708"/>
<text text-anchor="middle" x="397" y="-685.6" font-family="Courier,monospace" font-size="11.00">OptionName</text>
</a>
</g>
<!-- \\Aura\\Cli\\Exception -->
<g id="node12" class="node"><title>\\Aura\\Cli\\Exception</title>
<a xlink:href="db_Aura_Cli_Exception.html" xlink:title="Exception" target="_parent">
<polygon fill="none" stroke="black" points="253.911,-573 178.089,-573 178.089,-537 253.911,-537 253.911,-573"/>
<text text-anchor="middle" x="216" y="-550.6" font-family="Courier,monospace" font-size="11.00">Exception</text>
</a>
</g>
<!-- \\Aura\\Cli\\Exception\\OptionName&#45;&gt;\\Aura\\Cli\\Exception -->
<g id="edge6" class="edge"><title>\\Aura\\Cli\\Exception\\OptionName&#45;&gt;\\Aura\\Cli\\Exception</title>
<path fill="none" stroke="black" d="M355.799,-680.194C343.101,-676.046 329.416,-670.416 318,-663 284.299,-641.109 254.047,-605.606 235.628,-581.325"/>
<polygon fill="none" stroke="black" points="238.396,-579.181 229.62,-573.245 232.778,-583.358 238.396,-579.181"/>
</g>
<!-- \\Aura\\Cli\\Exception\\OptionNotDefined -->
<g id="node5" class="node"><title>\\Aura\\Cli\\Exception\\OptionNotDefined</title>
<a xlink:href="db_Aura_Cli_Exception_OptionNotDefined.html" xlink:title="OptionNotDefined" target="_parent">
<polygon fill="none" stroke="black" points="457.618,-654 336.382,-654 336.382,-618 457.618,-618 457.618,-654"/>
<text text-anchor="middle" x="397" y="-631.6" font-family="Courier,monospace" font-size="11.00">OptionNotDefined</text>
</a>
</g>
<!-- \\Aura\\Cli\\Exception\\OptionNotDefined&#45;&gt;\\Aura\\Cli\\Exception -->
<g id="edge8" class="edge"><title>\\Aura\\Cli\\Exception\\OptionNotDefined&#45;&gt;\\Aura\\Cli\\Exception</title>
<path fill="none" stroke="black" d="M340.191,-617.887C332.66,-615.093 325.09,-612.1 318,-609 297.271,-599.938 275.017,-588.265 256.689,-578.091"/>
<polygon fill="none" stroke="black" points="258.195,-574.923 247.761,-573.083 254.77,-581.028 258.195,-574.923"/>
</g>
<!-- \\Aura\\Cli\\Exception\\OptionNotMulti -->
<g id="node6" class="node"><title>\\Aura\\Cli\\Exception\\OptionNotMulti</title>
<a xlink:href="db_Aura_Cli_Exception_OptionNotMulti.html" xlink:title="OptionNotMulti" target="_parent">
<polygon fill="none" stroke="black" points="451.416,-600 342.584,-600 342.584,-564 451.416,-564 451.416,-600"/>
<text text-anchor="middle" x="397" y="-577.6" font-family="Courier,monospace" font-size="11.00">OptionNotMulti</text>
</a>
</g>
<!-- \\Aura\\Cli\\Exception\\OptionNotMulti&#45;&gt;\\Aura\\Cli\\Exception -->
<g id="edge10" class="edge"><title>\\Aura\\Cli\\Exception\\OptionNotMulti&#45;&gt;\\Aura\\Cli\\Exception</title>
<path fill="none" stroke="black" d="M342.779,-573.972C317.711,-570.191 288.072,-565.72 263.863,-562.069"/>
<polygon fill="none" stroke="black" points="264.26,-558.589 253.85,-560.558 263.216,-565.511 264.26,-558.589"/>
</g>
<!-- \\Aura\\Cli\\Exception\\OptionParam -->
<g id="node7" class="node"><title>\\Aura\\Cli\\Exception\\OptionParam</title>
<a xlink:href="db_Aura_Cli_Exception_OptionParam.html" xlink:title="OptionParam" target="_parent">
<polygon fill="none" stroke="black" points="441.113,-546 352.887,-546 352.887,-510 441.113,-510 441.113,-546"/>
<text text-anchor="middle" x="397" y="-523.6" font-family="Courier,monospace" font-size="11.00">OptionParam</text>
</a>
</g>
<!-- \\Aura\\Cli\\Exception\\OptionParam&#45;&gt;\\Aura\\Cli\\Exception -->
<g id="edge12" class="edge"><title>\\Aura\\Cli\\Exception\\OptionParam&#45;&gt;\\Aura\\Cli\\Exception</title>
<path fill="none" stroke="black" d="M352.669,-534.536C325.879,-538.577 291.489,-543.764 264.037,-547.905"/>
<polygon fill="none" stroke="black" points="263.252,-544.484 253.885,-549.436 264.296,-551.406 263.252,-544.484"/>
</g>
<!-- \\Aura\\Cli\\Exception\\OptionParamRejected -->
<g id="node8" class="node"><title>\\Aura\\Cli\\Exception\\OptionParamRejected</title>
<a xlink:href="db_Aura_Cli_Exception_OptionParamRejected.html" xlink:title="OptionParamRejected" target="_parent">
<polygon fill="none" stroke="black" points="467.921,-492 326.079,-492 326.079,-456 467.921,-456 467.921,-492"/>
<text text-anchor="middle" x="397" y="-469.6" font-family="Courier,monospace" font-size="11.00">OptionParamRejected</text>
</a>
</g>
<!-- \\Aura\\Cli\\Exception\\OptionParamRejected&#45;&gt;\\Aura\\Cli\\Exception -->
<g id="edge14" class="edge"><title>\\Aura\\Cli\\Exception\\OptionParamRejected&#45;&gt;\\Aura\\Cli\\Exception</title>
<path fill="none" stroke="black" d="M340.191,-492.113C332.66,-494.907 325.09,-497.9 318,-501 297.271,-510.062 275.017,-521.735 256.689,-531.909"/>
<polygon fill="none" stroke="black" points="254.77,-528.972 247.761,-536.917 258.195,-535.077 254.77,-528.972"/>
</g>
<!-- \\Aura\\Cli\\Exception\\OptionParamRequired -->
<g id="node9" class="node"><title>\\Aura\\Cli\\Exception\\OptionParamRequired</title>
<a xlink:href="db_Aura_Cli_Exception_OptionParamRequired.html" xlink:title="OptionParamRequired" target="_parent">
<polygon fill="none" stroke="black" points="467.921,-438 326.079,-438 326.079,-402 467.921,-402 467.921,-438"/>
<text text-anchor="middle" x="397" y="-415.6" font-family="Courier,monospace" font-size="11.00">OptionParamRequired</text>
</a>
</g>
<!-- \\Aura\\Cli\\Exception\\OptionParamRequired&#45;&gt;\\Aura\\Cli\\Exception -->
<g id="edge16" class="edge"><title>\\Aura\\Cli\\Exception\\OptionParamRequired&#45;&gt;\\Aura\\Cli\\Exception</title>
<path fill="none" stroke="black" d="M334.191,-438.185C328.538,-440.792 323.047,-443.722 318,-447 284.299,-468.891 254.047,-504.394 235.628,-528.675"/>
<polygon fill="none" stroke="black" points="232.778,-526.642 229.62,-536.755 238.396,-530.819 232.778,-526.642"/>
</g>
<!-- \\Aura\\Cli\\AbstractCommand -->
<g id="node10" class="node"><title>\\Aura\\Cli\\AbstractCommand</title>
<a xlink:href="db_Aura_Cli_AbstractCommand.html" xlink:title="«abstract»&lt;br/&gt;AbstractCommand" target="_parent">
<polygon fill="none" stroke="black" points="455,-384 339,-384 339,-348 455,-348 455,-384"/>
<text text-anchor="start" x="364" y="-367.5" font-family="Courier,monospace" font-size="11.00">«abstract»</text>
<text text-anchor="start" x="347.5" y="-356.5" font-family="Courier,monospace" font-size="11.00">AbstractCommand</text>
</a>
</g>
<!-- \\Aura\\Cli\\Context -->
<g id="node11" class="node"><title>\\Aura\\Cli\\Context</title>
<a xlink:href="db_Aura_Cli_Context.html" xlink:title="Context" target="_parent">
<polygon fill="none" stroke="black" points="428.208,-330 365.792,-330 365.792,-294 428.208,-294 428.208,-330"/>
<text text-anchor="middle" x="397" y="-307.6" font-family="Courier,monospace" font-size="11.00">Context</text>
</a>
</g>
<!-- \\Exception -->
<g id="node26" class="node"><title>\\Exception</title>
<ellipse fill="none" stroke="black" cx="53" cy="-555" rx="52.7417" ry="18"/>
<text text-anchor="middle" x="53" y="-549.4" font-family="Times,serif" font-size="14.00" fill="gray">\Exception</text>
</g>
<!-- \\Aura\\Cli\\Exception&#45;&gt;\\Exception -->
<g id="edge18" class="edge"><title>\\Aura\\Cli\\Exception&#45;&gt;\\Exception</title>
<path fill="none" stroke="black" d="M178.063,-555C159.713,-555 137.042,-555 116.12,-555"/>
<polygon fill="none" stroke="black" points="116.017,-551.5 106.017,-555 116.017,-558.5 116.017,-551.5"/>
</g>
<!-- \\Aura\\Cli\\Getopt -->
<g id="node13" class="node"><title>\\Aura\\Cli\\Getopt</title>
<a xlink:href="db_Aura_Cli_Getopt.html" xlink:title="Getopt" target="_parent">
<polygon fill="none" stroke="black" points="424.608,-276 369.392,-276 369.392,-240 424.608,-240 424.608,-276"/>
<text text-anchor="middle" x="397" y="-253.6" font-family="Courier,monospace" font-size="11.00">Getopt</text>
</a>
</g>
<!-- \\Aura\\Cli\\Option -->
<g id="node14" class="node"><title>\\Aura\\Cli\\Option</title>
<a xlink:href="db_Aura_Cli_Option.html" xlink:title="Option" target="_parent">
<polygon fill="none" stroke="black" points="424.608,-222 369.392,-222 369.392,-186 424.608,-186 424.608,-222"/>
<text text-anchor="middle" x="397" y="-199.6" font-family="Courier,monospace" font-size="11.00">Option</text>
</a>
</g>
<!-- \\Aura\\Cli\\OptionFactory -->
<g id="node15" class="node"><title>\\Aura\\Cli\\OptionFactory</title>
<a xlink:href="db_Aura_Cli_OptionFactory.html" xlink:title="OptionFactory" target="_parent">
<polygon fill="none" stroke="black" points="447.814,-168 346.186,-168 346.186,-132 447.814,-132 447.814,-168"/>
<text text-anchor="middle" x="397" y="-145.6" font-family="Courier,monospace" font-size="11.00">OptionFactory</text>
</a>
</g>
<!-- \\Aura\\Cli\\Stdio -->
<g id="node16" class="node"><title>\\Aura\\Cli\\Stdio</title>
<a xlink:href="db_Aura_Cli_Stdio.html" xlink:title="Stdio" target="_parent">
<polygon fill="none" stroke="black" points="424,-114 370,-114 370,-78 424,-78 424,-114"/>
<text text-anchor="middle" x="397" y="-91.6" font-family="Courier,monospace" font-size="11.00">Stdio</text>
</a>
</g>
<!-- \\Aura\\Cli\\Vt100 -->
<g id="node17" class="node"><title>\\Aura\\Cli\\Vt100</title>
<a xlink:href="db_Aura_Cli_Vt100.html" xlink:title="Vt100" target="_parent">
<polygon fill="none" stroke="black" points="424,-60 370,-60 370,-24 424,-24 424,-60"/>
<text text-anchor="middle" x="397" y="-37.6" font-family="Courier,monospace" font-size="11.00">Vt100</text>
</a>
</g>
</g>
</svg>
