<?xml version="1.0" encoding="UTF-8" standalone="no"?>
<!DOCTYPE svg PUBLIC "-//W3C//DTD SVG 1.1//EN"
 "http://www.w3.org/Graphics/SVG/1.1/DTD/svg11.dtd">
<!-- Generated by graphviz version 2.28.0 (20111028.1807)
 -->
<!-- Title: G Pages: 1 -->
<svg width="956pt" height="2244pt"
 viewBox="0.00 0.00 956.00 2244.00" xmlns="http://www.w3.org/2000/svg" xmlns:xlink="http://www.w3.org/1999/xlink">
<g id="graph1" class="graph" transform="scale(1 1) rotate(0) translate(4 2240)">
<title>G</title>
<polygon fill="white" stroke="white" points="-4,5 -4,-2240 953,-2240 953,5 -4,5"/>
<g id="graph2" class="cluster"><title>cluster_Aura</title>
<polyline fill="none" stroke="gray" points="464,-638 928,-638 "/>
<path fill="none" stroke="gray" d="M928,-638C934,-638 940,-644 940,-650"/>
<polyline fill="none" stroke="gray" points="940,-650 940,-2216 "/>
<path fill="none" stroke="gray" d="M940,-2216C940,-2222 934,-2228 928,-2228"/>
<polyline fill="none" stroke="gray" points="928,-2228 464,-2228 "/>
<path fill="none" stroke="gray" d="M464,-2228C458,-2228 452,-2222 452,-2216"/>
<polyline fill="none" stroke="gray" points="452,-2216 452,-650 "/>
<path fill="none" stroke="gray" d="M452,-650C452,-644 458,-638 464,-638"/>
<text text-anchor="middle" x="696" y="-2213" font-family="Times,serif" font-size="11.00" fill="gray">Aura</text>
</g>
<g id="graph3" class="cluster"><title>cluster_Aura\Framework</title>
<polyline fill="none" stroke="gray" points="472,-646 920,-646 "/>
<path fill="none" stroke="gray" d="M920,-646C926,-646 932,-652 932,-658"/>
<polyline fill="none" stroke="gray" points="932,-658 932,-2187 "/>
<path fill="none" stroke="gray" d="M932,-2187C932,-2193 926,-2199 920,-2199"/>
<polyline fill="none" stroke="gray" points="920,-2199 472,-2199 "/>
<path fill="none" stroke="gray" d="M472,-2199C466,-2199 460,-2193 460,-2187"/>
<polyline fill="none" stroke="gray" points="460,-2187 460,-658 "/>
<path fill="none" stroke="gray" d="M460,-658C460,-652 466,-646 472,-646"/>
<text text-anchor="middle" x="696" y="-2184" font-family="Times,serif" font-size="11.00" fill="gray">Framework</text>
</g>
<g id="graph4" class="cluster"><title>cluster_Aura\Framework\Autoload</title>
<polyline fill="none" stroke="gray" points="818,-2097 866,-2097 "/>
<path fill="none" stroke="gray" d="M866,-2097C872,-2097 878,-2103 878,-2109"/>
<polyline fill="none" stroke="gray" points="878,-2109 878,-2158 "/>
<path fill="none" stroke="gray" d="M878,-2158C878,-2164 872,-2170 866,-2170"/>
<polyline fill="none" stroke="gray" points="866,-2170 818,-2170 "/>
<path fill="none" stroke="gray" d="M818,-2170C812,-2170 806,-2164 806,-2158"/>
<polyline fill="none" stroke="gray" points="806,-2158 806,-2109 "/>
<path fill="none" stroke="gray" d="M806,-2109C806,-2103 812,-2097 818,-2097"/>
<text text-anchor="middle" x="842" y="-2155" font-family="Times,serif" font-size="11.00" fill="gray">Autoload</text>
</g>
<g id="graph5" class="cluster"><title>cluster_Aura\Framework\Bootstrap</title>
<polyline fill="none" stroke="gray" points="815,-1908 869,-1908 "/>
<path fill="none" stroke="gray" d="M869,-1908C875,-1908 881,-1914 881,-1920"/>
<polyline fill="none" stroke="gray" points="881,-1920 881,-2077 "/>
<path fill="none" stroke="gray" d="M881,-2077C881,-2083 875,-2089 869,-2089"/>
<polyline fill="none" stroke="gray" points="869,-2089 815,-2089 "/>
<path fill="none" stroke="gray" d="M815,-2089C809,-2089 803,-2083 803,-2077"/>
<polyline fill="none" stroke="gray" points="803,-2077 803,-1920 "/>
<path fill="none" stroke="gray" d="M803,-1920C803,-1914 809,-1908 815,-1908"/>
<text text-anchor="middle" x="842" y="-2074" font-family="Times,serif" font-size="11.00" fill="gray">Bootstrap</text>
</g>
<g id="graph6" class="cluster"><title>cluster_Aura\Framework\Cli</title>
<polyline fill="none" stroke="gray" points="480,-1582 881,-1582 "/>
<path fill="none" stroke="gray" d="M881,-1582C887,-1582 893,-1588 893,-1594"/>
<polyline fill="none" stroke="gray" points="893,-1594 893,-1888 "/>
<path fill="none" stroke="gray" d="M893,-1888C893,-1894 887,-1900 881,-1900"/>
<polyline fill="none" stroke="gray" points="881,-1900 480,-1900 "/>
<path fill="none" stroke="gray" d="M480,-1900C474,-1900 468,-1894 468,-1888"/>
<polyline fill="none" stroke="gray" points="468,-1888 468,-1594 "/>
<path fill="none" stroke="gray" d="M468,-1594C468,-1588 474,-1582 480,-1582"/>
<text text-anchor="middle" x="680.5" y="-1885" font-family="Times,serif" font-size="11.00" fill="gray">Cli</text>
</g>
<g id="graph7" class="cluster"><title>cluster_Aura\Framework\Cli\CacheClassmap</title>
<polyline fill="none" stroke="gray" points="811,-1636 873,-1636 "/>
<path fill="none" stroke="gray" d="M873,-1636C879,-1636 885,-1642 885,-1648"/>
<polyline fill="none" stroke="gray" points="885,-1648 885,-1697 "/>
<path fill="none" stroke="gray" d="M885,-1697C885,-1703 879,-1709 873,-1709"/>
<polyline fill="none" stroke="gray" points="873,-1709 811,-1709 "/>
<path fill="none" stroke="gray" d="M811,-1709C805,-1709 799,-1703 799,-1697"/>
<polyline fill="none" stroke="gray" points="799,-1697 799,-1648 "/>
<path fill="none" stroke="gray" d="M799,-1648C799,-1642 805,-1636 811,-1636"/>
<text text-anchor="middle" x="842" y="-1694" font-family="Times,serif" font-size="11.00" fill="gray">CacheClassmap</text>
</g>
<g id="graph8" class="cluster"><title>cluster_Aura\Framework\Cli\CacheConfig</title>
<polyline fill="none" stroke="gray" points="815,-1798 869,-1798 "/>
<path fill="none" stroke="gray" d="M869,-1798C875,-1798 881,-1804 881,-1810"/>
<polyline fill="none" stroke="gray" points="881,-1810 881,-1859 "/>
<path fill="none" stroke="gray" d="M881,-1859C881,-1865 875,-1871 869,-1871"/>
<polyline fill="none" stroke="gray" points="869,-1871 815,-1871 "/>
<path fill="none" stroke="gray" d="M815,-1871C809,-1871 803,-1865 803,-1859"/>
<polyline fill="none" stroke="gray" points="803,-1859 803,-1810 "/>
<path fill="none" stroke="gray" d="M803,-1810C803,-1804 809,-1798 815,-1798"/>
<text text-anchor="middle" x="842" y="-1856" font-family="Times,serif" font-size="11.00" fill="gray">CacheConfig</text>
</g>
<g id="graph9" class="cluster"><title>cluster_Aura\Framework\Cli\Server</title>
<polyline fill="none" stroke="gray" points="815,-1717 869,-1717 "/>
<path fill="none" stroke="gray" d="M869,-1717C875,-1717 881,-1723 881,-1729"/>
<polyline fill="none" stroke="gray" points="881,-1729 881,-1778 "/>
<path fill="none" stroke="gray" d="M881,-1778C881,-1784 875,-1790 869,-1790"/>
<polyline fill="none" stroke="gray" points="869,-1790 815,-1790 "/>
<path fill="none" stroke="gray" d="M815,-1790C809,-1790 803,-1784 803,-1778"/>
<polyline fill="none" stroke="gray" points="803,-1778 803,-1729 "/>
<path fill="none" stroke="gray" d="M803,-1729C803,-1723 809,-1717 815,-1717"/>
<text text-anchor="middle" x="842" y="-1775" font-family="Times,serif" font-size="11.00" fill="gray">Server</text>
</g>
<g id="graph13" class="cluster"><title>cluster_Aura\Framework\Exception</title>
<polyline fill="none" stroke="gray" points="772,-1221 912,-1221 "/>
<path fill="none" stroke="gray" d="M912,-1221C918,-1221 924,-1227 924,-1233"/>
<polyline fill="none" stroke="gray" points="924,-1233 924,-1282 "/>
<path fill="none" stroke="gray" d="M924,-1282C924,-1288 918,-1294 912,-1294"/>
<polyline fill="none" stroke="gray" points="912,-1294 772,-1294 "/>
<path fill="none" stroke="gray" d="M772,-1294C766,-1294 760,-1288 760,-1282"/>
<polyline fill="none" stroke="gray" points="760,-1282 760,-1233 "/>
<path fill="none" stroke="gray" d="M760,-1233C760,-1227 766,-1221 772,-1221"/>
<text text-anchor="middle" x="842" y="-1279" font-family="Times,serif" font-size="11.00" fill="gray">Exception</text>
</g>
<g id="graph14" class="cluster"><title>cluster_Aura\Framework\Input</title>
<polyline fill="none" stroke="gray" points="818,-1140 866,-1140 "/>
<path fill="none" stroke="gray" d="M866,-1140C872,-1140 878,-1146 878,-1152"/>
<polyline fill="none" stroke="gray" points="878,-1152 878,-1201 "/>
<path fill="none" stroke="gray" d="M878,-1201C878,-1207 872,-1213 866,-1213"/>
<polyline fill="none" stroke="gray" points="866,-1213 818,-1213 "/>
<path fill="none" stroke="gray" d="M818,-1213C812,-1213 806,-1207 806,-1201"/>
<polyline fill="none" stroke="gray" points="806,-1201 806,-1152 "/>
<path fill="none" stroke="gray" d="M806,-1152C806,-1146 812,-1140 818,-1140"/>
<text text-anchor="middle" x="842" y="-1198" font-family="Times,serif" font-size="11.00" fill="gray">Input</text>
</g>
<g id="graph15" class="cluster"><title>cluster_Aura\Framework\Intl</title>
<polyline fill="none" stroke="gray" points="782,-1005 902,-1005 "/>
<path fill="none" stroke="gray" d="M902,-1005C908,-1005 914,-1011 914,-1017"/>
<polyline fill="none" stroke="gray" points="914,-1017 914,-1120 "/>
<path fill="none" stroke="gray" d="M914,-1120C914,-1126 908,-1132 902,-1132"/>
<polyline fill="none" stroke="gray" points="902,-1132 782,-1132 "/>
<path fill="none" stroke="gray" d="M782,-1132C776,-1132 770,-1126 770,-1120"/>
<polyline fill="none" stroke="gray" points="770,-1120 770,-1017 "/>
<path fill="none" stroke="gray" d="M770,-1017C770,-1011 776,-1005 782,-1005"/>
<text text-anchor="middle" x="842" y="-1117" font-family="Times,serif" font-size="11.00" fill="gray">Intl</text>
</g>
<g id="graph16" class="cluster"><title>cluster_Aura\Framework\Signal</title>
<polyline fill="none" stroke="gray" points="815,-924 869,-924 "/>
<path fill="none" stroke="gray" d="M869,-924C875,-924 881,-930 881,-936"/>
<polyline fill="none" stroke="gray" points="881,-936 881,-985 "/>
<path fill="none" stroke="gray" d="M881,-985C881,-991 875,-997 869,-997"/>
<polyline fill="none" stroke="gray" points="869,-997 815,-997 "/>
<path fill="none" stroke="gray" d="M815,-997C809,-997 803,-991 803,-985"/>
<polyline fill="none" stroke="gray" points="803,-985 803,-936 "/>
<path fill="none" stroke="gray" d="M803,-936C803,-930 809,-924 815,-924"/>
<text text-anchor="middle" x="842" y="-982" font-family="Times,serif" font-size="11.00" fill="gray">Signal</text>
</g>
<g id="graph17" class="cluster"><title>cluster_Aura\Framework\View</title>
<polyline fill="none" stroke="gray" points="800,-752 884,-752 "/>
<path fill="none" stroke="gray" d="M884,-752C890,-752 896,-758 896,-764"/>
<polyline fill="none" stroke="gray" points="896,-764 896,-904 "/>
<path fill="none" stroke="gray" d="M896,-904C896,-910 890,-916 884,-916"/>
<polyline fill="none" stroke="gray" points="884,-916 800,-916 "/>
<path fill="none" stroke="gray" d="M800,-916C794,-916 788,-910 788,-904"/>
<polyline fill="none" stroke="gray" points="788,-904 788,-764 "/>
<path fill="none" stroke="gray" d="M788,-764C788,-758 794,-752 800,-752"/>
<text text-anchor="middle" x="842" y="-901" font-family="Times,serif" font-size="11.00" fill="gray">View</text>
</g>
<g id="graph18" class="cluster"><title>cluster_Aura\Framework\View\Helper</title>
<polyline fill="none" stroke="gray" points="808,-760 876,-760 "/>
<path fill="none" stroke="gray" d="M876,-760C882,-760 888,-766 888,-772"/>
<polyline fill="none" stroke="gray" points="888,-772 888,-875 "/>
<path fill="none" stroke="gray" d="M888,-875C888,-881 882,-887 876,-887"/>
<polyline fill="none" stroke="gray" points="876,-887 808,-887 "/>
<path fill="none" stroke="gray" d="M808,-887C802,-887 796,-881 796,-875"/>
<polyline fill="none" stroke="gray" points="796,-875 796,-772 "/>
<path fill="none" stroke="gray" d="M796,-772C796,-766 802,-760 808,-760"/>
<text text-anchor="middle" x="842" y="-872" font-family="Times,serif" font-size="11.00" fill="gray">Helper</text>
</g>
<g id="graph20" class="cluster"><title>cluster_Aura\Framework\Web</title>
<polyline fill="none" stroke="gray" points="482,-1302 904,-1302 "/>
<path fill="none" stroke="gray" d="M904,-1302C910,-1302 916,-1308 916,-1314"/>
<polyline fill="none" stroke="gray" points="916,-1314 916,-1562 "/>
<path fill="none" stroke="gray" d="M916,-1562C916,-1568 910,-1574 904,-1574"/>
<polyline fill="none" stroke="gray" points="904,-1574 482,-1574 "/>
<path fill="none" stroke="gray" d="M482,-1574C476,-1574 470,-1568 470,-1562"/>
<polyline fill="none" stroke="gray" points="470,-1562 470,-1314 "/>
<path fill="none" stroke="gray" d="M470,-1314C470,-1308 476,-1302 482,-1302"/>
<text text-anchor="middle" x="693" y="-1559" font-family="Times,serif" font-size="11.00" fill="gray">Web</text>
</g>
<g id="graph21" class="cluster"><title>cluster_Aura\Framework\Web\Asset</title>
<polyline fill="none" stroke="gray" points="819,-1472 865,-1472 "/>
<path fill="none" stroke="gray" d="M865,-1472C871,-1472 877,-1478 877,-1484"/>
<polyline fill="none" stroke="gray" points="877,-1484 877,-1533 "/>
<path fill="none" stroke="gray" d="M877,-1533C877,-1539 871,-1545 865,-1545"/>
<polyline fill="none" stroke="gray" points="865,-1545 819,-1545 "/>
<path fill="none" stroke="gray" d="M819,-1545C813,-1545 807,-1539 807,-1533"/>
<polyline fill="none" stroke="gray" points="807,-1533 807,-1484 "/>
<path fill="none" stroke="gray" d="M807,-1484C807,-1478 813,-1472 819,-1472"/>
<text text-anchor="middle" x="842" y="-1530" font-family="Times,serif" font-size="11.00" fill="gray">Asset</text>
</g>
<g id="graph22" class="cluster"><title>cluster_Aura\Framework\Web\Controller</title>
<polyline fill="none" stroke="gray" points="490,-1337 578,-1337 "/>
<path fill="none" stroke="gray" d="M578,-1337C584,-1337 590,-1343 590,-1349"/>
<polyline fill="none" stroke="gray" points="590,-1349 590,-1506 "/>
<path fill="none" stroke="gray" d="M590,-1506C590,-1512 584,-1518 578,-1518"/>
<polyline fill="none" stroke="gray" points="578,-1518 490,-1518 "/>
<path fill="none" stroke="gray" d="M490,-1518C484,-1518 478,-1512 478,-1506"/>
<polyline fill="none" stroke="gray" points="478,-1506 478,-1349 "/>
<path fill="none" stroke="gray" d="M478,-1349C478,-1343 484,-1337 490,-1337"/>
<text text-anchor="middle" x="534" y="-1503" font-family="Times,serif" font-size="11.00" fill="gray">Controller</text>
</g>
<g id="graph23" class="cluster"><title>cluster_Aura\Framework\Web\NotFound</title>
<polyline fill="none" stroke="gray" points="819,-1391 865,-1391 "/>
<path fill="none" stroke="gray" d="M865,-1391C871,-1391 877,-1397 877,-1403"/>
<polyline fill="none" stroke="gray" points="877,-1403 877,-1452 "/>
<path fill="none" stroke="gray" d="M877,-1452C877,-1458 871,-1464 865,-1464"/>
<polyline fill="none" stroke="gray" points="865,-1464 819,-1464 "/>
<path fill="none" stroke="gray" d="M819,-1464C813,-1464 807,-1458 807,-1452"/>
<polyline fill="none" stroke="gray" points="807,-1452 807,-1403 "/>
<path fill="none" stroke="gray" d="M807,-1403C807,-1397 813,-1391 819,-1391"/>
<text text-anchor="middle" x="842" y="-1449" font-family="Times,serif" font-size="11.00" fill="gray">NotFound</text>
</g>
<g id="graph24" class="cluster"><title>cluster_Aura\Framework\Web\Renderer</title>
<polyline fill="none" stroke="gray" points="788,-1310 896,-1310 "/>
<path fill="none" stroke="gray" d="M896,-1310C902,-1310 908,-1316 908,-1322"/>
<polyline fill="none" stroke="gray" points="908,-1322 908,-1371 "/>
<path fill="none" stroke="gray" d="M908,-1371C908,-1377 902,-1383 896,-1383"/>
<polyline fill="none" stroke="gray" points="896,-1383 788,-1383 "/>
<path fill="none" stroke="gray" d="M788,-1383C782,-1383 776,-1377 776,-1371"/>
<polyline fill="none" stroke="gray" points="776,-1371 776,-1322 "/>
<path fill="none" stroke="gray" d="M776,-1322C776,-1316 782,-1310 788,-1310"/>
<text text-anchor="middle" x="842" y="-1368" font-family="Times,serif" font-size="11.00" fill="gray">Renderer</text>
</g>
<!-- \\Aura\\Framework\\Autoload\\Loader -->
<g id="node4" class="node"><title>\\Aura\\Framework\\Autoload\\Loader</title>
<a xlink:href="Autoload.Loader.html" xlink:title="Loader" target="_parent">
<polygon fill="none" stroke="black" points="869.608,-2141 814.392,-2141 814.392,-2105 869.608,-2105 869.608,-2141"/>
<text text-anchor="middle" x="842" y="-2118.6" font-family="Courier,monospace" font-size="11.00">Loader</text>
</a>
</g>
<!-- \\Aura\\Autoload\\Loader -->
<g id="node79" class="node"><title>\\Aura\\Autoload\\Loader</title>
<ellipse fill="none" stroke="black" cx="534" cy="-612" rx="101.848" ry="18"/>
<text text-anchor="middle" x="534" y="-606.4" font-family="Times,serif" font-size="14.00" fill="gray">\Aura\Autoload\Loader</text>
</g>
<!-- \\Aura\\Framework\\Autoload\\Loader&#45;&gt;\\Aura\\Autoload\\Loader -->
<g id="edge54" class="edge"><title>\\Aura\\Framework\\Autoload\\Loader&#45;&gt;\\Aura\\Autoload\\Loader</title>
<path fill="none" stroke="black" d="M814.191,-2120.62C795.765,-2117.45 772.459,-2110.08 760,-2093 664.913,-1962.61 801.843,-763.822 696,-642 682.839,-626.852 664.698,-617.776 645.323,-612.576"/>
<polygon fill="none" stroke="black" points="645.95,-609.128 635.416,-610.261 644.357,-615.945 645.95,-609.128"/>
</g>
<!-- \\Aura\\Framework\\Bootstrap\\Cli -->
<g id="node6" class="node"><title>\\Aura\\Framework\\Bootstrap\\Cli</title>
<a xlink:href="Bootstrap.Cli.html" xlink:title="Cli" target="_parent">
<polygon fill="none" stroke="black" points="869,-2060 815,-2060 815,-2024 869,-2024 869,-2060"/>
<text text-anchor="middle" x="842" y="-2037.6" font-family="Courier,monospace" font-size="11.00">Cli</text>
</a>
</g>
<!-- \\Aura\\Framework\\Bootstrap\\Factory -->
<g id="node7" class="node"><title>\\Aura\\Framework\\Bootstrap\\Factory</title>
<a xlink:href="Bootstrap.Factory.html" xlink:title="Factory" target="_parent">
<polygon fill="none" stroke="black" points="873.208,-2006 810.792,-2006 810.792,-1970 873.208,-1970 873.208,-2006"/>
<text text-anchor="middle" x="842" y="-1983.6" font-family="Courier,monospace" font-size="11.00">Factory</text>
</a>
</g>
<!-- \\Aura\\Framework\\Bootstrap\\Web -->
<g id="node8" class="node"><title>\\Aura\\Framework\\Bootstrap\\Web</title>
<a xlink:href="Bootstrap.Web.html" xlink:title="Web" target="_parent">
<polygon fill="none" stroke="black" points="869,-1952 815,-1952 815,-1916 869,-1916 869,-1952"/>
<text text-anchor="middle" x="842" y="-1929.6" font-family="Courier,monospace" font-size="11.00">Web</text>
</a>
</g>
<!-- \\Aura\\Framework\\Cli\\CacheClassmap\\Command -->
<g id="node11" class="node"><title>\\Aura\\Framework\\Cli\\CacheClassmap\\Command</title>
<a xlink:href="Cli.CacheClassmap.Command.html" xlink:title="Command" target="_parent">
<polygon fill="none" stroke="black" points="873.208,-1680 810.792,-1680 810.792,-1644 873.208,-1644 873.208,-1680"/>
<text text-anchor="middle" x="842" y="-1657.6" font-family="Courier,monospace" font-size="11.00">Command</text>
</a>
</g>
<!-- \\Aura\\Framework\\Cli\\AbstractCommand -->
<g id="node16" class="node"><title>\\Aura\\Framework\\Cli\\AbstractCommand</title>
<a xlink:href="Cli.AbstractCommand.html" xlink:title="AbstractCommand" target="_parent">
<polygon fill="none" stroke="black" points="591.516,-1761 476.484,-1761 476.484,-1725 591.516,-1725 591.516,-1761"/>
<text text-anchor="middle" x="534" y="-1738.6" font-family="Courier,monospace" font-size="11.00">AbstractCommand</text>
</a>
</g>
<!-- \\Aura\\Framework\\Cli\\CacheClassmap\\Command&#45;&gt;\\Aura\\Framework\\Cli\\AbstractCommand -->
<g id="edge58" class="edge"><title>\\Aura\\Framework\\Cli\\CacheClassmap\\Command&#45;&gt;\\Aura\\Framework\\Cli\\AbstractCommand</title>
<path fill="none" stroke="black" d="M810.822,-1669.99C762.419,-1682.8 666.281,-1708.25 601.296,-1725.45"/>
<polygon fill="none" stroke="black" points="600.316,-1722.09 591.545,-1728.03 602.108,-1728.86 600.316,-1722.09"/>
</g>
<!-- \\Aura\\Framework\\Cli\\CacheConfig\\Command -->
<g id="node13" class="node"><title>\\Aura\\Framework\\Cli\\CacheConfig\\Command</title>
<a xlink:href="Cli.CacheConfig.Command.html" xlink:title="Command" target="_parent">
<polygon fill="none" stroke="black" points="873.208,-1842 810.792,-1842 810.792,-1806 873.208,-1806 873.208,-1842"/>
<text text-anchor="middle" x="842" y="-1819.6" font-family="Courier,monospace" font-size="11.00">Command</text>
</a>
</g>
<!-- \\Aura\\Framework\\Cli\\CacheConfig\\Command&#45;&gt;\\Aura\\Framework\\Cli\\AbstractCommand -->
<g id="edge60" class="edge"><title>\\Aura\\Framework\\Cli\\CacheConfig\\Command&#45;&gt;\\Aura\\Framework\\Cli\\AbstractCommand</title>
<path fill="none" stroke="black" d="M810.822,-1816.01C762.419,-1803.2 666.281,-1777.75 601.296,-1760.55"/>
<polygon fill="none" stroke="black" points="602.108,-1757.14 591.545,-1757.97 600.316,-1763.91 602.108,-1757.14"/>
</g>
<!-- \\Aura\\Framework\\Cli\\Server\\Command -->
<g id="node15" class="node"><title>\\Aura\\Framework\\Cli\\Server\\Command</title>
<a xlink:href="Cli.Server.Command.html" xlink:title="Command" target="_parent">
<polygon fill="none" stroke="black" points="873.208,-1761 810.792,-1761 810.792,-1725 873.208,-1725 873.208,-1761"/>
<text text-anchor="middle" x="842" y="-1738.6" font-family="Courier,monospace" font-size="11.00">Command</text>
</a>
</g>
<!-- \\Aura\\Framework\\Cli\\Server\\Command&#45;&gt;\\Aura\\Framework\\Cli\\AbstractCommand -->
<g id="edge62" class="edge"><title>\\Aura\\Framework\\Cli\\Server\\Command&#45;&gt;\\Aura\\Framework\\Cli\\AbstractCommand</title>
<path fill="none" stroke="black" d="M810.822,-1743C762.518,-1743 666.676,-1743 601.697,-1743"/>
<polygon fill="none" stroke="black" points="601.545,-1739.5 591.545,-1743 601.545,-1746.5 601.545,-1739.5"/>
</g>
<!-- \\Aura\\Cli\\AbstractCommand -->
<g id="node81" class="node"><title>\\Aura\\Cli\\AbstractCommand</title>
<ellipse fill="none" stroke="black" cx="150" cy="-1743" rx="123.295" ry="18"/>
<text text-anchor="middle" x="150" y="-1737.4" font-family="Times,serif" font-size="14.00" fill="gray">\Aura\Cli\AbstractCommand</text>
</g>
<!-- \\Aura\\Framework\\Cli\\AbstractCommand&#45;&gt;\\Aura\\Cli\\AbstractCommand -->
<g id="edge56" class="edge"><title>\\Aura\\Framework\\Cli\\AbstractCommand&#45;&gt;\\Aura\\Cli\\AbstractCommand</title>
<path fill="none" stroke="black" d="M476.223,-1743C425.516,-1743 349.287,-1743 283.373,-1743"/>
<polygon fill="none" stroke="black" points="283.308,-1739.5 273.308,-1743 283.308,-1746.5 283.308,-1739.5"/>
</g>
<!-- \\Aura\\Framework\\Cli\\Factory -->
<g id="node17" class="node"><title>\\Aura\\Framework\\Cli\\Factory</title>
<a xlink:href="Cli.Factory.html" xlink:title="Factory" target="_parent">
<polygon fill="none" stroke="black" points="873.208,-1626 810.792,-1626 810.792,-1590 873.208,-1590 873.208,-1626"/>
<text text-anchor="middle" x="842" y="-1603.6" font-family="Courier,monospace" font-size="11.00">Factory</text>
</a>
</g>
<!-- \\Aura\\Framework\\Exception\\NoClassForController -->
<g id="node22" class="node"><title>\\Aura\\Framework\\Exception\\NoClassForController</title>
<a xlink:href="Exception.NoClassForController.html" xlink:title="NoClassForController" target="_parent">
<polygon fill="none" stroke="black" points="916.021,-1265 767.979,-1265 767.979,-1229 916.021,-1229 916.021,-1265"/>
<text text-anchor="middle" x="842" y="-1242.6" font-family="Courier,monospace" font-size="11.00">NoClassForController</text>
</a>
</g>
<!-- \\Aura\\Framework\\Exception -->
<g id="node50" class="node"><title>\\Aura\\Framework\\Exception</title>
<a xlink:href="Exception.html" xlink:title="Exception" target="_parent">
<polygon fill="none" stroke="black" points="571.911,-1265 496.089,-1265 496.089,-1229 571.911,-1229 571.911,-1265"/>
<text text-anchor="middle" x="534" y="-1242.6" font-family="Courier,monospace" font-size="11.00">Exception</text>
</a>
</g>
<!-- \\Aura\\Framework\\Exception\\NoClassForController&#45;&gt;\\Aura\\Framework\\Exception -->
<g id="edge64" class="edge"><title>\\Aura\\Framework\\Exception\\NoClassForController&#45;&gt;\\Aura\\Framework\\Exception</title>
<path fill="none" stroke="black" d="M767.705,-1247C710.096,-1247 631.569,-1247 582.078,-1247"/>
<polygon fill="none" stroke="black" points="581.976,-1243.5 571.976,-1247 581.976,-1250.5 581.976,-1243.5"/>
</g>
<!-- \\Aura\\Framework\\Input\\Filter -->
<g id="node24" class="node"><title>\\Aura\\Framework\\Input\\Filter</title>
<a xlink:href="Input.Filter.html" xlink:title="Filter" target="_parent">
<polygon fill="none" stroke="black" points="869.608,-1184 814.392,-1184 814.392,-1148 869.608,-1148 869.608,-1184"/>
<text text-anchor="middle" x="842" y="-1161.6" font-family="Courier,monospace" font-size="11.00">Filter</text>
</a>
</g>
<!-- \\Aura\\Filter\\RuleCollection -->
<g id="node89" class="node"><title>\\Aura\\Filter\\RuleCollection</title>
<ellipse fill="none" stroke="black" cx="534" cy="-504" rx="117.564" ry="18"/>
<text text-anchor="middle" x="534" y="-498.4" font-family="Times,serif" font-size="14.00" fill="gray">\Aura\Filter\RuleCollection</text>
</g>
<!-- \\Aura\\Framework\\Input\\Filter&#45;&gt;\\Aura\\Filter\\RuleCollection -->
<g id="edge68" class="edge"><title>\\Aura\\Framework\\Input\\Filter&#45;&gt;\\Aura\\Filter\\RuleCollection</title>
<path fill="none" stroke="black" d="M814.115,-1163.31C795.901,-1159.99 772.884,-1152.58 760,-1136 677.031,-1029.26 788.649,-629.457 696,-531 686.388,-520.786 674.476,-513.511 661.512,-508.422"/>
<polygon fill="none" stroke="black" points="662.499,-505.06 651.904,-505.092 660.206,-511.674 662.499,-505.06"/>
</g>
<!-- \\Aura\\Input\\FilterInterface -->
<g id="node106" class="node"><title>\\Aura\\Input\\FilterInterface</title>
<ellipse fill="none" stroke="black" cx="534" cy="-450" rx="122.098" ry="18"/>
<text text-anchor="middle" x="534" y="-444.4" font-family="Times,serif" font-size="14.00" fill="gray">\\Aura\\Input\\FilterInterface</text>
</g>
<!-- \\Aura\\Framework\\Input\\Filter&#45;&gt;\\Aura\\Input\\FilterInterface -->
<g id="edge88" class="edge"><title>\\Aura\\Framework\\Input\\Filter&#45;&gt;\\Aura\\Input\\FilterInterface</title>
<path fill="none" stroke="black" stroke-dasharray="1,5" d="M814.071,-1163.35C795.837,-1160.04 772.813,-1152.63 760,-1136 670.203,-1019.45 796.37,-584.583 696,-477 687.304,-467.679 676.694,-460.8 665.112,-455.793"/>
<polygon fill="none" stroke="black" points="666.222,-452.47 655.632,-452.167 663.722,-459.009 666.222,-452.47"/>
</g>
<!-- \\Aura\\Framework\\Intl\\Translator -->
<g id="node26" class="node"><title>\\Aura\\Framework\\Intl\\Translator</title>
<a xlink:href="Intl.Translator.html" xlink:title="Translator" target="_parent">
<polygon fill="none" stroke="black" points="883.011,-1103 800.989,-1103 800.989,-1067 883.011,-1067 883.011,-1103"/>
<text text-anchor="middle" x="842" y="-1080.6" font-family="Courier,monospace" font-size="11.00">Translator</text>
</a>
</g>
<!-- \\Aura\\Intl\\Translator -->
<g id="node91" class="node"><title>\\Aura\\Intl\\Translator</title>
<ellipse fill="none" stroke="black" cx="534" cy="-288" rx="91.2993" ry="18"/>
<text text-anchor="middle" x="534" y="-282.4" font-family="Times,serif" font-size="14.00" fill="gray">\Aura\Intl\Translator</text>
</g>
<!-- \\Aura\\Framework\\Intl\\Translator&#45;&gt;\\Aura\\Intl\\Translator -->
<g id="edge70" class="edge"><title>\\Aura\\Framework\\Intl\\Translator&#45;&gt;\\Aura\\Intl\\Translator</title>
<path fill="none" stroke="black" d="M800.601,-1080.87C785.579,-1077.22 769.818,-1070.46 760,-1058 657.416,-927.845 808.39,-436.789 696,-315 679.36,-296.969 655.562,-288.045 631.351,-284.131"/>
<polygon fill="none" stroke="black" points="631.714,-280.648 621.338,-282.788 630.784,-287.586 631.714,-280.648"/>
</g>
<!-- \\Aura\\Cli\\TranslatorInterface -->
<g id="node108" class="node"><title>\\Aura\\Cli\\TranslatorInterface</title>
<ellipse fill="none" stroke="black" cx="534" cy="-396" rx="131.798" ry="18"/>
<text text-anchor="middle" x="534" y="-390.4" font-family="Times,serif" font-size="14.00" fill="gray">\\Aura\\Cli\\TranslatorInterface</text>
</g>
<!-- \\Aura\\Framework\\Intl\\Translator&#45;&gt;\\Aura\\Cli\\TranslatorInterface -->
<g id="edge90" class="edge"><title>\\Aura\\Framework\\Intl\\Translator&#45;&gt;\\Aura\\Cli\\TranslatorInterface</title>
<path fill="none" stroke="black" stroke-dasharray="1,5" d="M800.692,-1080.79C785.684,-1077.13 769.908,-1070.39 760,-1058 671.401,-947.253 792.938,-526.526 696,-423 688.881,-415.397 680.488,-409.421 671.334,-404.76"/>
<polygon fill="none" stroke="black" points="672.499,-401.447 661.944,-400.527 669.622,-407.828 672.499,-401.447"/>
</g>
<!-- \\Aura\\Filter\\TranslatorInterface -->
<g id="node110" class="node"><title>\\Aura\\Filter\\TranslatorInterface</title>
<ellipse fill="none" stroke="black" cx="534" cy="-342" rx="141.028" ry="18"/>
<text text-anchor="middle" x="534" y="-336.4" font-family="Times,serif" font-size="14.00" fill="gray">\\Aura\\Filter\\TranslatorInterface</text>
</g>
<!-- \\Aura\\Framework\\Intl\\Translator&#45;&gt;\\Aura\\Filter\\TranslatorInterface -->
<g id="edge92" class="edge"><title>\\Aura\\Framework\\Intl\\Translator&#45;&gt;\\Aura\\Filter\\TranslatorInterface</title>
<path fill="none" stroke="black" stroke-dasharray="1,5" d="M800.643,-1080.83C785.628,-1077.18 769.86,-1070.42 760,-1058 664.41,-937.551 800.662,-481.655 696,-369 689.969,-362.508 683.009,-357.199 675.438,-352.881"/>
<polygon fill="none" stroke="black" points="676.792,-349.644 666.288,-348.256 673.634,-355.891 676.792,-349.644"/>
</g>
<!-- \\Aura\\Framework\\Intl\\TranslatorFactory -->
<g id="node27" class="node"><title>\\Aura\\Framework\\Intl\\TranslatorFactory</title>
<a xlink:href="Intl.TranslatorFactory.html" xlink:title="TranslatorFactory" target="_parent">
<polygon fill="none" stroke="black" points="906.218,-1049 777.782,-1049 777.782,-1013 906.218,-1013 906.218,-1049"/>
<text text-anchor="middle" x="842" y="-1026.6" font-family="Courier,monospace" font-size="11.00">TranslatorFactory</text>
</a>
</g>
<!-- \\Aura\\Intl\\TranslatorFactory -->
<g id="node93" class="node"><title>\\Aura\\Intl\\TranslatorFactory</title>
<ellipse fill="none" stroke="black" cx="534" cy="-234" rx="120.797" ry="18"/>
<text text-anchor="middle" x="534" y="-228.4" font-family="Times,serif" font-size="14.00" fill="gray">\Aura\Intl\TranslatorFactory</text>
</g>
<!-- \\Aura\\Framework\\Intl\\TranslatorFactory&#45;&gt;\\Aura\\Intl\\TranslatorFactory -->
<g id="edge72" class="edge"><title>\\Aura\\Framework\\Intl\\TranslatorFactory&#45;&gt;\\Aura\\Intl\\TranslatorFactory</title>
<path fill="none" stroke="black" d="M777.673,-1016.03C770.875,-1012.12 764.727,-1007.2 760,-1001 659.954,-869.718 807.96,-382.281 696,-261 687.038,-251.292 676.001,-244.224 663.943,-239.157"/>
<polygon fill="none" stroke="black" points="665.132,-235.866 654.54,-235.662 662.693,-242.427 665.132,-235.866"/>
</g>
<!-- \\Aura\\Framework\\Signal\\Manager -->
<g id="node29" class="node"><title>\\Aura\\Framework\\Signal\\Manager</title>
<a xlink:href="Signal.Manager.html" xlink:title="Manager" target="_parent">
<polygon fill="none" stroke="black" points="873.208,-968 810.792,-968 810.792,-932 873.208,-932 873.208,-968"/>
<text text-anchor="middle" x="842" y="-945.6" font-family="Courier,monospace" font-size="11.00">Manager</text>
</a>
</g>
<!-- \\Aura\\Signal\\Manager -->
<g id="node95" class="node"><title>\\Aura\\Signal\\Manager</title>
<ellipse fill="none" stroke="black" cx="534" cy="-72" rx="97.2759" ry="18"/>
<text text-anchor="middle" x="534" y="-66.4" font-family="Times,serif" font-size="14.00" fill="gray">\Aura\Signal\Manager</text>
</g>
<!-- \\Aura\\Framework\\Signal\\Manager&#45;&gt;\\Aura\\Signal\\Manager -->
<g id="edge74" class="edge"><title>\\Aura\\Framework\\Signal\\Manager&#45;&gt;\\Aura\\Signal\\Manager</title>
<path fill="none" stroke="black" d="M810.708,-936.206C792.736,-926.32 771.315,-911.183 760,-891 673.654,-736.978 815.405,-229.08 696,-99 681.042,-82.7046 660.24,-73.8356 638.548,-69.3795"/>
<polygon fill="none" stroke="black" points="638.989,-65.9037 628.536,-67.6318 637.785,-72.7994 638.989,-65.9037"/>
</g>
<!-- \\Aura\\Cli\\SignalInterface -->
<g id="node112" class="node"><title>\\Aura\\Cli\\SignalInterface</title>
<ellipse fill="none" stroke="black" cx="534" cy="-180" rx="117.46" ry="18"/>
<text text-anchor="middle" x="534" y="-174.4" font-family="Times,serif" font-size="14.00" fill="gray">\\Aura\\Cli\\SignalInterface</text>
</g>
<!-- \\Aura\\Framework\\Signal\\Manager&#45;&gt;\\Aura\\Cli\\SignalInterface -->
<g id="edge94" class="edge"><title>\\Aura\\Framework\\Signal\\Manager&#45;&gt;\\Aura\\Cli\\SignalInterface</title>
<path fill="none" stroke="black" stroke-dasharray="1,5" d="M810.796,-936.156C792.858,-926.251 771.443,-911.111 760,-891 684.505,-758.31 799.946,-318.81 696,-207 686.295,-196.561 674.189,-189.181 661,-184.062"/>
<polygon fill="none" stroke="black" points="661.819,-180.643 651.225,-180.722 659.556,-187.267 661.819,-180.643"/>
</g>
<!-- \\Aura\\Web\\SignalInterface -->
<g id="node114" class="node"><title>\\Aura\\Web\\SignalInterface</title>
<ellipse fill="none" stroke="black" cx="534" cy="-126" rx="122.767" ry="18"/>
<text text-anchor="middle" x="534" y="-120.4" font-family="Times,serif" font-size="14.00" fill="gray">\\Aura\\Web\\SignalInterface</text>
</g>
<!-- \\Aura\\Framework\\Signal\\Manager&#45;&gt;\\Aura\\Web\\SignalInterface -->
<g id="edge96" class="edge"><title>\\Aura\\Framework\\Signal\\Manager&#45;&gt;\\Aura\\Web\\SignalInterface</title>
<path fill="none" stroke="black" stroke-dasharray="1,5" d="M810.749,-936.183C792.793,-926.288 771.374,-911.15 760,-891 679.081,-747.646 807.674,-273.943 696,-153 687.428,-143.717 676.959,-136.848 665.514,-131.834"/>
<polygon fill="none" stroke="black" points="666.732,-128.553 656.143,-128.201 664.201,-135.079 666.732,-128.553"/>
</g>
<!-- \\Aura\\Framework\\View\\Helper\\AssetHref -->
<g id="node32" class="node"><title>\\Aura\\Framework\\View\\Helper\\AssetHref</title>
<a xlink:href="View.Helper.AssetHref.html" xlink:title="AssetHref" target="_parent">
<polygon fill="none" stroke="black" points="879.911,-858 804.089,-858 804.089,-822 879.911,-822 879.911,-858"/>
<text text-anchor="middle" x="842" y="-835.6" font-family="Courier,monospace" font-size="11.00">AssetHref</text>
</a>
</g>
<!-- \\Aura\\View\\Helper\\AbstractHelper -->
<g id="node97" class="node"><title>\\Aura\\View\\Helper\\AbstractHelper</title>
<ellipse fill="none" stroke="black" cx="534" cy="-18" rx="146.854" ry="18"/>
<text text-anchor="middle" x="534" y="-12.4" font-family="Times,serif" font-size="14.00" fill="gray">\Aura\View\Helper\AbstractHelper</text>
</g>
<!-- \\Aura\\Framework\\View\\Helper\\AssetHref&#45;&gt;\\Aura\\View\\Helper\\AbstractHelper -->
<g id="edge76" class="edge"><title>\\Aura\\Framework\\View\\Helper\\AssetHref&#45;&gt;\\Aura\\View\\Helper\\AbstractHelper</title>
<path fill="none" stroke="black" d="M803.938,-836.648C787.949,-833.213 770.533,-826.403 760,-813 654.176,-678.35 811.969,-171.019 696,-45 690.535,-39.0612 684.293,-34.1096 677.516,-29.9989"/>
<polygon fill="none" stroke="black" points="679.127,-26.8911 668.663,-25.2309 675.807,-33.0542 679.127,-26.8911"/>
</g>
<!-- \\Aura\\Framework\\View\\Helper\\Route -->
<g id="node33" class="node"><title>\\Aura\\Framework\\View\\Helper\\Route</title>
<a xlink:href="View.Helper.Route.html" xlink:title="Route" target="_parent">
<polygon fill="none" stroke="black" points="869,-804 815,-804 815,-768 869,-768 869,-804"/>
<text text-anchor="middle" x="842" y="-781.6" font-family="Courier,monospace" font-size="11.00">Route</text>
</a>
</g>
<!-- \\Aura\\Framework\\View\\Helper\\Route&#45;&gt;\\Aura\\View\\Helper\\AbstractHelper -->
<g id="edge78" class="edge"><title>\\Aura\\Framework\\View\\Helper\\Route&#45;&gt;\\Aura\\View\\Helper\\AbstractHelper</title>
<path fill="none" stroke="black" d="M814.635,-786.206C796.424,-784.826 773.192,-779.752 760,-764 657.007,-641.022 804.955,-162.729 696,-45 690.518,-39.0767 684.264,-34.137 677.476,-30.0355"/>
<polygon fill="none" stroke="black" points="679.078,-26.9231 668.612,-25.2776 675.768,-33.0908 679.078,-26.9231"/>
</g>
<!-- \\Aura\\Framework\\Web\\Asset\\Page -->
<g id="node37" class="node"><title>\\Aura\\Framework\\Web\\Asset\\Page</title>
<a xlink:href="Web.Asset.Page.html" xlink:title="Page" target="_parent">
<polygon fill="none" stroke="black" points="869,-1516 815,-1516 815,-1480 869,-1480 869,-1516"/>
<text text-anchor="middle" x="842" y="-1493.6" font-family="Courier,monospace" font-size="11.00">Page</text>
</a>
</g>
<!-- \\Aura\\Framework\\Web\\Controller\\AbstractPage -->
<g id="node39" class="node"><title>\\Aura\\Framework\\Web\\Controller\\AbstractPage</title>
<a xlink:href="Web.Controller.AbstractPage.html" xlink:title="AbstractPage" target="_parent">
<polygon fill="none" stroke="black" points="581.713,-1489 486.287,-1489 486.287,-1453 581.713,-1453 581.713,-1489"/>
<text text-anchor="middle" x="534" y="-1466.6" font-family="Courier,monospace" font-size="11.00">AbstractPage</text>
</a>
</g>
<!-- \\Aura\\Framework\\Web\\Asset\\Page&#45;&gt;\\Aura\\Framework\\Web\\Controller\\AbstractPage -->
<g id="edge80" class="edge"><title>\\Aura\\Framework\\Web\\Asset\\Page&#45;&gt;\\Aura\\Framework\\Web\\Controller\\AbstractPage</title>
<path fill="none" stroke="black" d="M814.911,-1495.7C765.796,-1491.36 658.573,-1481.9 592.012,-1476.03"/>
<polygon fill="none" stroke="black" points="591.962,-1472.51 581.693,-1475.12 591.347,-1479.49 591.962,-1472.51"/>
</g>
<!-- \\Aura\\Web\\Controller\\AbstractPage -->
<g id="node101" class="node"><title>\\Aura\\Web\\Controller\\AbstractPage</title>
<ellipse fill="none" stroke="black" cx="150" cy="-1471" rx="149.928" ry="18"/>
<text text-anchor="middle" x="150" y="-1465.4" font-family="Times,serif" font-size="14.00" fill="gray">\Aura\Web\Controller\AbstractPage</text>
</g>
<!-- \\Aura\\Framework\\Web\\Controller\\AbstractPage&#45;&gt;\\Aura\\Web\\Controller\\AbstractPage -->
<g id="edge82" class="edge"><title>\\Aura\\Framework\\Web\\Controller\\AbstractPage&#45;&gt;\\Aura\\Web\\Controller\\AbstractPage</title>
<path fill="none" stroke="black" d="M486.159,-1471C442.096,-1471 373.561,-1471 309.919,-1471"/>
<polygon fill="none" stroke="black" points="309.751,-1467.5 299.751,-1471 309.751,-1474.5 309.751,-1467.5"/>
</g>
<!-- \\Aura\\Framework\\Web\\Controller\\Factory -->
<g id="node40" class="node"><title>\\Aura\\Framework\\Web\\Controller\\Factory</title>
<a xlink:href="Web.Controller.Factory.html" xlink:title="Factory" target="_parent">
<polygon fill="none" stroke="black" points="565.208,-1435 502.792,-1435 502.792,-1399 565.208,-1399 565.208,-1435"/>
<text text-anchor="middle" x="534" y="-1412.6" font-family="Courier,monospace" font-size="11.00">Factory</text>
</a>
</g>
<!-- \\Aura\\Framework\\Web\\Controller\\Front -->
<g id="node41" class="node"><title>\\Aura\\Framework\\Web\\Controller\\Front</title>
<a xlink:href="Web.Controller.Front.html" xlink:title="Front" target="_parent">
<polygon fill="none" stroke="black" points="561,-1381 507,-1381 507,-1345 561,-1345 561,-1381"/>
<text text-anchor="middle" x="534" y="-1358.6" font-family="Courier,monospace" font-size="11.00">Front</text>
</a>
</g>
<!-- \\Aura\\Framework\\Web\\NotFound\\Page -->
<g id="node43" class="node"><title>\\Aura\\Framework\\Web\\NotFound\\Page</title>
<a xlink:href="Web.NotFound.Page.html" xlink:title="Page" target="_parent">
<polygon fill="none" stroke="black" points="869,-1435 815,-1435 815,-1399 869,-1399 869,-1435"/>
<text text-anchor="middle" x="842" y="-1412.6" font-family="Courier,monospace" font-size="11.00">Page</text>
</a>
</g>
<!-- \\Aura\\Framework\\Web\\NotFound\\Page&#45;&gt;\\Aura\\Framework\\Web\\Controller\\AbstractPage -->
<g id="edge84" class="edge"><title>\\Aura\\Framework\\Web\\NotFound\\Page&#45;&gt;\\Aura\\Framework\\Web\\Controller\\AbstractPage</title>
<path fill="none" stroke="black" d="M814.831,-1422.02C785.814,-1427.55 737.604,-1436.64 696,-1444 661.524,-1450.1 622.83,-1456.6 592.018,-1461.69"/>
<polygon fill="none" stroke="black" points="591.185,-1458.28 581.888,-1463.36 592.324,-1465.19 591.185,-1458.28"/>
</g>
<!-- \\Aura\\Framework\\Web\\Renderer\\AuraViewTwoStep -->
<g id="node45" class="node"><title>\\Aura\\Framework\\Web\\Renderer\\AuraViewTwoStep</title>
<a xlink:href="Web.Renderer.AuraViewTwoStep.html" xlink:title="AuraViewTwoStep" target="_parent">
<polygon fill="none" stroke="black" points="899.516,-1354 784.484,-1354 784.484,-1318 899.516,-1318 899.516,-1354"/>
<text text-anchor="middle" x="842" y="-1331.6" font-family="Courier,monospace" font-size="11.00">AuraViewTwoStep</text>
</a>
</g>
<!-- \\Aura\\Web\\Renderer\\AbstractRenderer -->
<g id="node104" class="node"><title>\\Aura\\Web\\Renderer\\AbstractRenderer</title>
<ellipse fill="none" stroke="black" cx="534" cy="-558" rx="162.051" ry="18"/>
<text text-anchor="middle" x="534" y="-552.4" font-family="Times,serif" font-size="14.00" fill="gray">\Aura\Web\Renderer\AbstractRenderer</text>
</g>
<!-- \\Aura\\Framework\\Web\\Renderer\\AuraViewTwoStep&#45;&gt;\\Aura\\Web\\Renderer\\AbstractRenderer -->
<g id="edge86" class="edge"><title>\\Aura\\Framework\\Web\\Renderer\\AuraViewTwoStep&#45;&gt;\\Aura\\Web\\Renderer\\AbstractRenderer</title>
<path fill="none" stroke="black" d="M784.321,-1318.85C774.865,-1313.59 766.147,-1306.78 760,-1298 668.759,-1167.69 804.096,-701.714 696,-585 691.577,-580.224 686.651,-576.088 681.349,-572.515"/>
<polygon fill="none" stroke="black" points="683.103,-569.485 672.725,-567.353 679.508,-575.492 683.103,-569.485"/>
</g>
<!-- \\Exception -->
<g id="node87" class="node"><title>\\Exception</title>
<ellipse fill="none" stroke="black" cx="150" cy="-1247" rx="52.7417" ry="18"/>
<text text-anchor="middle" x="150" y="-1241.4" font-family="Times,serif" font-size="14.00" fill="gray">\Exception</text>
</g>
<!-- \\Aura\\Framework\\Exception&#45;&gt;\\Exception -->
<g id="edge66" class="edge"><title>\\Aura\\Framework\\Exception&#45;&gt;\\Exception</title>
<path fill="none" stroke="black" d="M496.025,-1247C430.619,-1247 293.859,-1247 213.554,-1247"/>
<polygon fill="none" stroke="black" points="213.091,-1243.5 203.091,-1247 213.091,-1250.5 213.091,-1243.5"/>
</g>
<!-- \\Aura\\Framework\\Inflect -->
<g id="node51" class="node"><title>\\Aura\\Framework\\Inflect</title>
<a xlink:href="Inflect.html" xlink:title="Inflect" target="_parent">
<polygon fill="none" stroke="black" points="873.208,-744 810.792,-744 810.792,-708 873.208,-708 873.208,-744"/>
<text text-anchor="middle" x="842" y="-721.6" font-family="Courier,monospace" font-size="11.00">Inflect</text>
</a>
</g>
<!-- \\Aura\\Framework\\System -->
<g id="node52" class="node"><title>\\Aura\\Framework\\System</title>
<a xlink:href="System.html" xlink:title="System" target="_parent">
<polygon fill="none" stroke="black" points="869.608,-690 814.392,-690 814.392,-654 869.608,-654 869.608,-690"/>
<text text-anchor="middle" x="842" y="-667.6" font-family="Courier,monospace" font-size="11.00">System</text>
</a>
</g>
</g>
</svg>
