<?xml version="1.0" encoding="UTF-8" standalone="no"?>
<!DOCTYPE svg PUBLIC "-//W3C//DTD SVG 1.1//EN"
 "http://www.w3.org/Graphics/SVG/1.1/DTD/svg11.dtd">
<!-- Generated by graphviz version 2.28.0 (20110509.1545)
 -->
<!-- Title: G Pages: 1 -->
<svg width="494pt" height="379pt"
 viewBox="0.00 0.00 494.00 379.00" xmlns="http://www.w3.org/2000/svg" xmlns:xlink="http://www.w3.org/1999/xlink">
<g id="graph1" class="graph" transform="scale(1 1) rotate(0) translate(4 375)">
<title>G</title>
<polygon fill="white" stroke="white" points="-4,5 -4,-375 491,-375 491,5 -4,5"/>
<g id="graph2" class="cluster"><title>cluster_Aura</title>
<polyline fill="none" stroke="gray" points="174,-8 466,-8 "/>
<path fill="none" stroke="gray" d="M466,-8C472,-8 478,-14 478,-20"/>
<polyline fill="none" stroke="gray" points="478,-20 478,-351 "/>
<path fill="none" stroke="gray" d="M478,-351C478,-357 472,-363 466,-363"/>
<polyline fill="none" stroke="gray" points="466,-363 174,-363 "/>
<path fill="none" stroke="gray" d="M174,-363C168,-363 162,-357 162,-351"/>
<polyline fill="none" stroke="gray" points="162,-351 162,-20 "/>
<path fill="none" stroke="gray" d="M162,-20C162,-14 168,-8 174,-8"/>
<text text-anchor="middle" x="320" y="-348" font-family="Times,serif" font-size="11.00" fill="gray">Aura</text>
</g>
<g id="graph3" class="cluster"><title>cluster_Aura\Web</title>
<polyline fill="none" stroke="gray" points="182,-16 458,-16 "/>
<path fill="none" stroke="gray" d="M458,-16C464,-16 470,-22 470,-28"/>
<polyline fill="none" stroke="gray" points="470,-28 470,-322 "/>
<path fill="none" stroke="gray" d="M470,-322C470,-328 464,-334 458,-334"/>
<polyline fill="none" stroke="gray" points="458,-334 182,-334 "/>
<path fill="none" stroke="gray" d="M182,-334C176,-334 170,-328 170,-322"/>
<polyline fill="none" stroke="gray" points="170,-322 170,-28 "/>
<path fill="none" stroke="gray" d="M170,-28C170,-22 176,-16 182,-16"/>
<text text-anchor="middle" x="320" y="-319" font-family="Times,serif" font-size="11.00" fill="gray">Web</text>
</g>
<g id="graph4" class="cluster"><title>cluster_Aura\Web\Exception</title>
<polyline fill="none" stroke="gray" points="330,-178 450,-178 "/>
<path fill="none" stroke="gray" d="M450,-178C456,-178 462,-184 462,-190"/>
<polyline fill="none" stroke="gray" points="462,-190 462,-293 "/>
<path fill="none" stroke="gray" d="M462,-293C462,-299 456,-305 450,-305"/>
<polyline fill="none" stroke="gray" points="450,-305 330,-305 "/>
<path fill="none" stroke="gray" d="M330,-305C324,-305 318,-299 318,-293"/>
<polyline fill="none" stroke="gray" points="318,-293 318,-190 "/>
<path fill="none" stroke="gray" d="M318,-190C318,-184 324,-178 330,-178"/>
<text text-anchor="middle" x="390" y="-290" font-family="Times,serif" font-size="11.00" fill="gray">Exception</text>
</g>
<!-- \\Aura\\Web\\Exception\\Context -->
<g id="node4" class="node"><title>\\Aura\\Web\\Exception\\Context</title>
<a xlink:href="db_Aura_Web_Exception_Context.html" xlink:title="Context" target="_parent">
<polygon fill="none" stroke="black" points="421.208,-276 358.792,-276 358.792,-240 421.208,-240 421.208,-276"/>
<text text-anchor="middle" x="390" y="-253.6" font-family="Courier,monospace" font-size="11.00">Context</text>
</a>
</g>
<!-- \\Aura\\Web\\Exception -->
<g id="node8" class="node"><title>\\Aura\\Web\\Exception</title>
<a xlink:href="db_Aura_Web_Exception.html" xlink:title="Exception" target="_parent">
<polygon fill="none" stroke="black" points="253.911,-249 178.089,-249 178.089,-213 253.911,-213 253.911,-249"/>
<text text-anchor="middle" x="216" y="-226.6" font-family="Courier,monospace" font-size="11.00">Exception</text>
</a>
</g>
<!-- \\Aura\\Web\\Exception\\Context&#45;&gt;\\Aura\\Web\\Exception -->
<g id="edge6" class="edge"><title>\\Aura\\Web\\Exception\\Context&#45;&gt;\\Aura\\Web\\Exception</title>
<path fill="none" stroke="black" d="M358.646,-253.235C332.392,-249.114 294.013,-243.089 263.825,-238.35"/>
<polygon fill="none" stroke="black" points="264.352,-234.89 253.93,-236.797 263.267,-241.806 264.352,-234.89"/>
</g>
<!-- \\Aura\\Web\\Exception\\NoMethodForAction -->
<g id="node5" class="node"><title>\\Aura\\Web\\Exception\\NoMethodForAction</title>
<a xlink:href="db_Aura_Web_Exception_NoMethodForAction.html" xlink:title="NoMethodForAction" target="_parent">
<polygon fill="none" stroke="black" points="454.218,-222 325.782,-222 325.782,-186 454.218,-186 454.218,-222"/>
<text text-anchor="middle" x="390" y="-199.6" font-family="Courier,monospace" font-size="11.00">NoMethodForAction</text>
</a>
</g>
<!-- \\Aura\\Web\\Exception\\NoMethodForAction&#45;&gt;\\Aura\\Web\\Exception -->
<g id="edge8" class="edge"><title>\\Aura\\Web\\Exception\\NoMethodForAction&#45;&gt;\\Aura\\Web\\Exception</title>
<path fill="none" stroke="black" d="M325.442,-213.977C305.001,-217.186 282.74,-220.68 263.737,-223.663"/>
<polygon fill="none" stroke="black" points="263.172,-220.209 253.836,-225.218 264.257,-227.124 263.172,-220.209"/>
</g>
<!-- \\Aura\\Web\\AbstractPage -->
<g id="node6" class="node"><title>\\Aura\\Web\\AbstractPage</title>
<a xlink:href="db_Aura_Web_AbstractPage.html" xlink:title="«abstract»&lt;br/&gt;AbstractPage" target="_parent">
<polygon fill="none" stroke="black" points="438,-168 342,-168 342,-132 438,-132 438,-168"/>
<text text-anchor="start" x="357" y="-151.5" font-family="Courier,monospace" font-size="11.00">«abstract»</text>
<text text-anchor="start" x="350.5" y="-140.5" font-family="Courier,monospace" font-size="11.00">AbstractPage</text>
</a>
</g>
<!-- \\Aura\\Web\\Context -->
<g id="node7" class="node"><title>\\Aura\\Web\\Context</title>
<a xlink:href="db_Aura_Web_Context.html" xlink:title="Context" target="_parent">
<polygon fill="none" stroke="black" points="421.208,-114 358.792,-114 358.792,-78 421.208,-78 421.208,-114"/>
<text text-anchor="middle" x="390" y="-91.6" font-family="Courier,monospace" font-size="11.00">Context</text>
</a>
</g>
<!-- \\Exception -->
<g id="node14" class="node"><title>\\Exception</title>
<ellipse fill="none" stroke="black" cx="53" cy="-231" rx="52.7417" ry="18"/>
<text text-anchor="middle" x="53" y="-225.4" font-family="Times,serif" font-size="14.00" fill="gray">\Exception</text>
</g>
<!-- \\Aura\\Web\\Exception&#45;&gt;\\Exception -->
<g id="edge10" class="edge"><title>\\Aura\\Web\\Exception&#45;&gt;\\Exception</title>
<path fill="none" stroke="black" d="M178.063,-231C159.713,-231 137.042,-231 116.12,-231"/>
<polygon fill="none" stroke="black" points="116.017,-227.5 106.017,-231 116.017,-234.5 116.017,-227.5"/>
</g>
<!-- \\Aura\\Web\\Response -->
<g id="node9" class="node"><title>\\Aura\\Web\\Response</title>
<a xlink:href="db_Aura_Web_Response.html" xlink:title="Response" target="_parent">
<polygon fill="none" stroke="black" points="424.309,-60 355.691,-60 355.691,-24 424.309,-24 424.309,-60"/>
<text text-anchor="middle" x="390" y="-37.6" font-family="Courier,monospace" font-size="11.00">Response</text>
</a>
</g>
</g>
</svg>
