<?xml version="1.0" encoding="UTF-8" standalone="no"?>
<!DOCTYPE svg PUBLIC "-//W3C//DTD SVG 1.1//EN"
 "http://www.w3.org/Graphics/SVG/1.1/DTD/svg11.dtd">
<!-- Generated by graphviz version 2.28.0 (20110509.1545)
 -->
<!-- Title: G Pages: 1 -->
<svg width="306pt" height="296pt"
 viewBox="0.00 0.00 306.00 296.00" xmlns="http://www.w3.org/2000/svg" xmlns:xlink="http://www.w3.org/1999/xlink">
<g id="graph1" class="graph" transform="scale(1 1) rotate(0) translate(4 292)">
<title>G</title>
<polygon fill="white" stroke="white" points="-4,5 -4,-292 303,-292 303,5 -4,5"/>
<g id="graph2" class="cluster"><title>cluster_Aura</title>
<polyline fill="none" stroke="gray" points="174,-8 278,-8 "/>
<path fill="none" stroke="gray" d="M278,-8C284,-8 290,-14 290,-20"/>
<polyline fill="none" stroke="gray" points="290,-20 290,-268 "/>
<path fill="none" stroke="gray" d="M290,-268C290,-274 284,-280 278,-280"/>
<polyline fill="none" stroke="gray" points="278,-280 174,-280 "/>
<path fill="none" stroke="gray" d="M174,-280C168,-280 162,-274 162,-268"/>
<polyline fill="none" stroke="gray" points="162,-268 162,-20 "/>
<path fill="none" stroke="gray" d="M162,-20C162,-14 168,-8 174,-8"/>
<text text-anchor="middle" x="226" y="-265" font-family="Times,serif" font-size="11.00" fill="gray">Aura</text>
</g>
<g id="graph3" class="cluster"><title>cluster_Aura\Router</title>
<polyline fill="none" stroke="gray" points="182,-16 270,-16 "/>
<path fill="none" stroke="gray" d="M270,-16C276,-16 282,-22 282,-28"/>
<polyline fill="none" stroke="gray" points="282,-28 282,-239 "/>
<path fill="none" stroke="gray" d="M282,-239C282,-245 276,-251 270,-251"/>
<polyline fill="none" stroke="gray" points="270,-251 182,-251 "/>
<path fill="none" stroke="gray" d="M182,-251C176,-251 170,-245 170,-239"/>
<polyline fill="none" stroke="gray" points="170,-239 170,-28 "/>
<path fill="none" stroke="gray" d="M170,-28C170,-22 176,-16 182,-16"/>
<text text-anchor="middle" x="226" y="-236" font-family="Times,serif" font-size="11.00" fill="gray">Router</text>
</g>
<!-- \\Aura\\Router\\Exception -->
<g id="node3" class="node"><title>\\Aura\\Router\\Exception</title>
<a xlink:href="db_Aura_Router_Exception.html" xlink:title="Exception" target="_parent">
<polygon fill="none" stroke="black" points="263.911,-222 188.089,-222 188.089,-186 263.911,-186 263.911,-222"/>
<text text-anchor="middle" x="226" y="-199.6" font-family="Courier,monospace" font-size="11.00">Exception</text>
</a>
</g>
<!-- \\Exception -->
<g id="node8" class="node"><title>\\Exception</title>
<ellipse fill="none" stroke="black" cx="53" cy="-204" rx="52.7417" ry="18"/>
<text text-anchor="middle" x="53" y="-198.4" font-family="Times,serif" font-size="14.00" fill="gray">\Exception</text>
</g>
<!-- \\Aura\\Router\\Exception&#45;&gt;\\Exception -->
<g id="edge4" class="edge"><title>\\Aura\\Router\\Exception&#45;&gt;\\Exception</title>
<path fill="none" stroke="black" d="M187.896,-204C166.924,-204 140.16,-204 116.082,-204"/>
<polygon fill="none" stroke="black" points="115.951,-200.5 105.951,-204 115.951,-207.5 115.951,-200.5"/>
</g>
<!-- \\Aura\\Router\\Map -->
<g id="node4" class="node"><title>\\Aura\\Router\\Map</title>
<a xlink:href="db_Aura_Router_Map.html" xlink:title="Map" target="_parent">
<polygon fill="none" stroke="black" points="253,-168 199,-168 199,-132 253,-132 253,-168"/>
<text text-anchor="middle" x="226" y="-145.6" font-family="Courier,monospace" font-size="11.00">Map</text>
</a>
</g>
<!-- \\Aura\\Router\\Route -->
<g id="node5" class="node"><title>\\Aura\\Router\\Route</title>
<a xlink:href="db_Aura_Router_Route.html" xlink:title="Route" target="_parent">
<polygon fill="none" stroke="black" points="253,-114 199,-114 199,-78 253,-78 253,-114"/>
<text text-anchor="middle" x="226" y="-91.6" font-family="Courier,monospace" font-size="11.00">Route</text>
</a>
</g>
<!-- \\Aura\\Router\\RouteFactory -->
<g id="node6" class="node"><title>\\Aura\\Router\\RouteFactory</title>
<a xlink:href="db_Aura_Router_RouteFactory.html" xlink:title="RouteFactory" target="_parent">
<polygon fill="none" stroke="black" points="273.713,-60 178.287,-60 178.287,-24 273.713,-24 273.713,-60"/>
<text text-anchor="middle" x="226" y="-37.6" font-family="Courier,monospace" font-size="11.00">RouteFactory</text>
</a>
</g>
</g>
</svg>
