<?xml version="1.0" encoding="UTF-8" standalone="no"?>
<!DOCTYPE svg PUBLIC "-//W3C//DTD SVG 1.1//EN"
 "http://www.w3.org/Graphics/SVG/1.1/DTD/svg11.dtd">
<!-- Generated by graphviz version 2.28.0 (20111028.1807)
 -->
<!-- Title: G Pages: 1 -->
<svg width="372pt" height="548pt"
 viewBox="0.00 0.00 372.00 548.00" xmlns="http://www.w3.org/2000/svg" xmlns:xlink="http://www.w3.org/1999/xlink">
<g id="graph1" class="graph" transform="scale(1 1) rotate(0) translate(4 544)">
<title>G</title>
<polygon fill="white" stroke="white" points="-4,5 -4,-544 369,-544 369,5 -4,5"/>
<g id="graph2" class="cluster"><title>cluster_Aura</title>
<polyline fill="none" stroke="gray" points="20,-44 344,-44 "/>
<path fill="none" stroke="gray" d="M344,-44C350,-44 356,-50 356,-56"/>
<polyline fill="none" stroke="gray" points="356,-56 356,-520 "/>
<path fill="none" stroke="gray" d="M356,-520C356,-526 350,-532 344,-532"/>
<polyline fill="none" stroke="gray" points="344,-532 20,-532 "/>
<path fill="none" stroke="gray" d="M20,-532C14,-532 8,-526 8,-520"/>
<polyline fill="none" stroke="gray" points="8,-520 8,-56 "/>
<path fill="none" stroke="gray" d="M8,-56C8,-50 14,-44 20,-44"/>
<text text-anchor="middle" x="182" y="-517" font-family="Times,serif" font-size="11.00" fill="gray">Aura</text>
</g>
<g id="graph3" class="cluster"><title>cluster_Aura\Session</title>
<polyline fill="none" stroke="gray" points="28,-52 336,-52 "/>
<path fill="none" stroke="gray" d="M336,-52C342,-52 348,-58 348,-64"/>
<polyline fill="none" stroke="gray" points="348,-64 348,-491 "/>
<path fill="none" stroke="gray" d="M348,-491C348,-497 342,-503 336,-503"/>
<polyline fill="none" stroke="gray" points="336,-503 28,-503 "/>
<path fill="none" stroke="gray" d="M28,-503C22,-503 16,-497 16,-491"/>
<polyline fill="none" stroke="gray" points="16,-491 16,-64 "/>
<path fill="none" stroke="gray" d="M16,-64C16,-58 22,-52 28,-52"/>
<text text-anchor="middle" x="182" y="-488" font-family="Times,serif" font-size="11.00" fill="gray">Session</text>
</g>
<!-- \\Aura\\Session\\CsrfToken -->
<g id="node3" class="node"><title>\\Aura\\Session\\CsrfToken</title>
<a xlink:href="CsrfToken.html" xlink:title="CsrfToken" target="_parent">
<polygon fill="none" stroke="black" points="316.911,-474 241.089,-474 241.089,-438 316.911,-438 316.911,-474"/>
<text text-anchor="middle" x="279" y="-451.6" font-family="Courier,monospace" font-size="11.00">CsrfToken</text>
</a>
</g>
<!-- \\Aura\\Session\\CsrfTokenFactory -->
<g id="node4" class="node"><title>\\Aura\\Session\\CsrfTokenFactory</title>
<a xlink:href="CsrfTokenFactory.html" xlink:title="CsrfTokenFactory" target="_parent">
<polygon fill="none" stroke="black" points="339.618,-420 218.382,-420 218.382,-384 339.618,-384 339.618,-420"/>
<text text-anchor="middle" x="279" y="-397.6" font-family="Courier,monospace" font-size="11.00">CsrfTokenFactory</text>
</a>
</g>
<!-- \\Aura\\Session\\Exception -->
<g id="node5" class="node"><title>\\Aura\\Session\\Exception</title>
<a xlink:href="Exception.html" xlink:title="Exception" target="_parent">
<polygon fill="none" stroke="black" points="316.911,-150 241.089,-150 241.089,-114 316.911,-114 316.911,-150"/>
<text text-anchor="middle" x="279" y="-127.6" font-family="Courier,monospace" font-size="11.00">Exception</text>
</a>
</g>
<!-- \\Exception -->
<g id="node14" class="node"><title>\\Exception</title>
<ellipse fill="none" stroke="black" cx="85" cy="-18" rx="52.7417" ry="18"/>
<text text-anchor="middle" x="85" y="-12.4" font-family="Times,serif" font-size="14.00" fill="gray">\Exception</text>
</g>
<!-- \\Aura\\Session\\Exception&#45;&gt;\\Exception -->
<g id="edge4" class="edge"><title>\\Aura\\Session\\Exception&#45;&gt;\\Exception</title>
<path fill="none" stroke="black" d="M241.094,-117.122C233.283,-113.5 225.223,-109.391 218,-105 183.125,-83.7978 180.435,-69.909 146,-48 139.853,-44.0888 133.126,-40.2975 126.472,-36.8012"/>
<polygon fill="none" stroke="black" points="128.001,-33.6525 117.502,-32.2327 124.824,-39.89 128.001,-33.6525"/>
</g>
<!-- \\Aura\\Session\\Manager -->
<g id="node6" class="node"><title>\\Aura\\Session\\Manager</title>
<a xlink:href="Manager.html" xlink:title="Manager" target="_parent">
<polygon fill="none" stroke="black" points="310.208,-312 247.792,-312 247.792,-276 310.208,-276 310.208,-312"/>
<text text-anchor="middle" x="279" y="-289.6" font-family="Courier,monospace" font-size="11.00">Manager</text>
</a>
</g>
<!-- \\Aura\\Session\\Phpfunc -->
<g id="node7" class="node"><title>\\Aura\\Session\\Phpfunc</title>
<a xlink:href="Phpfunc.html" xlink:title="Phpfunc" target="_parent">
<polygon fill="none" stroke="black" points="310.208,-258 247.792,-258 247.792,-222 310.208,-222 310.208,-258"/>
<text text-anchor="middle" x="279" y="-235.6" font-family="Courier,monospace" font-size="11.00">Phpfunc</text>
</a>
</g>
<!-- \\Aura\\Session\\Randval -->
<g id="node8" class="node"><title>\\Aura\\Session\\Randval</title>
<a xlink:href="Randval.html" xlink:title="Randval" target="_parent">
<polygon fill="none" stroke="black" points="310.208,-366 247.792,-366 247.792,-330 310.208,-330 310.208,-366"/>
<text text-anchor="middle" x="279" y="-343.6" font-family="Courier,monospace" font-size="11.00">Randval</text>
</a>
</g>
<!-- \\Aura\\Session\\RandvalInterface -->
<g id="node9" class="node"><title>\\Aura\\Session\\RandvalInterface</title>
<a xlink:href="RandvalInterface.html" xlink:title="RandvalInterface" target="_parent">
<polygon fill="none" stroke="black" points="145.618,-366 24.3822,-366 24.3822,-330 145.618,-330 145.618,-366"/>
<text text-anchor="middle" x="85" y="-343.6" font-family="Courier,monospace" font-size="11.00">RandvalInterface</text>
</a>
</g>
<!-- \\Aura\\Session\\Randval&#45;&gt;\\Aura\\Session\\RandvalInterface -->
<g id="edge6" class="edge"><title>\\Aura\\Session\\Randval&#45;&gt;\\Aura\\Session\\RandvalInterface</title>
<path fill="none" stroke="black" stroke-dasharray="1,5" d="M247.577,-348C222.96,-348 187.324,-348 155.779,-348"/>
<polygon fill="none" stroke="black" points="155.7,-344.5 145.7,-348 155.7,-351.5 155.7,-344.5"/>
</g>
<!-- \\Aura\\Session\\Segment -->
<g id="node10" class="node"><title>\\Aura\\Session\\Segment</title>
<a xlink:href="Segment.html" xlink:title="Segment" target="_parent">
<polygon fill="none" stroke="black" points="310.208,-204 247.792,-204 247.792,-168 310.208,-168 310.208,-204"/>
<text text-anchor="middle" x="279" y="-181.6" font-family="Courier,monospace" font-size="11.00">Segment</text>
</a>
</g>
<!-- \\Aura\\Session\\SegmentInterface -->
<g id="node12" class="node"><title>\\Aura\\Session\\SegmentInterface</title>
<a xlink:href="SegmentInterface.html" xlink:title="SegmentInterface" target="_parent">
<polygon fill="none" stroke="black" points="145.618,-204 24.3822,-204 24.3822,-168 145.618,-168 145.618,-204"/>
<text text-anchor="middle" x="85" y="-181.6" font-family="Courier,monospace" font-size="11.00">SegmentInterface</text>
</a>
</g>
<!-- \\Aura\\Session\\Segment&#45;&gt;\\Aura\\Session\\SegmentInterface -->
<g id="edge8" class="edge"><title>\\Aura\\Session\\Segment&#45;&gt;\\Aura\\Session\\SegmentInterface</title>
<path fill="none" stroke="black" stroke-dasharray="1,5" d="M247.577,-186C222.96,-186 187.324,-186 155.779,-186"/>
<polygon fill="none" stroke="black" points="155.7,-182.5 145.7,-186 155.7,-189.5 155.7,-182.5"/>
</g>
<!-- \\Aura\\Session\\SegmentFactory -->
<g id="node11" class="node"><title>\\Aura\\Session\\SegmentFactory</title>
<a xlink:href="SegmentFactory.html" xlink:title="SegmentFactory" target="_parent">
<polygon fill="none" stroke="black" points="333.416,-96 224.584,-96 224.584,-60 333.416,-60 333.416,-96"/>
<text text-anchor="middle" x="279" y="-73.6" font-family="Courier,monospace" font-size="11.00">SegmentFactory</text>
</a>
</g>
</g>
</svg>
