<?xml version="1.0" encoding="UTF-8" standalone="no"?>
<!DOCTYPE svg PUBLIC "-//W3C//DTD SVG 1.1//EN"
 "http://www.w3.org/Graphics/SVG/1.1/DTD/svg11.dtd">
<!-- Generated by graphviz version 2.28.0 (20111028.1807)
 -->
<!-- Title: G Pages: 1 -->
<svg width="610pt" height="1171pt"
 viewBox="0.00 0.00 610.00 1171.00" xmlns="http://www.w3.org/2000/svg" xmlns:xlink="http://www.w3.org/1999/xlink">
<g id="graph1" class="graph" transform="scale(1 1) rotate(0) translate(4 1167)">
<title>G</title>
<polygon fill="white" stroke="white" points="-4,5 -4,-1167 607,-1167 607,5 -4,5"/>
<g id="graph2" class="cluster"><title>cluster_Aura</title>
<polyline fill="none" stroke="gray" points="230,-98 582,-98 "/>
<path fill="none" stroke="gray" d="M582,-98C588,-98 594,-104 594,-110"/>
<polyline fill="none" stroke="gray" points="594,-110 594,-1143 "/>
<path fill="none" stroke="gray" d="M594,-1143C594,-1149 588,-1155 582,-1155"/>
<polyline fill="none" stroke="gray" points="582,-1155 230,-1155 "/>
<path fill="none" stroke="gray" d="M230,-1155C224,-1155 218,-1149 218,-1143"/>
<polyline fill="none" stroke="gray" points="218,-1143 218,-110 "/>
<path fill="none" stroke="gray" d="M218,-110C218,-104 224,-98 230,-98"/>
<text text-anchor="middle" x="406" y="-1140" font-family="Times,serif" font-size="11.00" fill="gray">Aura</text>
</g>
<g id="graph3" class="cluster"><title>cluster_Aura\Marshal</title>
<polyline fill="none" stroke="gray" points="238,-106 574,-106 "/>
<path fill="none" stroke="gray" d="M574,-106C580,-106 586,-112 586,-118"/>
<polyline fill="none" stroke="gray" points="586,-118 586,-1114 "/>
<path fill="none" stroke="gray" d="M586,-1114C586,-1120 580,-1126 574,-1126"/>
<polyline fill="none" stroke="gray" points="574,-1126 238,-1126 "/>
<path fill="none" stroke="gray" d="M238,-1126C232,-1126 226,-1120 226,-1114"/>
<polyline fill="none" stroke="gray" points="226,-1114 226,-118 "/>
<path fill="none" stroke="gray" d="M226,-118C226,-112 232,-106 238,-106"/>
<text text-anchor="middle" x="406" y="-1111" font-family="Times,serif" font-size="11.00" fill="gray">Marshal</text>
</g>
<g id="graph4" class="cluster"><title>cluster_Aura\Marshal\Collection</title>
<polyline fill="none" stroke="gray" points="249,-970 566,-970 "/>
<path fill="none" stroke="gray" d="M566,-970C572,-970 578,-976 578,-982"/>
<polyline fill="none" stroke="gray" points="578,-982 578,-1085 "/>
<path fill="none" stroke="gray" d="M578,-1085C578,-1091 572,-1097 566,-1097"/>
<polyline fill="none" stroke="gray" points="566,-1097 249,-1097 "/>
<path fill="none" stroke="gray" d="M249,-1097C243,-1097 237,-1091 237,-1085"/>
<polyline fill="none" stroke="gray" points="237,-1085 237,-982 "/>
<path fill="none" stroke="gray" d="M237,-982C237,-976 243,-970 249,-970"/>
<text text-anchor="middle" x="407.5" y="-1082" font-family="Times,serif" font-size="11.00" fill="gray">Collection</text>
</g>
<g id="graph5" class="cluster"><title>cluster_Aura\Marshal\Entity</title>
<polyline fill="none" stroke="gray" points="249,-700 553,-700 "/>
<path fill="none" stroke="gray" d="M553,-700C559,-700 565,-706 565,-712"/>
<polyline fill="none" stroke="gray" points="565,-712 565,-815 "/>
<path fill="none" stroke="gray" d="M565,-815C565,-821 559,-827 553,-827"/>
<polyline fill="none" stroke="gray" points="553,-827 249,-827 "/>
<path fill="none" stroke="gray" d="M249,-827C243,-827 237,-821 237,-815"/>
<polyline fill="none" stroke="gray" points="237,-815 237,-712 "/>
<path fill="none" stroke="gray" d="M237,-712C237,-706 243,-700 249,-700"/>
<text text-anchor="middle" x="401" y="-812" font-family="Times,serif" font-size="11.00" fill="gray">Entity</text>
</g>
<g id="graph6" class="cluster"><title>cluster_Aura\Marshal\Lazy</title>
<polyline fill="none" stroke="gray" points="249,-565 547,-565 "/>
<path fill="none" stroke="gray" d="M547,-565C553,-565 559,-571 559,-577"/>
<polyline fill="none" stroke="gray" points="559,-577 559,-680 "/>
<path fill="none" stroke="gray" d="M559,-680C559,-686 553,-692 547,-692"/>
<polyline fill="none" stroke="gray" points="547,-692 249,-692 "/>
<path fill="none" stroke="gray" d="M249,-692C243,-692 237,-686 237,-680"/>
<polyline fill="none" stroke="gray" points="237,-680 237,-577 "/>
<path fill="none" stroke="gray" d="M237,-577C237,-571 243,-565 249,-565"/>
<text text-anchor="middle" x="398" y="-677" font-family="Times,serif" font-size="11.00" fill="gray">Lazy</text>
</g>
<g id="graph7" class="cluster"><title>cluster_Aura\Marshal\Relation</title>
<polyline fill="none" stroke="gray" points="246,-268 556,-268 "/>
<path fill="none" stroke="gray" d="M556,-268C562,-268 568,-274 568,-280"/>
<polyline fill="none" stroke="gray" points="568,-280 568,-545 "/>
<path fill="none" stroke="gray" d="M568,-545C568,-551 562,-557 556,-557"/>
<polyline fill="none" stroke="gray" points="556,-557 246,-557 "/>
<path fill="none" stroke="gray" d="M246,-557C240,-557 234,-551 234,-545"/>
<polyline fill="none" stroke="gray" points="234,-545 234,-280 "/>
<path fill="none" stroke="gray" d="M234,-280C234,-274 240,-268 246,-268"/>
<text text-anchor="middle" x="401" y="-542" font-family="Times,serif" font-size="11.00" fill="gray">Relation</text>
</g>
<g id="graph8" class="cluster"><title>cluster_Aura\Marshal\Type</title>
<polyline fill="none" stroke="gray" points="465,-835 547,-835 "/>
<path fill="none" stroke="gray" d="M547,-835C553,-835 559,-841 559,-847"/>
<polyline fill="none" stroke="gray" points="559,-847 559,-950 "/>
<path fill="none" stroke="gray" d="M559,-950C559,-956 553,-962 547,-962"/>
<polyline fill="none" stroke="gray" points="547,-962 465,-962 "/>
<path fill="none" stroke="gray" d="M465,-962C459,-962 453,-956 453,-950"/>
<polyline fill="none" stroke="gray" points="453,-950 453,-847 "/>
<path fill="none" stroke="gray" d="M453,-847C453,-841 459,-835 465,-835"/>
<text text-anchor="middle" x="506" y="-947" font-family="Times,serif" font-size="11.00" fill="gray">Type</text>
</g>
<!-- \\Aura\\Marshal\\Collection\\Builder -->
<g id="node4" class="node"><title>\\Aura\\Marshal\\Collection\\Builder</title>
<a xlink:href="Collection.Builder.html" xlink:title="Builder" target="_parent">
<polygon fill="none" stroke="black" points="537.208,-1068 474.792,-1068 474.792,-1032 537.208,-1032 537.208,-1068"/>
<text text-anchor="middle" x="506" y="-1045.6" font-family="Courier,monospace" font-size="11.00">Builder</text>
</a>
</g>
<!-- \\Aura\\Marshal\\Collection\\BuilderInterface -->
<g id="node5" class="node"><title>\\Aura\\Marshal\\Collection\\BuilderInterface</title>
<a xlink:href="Collection.BuilderInterface.html" xlink:title="BuilderInterface" target="_parent">
<polygon fill="none" stroke="black" points="366.618,-1068 245.382,-1068 245.382,-1032 366.618,-1032 366.618,-1068"/>
<text text-anchor="middle" x="306" y="-1045.6" font-family="Courier,monospace" font-size="11.00">BuilderInterface</text>
</a>
</g>
<!-- \\Aura\\Marshal\\Collection\\Builder&#45;&gt;\\Aura\\Marshal\\Collection\\BuilderInterface -->
<g id="edge30" class="edge"><title>\\Aura\\Marshal\\Collection\\Builder&#45;&gt;\\Aura\\Marshal\\Collection\\BuilderInterface</title>
<path fill="none" stroke="black" stroke-dasharray="1,5" d="M474.496,-1050C448.543,-1050 410.271,-1050 376.86,-1050"/>
<polygon fill="none" stroke="black" points="376.667,-1046.5 366.667,-1050 376.667,-1053.5 376.667,-1046.5"/>
</g>
<!-- \\Aura\\Marshal\\Collection\\GenericCollection -->
<g id="node6" class="node"><title>\\Aura\\Marshal\\Collection\\GenericCollection</title>
<a xlink:href="Collection.GenericCollection.html" xlink:title="GenericCollection" target="_parent">
<polygon fill="none" stroke="black" points="570.218,-1014 441.782,-1014 441.782,-978 570.218,-978 570.218,-1014"/>
<text text-anchor="middle" x="506" y="-991.6" font-family="Courier,monospace" font-size="11.00">GenericCollection</text>
</a>
</g>
<!-- \\Aura\\Marshal\\Data -->
<g id="node27" class="node"><title>\\Aura\\Marshal\\Data</title>
<a xlink:href="Data.html" xlink:title="Data" target="_parent">
<polygon fill="none" stroke="black" points="333,-879 279,-879 279,-843 333,-843 333,-879"/>
<text text-anchor="middle" x="306" y="-856.6" font-family="Courier,monospace" font-size="11.00">Data</text>
</a>
</g>
<!-- \\Aura\\Marshal\\Collection\\GenericCollection&#45;&gt;\\Aura\\Marshal\\Data -->
<g id="edge14" class="edge"><title>\\Aura\\Marshal\\Collection\\GenericCollection&#45;&gt;\\Aura\\Marshal\\Data</title>
<path fill="none" stroke="black" d="M463.648,-977.891C456.288,-974.225 448.805,-970.198 442,-966 402.838,-941.842 361.619,-908.456 335.184,-885.866"/>
<polygon fill="none" stroke="black" points="337.335,-883.098 327.474,-879.224 332.766,-888.402 337.335,-883.098"/>
</g>
<!-- \\Aura\\Marshal\\Entity\\Builder -->
<g id="node8" class="node"><title>\\Aura\\Marshal\\Entity\\Builder</title>
<a xlink:href="Entity.Builder.html" xlink:title="Builder" target="_parent">
<polygon fill="none" stroke="black" points="537.208,-744 474.792,-744 474.792,-708 537.208,-708 537.208,-744"/>
<text text-anchor="middle" x="506" y="-721.6" font-family="Courier,monospace" font-size="11.00">Builder</text>
</a>
</g>
<!-- \\Aura\\Marshal\\Entity\\BuilderInterface -->
<g id="node9" class="node"><title>\\Aura\\Marshal\\Entity\\BuilderInterface</title>
<a xlink:href="Entity.BuilderInterface.html" xlink:title="BuilderInterface" target="_parent">
<polygon fill="none" stroke="black" points="366.618,-744 245.382,-744 245.382,-708 366.618,-708 366.618,-744"/>
<text text-anchor="middle" x="306" y="-721.6" font-family="Courier,monospace" font-size="11.00">BuilderInterface</text>
</a>
</g>
<!-- \\Aura\\Marshal\\Entity\\Builder&#45;&gt;\\Aura\\Marshal\\Entity\\BuilderInterface -->
<g id="edge40" class="edge"><title>\\Aura\\Marshal\\Entity\\Builder&#45;&gt;\\Aura\\Marshal\\Entity\\BuilderInterface</title>
<path fill="none" stroke="black" stroke-dasharray="1,5" d="M474.496,-726C448.543,-726 410.271,-726 376.86,-726"/>
<polygon fill="none" stroke="black" points="376.667,-722.5 366.667,-726 376.667,-729.5 376.667,-722.5"/>
</g>
<!-- \\Aura\\Marshal\\Entity\\GenericEntity -->
<g id="node10" class="node"><title>\\Aura\\Marshal\\Entity\\GenericEntity</title>
<a xlink:href="Entity.GenericEntity.html" xlink:title="GenericEntity" target="_parent">
<polygon fill="none" stroke="black" points="556.814,-798 455.186,-798 455.186,-762 556.814,-762 556.814,-798"/>
<text text-anchor="middle" x="506" y="-775.6" font-family="Courier,monospace" font-size="11.00">GenericEntity</text>
</a>
</g>
<!-- \\Aura\\Marshal\\Entity\\GenericEntity&#45;&gt;\\Aura\\Marshal\\Data -->
<g id="edge16" class="edge"><title>\\Aura\\Marshal\\Entity\\GenericEntity&#45;&gt;\\Aura\\Marshal\\Data</title>
<path fill="none" stroke="black" d="M460.565,-798.178C424.867,-812.782 375.403,-833.017 342.359,-846.535"/>
<polygon fill="none" stroke="black" points="341.013,-843.304 333.082,-850.33 343.663,-849.783 341.013,-843.304"/>
</g>
<!-- \\Aura\\Marshal\\Lazy\\Builder -->
<g id="node12" class="node"><title>\\Aura\\Marshal\\Lazy\\Builder</title>
<a xlink:href="Lazy.Builder.html" xlink:title="Builder" target="_parent">
<polygon fill="none" stroke="black" points="537.208,-663 474.792,-663 474.792,-627 537.208,-627 537.208,-663"/>
<text text-anchor="middle" x="506" y="-640.6" font-family="Courier,monospace" font-size="11.00">Builder</text>
</a>
</g>
<!-- \\Aura\\Marshal\\Lazy\\BuilderInterface -->
<g id="node13" class="node"><title>\\Aura\\Marshal\\Lazy\\BuilderInterface</title>
<a xlink:href="Lazy.BuilderInterface.html" xlink:title="BuilderInterface" target="_parent">
<polygon fill="none" stroke="black" points="366.618,-663 245.382,-663 245.382,-627 366.618,-627 366.618,-663"/>
<text text-anchor="middle" x="306" y="-640.6" font-family="Courier,monospace" font-size="11.00">BuilderInterface</text>
</a>
</g>
<!-- \\Aura\\Marshal\\Lazy\\Builder&#45;&gt;\\Aura\\Marshal\\Lazy\\BuilderInterface -->
<g id="edge42" class="edge"><title>\\Aura\\Marshal\\Lazy\\Builder&#45;&gt;\\Aura\\Marshal\\Lazy\\BuilderInterface</title>
<path fill="none" stroke="black" stroke-dasharray="1,5" d="M474.496,-645C448.543,-645 410.271,-645 376.86,-645"/>
<polygon fill="none" stroke="black" points="376.667,-641.5 366.667,-645 376.667,-648.5 376.667,-641.5"/>
</g>
<!-- \\Aura\\Marshal\\Lazy\\GenericLazy -->
<g id="node14" class="node"><title>\\Aura\\Marshal\\Lazy\\GenericLazy</title>
<a xlink:href="Lazy.GenericLazy.html" xlink:title="GenericLazy" target="_parent">
<polygon fill="none" stroke="black" points="550.113,-609 461.887,-609 461.887,-573 550.113,-573 550.113,-609"/>
<text text-anchor="middle" x="506" y="-586.6" font-family="Courier,monospace" font-size="11.00">GenericLazy</text>
</a>
</g>
<!-- \\Aura\\Marshal\\Lazy\\LazyInterface -->
<g id="node15" class="node"><title>\\Aura\\Marshal\\Lazy\\LazyInterface</title>
<a xlink:href="Lazy.LazyInterface.html" xlink:title="LazyInterface" target="_parent">
<polygon fill="none" stroke="black" points="356.814,-609 255.186,-609 255.186,-573 356.814,-573 356.814,-609"/>
<text text-anchor="middle" x="306" y="-586.6" font-family="Courier,monospace" font-size="11.00">LazyInterface</text>
</a>
</g>
<!-- \\Aura\\Marshal\\Lazy\\GenericLazy&#45;&gt;\\Aura\\Marshal\\Lazy\\LazyInterface -->
<g id="edge44" class="edge"><title>\\Aura\\Marshal\\Lazy\\GenericLazy&#45;&gt;\\Aura\\Marshal\\Lazy\\LazyInterface</title>
<path fill="none" stroke="black" stroke-dasharray="1,5" d="M461.548,-591C433.831,-591 397.526,-591 367.069,-591"/>
<polygon fill="none" stroke="black" points="366.985,-587.5 356.985,-591 366.985,-594.5 366.985,-587.5"/>
</g>
<!-- \\Aura\\Marshal\\Relation\\AbstractRelation -->
<g id="node17" class="node"><title>\\Aura\\Marshal\\Relation\\AbstractRelation</title>
<a xlink:href="Relation.AbstractRelation.html" xlink:title="AbstractRelation" target="_parent">
<polygon fill="none" stroke="black" points="366.618,-366 245.382,-366 245.382,-330 366.618,-330 366.618,-366"/>
<text text-anchor="middle" x="306" y="-343.6" font-family="Courier,monospace" font-size="11.00">AbstractRelation</text>
</a>
</g>
<!-- \\Aura\\Marshal\\Relation\\BelongsTo -->
<g id="node18" class="node"><title>\\Aura\\Marshal\\Relation\\BelongsTo</title>
<a xlink:href="Relation.BelongsTo.html" xlink:title="BelongsTo" target="_parent">
<polygon fill="none" stroke="black" points="543.911,-528 468.089,-528 468.089,-492 543.911,-492 543.911,-528"/>
<text text-anchor="middle" x="506" y="-505.6" font-family="Courier,monospace" font-size="11.00">BelongsTo</text>
</a>
</g>
<!-- \\Aura\\Marshal\\Relation\\BelongsTo&#45;&gt;\\Aura\\Marshal\\Relation\\AbstractRelation -->
<g id="edge20" class="edge"><title>\\Aura\\Marshal\\Relation\\BelongsTo&#45;&gt;\\Aura\\Marshal\\Relation\\AbstractRelation</title>
<path fill="none" stroke="black" d="M467.976,-498.327C458.885,-494.375 449.593,-489.316 442,-483 397.649,-446.108 414.351,-411.892 370,-375 368.648,-373.875 367.242,-372.79 365.792,-371.744"/>
<polygon fill="none" stroke="black" points="367.404,-368.62 357.095,-366.175 363.629,-374.515 367.404,-368.62"/>
</g>
<!-- \\Aura\\Marshal\\Relation\\RelationInterface -->
<g id="node23" class="node"><title>\\Aura\\Marshal\\Relation\\RelationInterface</title>
<a xlink:href="Relation.RelationInterface.html" xlink:title="RelationInterface" target="_parent">
<polygon fill="none" stroke="black" points="370.218,-420 241.782,-420 241.782,-384 370.218,-384 370.218,-420"/>
<text text-anchor="middle" x="306" y="-397.6" font-family="Courier,monospace" font-size="11.00">RelationInterface</text>
</a>
</g>
<!-- \\Aura\\Marshal\\Relation\\BelongsTo&#45;&gt;\\Aura\\Marshal\\Relation\\RelationInterface -->
<g id="edge46" class="edge"><title>\\Aura\\Marshal\\Relation\\BelongsTo&#45;&gt;\\Aura\\Marshal\\Relation\\RelationInterface</title>
<path fill="none" stroke="black" stroke-dasharray="1,5" d="M467.968,-495.121C459.341,-491.383 450.264,-487.226 442,-483 407.564,-465.392 369.95,-442.502 343.193,-425.548"/>
<polygon fill="none" stroke="black" points="344.869,-422.466 334.555,-420.043 341.106,-428.369 344.869,-422.466"/>
</g>
<!-- \\Aura\\Marshal\\Relation\\Builder -->
<g id="node19" class="node"><title>\\Aura\\Marshal\\Relation\\Builder</title>
<a xlink:href="Relation.Builder.html" xlink:title="Builder" target="_parent">
<polygon fill="none" stroke="black" points="537.208,-474 474.792,-474 474.792,-438 537.208,-438 537.208,-474"/>
<text text-anchor="middle" x="506" y="-451.6" font-family="Courier,monospace" font-size="11.00">Builder</text>
</a>
</g>
<!-- \\Aura\\Marshal\\Relation\\HasMany -->
<g id="node20" class="node"><title>\\Aura\\Marshal\\Relation\\HasMany</title>
<a xlink:href="Relation.HasMany.html" xlink:title="HasMany" target="_parent">
<polygon fill="none" stroke="black" points="537.208,-420 474.792,-420 474.792,-384 537.208,-384 537.208,-420"/>
<text text-anchor="middle" x="506" y="-397.6" font-family="Courier,monospace" font-size="11.00">HasMany</text>
</a>
</g>
<!-- \\Aura\\Marshal\\Relation\\HasMany&#45;&gt;\\Aura\\Marshal\\Relation\\AbstractRelation -->
<g id="edge22" class="edge"><title>\\Aura\\Marshal\\Relation\\HasMany&#45;&gt;\\Aura\\Marshal\\Relation\\AbstractRelation</title>
<path fill="none" stroke="black" d="M474.496,-393.681C448.431,-386.572 409.941,-376.075 376.429,-366.935"/>
<polygon fill="none" stroke="black" points="377.235,-363.527 366.667,-364.273 375.393,-370.281 377.235,-363.527"/>
</g>
<!-- \\Aura\\Marshal\\Relation\\HasMany&#45;&gt;\\Aura\\Marshal\\Relation\\RelationInterface -->
<g id="edge48" class="edge"><title>\\Aura\\Marshal\\Relation\\HasMany&#45;&gt;\\Aura\\Marshal\\Relation\\RelationInterface</title>
<path fill="none" stroke="black" stroke-dasharray="1,5" d="M474.496,-402C449.536,-402 413.181,-402 380.715,-402"/>
<polygon fill="none" stroke="black" points="380.33,-398.5 370.33,-402 380.33,-405.5 380.33,-398.5"/>
</g>
<!-- \\Aura\\Marshal\\Relation\\HasManyThrough -->
<g id="node21" class="node"><title>\\Aura\\Marshal\\Relation\\HasManyThrough</title>
<a xlink:href="Relation.HasManyThrough.html" xlink:title="HasManyThrough" target="_parent">
<polygon fill="none" stroke="black" points="560.416,-366 451.584,-366 451.584,-330 560.416,-330 560.416,-366"/>
<text text-anchor="middle" x="506" y="-343.6" font-family="Courier,monospace" font-size="11.00">HasManyThrough</text>
</a>
</g>
<!-- \\Aura\\Marshal\\Relation\\HasManyThrough&#45;&gt;\\Aura\\Marshal\\Relation\\AbstractRelation -->
<g id="edge24" class="edge"><title>\\Aura\\Marshal\\Relation\\HasManyThrough&#45;&gt;\\Aura\\Marshal\\Relation\\AbstractRelation</title>
<path fill="none" stroke="black" d="M451.679,-348C428.626,-348 401.34,-348 376.711,-348"/>
<polygon fill="none" stroke="black" points="376.701,-344.5 366.701,-348 376.701,-351.5 376.701,-344.5"/>
</g>
<!-- \\Aura\\Marshal\\Relation\\HasManyThrough&#45;&gt;\\Aura\\Marshal\\Relation\\RelationInterface -->
<g id="edge50" class="edge"><title>\\Aura\\Marshal\\Relation\\HasManyThrough&#45;&gt;\\Aura\\Marshal\\Relation\\RelationInterface</title>
<path fill="none" stroke="black" stroke-dasharray="1,5" d="M451.679,-362.542C429.632,-368.555 403.715,-375.623 379.952,-382.104"/>
<polygon fill="none" stroke="black" points="378.996,-378.737 370.269,-384.745 380.838,-385.49 378.996,-378.737"/>
</g>
<!-- \\Aura\\Marshal\\Relation\\HasOne -->
<g id="node22" class="node"><title>\\Aura\\Marshal\\Relation\\HasOne</title>
<a xlink:href="Relation.HasOne.html" xlink:title="HasOne" target="_parent">
<polygon fill="none" stroke="black" points="533.608,-312 478.392,-312 478.392,-276 533.608,-276 533.608,-312"/>
<text text-anchor="middle" x="506" y="-289.6" font-family="Courier,monospace" font-size="11.00">HasOne</text>
</a>
</g>
<!-- \\Aura\\Marshal\\Relation\\HasOne&#45;&gt;\\Aura\\Marshal\\Relation\\AbstractRelation -->
<g id="edge26" class="edge"><title>\\Aura\\Marshal\\Relation\\HasOne&#45;&gt;\\Aura\\Marshal\\Relation\\AbstractRelation</title>
<path fill="none" stroke="black" d="M478.297,-301.283C452.342,-308.361 411.81,-319.415 376.688,-328.994"/>
<polygon fill="none" stroke="black" points="375.668,-325.644 366.942,-331.652 377.51,-332.398 375.668,-325.644"/>
</g>
<!-- \\Aura\\Marshal\\Relation\\HasOne&#45;&gt;\\Aura\\Marshal\\Relation\\RelationInterface -->
<g id="edge52" class="edge"><title>\\Aura\\Marshal\\Relation\\HasOne&#45;&gt;\\Aura\\Marshal\\Relation\\RelationInterface</title>
<path fill="none" stroke="black" stroke-dasharray="1,5" d="M478.267,-303.811C466.798,-308.435 453.435,-314.389 442,-321 407.371,-341.021 404.629,-354.979 370,-375 367.355,-376.529 364.608,-378.023 361.804,-379.473"/>
<polygon fill="none" stroke="black" points="360.143,-376.39 352.718,-383.947 363.235,-382.67 360.143,-376.39"/>
</g>
<!-- \\Aura\\Marshal\\Type\\Builder -->
<g id="node25" class="node"><title>\\Aura\\Marshal\\Type\\Builder</title>
<a xlink:href="Type.Builder.html" xlink:title="Builder" target="_parent">
<polygon fill="none" stroke="black" points="537.208,-933 474.792,-933 474.792,-897 537.208,-897 537.208,-933"/>
<text text-anchor="middle" x="506" y="-910.6" font-family="Courier,monospace" font-size="11.00">Builder</text>
</a>
</g>
<!-- \\Aura\\Marshal\\Type\\GenericType -->
<g id="node26" class="node"><title>\\Aura\\Marshal\\Type\\GenericType</title>
<a xlink:href="Type.GenericType.html" xlink:title="GenericType" target="_parent">
<polygon fill="none" stroke="black" points="550.113,-879 461.887,-879 461.887,-843 550.113,-843 550.113,-879"/>
<text text-anchor="middle" x="506" y="-856.6" font-family="Courier,monospace" font-size="11.00">GenericType</text>
</a>
</g>
<!-- \\Aura\\Marshal\\Type\\GenericType&#45;&gt;\\Aura\\Marshal\\Data -->
<g id="edge28" class="edge"><title>\\Aura\\Marshal\\Type\\GenericType&#45;&gt;\\Aura\\Marshal\\Data</title>
<path fill="none" stroke="black" d="M461.548,-861C426.11,-861 376.631,-861 343.286,-861"/>
<polygon fill="none" stroke="black" points="343.066,-857.5 333.066,-861 343.066,-864.5 343.066,-857.5"/>
</g>
<!-- \\ArrayAccess -->
<g id="node47" class="node"><title>\\ArrayAccess</title>
<ellipse fill="none" stroke="black" cx="85" cy="-915" rx="66.044" ry="18"/>
<text text-anchor="middle" x="85" y="-909.4" font-family="Times,serif" font-size="14.00" fill="gray">\\ArrayAccess</text>
</g>
<!-- \\Aura\\Marshal\\Data&#45;&gt;\\ArrayAccess -->
<g id="edge32" class="edge"><title>\\Aura\\Marshal\\Data&#45;&gt;\\ArrayAccess</title>
<path fill="none" stroke="black" stroke-dasharray="1,5" d="M278.583,-867.514C245.549,-875.659 188.039,-889.84 144.442,-900.59"/>
<polygon fill="none" stroke="black" points="143.397,-897.242 134.526,-903.035 145.073,-904.039 143.397,-897.242"/>
</g>
<!-- \\Countable -->
<g id="node49" class="node"><title>\\Countable</title>
<ellipse fill="none" stroke="black" cx="85" cy="-861" rx="56.1921" ry="18"/>
<text text-anchor="middle" x="85" y="-855.4" font-family="Times,serif" font-size="14.00" fill="gray">\\Countable</text>
</g>
<!-- \\Aura\\Marshal\\Data&#45;&gt;\\Countable -->
<g id="edge34" class="edge"><title>\\Aura\\Marshal\\Data&#45;&gt;\\Countable</title>
<path fill="none" stroke="black" stroke-dasharray="1,5" d="M278.583,-861C247.303,-861 194.079,-861 151.501,-861"/>
<polygon fill="none" stroke="black" points="151.483,-857.5 141.483,-861 151.483,-864.5 151.483,-857.5"/>
</g>
<!-- \\IteratorAggregate -->
<g id="node51" class="node"><title>\\IteratorAggregate</title>
<ellipse fill="none" stroke="black" cx="85" cy="-807" rx="85.0676" ry="18"/>
<text text-anchor="middle" x="85" y="-801.4" font-family="Times,serif" font-size="14.00" fill="gray">\\IteratorAggregate</text>
</g>
<!-- \\Aura\\Marshal\\Data&#45;&gt;\\IteratorAggregate -->
<g id="edge36" class="edge"><title>\\Aura\\Marshal\\Data&#45;&gt;\\IteratorAggregate</title>
<path fill="none" stroke="black" stroke-dasharray="1,5" d="M278.583,-854.486C247.132,-846.731 193.495,-833.506 150.802,-822.978"/>
<polygon fill="none" stroke="black" points="151.587,-819.567 141.04,-820.571 149.911,-826.364 151.587,-819.567"/>
</g>
<!-- \\Aura\\Marshal\\DataIterator -->
<g id="node28" class="node"><title>\\Aura\\Marshal\\DataIterator</title>
<a xlink:href="DataIterator.html" xlink:title="DataIterator" target="_parent">
<polygon fill="none" stroke="black" points="553.713,-258 458.287,-258 458.287,-222 553.713,-222 553.713,-258"/>
<text text-anchor="middle" x="506" y="-235.6" font-family="Courier,monospace" font-size="11.00">DataIterator</text>
</a>
</g>
<!-- \\Iterator -->
<g id="node53" class="node"><title>\\Iterator</title>
<ellipse fill="none" stroke="black" cx="306" cy="-72" rx="44.6347" ry="18"/>
<text text-anchor="middle" x="306" y="-66.4" font-family="Times,serif" font-size="14.00" fill="gray">\\Iterator</text>
</g>
<!-- \\Aura\\Marshal\\DataIterator&#45;&gt;\\Iterator -->
<g id="edge38" class="edge"><title>\\Aura\\Marshal\\DataIterator&#45;&gt;\\Iterator</title>
<path fill="none" stroke="black" stroke-dasharray="1,5" d="M458.101,-222.438C452.489,-219.608 446.988,-216.457 442,-213 394.387,-180.004 350.171,-128.211 326.042,-97.4317"/>
<polygon fill="none" stroke="black" points="328.67,-95.1087 319.783,-89.3408 323.133,-99.3919 328.67,-95.1087"/>
</g>
<!-- \\Aura\\Marshal\\Exception -->
<g id="node29" class="node"><title>\\Aura\\Marshal\\Exception</title>
<a xlink:href="Exception.html" xlink:title="Exception" target="_parent">
<polygon fill="none" stroke="black" points="543.911,-204 468.089,-204 468.089,-168 543.911,-168 543.911,-204"/>
<text text-anchor="middle" x="506" y="-181.6" font-family="Courier,monospace" font-size="11.00">Exception</text>
</a>
</g>
<!-- \\Exception -->
<g id="node39" class="node"><title>\\Exception</title>
<ellipse fill="none" stroke="black" cx="306" cy="-18" rx="52.7417" ry="18"/>
<text text-anchor="middle" x="306" y="-12.4" font-family="Times,serif" font-size="14.00" fill="gray">\Exception</text>
</g>
<!-- \\Aura\\Marshal\\Exception&#45;&gt;\\Exception -->
<g id="edge18" class="edge"><title>\\Aura\\Marshal\\Exception&#45;&gt;\\Exception</title>
<path fill="none" stroke="black" d="M468.197,-174.598C459.002,-170.623 449.605,-165.487 442,-159 396.406,-120.112 415.594,-83.8881 370,-45 365.418,-41.0919 360.185,-37.6738 354.739,-34.7046"/>
<polygon fill="none" stroke="black" points="355.964,-31.4065 345.447,-30.1244 352.869,-37.6851 355.964,-31.4065"/>
</g>
<!-- \\Aura\\Marshal\\Manager -->
<g id="node30" class="node"><title>\\Aura\\Marshal\\Manager</title>
<a xlink:href="Manager.html" xlink:title="Manager" target="_parent">
<polygon fill="none" stroke="black" points="537.208,-150 474.792,-150 474.792,-114 537.208,-114 537.208,-150"/>
<text text-anchor="middle" x="506" y="-127.6" font-family="Courier,monospace" font-size="11.00">Manager</text>
</a>
</g>
</g>
</svg>
