<?xml version="1.0" encoding="UTF-8" standalone="no"?>
<!DOCTYPE svg PUBLIC "-//W3C//DTD SVG 1.1//EN"
 "http://www.w3.org/Graphics/SVG/1.1/DTD/svg11.dtd">
<!-- Generated by graphviz version 2.28.0 (20111028.1807)
 -->
<!-- Title: G Pages: 1 -->
<svg width="580pt" height="1441pt"
 viewBox="0.00 0.00 580.00 1441.00" xmlns="http://www.w3.org/2000/svg" xmlns:xlink="http://www.w3.org/1999/xlink">
<g id="graph1" class="graph" transform="scale(1 1) rotate(0) translate(4 1437)">
<title>G</title>
<polygon fill="white" stroke="white" points="-4,5 -4,-1437 577,-1437 577,5 -4,5"/>
<g id="graph2" class="cluster"><title>cluster_Aura</title>
<polyline fill="none" stroke="gray" points="183,-98 552,-98 "/>
<path fill="none" stroke="gray" d="M552,-98C558,-98 564,-104 564,-110"/>
<polyline fill="none" stroke="gray" points="564,-110 564,-1413 "/>
<path fill="none" stroke="gray" d="M564,-1413C564,-1419 558,-1425 552,-1425"/>
<polyline fill="none" stroke="gray" points="552,-1425 183,-1425 "/>
<path fill="none" stroke="gray" d="M183,-1425C177,-1425 171,-1419 171,-1413"/>
<polyline fill="none" stroke="gray" points="171,-1413 171,-110 "/>
<path fill="none" stroke="gray" d="M171,-110C171,-104 177,-98 183,-98"/>
<text text-anchor="middle" x="367.5" y="-1410" font-family="Times,serif" font-size="11.00" fill="gray">Aura</text>
</g>
<g id="graph3" class="cluster"><title>cluster_Aura\Sql</title>
<polyline fill="none" stroke="gray" points="191,-106 544,-106 "/>
<path fill="none" stroke="gray" d="M544,-106C550,-106 556,-112 556,-118"/>
<polyline fill="none" stroke="gray" points="556,-118 556,-1384 "/>
<path fill="none" stroke="gray" d="M556,-1384C556,-1390 550,-1396 544,-1396"/>
<polyline fill="none" stroke="gray" points="544,-1396 191,-1396 "/>
<path fill="none" stroke="gray" d="M191,-1396C185,-1396 179,-1390 179,-1384"/>
<polyline fill="none" stroke="gray" points="179,-1384 179,-118 "/>
<path fill="none" stroke="gray" d="M179,-118C179,-112 185,-106 191,-106"/>
<text text-anchor="middle" x="367.5" y="-1381" font-family="Times,serif" font-size="11.00" fill="gray">Sql</text>
</g>
<g id="graph4" class="cluster"><title>cluster_Aura\Sql\Connection</title>
<polyline fill="none" stroke="gray" points="199,-1132 508,-1132 "/>
<path fill="none" stroke="gray" d="M508,-1132C514,-1132 520,-1138 520,-1144"/>
<polyline fill="none" stroke="gray" points="520,-1144 520,-1355 "/>
<path fill="none" stroke="gray" d="M520,-1355C520,-1361 514,-1367 508,-1367"/>
<polyline fill="none" stroke="gray" points="508,-1367 199,-1367 "/>
<path fill="none" stroke="gray" d="M199,-1367C193,-1367 187,-1361 187,-1355"/>
<polyline fill="none" stroke="gray" points="187,-1355 187,-1144 "/>
<path fill="none" stroke="gray" d="M187,-1144C187,-1138 193,-1132 199,-1132"/>
<text text-anchor="middle" x="353.5" y="-1352" font-family="Times,serif" font-size="11.00" fill="gray">Connection</text>
</g>
<g id="graph5" class="cluster"><title>cluster_Aura\Sql\Exception</title>
<polyline fill="none" stroke="gray" points="437,-943 531,-943 "/>
<path fill="none" stroke="gray" d="M531,-943C537,-943 543,-949 543,-955"/>
<polyline fill="none" stroke="gray" points="543,-955 543,-1112 "/>
<path fill="none" stroke="gray" d="M543,-1112C543,-1118 537,-1124 531,-1124"/>
<polyline fill="none" stroke="gray" points="531,-1124 437,-1124 "/>
<path fill="none" stroke="gray" d="M437,-1124C431,-1124 425,-1118 425,-1112"/>
<polyline fill="none" stroke="gray" points="425,-1112 425,-955 "/>
<path fill="none" stroke="gray" d="M425,-955C425,-949 431,-943 437,-943"/>
<text text-anchor="middle" x="484" y="-1109" font-family="Times,serif" font-size="11.00" fill="gray">Exception</text>
</g>
<g id="graph6" class="cluster"><title>cluster_Aura\Sql\Query</title>
<polyline fill="none" stroke="gray" points="216,-646 511,-646 "/>
<path fill="none" stroke="gray" d="M511,-646C517,-646 523,-652 523,-658"/>
<polyline fill="none" stroke="gray" points="523,-658 523,-923 "/>
<path fill="none" stroke="gray" d="M523,-923C523,-929 517,-935 511,-935"/>
<polyline fill="none" stroke="gray" points="511,-935 216,-935 "/>
<path fill="none" stroke="gray" d="M216,-935C210,-935 204,-929 204,-923"/>
<polyline fill="none" stroke="gray" points="204,-923 204,-658 "/>
<path fill="none" stroke="gray" d="M204,-658C204,-652 210,-646 216,-646"/>
<text text-anchor="middle" x="363.5" y="-920" font-family="Times,serif" font-size="11.00" fill="gray">Query</text>
</g>
<!-- \\Aura\\Sql\\Connection\\AbstractConnection -->
<g id="node4" class="node"><title>\\Aura\\Sql\\Connection\\AbstractConnection</title>
<a xlink:href="Connection.AbstractConnection.html" xlink:title="AbstractConnection" target="_parent">
<polygon fill="none" stroke="black" points="330.319,-1257 195.681,-1257 195.681,-1221 330.319,-1221 330.319,-1257"/>
<text text-anchor="middle" x="263" y="-1234.6" font-family="Courier,monospace" font-size="11.00">AbstractConnection</text>
</a>
</g>
<!-- \\Aura\\Sql\\Connection\\Mysql -->
<g id="node5" class="node"><title>\\Aura\\Sql\\Connection\\Mysql</title>
<a xlink:href="Connection.Mysql.html" xlink:title="Mysql" target="_parent">
<polygon fill="none" stroke="black" points="511,-1338 457,-1338 457,-1302 511,-1302 511,-1338"/>
<text text-anchor="middle" x="484" y="-1315.6" font-family="Courier,monospace" font-size="11.00">Mysql</text>
</a>
</g>
<!-- \\Aura\\Sql\\Connection\\Mysql&#45;&gt;\\Aura\\Sql\\Connection\\AbstractConnection -->
<g id="edge10" class="edge"><title>\\Aura\\Sql\\Connection\\Mysql&#45;&gt;\\Aura\\Sql\\Connection\\AbstractConnection</title>
<path fill="none" stroke="black" d="M456.583,-1310.23C423.585,-1298.02 366.165,-1276.79 322.586,-1260.67"/>
<polygon fill="none" stroke="black" points="323.545,-1257.29 312.952,-1257.11 321.117,-1263.86 323.545,-1257.29"/>
</g>
<!-- \\Aura\\Sql\\Connection\\Pgsql -->
<g id="node6" class="node"><title>\\Aura\\Sql\\Connection\\Pgsql</title>
<a xlink:href="Connection.Pgsql.html" xlink:title="Pgsql" target="_parent">
<polygon fill="none" stroke="black" points="511,-1284 457,-1284 457,-1248 511,-1248 511,-1284"/>
<text text-anchor="middle" x="484" y="-1261.6" font-family="Courier,monospace" font-size="11.00">Pgsql</text>
</a>
</g>
<!-- \\Aura\\Sql\\Connection\\Pgsql&#45;&gt;\\Aura\\Sql\\Connection\\AbstractConnection -->
<g id="edge12" class="edge"><title>\\Aura\\Sql\\Connection\\Pgsql&#45;&gt;\\Aura\\Sql\\Connection\\AbstractConnection</title>
<path fill="none" stroke="black" d="M456.583,-1262.74C427.952,-1259.21 380.936,-1253.42 340.528,-1248.43"/>
<polygon fill="none" stroke="black" points="340.765,-1244.94 330.412,-1247.19 339.909,-1251.89 340.765,-1244.94"/>
</g>
<!-- \\Aura\\Sql\\Connection\\Sqlite -->
<g id="node7" class="node"><title>\\Aura\\Sql\\Connection\\Sqlite</title>
<a xlink:href="Connection.Sqlite.html" xlink:title="Sqlite" target="_parent">
<polygon fill="none" stroke="black" points="511.608,-1230 456.392,-1230 456.392,-1194 511.608,-1194 511.608,-1230"/>
<text text-anchor="middle" x="484" y="-1207.6" font-family="Courier,monospace" font-size="11.00">Sqlite</text>
</a>
</g>
<!-- \\Aura\\Sql\\Connection\\Sqlite&#45;&gt;\\Aura\\Sql\\Connection\\AbstractConnection -->
<g id="edge14" class="edge"><title>\\Aura\\Sql\\Connection\\Sqlite&#45;&gt;\\Aura\\Sql\\Connection\\AbstractConnection</title>
<path fill="none" stroke="black" d="M456.146,-1215.31C427.506,-1218.84 380.832,-1224.6 340.658,-1229.55"/>
<polygon fill="none" stroke="black" points="340.096,-1226.09 330.599,-1230.79 340.952,-1233.04 340.096,-1226.09"/>
</g>
<!-- \\Aura\\Sql\\Connection\\Sqlsrv -->
<g id="node8" class="node"><title>\\Aura\\Sql\\Connection\\Sqlsrv</title>
<a xlink:href="Connection.Sqlsrv.html" xlink:title="Sqlsrv" target="_parent">
<polygon fill="none" stroke="black" points="511.608,-1176 456.392,-1176 456.392,-1140 511.608,-1140 511.608,-1176"/>
<text text-anchor="middle" x="484" y="-1153.6" font-family="Courier,monospace" font-size="11.00">Sqlsrv</text>
</a>
</g>
<!-- \\Aura\\Sql\\Connection\\Sqlsrv&#45;&gt;\\Aura\\Sql\\Connection\\AbstractConnection -->
<g id="edge16" class="edge"><title>\\Aura\\Sql\\Connection\\Sqlsrv&#45;&gt;\\Aura\\Sql\\Connection\\AbstractConnection</title>
<path fill="none" stroke="black" d="M456.297,-1169.35C445.073,-1174.15 431.888,-1179.81 420,-1185 387.906,-1199.01 381.046,-1205.41 348,-1217 345.421,-1217.9 342.787,-1218.79 340.117,-1219.66"/>
<polygon fill="none" stroke="black" points="338.841,-1216.39 330.335,-1222.7 340.924,-1223.07 338.841,-1216.39"/>
</g>
<!-- \\Aura\\Sql\\Exception\\NoSuchGateway -->
<g id="node10" class="node"><title>\\Aura\\Sql\\Exception\\NoSuchGateway</title>
<a xlink:href="Exception.NoSuchGateway.html" xlink:title="NoSuchGateway" target="_parent">
<polygon fill="none" stroke="black" points="534.814,-1095 433.186,-1095 433.186,-1059 534.814,-1059 534.814,-1095"/>
<text text-anchor="middle" x="484" y="-1072.6" font-family="Courier,monospace" font-size="11.00">NoSuchGateway</text>
</a>
</g>
<!-- \\Aura\\Sql\\Exception -->
<g id="node25" class="node"><title>\\Aura\\Sql\\Exception</title>
<a xlink:href="Exception.html" xlink:title="Exception" target="_parent">
<polygon fill="none" stroke="black" points="300.911,-1041 225.089,-1041 225.089,-1005 300.911,-1005 300.911,-1041"/>
<text text-anchor="middle" x="263" y="-1018.6" font-family="Courier,monospace" font-size="11.00">Exception</text>
</a>
</g>
<!-- \\Aura\\Sql\\Exception\\NoSuchGateway&#45;&gt;\\Aura\\Sql\\Exception -->
<g id="edge18" class="edge"><title>\\Aura\\Sql\\Exception\\NoSuchGateway&#45;&gt;\\Aura\\Sql\\Exception</title>
<path fill="none" stroke="black" d="M433.031,-1064.68C396.221,-1055.6 346.515,-1043.35 310.541,-1034.48"/>
<polygon fill="none" stroke="black" points="311.328,-1031.07 300.781,-1032.07 309.652,-1037.86 311.328,-1031.07"/>
</g>
<!-- \\Aura\\Sql\\Exception\\NoSuchMaster -->
<g id="node11" class="node"><title>\\Aura\\Sql\\Exception\\NoSuchMaster</title>
<a xlink:href="Exception.NoSuchMaster.html" xlink:title="NoSuchMaster" target="_parent">
<polygon fill="none" stroke="black" points="531.713,-1041 436.287,-1041 436.287,-1005 531.713,-1005 531.713,-1041"/>
<text text-anchor="middle" x="484" y="-1018.6" font-family="Courier,monospace" font-size="11.00">NoSuchMaster</text>
</a>
</g>
<!-- \\Aura\\Sql\\Exception\\NoSuchMaster&#45;&gt;\\Aura\\Sql\\Exception -->
<g id="edge20" class="edge"><title>\\Aura\\Sql\\Exception\\NoSuchMaster&#45;&gt;\\Aura\\Sql\\Exception</title>
<path fill="none" stroke="black" d="M436.288,-1023C399.314,-1023 347.915,-1023 310.894,-1023"/>
<polygon fill="none" stroke="black" points="310.857,-1019.5 300.857,-1023 310.857,-1026.5 310.857,-1019.5"/>
</g>
<!-- \\Aura\\Sql\\Exception\\NoSuchSlave -->
<g id="node12" class="node"><title>\\Aura\\Sql\\Exception\\NoSuchSlave</title>
<a xlink:href="Exception.NoSuchSlave.html" xlink:title="NoSuchSlave" target="_parent">
<polygon fill="none" stroke="black" points="528.113,-987 439.887,-987 439.887,-951 528.113,-951 528.113,-987"/>
<text text-anchor="middle" x="484" y="-964.6" font-family="Courier,monospace" font-size="11.00">NoSuchSlave</text>
</a>
</g>
<!-- \\Aura\\Sql\\Exception\\NoSuchSlave&#45;&gt;\\Aura\\Sql\\Exception -->
<g id="edge22" class="edge"><title>\\Aura\\Sql\\Exception\\NoSuchSlave&#45;&gt;\\Aura\\Sql\\Exception</title>
<path fill="none" stroke="black" d="M439.733,-979.669C402.543,-988.839 349.027,-1002.03 310.838,-1011.45"/>
<polygon fill="none" stroke="black" points="309.861,-1008.09 300.99,-1013.88 311.537,-1014.88 309.861,-1008.09"/>
</g>
<!-- \\Aura\\Sql\\Query\\AbstractQuery -->
<g id="node14" class="node"><title>\\Aura\\Sql\\Query\\AbstractQuery</title>
<a xlink:href="Query.AbstractQuery.html" xlink:title="AbstractQuery" target="_parent">
<polygon fill="none" stroke="black" points="313.814,-771 212.186,-771 212.186,-735 313.814,-735 313.814,-771"/>
<text text-anchor="middle" x="263" y="-748.6" font-family="Courier,monospace" font-size="11.00">AbstractQuery</text>
</a>
</g>
<!-- \\Aura\\Sql\\Query\\Delete -->
<g id="node15" class="node"><title>\\Aura\\Sql\\Query\\Delete</title>
<a xlink:href="Query.Delete.html" xlink:title="Delete" target="_parent">
<polygon fill="none" stroke="black" points="511.608,-906 456.392,-906 456.392,-870 511.608,-870 511.608,-906"/>
<text text-anchor="middle" x="484" y="-883.6" font-family="Courier,monospace" font-size="11.00">Delete</text>
</a>
</g>
<!-- \\Aura\\Sql\\Query\\Delete&#45;&gt;\\Aura\\Sql\\Query\\AbstractQuery -->
<g id="edge26" class="edge"><title>\\Aura\\Sql\\Query\\Delete&#45;&gt;\\Aura\\Sql\\Query\\AbstractQuery</title>
<path fill="none" stroke="black" d="M456.089,-879.648C444.33,-875.224 430.791,-869.023 420,-861 379.996,-831.257 390.103,-801.688 348,-775 340.599,-770.309 332.229,-766.614 323.71,-763.704"/>
<polygon fill="none" stroke="black" points="324.661,-760.335 314.074,-760.742 322.604,-767.026 324.661,-760.335"/>
</g>
<!-- \\Aura\\Sql\\Query\\Factory -->
<g id="node16" class="node"><title>\\Aura\\Sql\\Query\\Factory</title>
<a xlink:href="Query.Factory.html" xlink:title="Factory" target="_parent">
<polygon fill="none" stroke="black" points="515.208,-852 452.792,-852 452.792,-816 515.208,-816 515.208,-852"/>
<text text-anchor="middle" x="484" y="-829.6" font-family="Courier,monospace" font-size="11.00">Factory</text>
</a>
</g>
<!-- \\Aura\\Sql\\Query\\Insert -->
<g id="node17" class="node"><title>\\Aura\\Sql\\Query\\Insert</title>
<a xlink:href="Query.Insert.html" xlink:title="Insert" target="_parent">
<polygon fill="none" stroke="black" points="511.608,-798 456.392,-798 456.392,-762 511.608,-762 511.608,-798"/>
<text text-anchor="middle" x="484" y="-775.6" font-family="Courier,monospace" font-size="11.00">Insert</text>
</a>
</g>
<!-- \\Aura\\Sql\\Query\\Insert&#45;&gt;\\Aura\\Sql\\Query\\AbstractQuery -->
<g id="edge28" class="edge"><title>\\Aura\\Sql\\Query\\Insert&#45;&gt;\\Aura\\Sql\\Query\\AbstractQuery</title>
<path fill="none" stroke="black" d="M456.146,-776.689C423.473,-772.661 367.327,-765.739 324.139,-760.414"/>
<polygon fill="none" stroke="black" points="324.373,-756.917 314.02,-759.167 323.517,-763.864 324.373,-756.917"/>
</g>
<!-- \\Aura\\Sql\\Query\\Select -->
<g id="node18" class="node"><title>\\Aura\\Sql\\Query\\Select</title>
<a xlink:href="Query.Select.html" xlink:title="Select" target="_parent">
<polygon fill="none" stroke="black" points="511.608,-744 456.392,-744 456.392,-708 511.608,-708 511.608,-744"/>
<text text-anchor="middle" x="484" y="-721.6" font-family="Courier,monospace" font-size="11.00">Select</text>
</a>
</g>
<!-- \\Aura\\Sql\\Query\\Select&#45;&gt;\\Aura\\Sql\\Query\\AbstractQuery -->
<g id="edge30" class="edge"><title>\\Aura\\Sql\\Query\\Select&#45;&gt;\\Aura\\Sql\\Query\\AbstractQuery</title>
<path fill="none" stroke="black" d="M456.146,-729.311C423.473,-733.339 367.327,-740.261 324.139,-745.586"/>
<polygon fill="none" stroke="black" points="323.517,-742.136 314.02,-746.833 324.373,-749.083 323.517,-742.136"/>
</g>
<!-- \\Aura\\Sql\\Query\\Update -->
<g id="node19" class="node"><title>\\Aura\\Sql\\Query\\Update</title>
<a xlink:href="Query.Update.html" xlink:title="Update" target="_parent">
<polygon fill="none" stroke="black" points="511.608,-690 456.392,-690 456.392,-654 511.608,-654 511.608,-690"/>
<text text-anchor="middle" x="484" y="-667.6" font-family="Courier,monospace" font-size="11.00">Update</text>
</a>
</g>
<!-- \\Aura\\Sql\\Query\\Update&#45;&gt;\\Aura\\Sql\\Query\\AbstractQuery -->
<g id="edge32" class="edge"><title>\\Aura\\Sql\\Query\\Update&#45;&gt;\\Aura\\Sql\\Query\\AbstractQuery</title>
<path fill="none" stroke="black" d="M456.297,-683.351C445.073,-688.146 431.888,-693.811 420,-699 387.906,-713.009 381.046,-719.415 348,-731 340.313,-733.695 332.13,-736.232 324.001,-738.558"/>
<polygon fill="none" stroke="black" points="322.852,-735.244 314.15,-741.287 324.721,-741.99 322.852,-735.244"/>
</g>
<!-- \\Aura\\Sql\\AbstractMapper -->
<g id="node20" class="node"><title>\\Aura\\Sql\\AbstractMapper</title>
<a xlink:href="AbstractMapper.html" xlink:title="AbstractMapper" target="_parent">
<polygon fill="none" stroke="black" points="538.416,-636 429.584,-636 429.584,-600 538.416,-600 538.416,-636"/>
<text text-anchor="middle" x="484" y="-613.6" font-family="Courier,monospace" font-size="11.00">AbstractMapper</text>
</a>
</g>
<!-- \\Aura\\Sql\\Column -->
<g id="node21" class="node"><title>\\Aura\\Sql\\Column</title>
<a xlink:href="Column.html" xlink:title="Column" target="_parent">
<polygon fill="none" stroke="black" points="511.608,-582 456.392,-582 456.392,-546 511.608,-546 511.608,-582"/>
<text text-anchor="middle" x="484" y="-559.6" font-family="Courier,monospace" font-size="11.00">Column</text>
</a>
</g>
<!-- \\Aura\\Sql\\ColumnFactory -->
<g id="node22" class="node"><title>\\Aura\\Sql\\ColumnFactory</title>
<a xlink:href="ColumnFactory.html" xlink:title="ColumnFactory" target="_parent">
<polygon fill="none" stroke="black" points="534.814,-528 433.186,-528 433.186,-492 534.814,-492 534.814,-528"/>
<text text-anchor="middle" x="484" y="-505.6" font-family="Courier,monospace" font-size="11.00">ColumnFactory</text>
</a>
</g>
<!-- \\Aura\\Sql\\ConnectionFactory -->
<g id="node23" class="node"><title>\\Aura\\Sql\\ConnectionFactory</title>
<a xlink:href="ConnectionFactory.html" xlink:title="ConnectionFactory" target="_parent">
<polygon fill="none" stroke="black" points="548.218,-474 419.782,-474 419.782,-438 548.218,-438 548.218,-474"/>
<text text-anchor="middle" x="484" y="-451.6" font-family="Courier,monospace" font-size="11.00">ConnectionFactory</text>
</a>
</g>
<!-- \\Aura\\Sql\\ConnectionLocator -->
<g id="node24" class="node"><title>\\Aura\\Sql\\ConnectionLocator</title>
<a xlink:href="ConnectionLocator.html" xlink:title="ConnectionLocator" target="_parent">
<polygon fill="none" stroke="black" points="548.218,-420 419.782,-420 419.782,-384 548.218,-384 548.218,-420"/>
<text text-anchor="middle" x="484" y="-397.6" font-family="Courier,monospace" font-size="11.00">ConnectionLocator</text>
</a>
</g>
<!-- \\Exception -->
<g id="node43" class="node"><title>\\Exception</title>
<ellipse fill="none" stroke="black" cx="53" cy="-1023" rx="52.7417" ry="18"/>
<text text-anchor="middle" x="53" y="-1017.4" font-family="Times,serif" font-size="14.00" fill="gray">\Exception</text>
</g>
<!-- \\Aura\\Sql\\Exception&#45;&gt;\\Exception -->
<g id="edge24" class="edge"><title>\\Aura\\Sql\\Exception&#45;&gt;\\Exception</title>
<path fill="none" stroke="black" d="M225.293,-1023C195.146,-1023 151.781,-1023 116.227,-1023"/>
<polygon fill="none" stroke="black" points="115.946,-1019.5 105.946,-1023 115.946,-1026.5 115.946,-1019.5"/>
</g>
<!-- \\Aura\\Sql\\Gateway -->
<g id="node26" class="node"><title>\\Aura\\Sql\\Gateway</title>
<a xlink:href="Gateway.html" xlink:title="Gateway" target="_parent">
<polygon fill="none" stroke="black" points="515.208,-366 452.792,-366 452.792,-330 515.208,-330 515.208,-366"/>
<text text-anchor="middle" x="484" y="-343.6" font-family="Courier,monospace" font-size="11.00">Gateway</text>
</a>
</g>
<!-- \\Aura\\Sql\\GatewayIterator -->
<g id="node27" class="node"><title>\\Aura\\Sql\\GatewayIterator</title>
<a xlink:href="GatewayIterator.html" xlink:title="GatewayIterator" target="_parent">
<polygon fill="none" stroke="black" points="541.516,-258 426.484,-258 426.484,-222 541.516,-222 541.516,-258"/>
<text text-anchor="middle" x="484" y="-235.6" font-family="Courier,monospace" font-size="11.00">GatewayIterator</text>
</a>
</g>
<!-- \\Iterator -->
<g id="node49" class="node"><title>\\Iterator</title>
<ellipse fill="none" stroke="black" cx="263" cy="-72" rx="44.6347" ry="18"/>
<text text-anchor="middle" x="263" y="-66.4" font-family="Times,serif" font-size="14.00" fill="gray">\\Iterator</text>
</g>
<!-- \\Aura\\Sql\\GatewayIterator&#45;&gt;\\Iterator -->
<g id="edge34" class="edge"><title>\\Aura\\Sql\\GatewayIterator&#45;&gt;\\Iterator</title>
<path fill="none" stroke="black" stroke-dasharray="1,5" d="M432.862,-221.876C428.289,-219.248 423.913,-216.297 420,-213 375.03,-175.112 394.12,-138.479 348,-102 337.746,-93.8892 325.118,-87.8653 312.799,-83.4339"/>
<polygon fill="none" stroke="black" points="313.629,-80.0223 303.036,-80.2119 311.435,-86.6696 313.629,-80.0223"/>
</g>
<!-- \\Aura\\Sql\\GatewayLocator -->
<g id="node28" class="node"><title>\\Aura\\Sql\\GatewayLocator</title>
<a xlink:href="GatewayLocator.html" xlink:title="GatewayLocator" target="_parent">
<polygon fill="none" stroke="black" points="538.416,-204 429.584,-204 429.584,-168 538.416,-168 538.416,-204"/>
<text text-anchor="middle" x="484" y="-181.6" font-family="Courier,monospace" font-size="11.00">GatewayLocator</text>
</a>
</g>
<!-- \\IteratorAggregate -->
<g id="node51" class="node"><title>\\IteratorAggregate</title>
<ellipse fill="none" stroke="black" cx="263" cy="-18" rx="85.0676" ry="18"/>
<text text-anchor="middle" x="263" y="-12.4" font-family="Times,serif" font-size="14.00" fill="gray">\\IteratorAggregate</text>
</g>
<!-- \\Aura\\Sql\\GatewayLocator&#45;&gt;\\IteratorAggregate -->
<g id="edge36" class="edge"><title>\\Aura\\Sql\\GatewayLocator&#45;&gt;\\IteratorAggregate</title>
<path fill="none" stroke="black" stroke-dasharray="1,5" d="M432.821,-167.926C428.256,-165.287 423.893,-162.321 420,-159 374.406,-120.112 395.369,-81.7055 348,-45 343.073,-41.1824 337.591,-37.8964 331.854,-35.0692"/>
<polygon fill="none" stroke="black" points="333.232,-31.8517 322.672,-30.9939 330.392,-38.2498 333.232,-31.8517"/>
</g>
<!-- \\Aura\\Sql\\Profiler -->
<g id="node29" class="node"><title>\\Aura\\Sql\\Profiler</title>
<a xlink:href="Profiler.html" xlink:title="Profiler" target="_parent">
<polygon fill="none" stroke="black" points="518.309,-312 449.691,-312 449.691,-276 518.309,-276 518.309,-312"/>
<text text-anchor="middle" x="484" y="-289.6" font-family="Courier,monospace" font-size="11.00">Profiler</text>
</a>
</g>
<!-- \\Aura\\Sql\\ProfilerInterface -->
<g id="node30" class="node"><title>\\Aura\\Sql\\ProfilerInterface</title>
<a xlink:href="ProfilerInterface.html" xlink:title="ProfilerInterface" target="_parent">
<polygon fill="none" stroke="black" points="327.218,-312 198.782,-312 198.782,-276 327.218,-276 327.218,-312"/>
<text text-anchor="middle" x="263" y="-289.6" font-family="Courier,monospace" font-size="11.00">ProfilerInterface</text>
</a>
</g>
<!-- \\Aura\\Sql\\Profiler&#45;&gt;\\Aura\\Sql\\ProfilerInterface -->
<g id="edge38" class="edge"><title>\\Aura\\Sql\\Profiler&#45;&gt;\\Aura\\Sql\\ProfilerInterface</title>
<path fill="none" stroke="black" stroke-dasharray="1,5" d="M449.261,-294C419.65,-294 375.54,-294 337.789,-294"/>
<polygon fill="none" stroke="black" points="337.328,-290.5 327.328,-294 337.328,-297.5 337.328,-290.5"/>
</g>
<!-- \\Aura\\Sql\\UnitOfWork -->
<g id="node31" class="node"><title>\\Aura\\Sql\\UnitOfWork</title>
<a xlink:href="UnitOfWork.html" xlink:title="UnitOfWork" target="_parent">
<polygon fill="none" stroke="black" points="525.011,-150 442.989,-150 442.989,-114 525.011,-114 525.011,-150"/>
<text text-anchor="middle" x="484" y="-127.6" font-family="Courier,monospace" font-size="11.00">UnitOfWork</text>
</a>
</g>
</g>
</svg>
