<?xml version="1.0" encoding="UTF-8" standalone="no"?>
<!DOCTYPE svg PUBLIC "-//W3C//DTD SVG 1.1//EN"
 "http://www.w3.org/Graphics/SVG/1.1/DTD/svg11.dtd">
<!-- Generated by graphviz version 2.28.0 (20111028.1807)
 -->
<!-- Title: G Pages: 1 -->
<svg width="178pt" height="350pt"
 viewBox="0.00 0.00 178.00 350.00" xmlns="http://www.w3.org/2000/svg" xmlns:xlink="http://www.w3.org/1999/xlink">
<g id="graph1" class="graph" transform="scale(1 1) rotate(0) translate(4 346)">
<title>G</title>
<polygon fill="white" stroke="white" points="-4,5 -4,-346 175,-346 175,5 -4,5"/>
<g id="graph2" class="cluster"><title>cluster_Aura</title>
<polyline fill="none" stroke="gray" points="20,-8 150,-8 "/>
<path fill="none" stroke="gray" d="M150,-8C156,-8 162,-14 162,-20"/>
<polyline fill="none" stroke="gray" points="162,-20 162,-322 "/>
<path fill="none" stroke="gray" d="M162,-322C162,-328 156,-334 150,-334"/>
<polyline fill="none" stroke="gray" points="150,-334 20,-334 "/>
<path fill="none" stroke="gray" d="M20,-334C14,-334 8,-328 8,-322"/>
<polyline fill="none" stroke="gray" points="8,-322 8,-20 "/>
<path fill="none" stroke="gray" d="M8,-20C8,-14 14,-8 20,-8"/>
<text text-anchor="middle" x="85" y="-319" font-family="Times,serif" font-size="11.00" fill="gray">Aura</text>
</g>
<g id="graph3" class="cluster"><title>cluster_Aura\Session</title>
<polyline fill="none" stroke="gray" points="28,-16 142,-16 "/>
<path fill="none" stroke="gray" d="M142,-16C148,-16 154,-22 154,-28"/>
<polyline fill="none" stroke="gray" points="154,-28 154,-293 "/>
<path fill="none" stroke="gray" d="M154,-293C154,-299 148,-305 142,-305"/>
<polyline fill="none" stroke="gray" points="142,-305 28,-305 "/>
<path fill="none" stroke="gray" d="M28,-305C22,-305 16,-299 16,-293"/>
<polyline fill="none" stroke="gray" points="16,-293 16,-28 "/>
<path fill="none" stroke="gray" d="M16,-28C16,-22 22,-16 28,-16"/>
<text text-anchor="middle" x="85" y="-290" font-family="Times,serif" font-size="11.00" fill="gray">Session</text>
</g>
<!-- \\Aura\\Session\\CsrfToken -->
<g id="node3" class="node"><title>\\Aura\\Session\\CsrfToken</title>
<a xlink:href="CsrfToken.html" xlink:title="CsrfToken" target="_parent">
<polygon fill="none" stroke="black" points="122.911,-276 47.0892,-276 47.0892,-240 122.911,-240 122.911,-276"/>
<text text-anchor="middle" x="85" y="-253.6" font-family="Courier,monospace" font-size="11.00">CsrfToken</text>
</a>
</g>
<!-- \\Aura\\Session\\CsrfTokenFactory -->
<g id="node4" class="node"><title>\\Aura\\Session\\CsrfTokenFactory</title>
<a xlink:href="CsrfTokenFactory.html" xlink:title="CsrfTokenFactory" target="_parent">
<polygon fill="none" stroke="black" points="145.618,-222 24.3822,-222 24.3822,-186 145.618,-186 145.618,-222"/>
<text text-anchor="middle" x="85" y="-199.6" font-family="Courier,monospace" font-size="11.00">CsrfTokenFactory</text>
</a>
</g>
<!-- \\Aura\\Session\\Manager -->
<g id="node5" class="node"><title>\\Aura\\Session\\Manager</title>
<a xlink:href="Manager.html" xlink:title="Manager" target="_parent">
<polygon fill="none" stroke="black" points="116.208,-168 53.7921,-168 53.7921,-132 116.208,-132 116.208,-168"/>
<text text-anchor="middle" x="85" y="-145.6" font-family="Courier,monospace" font-size="11.00">Manager</text>
</a>
</g>
<!-- \\Aura\\Session\\Segment -->
<g id="node6" class="node"><title>\\Aura\\Session\\Segment</title>
<a xlink:href="Segment.html" xlink:title="Segment" target="_parent">
<polygon fill="none" stroke="black" points="116.208,-114 53.7921,-114 53.7921,-78 116.208,-78 116.208,-114"/>
<text text-anchor="middle" x="85" y="-91.6" font-family="Courier,monospace" font-size="11.00">Segment</text>
</a>
</g>
<!-- \\Aura\\Session\\SegmentFactory -->
<g id="node7" class="node"><title>\\Aura\\Session\\SegmentFactory</title>
<a xlink:href="SegmentFactory.html" xlink:title="SegmentFactory" target="_parent">
<polygon fill="none" stroke="black" points="139.416,-60 30.5842,-60 30.5842,-24 139.416,-24 139.416,-60"/>
<text text-anchor="middle" x="85" y="-37.6" font-family="Courier,monospace" font-size="11.00">SegmentFactory</text>
</a>
</g>
</g>
</svg>
