<?xml version="1.0" encoding="UTF-8" standalone="no"?>
<!DOCTYPE svg PUBLIC "-//W3C//DTD SVG 1.1//EN"
 "http://www.w3.org/Graphics/SVG/1.1/DTD/svg11.dtd">
<!-- Generated by graphviz version 2.28.0 (20110509.1545)
 -->
<!-- Title: G Pages: 1 -->
<svg width="350pt" height="458pt"
 viewBox="0.00 0.00 350.00 458.00" xmlns="http://www.w3.org/2000/svg" xmlns:xlink="http://www.w3.org/1999/xlink">
<g id="graph1" class="graph" transform="scale(1 1) rotate(0) translate(4 454)">
<title>G</title>
<polygon fill="white" stroke="white" points="-4,5 -4,-454 347,-454 347,5 -4,5"/>
<g id="graph2" class="cluster"><title>cluster_Aura</title>
<polyline fill="none" stroke="gray" points="192,-8 322,-8 "/>
<path fill="none" stroke="gray" d="M322,-8C328,-8 334,-14 334,-20"/>
<polyline fill="none" stroke="gray" points="334,-20 334,-430 "/>
<path fill="none" stroke="gray" d="M334,-430C334,-436 328,-442 322,-442"/>
<polyline fill="none" stroke="gray" points="322,-442 192,-442 "/>
<path fill="none" stroke="gray" d="M192,-442C186,-442 180,-436 180,-430"/>
<polyline fill="none" stroke="gray" points="180,-430 180,-20 "/>
<path fill="none" stroke="gray" d="M180,-20C180,-14 186,-8 192,-8"/>
<text text-anchor="middle" x="257" y="-427" font-family="Times,serif" font-size="11.00" fill="gray">Aura</text>
</g>
<g id="graph3" class="cluster"><title>cluster_Aura\Signal</title>
<polyline fill="none" stroke="gray" points="200,-16 314,-16 "/>
<path fill="none" stroke="gray" d="M314,-16C320,-16 326,-22 326,-28"/>
<polyline fill="none" stroke="gray" points="326,-28 326,-401 "/>
<path fill="none" stroke="gray" d="M326,-401C326,-407 320,-413 314,-413"/>
<polyline fill="none" stroke="gray" points="314,-413 200,-413 "/>
<path fill="none" stroke="gray" d="M200,-413C194,-413 188,-407 188,-401"/>
<polyline fill="none" stroke="gray" points="188,-401 188,-28 "/>
<path fill="none" stroke="gray" d="M188,-28C188,-22 194,-16 200,-16"/>
<text text-anchor="middle" x="257" y="-398" font-family="Times,serif" font-size="11.00" fill="gray">Signal</text>
</g>
<!-- \\Aura\\Signal\\Exception -->
<g id="node3" class="node"><title>\\Aura\\Signal\\Exception</title>
<a xlink:href="db_Aura_Signal_Exception.html" xlink:title="Exception" target="_parent">
<polygon fill="none" stroke="black" points="294.911,-384 219.089,-384 219.089,-348 294.911,-348 294.911,-384"/>
<text text-anchor="middle" x="257" y="-361.6" font-family="Courier,monospace" font-size="11.00">Exception</text>
</a>
</g>
<!-- \\Exception -->
<g id="node11" class="node"><title>\\Exception</title>
<ellipse fill="none" stroke="black" cx="62" cy="-366" rx="52.7417" ry="18"/>
<text text-anchor="middle" x="62" y="-360.4" font-family="Times,serif" font-size="14.00" fill="gray">\Exception</text>
</g>
<!-- \\Aura\\Signal\\Exception&#45;&gt;\\Exception -->
<g id="edge4" class="edge"><title>\\Aura\\Signal\\Exception&#45;&gt;\\Exception</title>
<path fill="none" stroke="black" d="M219.244,-366C192.713,-366 156.25,-366 125.221,-366"/>
<polygon fill="none" stroke="black" points="124.929,-362.5 114.929,-366 124.929,-369.5 124.929,-362.5"/>
</g>
<!-- \\Aura\\Signal\\Handler -->
<g id="node4" class="node"><title>\\Aura\\Signal\\Handler</title>
<a xlink:href="db_Aura_Signal_Handler.html" xlink:title="Handler" target="_parent">
<polygon fill="none" stroke="black" points="288.208,-330 225.792,-330 225.792,-294 288.208,-294 288.208,-330"/>
<text text-anchor="middle" x="257" y="-307.6" font-family="Courier,monospace" font-size="11.00">Handler</text>
</a>
</g>
<!-- \\Aura\\Signal\\HandlerFactory -->
<g id="node5" class="node"><title>\\Aura\\Signal\\HandlerFactory</title>
<a xlink:href="db_Aura_Signal_HandlerFactory.html" xlink:title="HandlerFactory" target="_parent">
<polygon fill="none" stroke="black" points="311.416,-276 202.584,-276 202.584,-240 311.416,-240 311.416,-276"/>
<text text-anchor="middle" x="257" y="-253.6" font-family="Courier,monospace" font-size="11.00">HandlerFactory</text>
</a>
</g>
<!-- \\Aura\\Signal\\Manager -->
<g id="node6" class="node"><title>\\Aura\\Signal\\Manager</title>
<a xlink:href="db_Aura_Signal_Manager.html" xlink:title="Manager" target="_parent">
<polygon fill="none" stroke="black" points="288.208,-222 225.792,-222 225.792,-186 288.208,-186 288.208,-222"/>
<text text-anchor="middle" x="257" y="-199.6" font-family="Courier,monospace" font-size="11.00">Manager</text>
</a>
</g>
<!-- \\Aura\\Signal\\Result -->
<g id="node7" class="node"><title>\\Aura\\Signal\\Result</title>
<a xlink:href="db_Aura_Signal_Result.html" xlink:title="Result" target="_parent">
<polygon fill="none" stroke="black" points="284.608,-168 229.392,-168 229.392,-132 284.608,-132 284.608,-168"/>
<text text-anchor="middle" x="257" y="-145.6" font-family="Courier,monospace" font-size="11.00">Result</text>
</a>
</g>
<!-- \\Aura\\Signal\\ResultCollection -->
<g id="node8" class="node"><title>\\Aura\\Signal\\ResultCollection</title>
<a xlink:href="db_Aura_Signal_ResultCollection.html" xlink:title="ResultCollection" target="_parent">
<polygon fill="none" stroke="black" points="317.618,-114 196.382,-114 196.382,-78 317.618,-78 317.618,-114"/>
<text text-anchor="middle" x="257" y="-91.6" font-family="Courier,monospace" font-size="11.00">ResultCollection</text>
</a>
</g>
<!-- \\ArrayObject -->
<g id="node13" class="node"><title>\\ArrayObject</title>
<ellipse fill="none" stroke="black" cx="62" cy="-96" rx="61.9613" ry="18"/>
<text text-anchor="middle" x="62" y="-90.4" font-family="Times,serif" font-size="14.00" fill="gray">\ArrayObject</text>
</g>
<!-- \\Aura\\Signal\\ResultCollection&#45;&gt;\\ArrayObject -->
<g id="edge6" class="edge"><title>\\Aura\\Signal\\ResultCollection&#45;&gt;\\ArrayObject</title>
<path fill="none" stroke="black" d="M196.255,-96C176.651,-96 154.667,-96 134.295,-96"/>
<polygon fill="none" stroke="black" points="134.127,-92.5001 124.127,-96 134.127,-99.5001 134.127,-92.5001"/>
</g>
<!-- \\Aura\\Signal\\ResultFactory -->
<g id="node9" class="node"><title>\\Aura\\Signal\\ResultFactory</title>
<a xlink:href="db_Aura_Signal_ResultFactory.html" xlink:title="ResultFactory" target="_parent">
<polygon fill="none" stroke="black" points="307.814,-60 206.186,-60 206.186,-24 307.814,-24 307.814,-60"/>
<text text-anchor="middle" x="257" y="-37.6" font-family="Courier,monospace" font-size="11.00">ResultFactory</text>
</a>
</g>
</g>
</svg>
