<?xml version="1.0" encoding="UTF-8" standalone="no"?>
<!DOCTYPE svg PUBLIC "-//W3C//DTD SVG 1.1//EN"
 "http://www.w3.org/Graphics/SVG/1.1/DTD/svg11.dtd">
<!-- Generated by graphviz version 2.28.0 (20111028.1807)
 -->
<!-- Title: G Pages: 1 -->
<svg width="590pt" height="2224pt"
 viewBox="0.00 0.00 590.00 2224.00" xmlns="http://www.w3.org/2000/svg" xmlns:xlink="http://www.w3.org/1999/xlink">
<g id="graph1" class="graph" transform="scale(1 1) rotate(0) translate(4 2220)">
<title>G</title>
<polygon fill="white" stroke="white" points="-4,5 -4,-2220 587,-2220 587,5 -4,5"/>
<g id="graph2" class="cluster"><title>cluster_Aura</title>
<polyline fill="none" stroke="gray" points="20,-44 562,-44 "/>
<path fill="none" stroke="gray" d="M562,-44C568,-44 574,-50 574,-56"/>
<polyline fill="none" stroke="gray" points="574,-56 574,-2196 "/>
<path fill="none" stroke="gray" d="M574,-2196C574,-2202 568,-2208 562,-2208"/>
<polyline fill="none" stroke="gray" points="562,-2208 20,-2208 "/>
<path fill="none" stroke="gray" d="M20,-2208C14,-2208 8,-2202 8,-2196"/>
<polyline fill="none" stroke="gray" points="8,-2196 8,-56 "/>
<path fill="none" stroke="gray" d="M8,-56C8,-50 14,-44 20,-44"/>
<text text-anchor="middle" x="291" y="-2193" font-family="Times,serif" font-size="11.00" fill="gray">Aura</text>
</g>
<g id="graph3" class="cluster"><title>cluster_Aura\Filter</title>
<polyline fill="none" stroke="gray" points="28,-52 554,-52 "/>
<path fill="none" stroke="gray" d="M554,-52C560,-52 566,-58 566,-64"/>
<polyline fill="none" stroke="gray" points="566,-64 566,-2167 "/>
<path fill="none" stroke="gray" d="M566,-2167C566,-2173 560,-2179 554,-2179"/>
<polyline fill="none" stroke="gray" points="554,-2179 28,-2179 "/>
<path fill="none" stroke="gray" d="M28,-2179C22,-2179 16,-2173 16,-2167"/>
<polyline fill="none" stroke="gray" points="16,-2167 16,-64 "/>
<path fill="none" stroke="gray" d="M16,-64C16,-58 22,-52 28,-52"/>
<text text-anchor="middle" x="291" y="-2164" font-family="Times,serif" font-size="11.00" fill="gray">Filter</text>
</g>
<g id="graph4" class="cluster"><title>cluster_Aura\Filter\Exception</title>
<polyline fill="none" stroke="gray" points="435,-214 529,-214 "/>
<path fill="none" stroke="gray" d="M529,-214C535,-214 541,-220 541,-226"/>
<polyline fill="none" stroke="gray" points="541,-226 541,-275 "/>
<path fill="none" stroke="gray" d="M541,-275C541,-281 535,-287 529,-287"/>
<polyline fill="none" stroke="gray" points="529,-287 435,-287 "/>
<path fill="none" stroke="gray" d="M435,-287C429,-287 423,-281 423,-275"/>
<polyline fill="none" stroke="gray" points="423,-275 423,-226 "/>
<path fill="none" stroke="gray" d="M423,-226C423,-220 429,-214 435,-214"/>
<text text-anchor="middle" x="482" y="-272" font-family="Times,serif" font-size="11.00" fill="gray">Exception</text>
</g>
<g id="graph5" class="cluster"><title>cluster_Aura\Filter\Rule</title>
<polyline fill="none" stroke="gray" points="418,-295 546,-295 "/>
<path fill="none" stroke="gray" d="M546,-295C552,-295 558,-301 558,-307"/>
<polyline fill="none" stroke="gray" points="558,-307 558,-2138 "/>
<path fill="none" stroke="gray" d="M558,-2138C558,-2144 552,-2150 546,-2150"/>
<polyline fill="none" stroke="gray" points="546,-2150 418,-2150 "/>
<path fill="none" stroke="gray" d="M418,-2150C412,-2150 406,-2144 406,-2138"/>
<polyline fill="none" stroke="gray" points="406,-2138 406,-307 "/>
<path fill="none" stroke="gray" d="M406,-307C406,-301 412,-295 418,-295"/>
<text text-anchor="middle" x="482" y="-2135" font-family="Times,serif" font-size="11.00" fill="gray">Rule</text>
</g>
<!-- \\Aura\\Filter\\Exception\\RuleNotMapped -->
<g id="node4" class="node"><title>\\Aura\\Filter\\Exception\\RuleNotMapped</title>
<a xlink:href="Exception.RuleNotMapped.html" xlink:title="RuleNotMapped" target="_parent">
<polygon fill="none" stroke="black" points="532.814,-258 431.186,-258 431.186,-222 532.814,-222 532.814,-258"/>
<text text-anchor="middle" x="482" y="-235.6" font-family="Courier,monospace" font-size="11.00">RuleNotMapped</text>
</a>
</g>
<!-- \\Aura\\Filter\\Exception -->
<g id="node41" class="node"><title>\\Aura\\Filter\\Exception</title>
<a xlink:href="Exception.html" xlink:title="Exception" target="_parent">
<polygon fill="none" stroke="black" points="308.911,-204 233.089,-204 233.089,-168 308.911,-168 308.911,-204"/>
<text text-anchor="middle" x="271" y="-181.6" font-family="Courier,monospace" font-size="11.00">Exception</text>
</a>
</g>
<!-- \\Aura\\Filter\\Exception\\RuleNotMapped&#45;&gt;\\Aura\\Filter\\Exception -->
<g id="edge8" class="edge"><title>\\Aura\\Filter\\Exception\\RuleNotMapped&#45;&gt;\\Aura\\Filter\\Exception</title>
<path fill="none" stroke="black" d="M430.939,-227.066C396.903,-218.272 352.177,-206.715 318.843,-198.103"/>
<polygon fill="none" stroke="black" points="319.446,-194.644 308.889,-195.531 317.695,-201.421 319.446,-194.644"/>
</g>
<!-- \\Aura\\Filter\\Rule\\All -->
<g id="node6" class="node"><title>\\Aura\\Filter\\Rule\\All</title>
<a xlink:href="Rule.All.html" xlink:title="All" target="_parent">
<polygon fill="none" stroke="black" points="509,-2121 455,-2121 455,-2085 509,-2085 509,-2121"/>
<text text-anchor="middle" x="482" y="-2098.6" font-family="Courier,monospace" font-size="11.00">All</text>
</a>
</g>
<!-- \\Aura\\Filter\\AbstractRule -->
<g id="node40" class="node"><title>\\Aura\\Filter\\AbstractRule</title>
<a xlink:href="AbstractRule.html" xlink:title="AbstractRule" target="_parent">
<polygon fill="none" stroke="black" points="318.713,-1230 223.287,-1230 223.287,-1194 318.713,-1194 318.713,-1230"/>
<text text-anchor="middle" x="271" y="-1207.6" font-family="Courier,monospace" font-size="11.00">AbstractRule</text>
</a>
</g>
<!-- \\Aura\\Filter\\Rule\\All&#45;&gt;\\Aura\\Filter\\AbstractRule -->
<g id="edge12" class="edge"><title>\\Aura\\Filter\\Rule\\All&#45;&gt;\\Aura\\Filter\\AbstractRule</title>
<path fill="none" stroke="black" d="M454.904,-2100.34C438.392,-2097.23 417.974,-2090.52 406,-2076 297.159,-1944.01 276.099,-1374.59 272.62,-1240.4"/>
<polygon fill="none" stroke="black" points="276.113,-1240.05 272.367,-1230.14 269.115,-1240.22 276.113,-1240.05"/>
</g>
<!-- \\Aura\\Filter\\Rule\\Alnum -->
<g id="node7" class="node"><title>\\Aura\\Filter\\Rule\\Alnum</title>
<a xlink:href="Rule.Alnum.html" xlink:title="Alnum" target="_parent">
<polygon fill="none" stroke="black" points="509,-2067 455,-2067 455,-2031 509,-2031 509,-2067"/>
<text text-anchor="middle" x="482" y="-2044.6" font-family="Courier,monospace" font-size="11.00">Alnum</text>
</a>
</g>
<!-- \\Aura\\Filter\\Rule\\Alnum&#45;&gt;\\Aura\\Filter\\AbstractRule -->
<g id="edge14" class="edge"><title>\\Aura\\Filter\\Rule\\Alnum&#45;&gt;\\Aura\\Filter\\AbstractRule</title>
<path fill="none" stroke="black" d="M454.952,-2046.3C438.461,-2043.18 418.047,-2036.46 406,-2022 303.609,-1899.1 277.755,-1369.02 272.938,-1240.26"/>
<polygon fill="none" stroke="black" points="276.428,-1239.91 272.569,-1230.05 269.433,-1240.17 276.428,-1239.91"/>
</g>
<!-- \\Aura\\Filter\\Rule\\Alpha -->
<g id="node8" class="node"><title>\\Aura\\Filter\\Rule\\Alpha</title>
<a xlink:href="Rule.Alpha.html" xlink:title="Alpha" target="_parent">
<polygon fill="none" stroke="black" points="509,-2013 455,-2013 455,-1977 509,-1977 509,-2013"/>
<text text-anchor="middle" x="482" y="-1990.6" font-family="Courier,monospace" font-size="11.00">Alpha</text>
</a>
</g>
<!-- \\Aura\\Filter\\Rule\\Alpha&#45;&gt;\\Aura\\Filter\\AbstractRule -->
<g id="edge16" class="edge"><title>\\Aura\\Filter\\Rule\\Alpha&#45;&gt;\\Aura\\Filter\\AbstractRule</title>
<path fill="none" stroke="black" d="M454.643,-1992.18C438.239,-1989.01 418.04,-1982.29 406,-1968 310.103,-1854.22 279.554,-1363.9 273.309,-1240.35"/>
<polygon fill="none" stroke="black" points="276.796,-1240 272.809,-1230.18 269.805,-1240.34 276.796,-1240"/>
</g>
<!-- \\Aura\\Filter\\Rule\\Any -->
<g id="node9" class="node"><title>\\Aura\\Filter\\Rule\\Any</title>
<a xlink:href="Rule.Any.html" xlink:title="Any" target="_parent">
<polygon fill="none" stroke="black" points="509,-1959 455,-1959 455,-1923 509,-1923 509,-1959"/>
<text text-anchor="middle" x="482" y="-1936.6" font-family="Courier,monospace" font-size="11.00">Any</text>
</a>
</g>
<!-- \\Aura\\Filter\\Rule\\Any&#45;&gt;\\Aura\\Filter\\AbstractRule -->
<g id="edge18" class="edge"><title>\\Aura\\Filter\\Rule\\Any&#45;&gt;\\Aura\\Filter\\AbstractRule</title>
<path fill="none" stroke="black" d="M454.706,-1938.13C438.328,-1934.94 418.134,-1928.21 406,-1914 316.521,-1809.25 281.448,-1358 273.723,-1240.21"/>
<polygon fill="none" stroke="black" points="277.212,-1239.93 273.078,-1230.17 270.226,-1240.38 277.212,-1239.93"/>
</g>
<!-- \\Aura\\Filter\\Rule\\Between -->
<g id="node10" class="node"><title>\\Aura\\Filter\\Rule\\Between</title>
<a xlink:href="Rule.Between.html" xlink:title="Between" target="_parent">
<polygon fill="none" stroke="black" points="513.208,-1905 450.792,-1905 450.792,-1869 513.208,-1869 513.208,-1905"/>
<text text-anchor="middle" x="482" y="-1882.6" font-family="Courier,monospace" font-size="11.00">Between</text>
</a>
</g>
<!-- \\Aura\\Filter\\Rule\\Between&#45;&gt;\\Aura\\Filter\\AbstractRule -->
<g id="edge20" class="edge"><title>\\Aura\\Filter\\Rule\\Between&#45;&gt;\\Aura\\Filter\\AbstractRule</title>
<path fill="none" stroke="black" d="M450.712,-1883.21C435.193,-1879.7 417.245,-1872.96 406,-1860 322.945,-1764.26 283.514,-1352.15 274.208,-1240.18"/>
<polygon fill="none" stroke="black" points="277.681,-1239.69 273.378,-1230.01 270.704,-1240.26 277.681,-1239.69"/>
</g>
<!-- \\Aura\\Filter\\Rule\\Blank -->
<g id="node11" class="node"><title>\\Aura\\Filter\\Rule\\Blank</title>
<a xlink:href="Rule.Blank.html" xlink:title="Blank" target="_parent">
<polygon fill="none" stroke="black" points="509,-1851 455,-1851 455,-1815 509,-1815 509,-1851"/>
<text text-anchor="middle" x="482" y="-1828.6" font-family="Courier,monospace" font-size="11.00">Blank</text>
</a>
</g>
<!-- \\Aura\\Filter\\Rule\\Blank&#45;&gt;\\Aura\\Filter\\AbstractRule -->
<g id="edge22" class="edge"><title>\\Aura\\Filter\\Rule\\Blank&#45;&gt;\\Aura\\Filter\\AbstractRule</title>
<path fill="none" stroke="black" d="M454.863,-1829.99C438.549,-1826.74 418.369,-1820 406,-1806 329.368,-1719.25 285.79,-1346.29 274.789,-1240.23"/>
<polygon fill="none" stroke="black" points="278.269,-1239.86 273.77,-1230.27 271.306,-1240.57 278.269,-1239.86"/>
</g>
<!-- \\Aura\\Filter\\Rule\\Bool -->
<g id="node12" class="node"><title>\\Aura\\Filter\\Rule\\Bool</title>
<a xlink:href="Rule.Bool.html" xlink:title="Bool" target="_parent">
<polygon fill="none" stroke="black" points="509,-1797 455,-1797 455,-1761 509,-1761 509,-1797"/>
<text text-anchor="middle" x="482" y="-1774.6" font-family="Courier,monospace" font-size="11.00">Bool</text>
</a>
</g>
<!-- \\Aura\\Filter\\Rule\\Bool&#45;&gt;\\Aura\\Filter\\AbstractRule -->
<g id="edge24" class="edge"><title>\\Aura\\Filter\\Rule\\Bool&#45;&gt;\\Aura\\Filter\\AbstractRule</title>
<path fill="none" stroke="black" d="M454.963,-1775.9C438.69,-1772.62 418.518,-1765.87 406,-1752 335.743,-1674.16 288.274,-1339.95 275.473,-1240.21"/>
<polygon fill="none" stroke="black" points="278.91,-1239.49 274.181,-1230.01 271.966,-1240.37 278.91,-1239.49"/>
</g>
<!-- \\Aura\\Filter\\Rule\\Closure -->
<g id="node13" class="node"><title>\\Aura\\Filter\\Rule\\Closure</title>
<a xlink:href="Rule.Closure.html" xlink:title="Closure" target="_parent">
<polygon fill="none" stroke="black" points="513.208,-1743 450.792,-1743 450.792,-1707 513.208,-1707 513.208,-1743"/>
<text text-anchor="middle" x="482" y="-1720.6" font-family="Courier,monospace" font-size="11.00">Closure</text>
</a>
</g>
<!-- \\Aura\\Filter\\Rule\\Closure&#45;&gt;\\Aura\\Filter\\AbstractRule -->
<g id="edge26" class="edge"><title>\\Aura\\Filter\\Rule\\Closure&#45;&gt;\\Aura\\Filter\\AbstractRule</title>
<path fill="none" stroke="black" d="M450.67,-1720.82C435.333,-1717.21 417.567,-1710.49 406,-1698 281.06,-1563.11 270.937,-1322.35 271.327,-1240.29"/>
<polygon fill="none" stroke="black" points="274.827,-1240.26 271.434,-1230.23 267.828,-1240.19 274.827,-1240.26"/>
</g>
<!-- \\Aura\\Filter\\Rule\\CreditCard -->
<g id="node14" class="node"><title>\\Aura\\Filter\\Rule\\CreditCard</title>
<a xlink:href="Rule.CreditCard.html" xlink:title="CreditCard" target="_parent">
<polygon fill="none" stroke="black" points="523.011,-1689 440.989,-1689 440.989,-1653 523.011,-1653 523.011,-1689"/>
<text text-anchor="middle" x="482" y="-1666.6" font-family="Courier,monospace" font-size="11.00">CreditCard</text>
</a>
</g>
<!-- \\Aura\\Filter\\Rule\\CreditCard&#45;&gt;\\Aura\\Filter\\AbstractRule -->
<g id="edge28" class="edge"><title>\\Aura\\Filter\\Rule\\CreditCard&#45;&gt;\\Aura\\Filter\\AbstractRule</title>
<path fill="none" stroke="black" d="M440.879,-1663.92C428.292,-1659.93 415.277,-1653.7 406,-1644 293.757,-1526.61 275.414,-1316.92 272.509,-1240.7"/>
<polygon fill="none" stroke="black" points="275.999,-1240.33 272.183,-1230.45 269.003,-1240.55 275.999,-1240.33"/>
</g>
<!-- \\Aura\\Filter\\Rule\\DateTime -->
<g id="node15" class="node"><title>\\Aura\\Filter\\Rule\\DateTime</title>
<a xlink:href="Rule.DateTime.html" xlink:title="DateTime" target="_parent">
<polygon fill="none" stroke="black" points="516.309,-1635 447.691,-1635 447.691,-1599 516.309,-1599 516.309,-1635"/>
<text text-anchor="middle" x="482" y="-1612.6" font-family="Courier,monospace" font-size="11.00">DateTime</text>
</a>
</g>
<!-- \\Aura\\Filter\\Rule\\DateTime&#45;&gt;\\Aura\\Filter\\AbstractRule -->
<g id="edge30" class="edge"><title>\\Aura\\Filter\\Rule\\DateTime&#45;&gt;\\Aura\\Filter\\AbstractRule</title>
<path fill="none" stroke="black" d="M447.644,-1611.62C433.218,-1607.76 417.128,-1601.18 406,-1590 306.002,-1489.51 280.305,-1309.76 273.975,-1240.39"/>
<polygon fill="none" stroke="black" points="277.447,-1239.9 273.117,-1230.23 270.472,-1240.49 277.447,-1239.9"/>
</g>
<!-- \\Aura\\Filter\\Rule\\Email -->
<g id="node16" class="node"><title>\\Aura\\Filter\\Rule\\Email</title>
<a xlink:href="Rule.Email.html" xlink:title="Email" target="_parent">
<polygon fill="none" stroke="black" points="509,-1581 455,-1581 455,-1545 509,-1545 509,-1581"/>
<text text-anchor="middle" x="482" y="-1558.6" font-family="Courier,monospace" font-size="11.00">Email</text>
</a>
</g>
<!-- \\Aura\\Filter\\Rule\\Email&#45;&gt;\\Aura\\Filter\\AbstractRule -->
<g id="edge32" class="edge"><title>\\Aura\\Filter\\Rule\\Email&#45;&gt;\\Aura\\Filter\\AbstractRule</title>
<path fill="none" stroke="black" d="M454.917,-1559.09C439.038,-1555.5 419.315,-1548.71 406,-1536 318.352,-1452.34 285.992,-1302.9 275.931,-1240.55"/>
<polygon fill="none" stroke="black" points="279.333,-1239.65 274.353,-1230.29 272.415,-1240.71 279.333,-1239.65"/>
</g>
<!-- \\Aura\\Filter\\Rule\\EqualToField -->
<g id="node17" class="node"><title>\\Aura\\Filter\\Rule\\EqualToField</title>
<a xlink:href="Rule.EqualToField.html" xlink:title="EqualToField" target="_parent">
<polygon fill="none" stroke="black" points="529.713,-1527 434.287,-1527 434.287,-1491 529.713,-1491 529.713,-1527"/>
<text text-anchor="middle" x="482" y="-1504.6" font-family="Courier,monospace" font-size="11.00">EqualToField</text>
</a>
</g>
<!-- \\Aura\\Filter\\Rule\\EqualToField&#45;&gt;\\Aura\\Filter\\AbstractRule -->
<g id="edge34" class="edge"><title>\\Aura\\Filter\\Rule\\EqualToField&#45;&gt;\\Aura\\Filter\\AbstractRule</title>
<path fill="none" stroke="black" d="M434.334,-1498.41C424.17,-1494.49 414.059,-1489.18 406,-1482 330.362,-1414.6 292.491,-1294.73 278.522,-1240.3"/>
<polygon fill="none" stroke="black" points="281.851,-1239.18 276.043,-1230.32 275.057,-1240.87 281.851,-1239.18"/>
</g>
<!-- \\Aura\\Filter\\Rule\\EqualToValue -->
<g id="node18" class="node"><title>\\Aura\\Filter\\Rule\\EqualToValue</title>
<a xlink:href="Rule.EqualToValue.html" xlink:title="EqualToValue" target="_parent">
<polygon fill="none" stroke="black" points="529.713,-1473 434.287,-1473 434.287,-1437 529.713,-1437 529.713,-1473"/>
<text text-anchor="middle" x="482" y="-1450.6" font-family="Courier,monospace" font-size="11.00">EqualToValue</text>
</a>
</g>
<!-- \\Aura\\Filter\\Rule\\EqualToValue&#45;&gt;\\Aura\\Filter\\AbstractRule -->
<g id="edge36" class="edge"><title>\\Aura\\Filter\\Rule\\EqualToValue&#45;&gt;\\Aura\\Filter\\AbstractRule</title>
<path fill="none" stroke="black" d="M434.03,-1443.54C424.106,-1439.69 414.175,-1434.62 406,-1428 342.066,-1376.24 300.193,-1285.34 282.151,-1239.74"/>
<polygon fill="none" stroke="black" points="285.336,-1238.27 278.467,-1230.2 278.807,-1240.79 285.336,-1238.27"/>
</g>
<!-- \\Aura\\Filter\\Rule\\Float -->
<g id="node19" class="node"><title>\\Aura\\Filter\\Rule\\Float</title>
<a xlink:href="Rule.Float.html" xlink:title="Float" target="_parent">
<polygon fill="none" stroke="black" points="509,-1419 455,-1419 455,-1383 509,-1383 509,-1419"/>
<text text-anchor="middle" x="482" y="-1396.6" font-family="Courier,monospace" font-size="11.00">Float</text>
</a>
</g>
<!-- \\Aura\\Filter\\Rule\\Float&#45;&gt;\\Aura\\Filter\\AbstractRule -->
<g id="edge38" class="edge"><title>\\Aura\\Filter\\Rule\\Float&#45;&gt;\\Aura\\Filter\\AbstractRule</title>
<path fill="none" stroke="black" d="M454.723,-1395.24C439.536,-1391.04 420.606,-1384.27 406,-1374 353.506,-1337.1 309.92,-1274.49 287.761,-1238.88"/>
<polygon fill="none" stroke="black" points="290.544,-1236.72 282.342,-1230.02 284.572,-1240.37 290.544,-1236.72"/>
</g>
<!-- \\Aura\\Filter\\Rule\\InKeys -->
<g id="node20" class="node"><title>\\Aura\\Filter\\Rule\\InKeys</title>
<a xlink:href="Rule.InKeys.html" xlink:title="InKeys" target="_parent">
<polygon fill="none" stroke="black" points="509.608,-1365 454.392,-1365 454.392,-1329 509.608,-1329 509.608,-1365"/>
<text text-anchor="middle" x="482" y="-1342.6" font-family="Courier,monospace" font-size="11.00">InKeys</text>
</a>
</g>
<!-- \\Aura\\Filter\\Rule\\InKeys&#45;&gt;\\Aura\\Filter\\AbstractRule -->
<g id="edge40" class="edge"><title>\\Aura\\Filter\\Rule\\InKeys&#45;&gt;\\Aura\\Filter\\AbstractRule</title>
<path fill="none" stroke="black" d="M454.381,-1339.79C439.607,-1335.22 421.201,-1328.54 406,-1320 364.925,-1296.92 323.61,-1261.29 297.935,-1237.34"/>
<polygon fill="none" stroke="black" points="300.161,-1234.63 290.487,-1230.3 295.355,-1239.71 300.161,-1234.63"/>
</g>
<!-- \\Aura\\Filter\\Rule\\Int -->
<g id="node21" class="node"><title>\\Aura\\Filter\\Rule\\Int</title>
<a xlink:href="Rule.Int.html" xlink:title="Int" target="_parent">
<polygon fill="none" stroke="black" points="509,-1311 455,-1311 455,-1275 509,-1275 509,-1311"/>
<text text-anchor="middle" x="482" y="-1288.6" font-family="Courier,monospace" font-size="11.00">Int</text>
</a>
</g>
<!-- \\Aura\\Filter\\Rule\\Int&#45;&gt;\\Aura\\Filter\\AbstractRule -->
<g id="edge42" class="edge"><title>\\Aura\\Filter\\Rule\\Int&#45;&gt;\\Aura\\Filter\\AbstractRule</title>
<path fill="none" stroke="black" d="M454.879,-1283.87C440.423,-1278.75 422.163,-1272.16 406,-1266 379.207,-1255.78 349.621,-1243.92 325.079,-1233.92"/>
<polygon fill="none" stroke="black" points="326.172,-1230.59 315.591,-1230.05 323.525,-1237.07 326.172,-1230.59"/>
</g>
<!-- \\Aura\\Filter\\Rule\\InValues -->
<g id="node22" class="node"><title>\\Aura\\Filter\\Rule\\InValues</title>
<a xlink:href="Rule.InValues.html" xlink:title="InValues" target="_parent">
<polygon fill="none" stroke="black" points="516.309,-1257 447.691,-1257 447.691,-1221 516.309,-1221 516.309,-1257"/>
<text text-anchor="middle" x="482" y="-1234.6" font-family="Courier,monospace" font-size="11.00">InValues</text>
</a>
</g>
<!-- \\Aura\\Filter\\Rule\\InValues&#45;&gt;\\Aura\\Filter\\AbstractRule -->
<g id="edge44" class="edge"><title>\\Aura\\Filter\\Rule\\InValues&#45;&gt;\\Aura\\Filter\\AbstractRule</title>
<path fill="none" stroke="black" d="M447.421,-1234.66C415.568,-1230.55 367.069,-1224.28 329.134,-1219.38"/>
<polygon fill="none" stroke="black" points="329.103,-1215.85 318.737,-1218.04 328.206,-1222.79 329.103,-1215.85"/>
</g>
<!-- \\Aura\\Filter\\Rule\\Ipv4 -->
<g id="node23" class="node"><title>\\Aura\\Filter\\Rule\\Ipv4</title>
<a xlink:href="Rule.Ipv4.html" xlink:title="Ipv4" target="_parent">
<polygon fill="none" stroke="black" points="509,-1203 455,-1203 455,-1167 509,-1167 509,-1203"/>
<text text-anchor="middle" x="482" y="-1180.6" font-family="Courier,monospace" font-size="11.00">Ipv4</text>
</a>
</g>
<!-- \\Aura\\Filter\\Rule\\Ipv4&#45;&gt;\\Aura\\Filter\\AbstractRule -->
<g id="edge46" class="edge"><title>\\Aura\\Filter\\Rule\\Ipv4&#45;&gt;\\Aura\\Filter\\AbstractRule</title>
<path fill="none" stroke="black" d="M454.953,-1188.36C423.58,-1192.42 369.975,-1199.34 328.874,-1204.65"/>
<polygon fill="none" stroke="black" points="328.185,-1201.21 318.716,-1205.96 329.082,-1208.15 328.185,-1201.21"/>
</g>
<!-- \\Aura\\Filter\\Rule\\Locale -->
<g id="node24" class="node"><title>\\Aura\\Filter\\Rule\\Locale</title>
<a xlink:href="Rule.Locale.html" xlink:title="Locale" target="_parent">
<polygon fill="none" stroke="black" points="509.608,-1149 454.392,-1149 454.392,-1113 509.608,-1113 509.608,-1149"/>
<text text-anchor="middle" x="482" y="-1126.6" font-family="Courier,monospace" font-size="11.00">Locale</text>
</a>
</g>
<!-- \\Aura\\Filter\\Rule\\Locale&#45;&gt;\\Aura\\Filter\\AbstractRule -->
<g id="edge48" class="edge"><title>\\Aura\\Filter\\Rule\\Locale&#45;&gt;\\Aura\\Filter\\AbstractRule</title>
<path fill="none" stroke="black" d="M454.182,-1140.38C439.84,-1145.47 421.905,-1151.93 406,-1158 379.207,-1168.22 349.621,-1180.08 325.079,-1190.08"/>
<polygon fill="none" stroke="black" points="323.525,-1186.93 315.591,-1193.95 326.172,-1193.41 323.525,-1186.93"/>
</g>
<!-- \\Aura\\Filter\\Rule\\Max -->
<g id="node25" class="node"><title>\\Aura\\Filter\\Rule\\Max</title>
<a xlink:href="Rule.Max.html" xlink:title="Max" target="_parent">
<polygon fill="none" stroke="black" points="509,-1095 455,-1095 455,-1059 509,-1059 509,-1095"/>
<text text-anchor="middle" x="482" y="-1072.6" font-family="Courier,monospace" font-size="11.00">Max</text>
</a>
</g>
<!-- \\Aura\\Filter\\Rule\\Max&#45;&gt;\\Aura\\Filter\\AbstractRule -->
<g id="edge50" class="edge"><title>\\Aura\\Filter\\Rule\\Max&#45;&gt;\\Aura\\Filter\\AbstractRule</title>
<path fill="none" stroke="black" d="M454.732,-1084.1C439.9,-1088.68 421.322,-1095.39 406,-1104 364.925,-1127.08 323.61,-1162.71 297.935,-1186.66"/>
<polygon fill="none" stroke="black" points="295.355,-1184.29 290.487,-1193.7 300.161,-1189.37 295.355,-1184.29"/>
</g>
<!-- \\Aura\\Filter\\Rule\\Method -->
<g id="node26" class="node"><title>\\Aura\\Filter\\Rule\\Method</title>
<a xlink:href="Rule.Method.html" xlink:title="Method" target="_parent">
<polygon fill="none" stroke="black" points="509.608,-1041 454.392,-1041 454.392,-1005 509.608,-1005 509.608,-1041"/>
<text text-anchor="middle" x="482" y="-1018.6" font-family="Courier,monospace" font-size="11.00">Method</text>
</a>
</g>
<!-- \\Aura\\Filter\\Rule\\Method&#45;&gt;\\Aura\\Filter\\AbstractRule -->
<g id="edge52" class="edge"><title>\\Aura\\Filter\\Rule\\Method&#45;&gt;\\Aura\\Filter\\AbstractRule</title>
<path fill="none" stroke="black" d="M454.369,-1028.86C439.242,-1033.06 420.492,-1039.81 406,-1050 353.506,-1086.9 309.92,-1149.51 287.761,-1185.12"/>
<polygon fill="none" stroke="black" points="284.572,-1183.63 282.342,-1193.98 290.544,-1187.28 284.572,-1183.63"/>
</g>
<!-- \\Aura\\Filter\\Rule\\Min -->
<g id="node27" class="node"><title>\\Aura\\Filter\\Rule\\Min</title>
<a xlink:href="Rule.Min.html" xlink:title="Min" target="_parent">
<polygon fill="none" stroke="black" points="509,-987 455,-987 455,-951 509,-951 509,-987"/>
<text text-anchor="middle" x="482" y="-964.6" font-family="Courier,monospace" font-size="11.00">Min</text>
</a>
</g>
<!-- \\Aura\\Filter\\Rule\\Min&#45;&gt;\\Aura\\Filter\\AbstractRule -->
<g id="edge54" class="edge"><title>\\Aura\\Filter\\Rule\\Min&#45;&gt;\\Aura\\Filter\\AbstractRule</title>
<path fill="none" stroke="black" d="M454.896,-973.867C439.399,-977.79 420.09,-984.593 406,-996 342.066,-1047.76 300.193,-1138.66 282.151,-1184.26"/>
<polygon fill="none" stroke="black" points="278.807,-1183.21 278.467,-1193.8 285.336,-1185.73 278.807,-1183.21"/>
</g>
<!-- \\Aura\\Filter\\Rule\\Regex -->
<g id="node28" class="node"><title>\\Aura\\Filter\\Rule\\Regex</title>
<a xlink:href="Rule.Regex.html" xlink:title="Regex" target="_parent">
<polygon fill="none" stroke="black" points="509,-933 455,-933 455,-897 509,-897 509,-933"/>
<text text-anchor="middle" x="482" y="-910.6" font-family="Courier,monospace" font-size="11.00">Regex</text>
</a>
</g>
<!-- \\Aura\\Filter\\Rule\\Regex&#45;&gt;\\Aura\\Filter\\AbstractRule -->
<g id="edge56" class="edge"><title>\\Aura\\Filter\\Rule\\Regex&#45;&gt;\\Aura\\Filter\\AbstractRule</title>
<path fill="none" stroke="black" d="M454.857,-919.314C439.153,-923.049 419.639,-929.848 406,-942 330.362,-1009.4 292.491,-1129.27 278.522,-1183.7"/>
<polygon fill="none" stroke="black" points="275.057,-1183.13 276.043,-1193.68 281.851,-1184.82 275.057,-1183.13"/>
</g>
<!-- \\Aura\\Filter\\Rule\\StrictEqualToField -->
<g id="node29" class="node"><title>\\Aura\\Filter\\Rule\\StrictEqualToField</title>
<a xlink:href="Rule.StrictEqualToField.html" xlink:title="StrictEqualToField" target="_parent">
<polygon fill="none" stroke="black" points="549.319,-879 414.681,-879 414.681,-843 549.319,-843 549.319,-879"/>
<text text-anchor="middle" x="482" y="-856.6" font-family="Courier,monospace" font-size="11.00">StrictEqualToField</text>
</a>
</g>
<!-- \\Aura\\Filter\\Rule\\StrictEqualToField&#45;&gt;\\Aura\\Filter\\AbstractRule -->
<g id="edge58" class="edge"><title>\\Aura\\Filter\\Rule\\StrictEqualToField&#45;&gt;\\Aura\\Filter\\AbstractRule</title>
<path fill="none" stroke="black" d="M417.656,-879.147C413.451,-881.721 409.504,-884.656 406,-888 318.352,-971.656 285.992,-1121.1 275.931,-1183.45"/>
<polygon fill="none" stroke="black" points="272.415,-1183.29 274.353,-1193.71 279.333,-1184.35 272.415,-1183.29"/>
</g>
<!-- \\Aura\\Filter\\Rule\\StrictEqualToValue -->
<g id="node30" class="node"><title>\\Aura\\Filter\\Rule\\StrictEqualToValue</title>
<a xlink:href="Rule.StrictEqualToValue.html" xlink:title="StrictEqualToValue" target="_parent">
<polygon fill="none" stroke="black" points="549.319,-825 414.681,-825 414.681,-789 549.319,-789 549.319,-825"/>
<text text-anchor="middle" x="482" y="-802.6" font-family="Courier,monospace" font-size="11.00">StrictEqualToValue</text>
</a>
</g>
<!-- \\Aura\\Filter\\Rule\\StrictEqualToValue&#45;&gt;\\Aura\\Filter\\AbstractRule -->
<g id="edge60" class="edge"><title>\\Aura\\Filter\\Rule\\StrictEqualToValue&#45;&gt;\\Aura\\Filter\\AbstractRule</title>
<path fill="none" stroke="black" d="M417.105,-825.173C413.079,-827.739 409.319,-830.665 406,-834 306.002,-934.487 280.305,-1114.24 273.975,-1183.61"/>
<polygon fill="none" stroke="black" points="270.472,-1183.51 273.117,-1193.77 277.447,-1184.1 270.472,-1183.51"/>
</g>
<!-- \\Aura\\Filter\\Rule\\String -->
<g id="node31" class="node"><title>\\Aura\\Filter\\Rule\\String</title>
<a xlink:href="Rule.String.html" xlink:title="String" target="_parent">
<polygon fill="none" stroke="black" points="509.608,-771 454.392,-771 454.392,-735 509.608,-735 509.608,-771"/>
<text text-anchor="middle" x="482" y="-748.6" font-family="Courier,monospace" font-size="11.00">String</text>
</a>
</g>
<!-- \\Aura\\Filter\\Rule\\String&#45;&gt;\\Aura\\Filter\\AbstractRule -->
<g id="edge62" class="edge"><title>\\Aura\\Filter\\Rule\\String&#45;&gt;\\Aura\\Filter\\AbstractRule</title>
<path fill="none" stroke="black" d="M454.143,-756.574C438.17,-760.031 418.625,-766.797 406,-780 293.757,-897.385 275.414,-1107.08 272.509,-1183.3"/>
<polygon fill="none" stroke="black" points="269.003,-1183.45 272.183,-1193.55 275.999,-1183.67 269.003,-1183.45"/>
</g>
<!-- \\Aura\\Filter\\Rule\\Strlen -->
<g id="node32" class="node"><title>\\Aura\\Filter\\Rule\\Strlen</title>
<a xlink:href="Rule.Strlen.html" xlink:title="Strlen" target="_parent">
<polygon fill="none" stroke="black" points="509.608,-717 454.392,-717 454.392,-681 509.608,-681 509.608,-717"/>
<text text-anchor="middle" x="482" y="-694.6" font-family="Courier,monospace" font-size="11.00">Strlen</text>
</a>
</g>
<!-- \\Aura\\Filter\\Rule\\Strlen&#45;&gt;\\Aura\\Filter\\AbstractRule -->
<g id="edge64" class="edge"><title>\\Aura\\Filter\\Rule\\Strlen&#45;&gt;\\Aura\\Filter\\AbstractRule</title>
<path fill="none" stroke="black" d="M454.358,-702.358C438.262,-705.737 418.507,-712.497 406,-726 281.06,-860.886 270.937,-1101.65 271.327,-1183.71"/>
<polygon fill="none" stroke="black" points="267.828,-1183.81 271.434,-1193.77 274.827,-1183.74 267.828,-1183.81"/>
</g>
<!-- \\Aura\\Filter\\Rule\\StrlenBetween -->
<g id="node33" class="node"><title>\\Aura\\Filter\\Rule\\StrlenBetween</title>
<a xlink:href="Rule.StrlenBetween.html" xlink:title="StrlenBetween" target="_parent">
<polygon fill="none" stroke="black" points="532.814,-663 431.186,-663 431.186,-627 532.814,-627 532.814,-663"/>
<text text-anchor="middle" x="482" y="-640.6" font-family="Courier,monospace" font-size="11.00">StrlenBetween</text>
</a>
</g>
<!-- \\Aura\\Filter\\Rule\\StrlenBetween&#45;&gt;\\Aura\\Filter\\AbstractRule -->
<g id="edge66" class="edge"><title>\\Aura\\Filter\\Rule\\StrlenBetween&#45;&gt;\\Aura\\Filter\\AbstractRule</title>
<path fill="none" stroke="black" d="M430.807,-655.331C421.53,-659.232 412.676,-664.603 406,-672 335.743,-749.84 288.274,-1084.05 275.473,-1183.79"/>
<polygon fill="none" stroke="black" points="271.966,-1183.63 274.181,-1193.99 278.91,-1184.51 271.966,-1183.63"/>
</g>
<!-- \\Aura\\Filter\\Rule\\StrlenMax -->
<g id="node34" class="node"><title>\\Aura\\Filter\\Rule\\StrlenMax</title>
<a xlink:href="Rule.StrlenMax.html" xlink:title="StrlenMax" target="_parent">
<polygon fill="none" stroke="black" points="519.911,-609 444.089,-609 444.089,-573 519.911,-573 519.911,-609"/>
<text text-anchor="middle" x="482" y="-586.6" font-family="Courier,monospace" font-size="11.00">StrlenMax</text>
</a>
</g>
<!-- \\Aura\\Filter\\Rule\\StrlenMax&#45;&gt;\\Aura\\Filter\\AbstractRule -->
<g id="edge68" class="edge"><title>\\Aura\\Filter\\Rule\\StrlenMax&#45;&gt;\\Aura\\Filter\\AbstractRule</title>
<path fill="none" stroke="black" d="M443.93,-596.623C430.24,-600.487 415.712,-607.006 406,-618 329.368,-704.748 285.79,-1077.71 274.789,-1183.77"/>
<polygon fill="none" stroke="black" points="271.306,-1183.43 273.77,-1193.73 278.269,-1184.14 271.306,-1183.43"/>
</g>
<!-- \\Aura\\Filter\\Rule\\StrlenMin -->
<g id="node35" class="node"><title>\\Aura\\Filter\\Rule\\StrlenMin</title>
<a xlink:href="Rule.StrlenMin.html" xlink:title="StrlenMin" target="_parent">
<polygon fill="none" stroke="black" points="519.911,-555 444.089,-555 444.089,-519 519.911,-519 519.911,-555"/>
<text text-anchor="middle" x="482" y="-532.6" font-family="Courier,monospace" font-size="11.00">StrlenMin</text>
</a>
</g>
<!-- \\Aura\\Filter\\Rule\\StrlenMin&#45;&gt;\\Aura\\Filter\\AbstractRule -->
<g id="edge70" class="edge"><title>\\Aura\\Filter\\Rule\\StrlenMin&#45;&gt;\\Aura\\Filter\\AbstractRule</title>
<path fill="none" stroke="black" d="M444.216,-542.425C430.398,-546.263 415.703,-552.815 406,-564 322.945,-659.738 283.514,-1071.85 274.208,-1183.82"/>
<polygon fill="none" stroke="black" points="270.704,-1183.74 273.378,-1193.99 277.681,-1184.31 270.704,-1183.74"/>
</g>
<!-- \\Aura\\Filter\\Rule\\Trim -->
<g id="node36" class="node"><title>\\Aura\\Filter\\Rule\\Trim</title>
<a xlink:href="Rule.Trim.html" xlink:title="Trim" target="_parent">
<polygon fill="none" stroke="black" points="509,-501 455,-501 455,-465 509,-465 509,-501"/>
<text text-anchor="middle" x="482" y="-478.6" font-family="Courier,monospace" font-size="11.00">Trim</text>
</a>
</g>
<!-- \\Aura\\Filter\\Rule\\Trim&#45;&gt;\\Aura\\Filter\\AbstractRule -->
<g id="edge72" class="edge"><title>\\Aura\\Filter\\Rule\\Trim&#45;&gt;\\Aura\\Filter\\AbstractRule</title>
<path fill="none" stroke="black" d="M454.706,-485.873C438.328,-489.063 418.134,-495.795 406,-510 316.521,-614.752 281.448,-1066 273.723,-1183.79"/>
<polygon fill="none" stroke="black" points="270.226,-1183.62 273.078,-1193.83 277.212,-1184.07 270.226,-1183.62"/>
</g>
<!-- \\Aura\\Filter\\Rule\\Upload -->
<g id="node37" class="node"><title>\\Aura\\Filter\\Rule\\Upload</title>
<a xlink:href="Rule.Upload.html" xlink:title="Upload" target="_parent">
<polygon fill="none" stroke="black" points="509.608,-447 454.392,-447 454.392,-411 509.608,-411 509.608,-447"/>
<text text-anchor="middle" x="482" y="-424.6" font-family="Courier,monospace" font-size="11.00">Upload</text>
</a>
</g>
<!-- \\Aura\\Filter\\Rule\\Upload&#45;&gt;\\Aura\\Filter\\AbstractRule -->
<g id="edge74" class="edge"><title>\\Aura\\Filter\\Rule\\Upload&#45;&gt;\\Aura\\Filter\\AbstractRule</title>
<path fill="none" stroke="black" d="M454.278,-431.891C437.94,-435.088 417.951,-441.821 406,-456 310.103,-569.776 279.554,-1060.1 273.309,-1183.65"/>
<polygon fill="none" stroke="black" points="269.805,-1183.66 272.809,-1193.82 276.796,-1184 269.805,-1183.66"/>
</g>
<!-- \\Aura\\Filter\\Rule\\Url -->
<g id="node38" class="node"><title>\\Aura\\Filter\\Rule\\Url</title>
<a xlink:href="Rule.Url.html" xlink:title="Url" target="_parent">
<polygon fill="none" stroke="black" points="509,-393 455,-393 455,-357 509,-357 509,-393"/>
<text text-anchor="middle" x="482" y="-370.6" font-family="Courier,monospace" font-size="11.00">Url</text>
</a>
</g>
<!-- \\Aura\\Filter\\Rule\\Url&#45;&gt;\\Aura\\Filter\\AbstractRule -->
<g id="edge76" class="edge"><title>\\Aura\\Filter\\Rule\\Url&#45;&gt;\\Aura\\Filter\\AbstractRule</title>
<path fill="none" stroke="black" d="M454.952,-377.704C438.461,-380.823 418.047,-387.54 406,-402 303.609,-524.905 277.755,-1054.98 272.938,-1183.74"/>
<polygon fill="none" stroke="black" points="269.433,-1183.83 272.569,-1193.95 276.428,-1184.09 269.433,-1183.83"/>
</g>
<!-- \\Aura\\Filter\\Rule\\Word -->
<g id="node39" class="node"><title>\\Aura\\Filter\\Rule\\Word</title>
<a xlink:href="Rule.Word.html" xlink:title="Word" target="_parent">
<polygon fill="none" stroke="black" points="509,-339 455,-339 455,-303 509,-303 509,-339"/>
<text text-anchor="middle" x="482" y="-316.6" font-family="Courier,monospace" font-size="11.00">Word</text>
</a>
</g>
<!-- \\Aura\\Filter\\Rule\\Word&#45;&gt;\\Aura\\Filter\\AbstractRule -->
<g id="edge78" class="edge"><title>\\Aura\\Filter\\Rule\\Word&#45;&gt;\\Aura\\Filter\\AbstractRule</title>
<path fill="none" stroke="black" d="M454.904,-323.664C438.392,-326.767 417.974,-333.479 406,-348 297.159,-479.994 276.099,-1049.41 272.62,-1183.6"/>
<polygon fill="none" stroke="black" points="269.115,-1183.78 272.367,-1193.86 276.113,-1183.95 269.115,-1183.78"/>
</g>
<!-- \\Aura\\Filter\\RuleInterface -->
<g id="node43" class="node"><title>\\Aura\\Filter\\RuleInterface</title>
<a xlink:href="RuleInterface.html" xlink:title="RuleInterface" target="_parent">
<polygon fill="none" stroke="black" points="125.814,-1230 24.1859,-1230 24.1859,-1194 125.814,-1194 125.814,-1230"/>
<text text-anchor="middle" x="75" y="-1207.6" font-family="Courier,monospace" font-size="11.00">RuleInterface</text>
</a>
</g>
<!-- \\Aura\\Filter\\AbstractRule&#45;&gt;\\Aura\\Filter\\RuleInterface -->
<g id="edge80" class="edge"><title>\\Aura\\Filter\\AbstractRule&#45;&gt;\\Aura\\Filter\\RuleInterface</title>
<path fill="none" stroke="black" stroke-dasharray="1,5" d="M223.038,-1212C196.871,-1212 164.015,-1212 136.001,-1212"/>
<polygon fill="none" stroke="black" points="135.92,-1208.5 125.92,-1212 135.92,-1215.5 135.92,-1208.5"/>
</g>
<!-- \\Exception -->
<g id="node51" class="node"><title>\\Exception</title>
<ellipse fill="none" stroke="black" cx="75" cy="-18" rx="52.7417" ry="18"/>
<text text-anchor="middle" x="75" y="-12.4" font-family="Times,serif" font-size="14.00" fill="gray">\Exception</text>
</g>
<!-- \\Aura\\Filter\\Exception&#45;&gt;\\Exception -->
<g id="edge10" class="edge"><title>\\Aura\\Filter\\Exception&#45;&gt;\\Exception</title>
<path fill="none" stroke="black" d="M254.188,-167.989C229.185,-140.151 178.188,-85.9314 128,-48 123.531,-44.6222 118.646,-41.3403 113.717,-38.263"/>
<polygon fill="none" stroke="black" points="115.255,-35.1043 104.878,-32.9681 111.658,-41.1094 115.255,-35.1043"/>
</g>
<!-- \\Aura\\Filter\\RuleCollection -->
<g id="node42" class="node"><title>\\Aura\\Filter\\RuleCollection</title>
<a xlink:href="RuleCollection.html" xlink:title="RuleCollection" target="_parent">
<polygon fill="none" stroke="black" points="536.416,-204 427.584,-204 427.584,-168 536.416,-168 536.416,-204"/>
<text text-anchor="middle" x="482" y="-181.6" font-family="Courier,monospace" font-size="11.00">RuleCollection</text>
</a>
</g>
<!-- \\Aura\\Filter\\RuleLocator -->
<g id="node44" class="node"><title>\\Aura\\Filter\\RuleLocator</title>
<a xlink:href="RuleLocator.html" xlink:title="RuleLocator" target="_parent">
<polygon fill="none" stroke="black" points="526.113,-150 437.887,-150 437.887,-114 526.113,-114 526.113,-150"/>
<text text-anchor="middle" x="482" y="-127.6" font-family="Courier,monospace" font-size="11.00">RuleLocator</text>
</a>
</g>
<!-- \\Aura\\Filter\\Translator -->
<g id="node45" class="node"><title>\\Aura\\Filter\\Translator</title>
<a xlink:href="Translator.html" xlink:title="Translator" target="_parent">
<polygon fill="none" stroke="black" points="523.011,-96 440.989,-96 440.989,-60 523.011,-60 523.011,-96"/>
<text text-anchor="middle" x="482" y="-73.6" font-family="Courier,monospace" font-size="11.00">Translator</text>
</a>
</g>
<!-- \\Aura\\Filter\\TranslatorInterface -->
<g id="node46" class="node"><title>\\Aura\\Filter\\TranslatorInterface</title>
<a xlink:href="TranslatorInterface.html" xlink:title="TranslatorInterface" target="_parent">
<polygon fill="none" stroke="black" points="341.921,-96 200.079,-96 200.079,-60 341.921,-60 341.921,-96"/>
<text text-anchor="middle" x="271" y="-73.6" font-family="Courier,monospace" font-size="11.00">TranslatorInterface</text>
</a>
</g>
<!-- \\Aura\\Filter\\Translator&#45;&gt;\\Aura\\Filter\\TranslatorInterface -->
<g id="edge82" class="edge"><title>\\Aura\\Filter\\Translator&#45;&gt;\\Aura\\Filter\\TranslatorInterface</title>
<path fill="none" stroke="black" stroke-dasharray="1,5" d="M440.703,-78C415.552,-78 382.3,-78 351.97,-78"/>
<polygon fill="none" stroke="black" points="351.812,-74.5001 341.812,-78 351.812,-81.5001 351.812,-74.5001"/>
</g>
</g>
</svg>
