<?xml version="1.0" encoding="UTF-8" standalone="no"?>
<!DOCTYPE svg PUBLIC "-//W3C//DTD SVG 1.1//EN"
 "http://www.w3.org/Graphics/SVG/1.1/DTD/svg11.dtd">
<!-- Generated by graphviz version 2.28.0 (20111028.1807)
 -->
<!-- Title: G Pages: 1 -->
<svg width="350pt" height="433pt"
 viewBox="0.00 0.00 350.00 433.00" xmlns="http://www.w3.org/2000/svg" xmlns:xlink="http://www.w3.org/1999/xlink">
<g id="graph1" class="graph" transform="scale(1 1) rotate(0) translate(4 429)">
<title>G</title>
<polygon fill="white" stroke="white" points="-4,5 -4,-429 347,-429 347,5 -4,5"/>
<g id="graph2" class="cluster"><title>cluster_Aura</title>
<polyline fill="none" stroke="gray" points="192,-8 322,-8 "/>
<path fill="none" stroke="gray" d="M322,-8C328,-8 334,-14 334,-20"/>
<polyline fill="none" stroke="gray" points="334,-20 334,-405 "/>
<path fill="none" stroke="gray" d="M334,-405C334,-411 328,-417 322,-417"/>
<polyline fill="none" stroke="gray" points="322,-417 192,-417 "/>
<path fill="none" stroke="gray" d="M192,-417C186,-417 180,-411 180,-405"/>
<polyline fill="none" stroke="gray" points="180,-405 180,-20 "/>
<path fill="none" stroke="gray" d="M180,-20C180,-14 186,-8 192,-8"/>
<text text-anchor="middle" x="257" y="-402" font-family="Times,serif" font-size="11.00" fill="gray">Aura</text>
</g>
<g id="graph3" class="cluster"><title>cluster_Aura\Uri</title>
<polyline fill="none" stroke="gray" points="200,-16 314,-16 "/>
<path fill="none" stroke="gray" d="M314,-16C320,-16 326,-22 326,-28"/>
<polyline fill="none" stroke="gray" points="326,-28 326,-376 "/>
<path fill="none" stroke="gray" d="M326,-376C326,-382 320,-388 314,-388"/>
<polyline fill="none" stroke="gray" points="314,-388 200,-388 "/>
<path fill="none" stroke="gray" d="M200,-388C194,-388 188,-382 188,-376"/>
<polyline fill="none" stroke="gray" points="188,-376 188,-28 "/>
<path fill="none" stroke="gray" d="M188,-28C188,-22 194,-16 200,-16"/>
<text text-anchor="middle" x="257" y="-373" font-family="Times,serif" font-size="11.00" fill="gray">Uri</text>
</g>
<g id="graph4" class="cluster"><title>cluster_Aura\Uri\Url</title>
<polyline fill="none" stroke="gray" points="230,-286 284,-286 "/>
<path fill="none" stroke="gray" d="M284,-286C290,-286 296,-292 296,-298"/>
<polyline fill="none" stroke="gray" points="296,-298 296,-347 "/>
<path fill="none" stroke="gray" d="M296,-347C296,-353 290,-359 284,-359"/>
<polyline fill="none" stroke="gray" points="284,-359 230,-359 "/>
<path fill="none" stroke="gray" d="M230,-359C224,-359 218,-353 218,-347"/>
<polyline fill="none" stroke="gray" points="218,-347 218,-298 "/>
<path fill="none" stroke="gray" d="M218,-298C218,-292 224,-286 230,-286"/>
<text text-anchor="middle" x="257" y="-344" font-family="Times,serif" font-size="11.00" fill="gray">Url</text>
</g>
<!-- \\Aura\\Uri\\Url\\Factory -->
<g id="node4" class="node"><title>\\Aura\\Uri\\Url\\Factory</title>
<a xlink:href="Url.Factory.html" xlink:title="Factory" target="_parent">
<polygon fill="none" stroke="black" points="288.208,-330 225.792,-330 225.792,-294 288.208,-294 288.208,-330"/>
<text text-anchor="middle" x="257" y="-307.6" font-family="Courier,monospace" font-size="11.00">Factory</text>
</a>
</g>
<!-- \\Aura\\Uri\\Host -->
<g id="node5" class="node"><title>\\Aura\\Uri\\Host</title>
<a xlink:href="Host.html" xlink:title="Host" target="_parent">
<polygon fill="none" stroke="black" points="284,-276 230,-276 230,-240 284,-240 284,-276"/>
<text text-anchor="middle" x="257" y="-253.6" font-family="Courier,monospace" font-size="11.00">Host</text>
</a>
</g>
<!-- \\Aura\\Uri\\Path -->
<g id="node6" class="node"><title>\\Aura\\Uri\\Path</title>
<a xlink:href="Path.html" xlink:title="Path" target="_parent">
<polygon fill="none" stroke="black" points="284,-222 230,-222 230,-186 284,-186 284,-222"/>
<text text-anchor="middle" x="257" y="-199.6" font-family="Courier,monospace" font-size="11.00">Path</text>
</a>
</g>
<!-- \\ArrayObject -->
<g id="node12" class="node"><title>\\ArrayObject</title>
<ellipse fill="none" stroke="black" cx="62" cy="-150" rx="61.9613" ry="18"/>
<text text-anchor="middle" x="62" y="-144.4" font-family="Times,serif" font-size="14.00" fill="gray">\ArrayObject</text>
</g>
<!-- \\Aura\\Uri\\Path&#45;&gt;\\ArrayObject -->
<g id="edge6" class="edge"><title>\\Aura\\Uri\\Path&#45;&gt;\\ArrayObject</title>
<path fill="none" stroke="black" d="M229.971,-196.717C201.286,-188.691 154.334,-175.555 117.513,-165.252"/>
<polygon fill="none" stroke="black" points="117.993,-161.752 107.42,-162.428 116.107,-168.493 117.993,-161.752"/>
</g>
<!-- \\Aura\\Uri\\PublicSuffixList -->
<g id="node7" class="node"><title>\\Aura\\Uri\\PublicSuffixList</title>
<a xlink:href="PublicSuffixList.html" xlink:title="PublicSuffixList" target="_parent">
<polygon fill="none" stroke="black" points="317.618,-168 196.382,-168 196.382,-132 317.618,-132 317.618,-168"/>
<text text-anchor="middle" x="257" y="-145.6" font-family="Courier,monospace" font-size="11.00">PublicSuffixList</text>
</a>
</g>
<!-- \\Aura\\Uri\\Query -->
<g id="node8" class="node"><title>\\Aura\\Uri\\Query</title>
<a xlink:href="Query.html" xlink:title="Query" target="_parent">
<polygon fill="none" stroke="black" points="284,-114 230,-114 230,-78 284,-78 284,-114"/>
<text text-anchor="middle" x="257" y="-91.6" font-family="Courier,monospace" font-size="11.00">Query</text>
</a>
</g>
<!-- \\Aura\\Uri\\Query&#45;&gt;\\ArrayObject -->
<g id="edge8" class="edge"><title>\\Aura\\Uri\\Query&#45;&gt;\\ArrayObject</title>
<path fill="none" stroke="black" d="M229.971,-103.283C201.286,-111.309 154.334,-124.445 117.513,-134.748"/>
<polygon fill="none" stroke="black" points="116.107,-131.507 107.42,-137.572 117.993,-138.248 116.107,-131.507"/>
</g>
<!-- \\Aura\\Uri\\Url -->
<g id="node9" class="node"><title>\\Aura\\Uri\\Url</title>
<a xlink:href="Url.html" xlink:title="Url" target="_parent">
<polygon fill="none" stroke="black" points="284,-60 230,-60 230,-24 284,-24 284,-60"/>
<text text-anchor="middle" x="257" y="-37.6" font-family="Courier,monospace" font-size="11.00">Url</text>
</a>
</g>
</g>
</svg>
