<?xml version="1.0" encoding="UTF-8" standalone="no"?>
<!DOCTYPE svg PUBLIC "-//W3C//DTD SVG 1.1//EN"
 "http://www.w3.org/Graphics/SVG/1.1/DTD/svg11.dtd">
<!-- Generated by graphviz version 2.28.0 (20111028.1807)
 -->
<!-- Title: G Pages: 1 -->
<svg width="538pt" height="1027pt"
 viewBox="0.00 0.00 538.00 1027.00" xmlns="http://www.w3.org/2000/svg" xmlns:xlink="http://www.w3.org/1999/xlink">
<g id="graph1" class="graph" transform="scale(1 1) rotate(0) translate(4 1023)">
<title>G</title>
<polygon fill="white" stroke="white" points="-4,5 -4,-1023 535,-1023 535,5 -4,5"/>
<g id="graph2" class="cluster"><title>cluster_Aura</title>
<polyline fill="none" stroke="gray" points="172,-8 510,-8 "/>
<path fill="none" stroke="gray" d="M510,-8C516,-8 522,-14 522,-20"/>
<polyline fill="none" stroke="gray" points="522,-20 522,-999 "/>
<path fill="none" stroke="gray" d="M522,-999C522,-1005 516,-1011 510,-1011"/>
<polyline fill="none" stroke="gray" points="510,-1011 172,-1011 "/>
<path fill="none" stroke="gray" d="M172,-1011C166,-1011 160,-1005 160,-999"/>
<polyline fill="none" stroke="gray" points="160,-999 160,-20 "/>
<path fill="none" stroke="gray" d="M160,-20C160,-14 166,-8 172,-8"/>
<text text-anchor="middle" x="341" y="-996" font-family="Times,serif" font-size="11.00" fill="gray">Aura</text>
</g>
<g id="graph3" class="cluster"><title>cluster_Aura\Sql</title>
<polyline fill="none" stroke="gray" points="180,-16 502,-16 "/>
<path fill="none" stroke="gray" d="M502,-16C508,-16 514,-22 514,-28"/>
<polyline fill="none" stroke="gray" points="514,-28 514,-970 "/>
<path fill="none" stroke="gray" d="M514,-970C514,-976 508,-982 502,-982"/>
<polyline fill="none" stroke="gray" points="502,-982 180,-982 "/>
<path fill="none" stroke="gray" d="M180,-982C174,-982 168,-976 168,-970"/>
<polyline fill="none" stroke="gray" points="168,-970 168,-28 "/>
<path fill="none" stroke="gray" d="M168,-28C168,-22 174,-16 180,-16"/>
<text text-anchor="middle" x="341" y="-967" font-family="Times,serif" font-size="11.00" fill="gray">Sql</text>
</g>
<g id="graph4" class="cluster"><title>cluster_Aura\Sql\Adapter</title>
<polyline fill="none" stroke="gray" points="188,-718 466,-718 "/>
<path fill="none" stroke="gray" d="M466,-718C472,-718 478,-724 478,-730"/>
<polyline fill="none" stroke="gray" points="478,-730 478,-941 "/>
<path fill="none" stroke="gray" d="M478,-941C478,-947 472,-953 466,-953"/>
<polyline fill="none" stroke="gray" points="466,-953 188,-953 "/>
<path fill="none" stroke="gray" d="M188,-953C182,-953 176,-947 176,-941"/>
<polyline fill="none" stroke="gray" points="176,-941 176,-730 "/>
<path fill="none" stroke="gray" d="M176,-730C176,-724 182,-718 188,-718"/>
<text text-anchor="middle" x="327" y="-938" font-family="Times,serif" font-size="11.00" fill="gray">Adapter</text>
</g>
<g id="graph5" class="cluster"><title>cluster_Aura\Sql\Exception</title>
<polyline fill="none" stroke="gray" points="398,-583 486,-583 "/>
<path fill="none" stroke="gray" d="M486,-583C492,-583 498,-589 498,-595"/>
<polyline fill="none" stroke="gray" points="498,-595 498,-698 "/>
<path fill="none" stroke="gray" d="M498,-698C498,-704 492,-710 486,-710"/>
<polyline fill="none" stroke="gray" points="486,-710 398,-710 "/>
<path fill="none" stroke="gray" d="M398,-710C392,-710 386,-704 386,-698"/>
<polyline fill="none" stroke="gray" points="386,-698 386,-595 "/>
<path fill="none" stroke="gray" d="M386,-595C386,-589 392,-583 398,-583"/>
<text text-anchor="middle" x="442" y="-695" font-family="Times,serif" font-size="11.00" fill="gray">Exception</text>
</g>
<g id="graph6" class="cluster"><title>cluster_Aura\Sql\Query</title>
<polyline fill="none" stroke="gray" points="195,-286 469,-286 "/>
<path fill="none" stroke="gray" d="M469,-286C475,-286 481,-292 481,-298"/>
<polyline fill="none" stroke="gray" points="481,-298 481,-563 "/>
<path fill="none" stroke="gray" d="M481,-563C481,-569 475,-575 469,-575"/>
<polyline fill="none" stroke="gray" points="469,-575 195,-575 "/>
<path fill="none" stroke="gray" d="M195,-575C189,-575 183,-569 183,-563"/>
<polyline fill="none" stroke="gray" points="183,-563 183,-298 "/>
<path fill="none" stroke="gray" d="M183,-298C183,-292 189,-286 195,-286"/>
<text text-anchor="middle" x="332" y="-560" font-family="Times,serif" font-size="11.00" fill="gray">Query</text>
</g>
<!-- \\Aura\\Sql\\Adapter\\AbstractAdapter -->
<g id="node4" class="node"><title>\\Aura\\Sql\\Adapter\\AbstractAdapter</title>
<a xlink:href="Adapter.AbstractAdapter.html" xlink:title="AbstractAdapter" target="_parent">
<polygon fill="none" stroke="black" points="299.516,-843 184.484,-843 184.484,-807 299.516,-807 299.516,-843"/>
<text text-anchor="middle" x="242" y="-820.6" font-family="Courier,monospace" font-size="11.00">AbstractAdapter</text>
</a>
</g>
<!-- \\Aura\\Sql\\Adapter\\Mysql -->
<g id="node5" class="node"><title>\\Aura\\Sql\\Adapter\\Mysql</title>
<a xlink:href="Adapter.Mysql.html" xlink:title="Mysql" target="_parent">
<polygon fill="none" stroke="black" points="469,-924 415,-924 415,-888 469,-888 469,-924"/>
<text text-anchor="middle" x="442" y="-901.6" font-family="Courier,monospace" font-size="11.00">Mysql</text>
</a>
</g>
<!-- \\Aura\\Sql\\Adapter\\Mysql&#45;&gt;\\Aura\\Sql\\Adapter\\AbstractAdapter -->
<g id="edge10" class="edge"><title>\\Aura\\Sql\\Adapter\\Mysql&#45;&gt;\\Aura\\Sql\\Adapter\\AbstractAdapter</title>
<path fill="none" stroke="black" d="M414.707,-895.244C384.741,-882.985 334.969,-862.624 296.705,-846.97"/>
<polygon fill="none" stroke="black" points="297.824,-843.647 287.243,-843.1 295.174,-850.125 297.824,-843.647"/>
</g>
<!-- \\Aura\\Sql\\Adapter\\Pgsql -->
<g id="node6" class="node"><title>\\Aura\\Sql\\Adapter\\Pgsql</title>
<a xlink:href="Adapter.Pgsql.html" xlink:title="Pgsql" target="_parent">
<polygon fill="none" stroke="black" points="469,-870 415,-870 415,-834 469,-834 469,-870"/>
<text text-anchor="middle" x="442" y="-847.6" font-family="Courier,monospace" font-size="11.00">Pgsql</text>
</a>
</g>
<!-- \\Aura\\Sql\\Adapter\\Pgsql&#45;&gt;\\Aura\\Sql\\Adapter\\AbstractAdapter -->
<g id="edge12" class="edge"><title>\\Aura\\Sql\\Adapter\\Pgsql&#45;&gt;\\Aura\\Sql\\Adapter\\AbstractAdapter</title>
<path fill="none" stroke="black" d="M414.707,-848.415C388.072,-844.783 345.789,-839.017 309.848,-834.116"/>
<polygon fill="none" stroke="black" points="310.279,-830.642 299.897,-832.759 309.333,-837.578 310.279,-830.642"/>
</g>
<!-- \\Aura\\Sql\\Adapter\\Sqlite -->
<g id="node7" class="node"><title>\\Aura\\Sql\\Adapter\\Sqlite</title>
<a xlink:href="Adapter.Sqlite.html" xlink:title="Sqlite" target="_parent">
<polygon fill="none" stroke="black" points="469.608,-816 414.392,-816 414.392,-780 469.608,-780 469.608,-816"/>
<text text-anchor="middle" x="442" y="-793.6" font-family="Courier,monospace" font-size="11.00">Sqlite</text>
</a>
</g>
<!-- \\Aura\\Sql\\Adapter\\Sqlite&#45;&gt;\\Aura\\Sql\\Adapter\\AbstractAdapter -->
<g id="edge14" class="edge"><title>\\Aura\\Sql\\Adapter\\Sqlite&#45;&gt;\\Aura\\Sql\\Adapter\\AbstractAdapter</title>
<path fill="none" stroke="black" d="M414.297,-801.641C387.57,-805.286 345.386,-811.038 309.569,-815.922"/>
<polygon fill="none" stroke="black" points="309.089,-812.455 299.654,-817.274 310.035,-819.391 309.089,-812.455"/>
</g>
<!-- \\Aura\\Sql\\Adapter\\Sqlsrv -->
<g id="node8" class="node"><title>\\Aura\\Sql\\Adapter\\Sqlsrv</title>
<a xlink:href="Adapter.Sqlsrv.html" xlink:title="Sqlsrv" target="_parent">
<polygon fill="none" stroke="black" points="469.608,-762 414.392,-762 414.392,-726 469.608,-726 469.608,-762"/>
<text text-anchor="middle" x="442" y="-739.6" font-family="Courier,monospace" font-size="11.00">Sqlsrv</text>
</a>
</g>
<!-- \\Aura\\Sql\\Adapter\\Sqlsrv&#45;&gt;\\Aura\\Sql\\Adapter\\AbstractAdapter -->
<g id="edge16" class="edge"><title>\\Aura\\Sql\\Adapter\\Sqlsrv&#45;&gt;\\Aura\\Sql\\Adapter\\AbstractAdapter</title>
<path fill="none" stroke="black" d="M414.297,-755.351C403.073,-760.146 389.888,-765.811 378,-771 345.906,-785.009 338.558,-790.106 306,-803 305.687,-803.124 305.373,-803.248 305.058,-803.372"/>
<polygon fill="none" stroke="black" points="303.799,-800.106 295.714,-806.954 306.304,-806.642 303.799,-800.106"/>
</g>
<!-- \\Aura\\Sql\\Exception\\NoSuchMaster -->
<g id="node10" class="node"><title>\\Aura\\Sql\\Exception\\NoSuchMaster</title>
<a xlink:href="Exception.NoSuchMaster.html" xlink:title="NoSuchMaster" target="_parent">
<polygon fill="none" stroke="black" points="489.713,-681 394.287,-681 394.287,-645 489.713,-645 489.713,-681"/>
<text text-anchor="middle" x="442" y="-658.6" font-family="Courier,monospace" font-size="11.00">NoSuchMaster</text>
</a>
</g>
<!-- \\Aura\\Sql\\Exception -->
<g id="node23" class="node"><title>\\Aura\\Sql\\Exception</title>
<a xlink:href="Exception.html" xlink:title="Exception" target="_parent">
<polygon fill="none" stroke="black" points="279.911,-654 204.089,-654 204.089,-618 279.911,-618 279.911,-654"/>
<text text-anchor="middle" x="242" y="-631.6" font-family="Courier,monospace" font-size="11.00">Exception</text>
</a>
</g>
<!-- \\Aura\\Sql\\Exception\\NoSuchMaster&#45;&gt;\\Aura\\Sql\\Exception -->
<g id="edge18" class="edge"><title>\\Aura\\Sql\\Exception\\NoSuchMaster&#45;&gt;\\Aura\\Sql\\Exception</title>
<path fill="none" stroke="black" d="M394.327,-656.636C362.895,-652.349 321.588,-646.716 290.072,-642.419"/>
<polygon fill="none" stroke="black" points="290.169,-638.9 279.788,-641.017 289.224,-645.836 290.169,-638.9"/>
</g>
<!-- \\Aura\\Sql\\Exception\\NoSuchSlave -->
<g id="node11" class="node"><title>\\Aura\\Sql\\Exception\\NoSuchSlave</title>
<a xlink:href="Exception.NoSuchSlave.html" xlink:title="NoSuchSlave" target="_parent">
<polygon fill="none" stroke="black" points="486.113,-627 397.887,-627 397.887,-591 486.113,-591 486.113,-627"/>
<text text-anchor="middle" x="442" y="-604.6" font-family="Courier,monospace" font-size="11.00">NoSuchSlave</text>
</a>
</g>
<!-- \\Aura\\Sql\\Exception\\NoSuchSlave&#45;&gt;\\Aura\\Sql\\Exception -->
<g id="edge20" class="edge"><title>\\Aura\\Sql\\Exception\\NoSuchSlave&#45;&gt;\\Aura\\Sql\\Exception</title>
<path fill="none" stroke="black" d="M397.548,-614.925C365.705,-619.268 322.525,-625.156 289.901,-629.604"/>
<polygon fill="none" stroke="black" points="289.143,-626.175 279.708,-630.994 290.089,-633.111 289.143,-626.175"/>
</g>
<!-- \\Aura\\Sql\\Query\\AbstractQuery -->
<g id="node13" class="node"><title>\\Aura\\Sql\\Query\\AbstractQuery</title>
<a xlink:href="Query.AbstractQuery.html" xlink:title="AbstractQuery" target="_parent">
<polygon fill="none" stroke="black" points="292.814,-411 191.186,-411 191.186,-375 292.814,-375 292.814,-411"/>
<text text-anchor="middle" x="242" y="-388.6" font-family="Courier,monospace" font-size="11.00">AbstractQuery</text>
</a>
</g>
<!-- \\Aura\\Sql\\Query\\Delete -->
<g id="node14" class="node"><title>\\Aura\\Sql\\Query\\Delete</title>
<a xlink:href="Query.Delete.html" xlink:title="Delete" target="_parent">
<polygon fill="none" stroke="black" points="469.608,-546 414.392,-546 414.392,-510 469.608,-510 469.608,-546"/>
<text text-anchor="middle" x="442" y="-523.6" font-family="Courier,monospace" font-size="11.00">Delete</text>
</a>
</g>
<!-- \\Aura\\Sql\\Query\\Delete&#45;&gt;\\Aura\\Sql\\Query\\AbstractQuery -->
<g id="edge24" class="edge"><title>\\Aura\\Sql\\Query\\Delete&#45;&gt;\\Aura\\Sql\\Query\\AbstractQuery</title>
<path fill="none" stroke="black" d="M414.089,-519.648C402.33,-515.224 388.791,-509.023 378,-501 337.996,-471.257 347.005,-443.347 306,-415 304.749,-414.135 303.461,-413.301 302.143,-412.498"/>
<polygon fill="none" stroke="black" points="303.543,-409.276 293.079,-407.617 300.224,-415.44 303.543,-409.276"/>
</g>
<!-- \\Aura\\Sql\\Query\\Factory -->
<g id="node15" class="node"><title>\\Aura\\Sql\\Query\\Factory</title>
<a xlink:href="Query.Factory.html" xlink:title="Factory" target="_parent">
<polygon fill="none" stroke="black" points="473.208,-492 410.792,-492 410.792,-456 473.208,-456 473.208,-492"/>
<text text-anchor="middle" x="442" y="-469.6" font-family="Courier,monospace" font-size="11.00">Factory</text>
</a>
</g>
<!-- \\Aura\\Sql\\Query\\Insert -->
<g id="node16" class="node"><title>\\Aura\\Sql\\Query\\Insert</title>
<a xlink:href="Query.Insert.html" xlink:title="Insert" target="_parent">
<polygon fill="none" stroke="black" points="469.608,-438 414.392,-438 414.392,-402 469.608,-402 469.608,-438"/>
<text text-anchor="middle" x="442" y="-415.6" font-family="Courier,monospace" font-size="11.00">Insert</text>
</a>
</g>
<!-- \\Aura\\Sql\\Query\\Insert&#45;&gt;\\Aura\\Sql\\Query\\AbstractQuery -->
<g id="edge26" class="edge"><title>\\Aura\\Sql\\Query\\Insert&#45;&gt;\\Aura\\Sql\\Query\\AbstractQuery</title>
<path fill="none" stroke="black" d="M414.297,-416.359C385.93,-412.49 340.15,-406.248 303.052,-401.189"/>
<polygon fill="none" stroke="black" points="303.221,-397.68 292.84,-399.796 302.275,-404.615 303.221,-397.68"/>
</g>
<!-- \\Aura\\Sql\\Query\\Select -->
<g id="node17" class="node"><title>\\Aura\\Sql\\Query\\Select</title>
<a xlink:href="Query.Select.html" xlink:title="Select" target="_parent">
<polygon fill="none" stroke="black" points="469.608,-384 414.392,-384 414.392,-348 469.608,-348 469.608,-384"/>
<text text-anchor="middle" x="442" y="-361.6" font-family="Courier,monospace" font-size="11.00">Select</text>
</a>
</g>
<!-- \\Aura\\Sql\\Query\\Select&#45;&gt;\\Aura\\Sql\\Query\\AbstractQuery -->
<g id="edge28" class="edge"><title>\\Aura\\Sql\\Query\\Select&#45;&gt;\\Aura\\Sql\\Query\\AbstractQuery</title>
<path fill="none" stroke="black" d="M414.297,-369.641C385.93,-373.51 340.15,-379.752 303.052,-384.811"/>
<polygon fill="none" stroke="black" points="302.275,-381.385 292.84,-386.204 303.221,-388.32 302.275,-381.385"/>
</g>
<!-- \\Aura\\Sql\\Query\\Update -->
<g id="node18" class="node"><title>\\Aura\\Sql\\Query\\Update</title>
<a xlink:href="Query.Update.html" xlink:title="Update" target="_parent">
<polygon fill="none" stroke="black" points="469.608,-330 414.392,-330 414.392,-294 469.608,-294 469.608,-330"/>
<text text-anchor="middle" x="442" y="-307.6" font-family="Courier,monospace" font-size="11.00">Update</text>
</a>
</g>
<!-- \\Aura\\Sql\\Query\\Update&#45;&gt;\\Aura\\Sql\\Query\\AbstractQuery -->
<g id="edge30" class="edge"><title>\\Aura\\Sql\\Query\\Update&#45;&gt;\\Aura\\Sql\\Query\\AbstractQuery</title>
<path fill="none" stroke="black" d="M414.297,-323.351C403.073,-328.146 389.888,-333.811 378,-339 345.906,-353.009 338.558,-358.106 306,-371 304.819,-371.468 303.623,-371.936 302.416,-372.404"/>
<polygon fill="none" stroke="black" points="301.12,-369.152 293.004,-375.962 303.596,-375.699 301.12,-369.152"/>
</g>
<!-- \\Aura\\Sql\\AdapterFactory -->
<g id="node19" class="node"><title>\\Aura\\Sql\\AdapterFactory</title>
<a xlink:href="AdapterFactory.html" xlink:title="AdapterFactory" target="_parent">
<polygon fill="none" stroke="black" points="496.416,-276 387.584,-276 387.584,-240 496.416,-240 496.416,-276"/>
<text text-anchor="middle" x="442" y="-253.6" font-family="Courier,monospace" font-size="11.00">AdapterFactory</text>
</a>
</g>
<!-- \\Aura\\Sql\\Column -->
<g id="node20" class="node"><title>\\Aura\\Sql\\Column</title>
<a xlink:href="Column.html" xlink:title="Column" target="_parent">
<polygon fill="none" stroke="black" points="469.608,-222 414.392,-222 414.392,-186 469.608,-186 469.608,-222"/>
<text text-anchor="middle" x="442" y="-199.6" font-family="Courier,monospace" font-size="11.00">Column</text>
</a>
</g>
<!-- \\Aura\\Sql\\ColumnFactory -->
<g id="node21" class="node"><title>\\Aura\\Sql\\ColumnFactory</title>
<a xlink:href="ColumnFactory.html" xlink:title="ColumnFactory" target="_parent">
<polygon fill="none" stroke="black" points="492.814,-168 391.186,-168 391.186,-132 492.814,-132 492.814,-168"/>
<text text-anchor="middle" x="442" y="-145.6" font-family="Courier,monospace" font-size="11.00">ColumnFactory</text>
</a>
</g>
<!-- \\Aura\\Sql\\ConnectionManager -->
<g id="node22" class="node"><title>\\Aura\\Sql\\ConnectionManager</title>
<a xlink:href="ConnectionManager.html" xlink:title="ConnectionManager" target="_parent">
<polygon fill="none" stroke="black" points="506.218,-114 377.782,-114 377.782,-78 506.218,-78 506.218,-114"/>
<text text-anchor="middle" x="442" y="-91.6" font-family="Courier,monospace" font-size="11.00">ConnectionManager</text>
</a>
</g>
<!-- \\Exception -->
<g id="node36" class="node"><title>\\Exception</title>
<ellipse fill="none" stroke="black" cx="53" cy="-636" rx="52.7417" ry="18"/>
<text text-anchor="middle" x="53" y="-630.4" font-family="Times,serif" font-size="14.00" fill="gray">\Exception</text>
</g>
<!-- \\Aura\\Sql\\Exception&#45;&gt;\\Exception -->
<g id="edge22" class="edge"><title>\\Aura\\Sql\\Exception&#45;&gt;\\Exception</title>
<path fill="none" stroke="black" d="M204.055,-636C179.013,-636 145.303,-636 116.177,-636"/>
<polygon fill="none" stroke="black" points="116.088,-632.5 106.088,-636 116.088,-639.5 116.088,-632.5"/>
</g>
<!-- \\Aura\\Sql\\Profiler -->
<g id="node24" class="node"><title>\\Aura\\Sql\\Profiler</title>
<a xlink:href="Profiler.html" xlink:title="Profiler" target="_parent">
<polygon fill="none" stroke="black" points="476.309,-60 407.691,-60 407.691,-24 476.309,-24 476.309,-60"/>
<text text-anchor="middle" x="442" y="-37.6" font-family="Courier,monospace" font-size="11.00">Profiler</text>
</a>
</g>
<!-- \\Aura\\Sql\\ProfilerInterface -->
<g id="node25" class="node"><title>\\Aura\\Sql\\ProfilerInterface</title>
<a xlink:href="ProfilerInterface.html" xlink:title="ProfilerInterface" target="_parent">
<polygon fill="none" stroke="black" points="306.218,-60 177.782,-60 177.782,-24 306.218,-24 306.218,-60"/>
<text text-anchor="middle" x="242" y="-37.6" font-family="Courier,monospace" font-size="11.00">ProfilerInterface</text>
</a>
</g>
<!-- \\Aura\\Sql\\Profiler&#45;&gt;\\Aura\\Sql\\ProfilerInterface -->
<g id="edge32" class="edge"><title>\\Aura\\Sql\\Profiler&#45;&gt;\\Aura\\Sql\\ProfilerInterface</title>
<path fill="none" stroke="black" stroke-dasharray="1,5" d="M407.412,-42C382.63,-42 347.951,-42 316.826,-42"/>
<polygon fill="none" stroke="black" points="316.427,-38.5001 306.427,-42 316.427,-45.5001 316.427,-38.5001"/>
</g>
</g>
</svg>
