<?xml version="1.0" encoding="UTF-8" standalone="no"?>
<!DOCTYPE svg PUBLIC "-//W3C//DTD SVG 1.1//EN"
 "http://www.w3.org/Graphics/SVG/1.1/DTD/svg11.dtd">
<!-- Generated by graphviz version 2.28.0 (20111028.1807)
 -->
<!-- Title: G Pages: 1 -->
<svg width="616pt" height="1371pt"
 viewBox="0.00 0.00 616.00 1371.00" xmlns="http://www.w3.org/2000/svg" xmlns:xlink="http://www.w3.org/1999/xlink">
<g id="graph1" class="graph" transform="scale(1 1) rotate(0) translate(4 1367)">
<title>G</title>
<polygon fill="white" stroke="white" points="-4,5 -4,-1367 613,-1367 613,5 -4,5"/>
<g id="graph2" class="cluster"><title>cluster_Aura</title>
<polyline fill="none" stroke="gray" points="225,-98 588,-98 "/>
<path fill="none" stroke="gray" d="M588,-98C594,-98 600,-104 600,-110"/>
<polyline fill="none" stroke="gray" points="600,-110 600,-1343 "/>
<path fill="none" stroke="gray" d="M600,-1343C600,-1349 594,-1355 588,-1355"/>
<polyline fill="none" stroke="gray" points="588,-1355 225,-1355 "/>
<path fill="none" stroke="gray" d="M225,-1355C219,-1355 213,-1349 213,-1343"/>
<polyline fill="none" stroke="gray" points="213,-1343 213,-110 "/>
<path fill="none" stroke="gray" d="M213,-110C213,-104 219,-98 225,-98"/>
<text text-anchor="middle" x="406.5" y="-1340" font-family="Times,serif" font-size="11.00" fill="gray">Aura</text>
</g>
<g id="graph3" class="cluster"><title>cluster_Aura\View</title>
<polyline fill="none" stroke="gray" points="233,-106 580,-106 "/>
<path fill="none" stroke="gray" d="M580,-106C586,-106 592,-112 592,-118"/>
<polyline fill="none" stroke="gray" points="592,-118 592,-1314 "/>
<path fill="none" stroke="gray" d="M592,-1314C592,-1320 586,-1326 580,-1326"/>
<polyline fill="none" stroke="gray" points="580,-1326 233,-1326 "/>
<path fill="none" stroke="gray" d="M233,-1326C227,-1326 221,-1320 221,-1314"/>
<polyline fill="none" stroke="gray" points="221,-1314 221,-118 "/>
<path fill="none" stroke="gray" d="M221,-118C221,-112 227,-106 233,-106"/>
<text text-anchor="middle" x="406.5" y="-1311" font-family="Times,serif" font-size="11.00" fill="gray">View</text>
</g>
<g id="graph4" class="cluster"><title>cluster_Aura\View\Escaper</title>
<polyline fill="none" stroke="gray" points="267,-214 572,-214 "/>
<path fill="none" stroke="gray" d="M572,-214C578,-214 584,-220 584,-226"/>
<polyline fill="none" stroke="gray" points="584,-226 584,-329 "/>
<path fill="none" stroke="gray" d="M584,-329C584,-335 578,-341 572,-341"/>
<polyline fill="none" stroke="gray" points="572,-341 267,-341 "/>
<path fill="none" stroke="gray" d="M267,-341C261,-341 255,-335 255,-329"/>
<polyline fill="none" stroke="gray" points="255,-329 255,-226 "/>
<path fill="none" stroke="gray" d="M255,-226C255,-220 261,-214 267,-214"/>
<text text-anchor="middle" x="419.5" y="-326" font-family="Times,serif" font-size="11.00" fill="gray">Escaper</text>
</g>
<g id="graph5" class="cluster"><title>cluster_Aura\View\Exception</title>
<polyline fill="none" stroke="gray" points="455,-503 569,-503 "/>
<path fill="none" stroke="gray" d="M569,-503C575,-503 581,-509 581,-515"/>
<polyline fill="none" stroke="gray" points="581,-515 581,-618 "/>
<path fill="none" stroke="gray" d="M581,-618C581,-624 575,-630 569,-630"/>
<polyline fill="none" stroke="gray" points="569,-630 455,-630 "/>
<path fill="none" stroke="gray" d="M455,-630C449,-630 443,-624 443,-618"/>
<polyline fill="none" stroke="gray" points="443,-618 443,-515 "/>
<path fill="none" stroke="gray" d="M443,-515C443,-509 449,-503 455,-503"/>
<text text-anchor="middle" x="512" y="-615" font-family="Times,serif" font-size="11.00" fill="gray">Exception</text>
</g>
<g id="graph6" class="cluster"><title>cluster_Aura\View\Helper</title>
<polyline fill="none" stroke="gray" points="241,-684 543,-684 "/>
<path fill="none" stroke="gray" d="M543,-684C549,-684 555,-690 555,-696"/>
<polyline fill="none" stroke="gray" points="555,-696 555,-1285 "/>
<path fill="none" stroke="gray" d="M555,-1285C555,-1291 549,-1297 543,-1297"/>
<polyline fill="none" stroke="gray" points="543,-1297 241,-1297 "/>
<path fill="none" stroke="gray" d="M241,-1297C235,-1297 229,-1291 229,-1285"/>
<polyline fill="none" stroke="gray" points="229,-1285 229,-696 "/>
<path fill="none" stroke="gray" d="M229,-696C229,-690 235,-684 241,-684"/>
<text text-anchor="middle" x="392" y="-1282" font-family="Times,serif" font-size="11.00" fill="gray">Helper</text>
</g>
<!-- \\Aura\\View\\Escaper\\Iterator -->
<g id="node4" class="node"><title>\\Aura\\View\\Escaper\\Iterator</title>
<a xlink:href="Escaper.Iterator.html" xlink:title="Iterator" target="_parent">
<polygon fill="none" stroke="black" points="546.309,-312 477.691,-312 477.691,-276 546.309,-276 546.309,-312"/>
<text text-anchor="middle" x="512" y="-289.6" font-family="Courier,monospace" font-size="11.00">Iterator</text>
</a>
</g>
<!-- \\Aura\\View\\Escaper\\Object -->
<g id="node6" class="node"><title>\\Aura\\View\\Escaper\\Object</title>
<a xlink:href="Escaper.Object.html" xlink:title="Object" target="_parent">
<polygon fill="none" stroke="black" points="318.608,-285 263.392,-285 263.392,-249 318.608,-249 318.608,-285"/>
<text text-anchor="middle" x="291" y="-262.6" font-family="Courier,monospace" font-size="11.00">Object</text>
</a>
</g>
<!-- \\Aura\\View\\Escaper\\Iterator&#45;&gt;\\Aura\\View\\Escaper\\Object -->
<g id="edge10" class="edge"><title>\\Aura\\View\\Escaper\\Iterator&#45;&gt;\\Aura\\View\\Escaper\\Object</title>
<path fill="none" stroke="black" d="M477.261,-289.84C437.11,-284.89 370.303,-276.654 328.836,-271.541"/>
<polygon fill="none" stroke="black" points="329.225,-268.063 318.872,-270.313 328.368,-275.01 329.225,-268.063"/>
</g>
<!-- \\Iterator -->
<g id="node52" class="node"><title>\\Iterator</title>
<ellipse fill="none" stroke="black" cx="291" cy="-72" rx="44.6347" ry="18"/>
<text text-anchor="middle" x="291" y="-66.4" font-family="Times,serif" font-size="14.00" fill="gray">\\Iterator</text>
</g>
<!-- \\Aura\\View\\Escaper\\Iterator&#45;&gt;\\Iterator -->
<g id="edge42" class="edge"><title>\\Aura\\View\\Escaper\\Iterator&#45;&gt;\\Iterator</title>
<path fill="none" stroke="black" stroke-dasharray="1,5" d="M477.677,-284.773C465.999,-280.542 453.252,-274.712 443,-267 380.146,-219.719 329.747,-139.891 306.292,-98.567"/>
<polygon fill="none" stroke="black" points="309.24,-96.6682 301.308,-89.6448 303.129,-100.082 309.24,-96.6682"/>
</g>
<!-- \\Aura\\View\\Escaper\\IteratorAggregate -->
<g id="node5" class="node"><title>\\Aura\\View\\Escaper\\IteratorAggregate</title>
<a xlink:href="Escaper.IteratorAggregate.html" xlink:title="IteratorAggregate" target="_parent">
<polygon fill="none" stroke="black" points="576.218,-258 447.782,-258 447.782,-222 576.218,-222 576.218,-258"/>
<text text-anchor="middle" x="512" y="-235.6" font-family="Courier,monospace" font-size="11.00">IteratorAggregate</text>
</a>
</g>
<!-- \\Aura\\View\\Escaper\\IteratorAggregate&#45;&gt;\\Aura\\View\\Escaper\\Object -->
<g id="edge12" class="edge"><title>\\Aura\\View\\Escaper\\IteratorAggregate&#45;&gt;\\Aura\\View\\Escaper\\Object</title>
<path fill="none" stroke="black" d="M447.656,-247.81C409.014,-252.574 360.984,-258.495 328.577,-262.49"/>
<polygon fill="none" stroke="black" points="328.133,-259.019 318.636,-263.716 328.99,-265.966 328.133,-259.019"/>
</g>
<!-- \\IteratorAggregate -->
<g id="node54" class="node"><title>\\IteratorAggregate</title>
<ellipse fill="none" stroke="black" cx="291" cy="-18" rx="85.0676" ry="18"/>
<text text-anchor="middle" x="291" y="-12.4" font-family="Times,serif" font-size="14.00" fill="gray">\\IteratorAggregate</text>
</g>
<!-- \\Aura\\View\\Escaper\\IteratorAggregate&#45;&gt;\\IteratorAggregate -->
<g id="edge44" class="edge"><title>\\Aura\\View\\Escaper\\IteratorAggregate&#45;&gt;\\IteratorAggregate</title>
<path fill="none" stroke="black" stroke-dasharray="1,5" d="M447.869,-222.066C446.163,-220.802 444.533,-219.449 443,-218 383.07,-161.369 435.984,-101.574 376,-45 371.891,-41.1244 367.222,-37.805 362.241,-34.9622"/>
<polygon fill="none" stroke="black" points="363.501,-31.6792 352.991,-30.3424 360.374,-37.9416 363.501,-31.6792"/>
</g>
<!-- \\ArrayAccess -->
<g id="node56" class="node"><title>\\ArrayAccess</title>
<ellipse fill="none" stroke="black" cx="67" cy="-267" rx="66.044" ry="18"/>
<text text-anchor="middle" x="67" y="-261.4" font-family="Times,serif" font-size="14.00" fill="gray">\\ArrayAccess</text>
</g>
<!-- \\Aura\\View\\Escaper\\Object&#45;&gt;\\ArrayAccess -->
<g id="edge46" class="edge"><title>\\Aura\\View\\Escaper\\Object&#45;&gt;\\ArrayAccess</title>
<path fill="none" stroke="black" stroke-dasharray="1,5" d="M263.222,-267C233.71,-267 184.932,-267 143.517,-267"/>
<polygon fill="none" stroke="black" points="143.438,-263.5 133.438,-267 143.438,-270.5 143.438,-263.5"/>
</g>
<!-- \\Aura\\View\\Exception\\HelperNotMapped -->
<g id="node8" class="node"><title>\\Aura\\View\\Exception\\HelperNotMapped</title>
<a xlink:href="Exception.HelperNotMapped.html" xlink:title="HelperNotMapped" target="_parent">
<polygon fill="none" stroke="black" points="569.516,-601 454.484,-601 454.484,-565 569.516,-565 569.516,-601"/>
<text text-anchor="middle" x="512" y="-578.6" font-family="Courier,monospace" font-size="11.00">HelperNotMapped</text>
</a>
</g>
<!-- \\Aura\\View\\Exception -->
<g id="node25" class="node"><title>\\Aura\\View\\Exception</title>
<a xlink:href="Exception.html" xlink:title="Exception" target="_parent">
<polygon fill="none" stroke="black" points="328.911,-574 253.089,-574 253.089,-538 328.911,-538 328.911,-574"/>
<text text-anchor="middle" x="291" y="-551.6" font-family="Courier,monospace" font-size="11.00">Exception</text>
</a>
</g>
<!-- \\Aura\\View\\Exception\\HelperNotMapped&#45;&gt;\\Aura\\View\\Exception -->
<g id="edge14" class="edge"><title>\\Aura\\View\\Exception\\HelperNotMapped&#45;&gt;\\Aura\\View\\Exception</title>
<path fill="none" stroke="black" d="M454.317,-576.012C418.483,-571.594 372.724,-565.952 338.932,-561.786"/>
<polygon fill="none" stroke="black" points="339.206,-558.293 328.852,-560.543 338.349,-565.241 339.206,-558.293"/>
</g>
<!-- \\Aura\\View\\Exception\\TemplateNotFound -->
<g id="node9" class="node"><title>\\Aura\\View\\Exception\\TemplateNotFound</title>
<a xlink:href="Exception.TemplateNotFound.html" xlink:title="TemplateNotFound" target="_parent">
<polygon fill="none" stroke="black" points="572.618,-547 451.382,-547 451.382,-511 572.618,-511 572.618,-547"/>
<text text-anchor="middle" x="512" y="-524.6" font-family="Courier,monospace" font-size="11.00">TemplateNotFound</text>
</a>
</g>
<!-- \\Aura\\View\\Exception\\TemplateNotFound&#45;&gt;\\Aura\\View\\Exception -->
<g id="edge16" class="edge"><title>\\Aura\\View\\Exception\\TemplateNotFound&#45;&gt;\\Aura\\View\\Exception</title>
<path fill="none" stroke="black" d="M451.157,-536.378C415.846,-540.731 371.793,-546.162 338.993,-550.206"/>
<polygon fill="none" stroke="black" points="338.26,-546.77 328.764,-551.467 339.117,-553.717 338.26,-546.77"/>
</g>
<!-- \\Aura\\View\\Helper\\AbstractHelper -->
<g id="node11" class="node"><title>\\Aura\\View\\Helper\\AbstractHelper</title>
<a xlink:href="Helper.AbstractHelper.html" xlink:title="AbstractHelper" target="_parent">
<polygon fill="none" stroke="black" points="345.416,-971 236.584,-971 236.584,-935 345.416,-935 345.416,-971"/>
<text text-anchor="middle" x="291" y="-948.6" font-family="Courier,monospace" font-size="11.00">AbstractHelper</text>
</a>
</g>
<!-- \\Aura\\View\\Helper\\Anchor -->
<g id="node12" class="node"><title>\\Aura\\View\\Helper\\Anchor</title>
<a xlink:href="Helper.Anchor.html" xlink:title="Anchor" target="_parent">
<polygon fill="none" stroke="black" points="539.608,-1160 484.392,-1160 484.392,-1124 539.608,-1124 539.608,-1160"/>
<text text-anchor="middle" x="512" y="-1137.6" font-family="Courier,monospace" font-size="11.00">Anchor</text>
</a>
</g>
<!-- \\Aura\\View\\Helper\\Anchor&#45;&gt;\\Aura\\View\\Helper\\AbstractHelper -->
<g id="edge20" class="edge"><title>\\Aura\\View\\Helper\\Anchor&#45;&gt;\\Aura\\View\\Helper\\AbstractHelper</title>
<path fill="none" stroke="black" d="M484.144,-1134.4C471.053,-1129.96 455.482,-1123.53 443,-1115 387.097,-1076.82 336.66,-1014.52 310.617,-979.345"/>
<polygon fill="none" stroke="black" points="313.258,-977.027 304.533,-971.017 307.606,-981.157 313.258,-977.027"/>
</g>
<!-- \\Aura\\View\\Helper\\Attribs -->
<g id="node13" class="node"><title>\\Aura\\View\\Helper\\Attribs</title>
<a xlink:href="Helper.Attribs.html" xlink:title="Attribs" target="_parent">
<polygon fill="none" stroke="black" points="543.208,-1106 480.792,-1106 480.792,-1070 543.208,-1070 543.208,-1106"/>
<text text-anchor="middle" x="512" y="-1083.6" font-family="Courier,monospace" font-size="11.00">Attribs</text>
</a>
</g>
<!-- \\Aura\\View\\Helper\\Attribs&#45;&gt;\\Aura\\View\\Helper\\AbstractHelper -->
<g id="edge22" class="edge"><title>\\Aura\\View\\Helper\\Attribs&#45;&gt;\\Aura\\View\\Helper\\AbstractHelper</title>
<path fill="none" stroke="black" d="M480.833,-1077.82C468.768,-1073.29 454.931,-1067.51 443,-1061 398.258,-1036.59 351.175,-1001.13 321.715,-977.582"/>
<polygon fill="none" stroke="black" points="323.872,-974.825 313.89,-971.275 319.48,-980.276 323.872,-974.825"/>
</g>
<!-- \\Aura\\View\\Helper\\Base -->
<g id="node14" class="node"><title>\\Aura\\View\\Helper\\Base</title>
<a xlink:href="Helper.Base.html" xlink:title="Base" target="_parent">
<polygon fill="none" stroke="black" points="539,-998 485,-998 485,-962 539,-962 539,-998"/>
<text text-anchor="middle" x="512" y="-975.6" font-family="Courier,monospace" font-size="11.00">Base</text>
</a>
</g>
<!-- \\Aura\\View\\Helper\\Base&#45;&gt;\\Aura\\View\\Helper\\AbstractHelper -->
<g id="edge24" class="edge"><title>\\Aura\\View\\Helper\\Base&#45;&gt;\\Aura\\View\\Helper\\AbstractHelper</title>
<path fill="none" stroke="black" d="M484.583,-976.743C452.777,-972.822 398.281,-966.103 355.36,-960.812"/>
<polygon fill="none" stroke="black" points="355.631,-957.319 345.278,-959.569 354.775,-964.266 355.631,-957.319"/>
</g>
<!-- \\Aura\\View\\Helper\\Datetime -->
<g id="node15" class="node"><title>\\Aura\\View\\Helper\\Datetime</title>
<a xlink:href="Helper.Datetime.html" xlink:title="Datetime" target="_parent">
<polygon fill="none" stroke="black" points="546.309,-944 477.691,-944 477.691,-908 546.309,-908 546.309,-944"/>
<text text-anchor="middle" x="512" y="-921.6" font-family="Courier,monospace" font-size="11.00">Datetime</text>
</a>
</g>
<!-- \\Aura\\View\\Helper\\Datetime&#45;&gt;\\Aura\\View\\Helper\\AbstractHelper -->
<g id="edge26" class="edge"><title>\\Aura\\View\\Helper\\Datetime&#45;&gt;\\Aura\\View\\Helper\\AbstractHelper</title>
<path fill="none" stroke="black" d="M477.261,-930.16C444.921,-934.147 395.288,-940.266 355.533,-945.167"/>
<polygon fill="none" stroke="black" points="354.889,-941.72 345.393,-946.417 355.746,-948.667 354.889,-941.72"/>
</g>
<!-- \\Aura\\View\\Helper\\Escape -->
<g id="node16" class="node"><title>\\Aura\\View\\Helper\\Escape</title>
<a xlink:href="Helper.Escape.html" xlink:title="Escape" target="_parent">
<polygon fill="none" stroke="black" points="539.608,-1052 484.392,-1052 484.392,-1016 539.608,-1016 539.608,-1052"/>
<text text-anchor="middle" x="512" y="-1029.6" font-family="Courier,monospace" font-size="11.00">Escape</text>
</a>
</g>
<!-- \\Aura\\View\\Helper\\Image -->
<g id="node17" class="node"><title>\\Aura\\View\\Helper\\Image</title>
<a xlink:href="Helper.Image.html" xlink:title="Image" target="_parent">
<polygon fill="none" stroke="black" points="539,-890 485,-890 485,-854 539,-854 539,-890"/>
<text text-anchor="middle" x="512" y="-867.6" font-family="Courier,monospace" font-size="11.00">Image</text>
</a>
</g>
<!-- \\Aura\\View\\Helper\\Image&#45;&gt;\\Aura\\View\\Helper\\AbstractHelper -->
<g id="edge28" class="edge"><title>\\Aura\\View\\Helper\\Image&#45;&gt;\\Aura\\View\\Helper\\AbstractHelper</title>
<path fill="none" stroke="black" d="M484.998,-881.849C472.256,-886.796 456.736,-893.001 443,-899 412.759,-912.208 406.989,-919.658 376,-931 369.284,-933.458 362.173,-935.76 355.044,-937.881"/>
<polygon fill="none" stroke="black" points="353.997,-934.54 345.346,-940.656 355.923,-941.269 353.997,-934.54"/>
</g>
<!-- \\Aura\\View\\Helper\\Links -->
<g id="node18" class="node"><title>\\Aura\\View\\Helper\\Links</title>
<a xlink:href="Helper.Links.html" xlink:title="Links" target="_parent">
<polygon fill="none" stroke="black" points="539,-836 485,-836 485,-800 539,-800 539,-836"/>
<text text-anchor="middle" x="512" y="-813.6" font-family="Courier,monospace" font-size="11.00">Links</text>
</a>
</g>
<!-- \\Aura\\View\\Helper\\Links&#45;&gt;\\Aura\\View\\Helper\\AbstractHelper -->
<g id="edge30" class="edge"><title>\\Aura\\View\\Helper\\Links&#45;&gt;\\Aura\\View\\Helper\\AbstractHelper</title>
<path fill="none" stroke="black" d="M484.802,-824.806C471.422,-829.135 455.398,-835.703 443,-845 404.237,-874.07 416.461,-904.344 376,-931 369.538,-935.257 362.291,-938.691 354.833,-941.462"/>
<polygon fill="none" stroke="black" points="353.7,-938.15 345.316,-944.628 355.91,-944.792 353.7,-938.15"/>
</g>
<!-- \\Aura\\View\\Helper\\Metas -->
<g id="node19" class="node"><title>\\Aura\\View\\Helper\\Metas</title>
<a xlink:href="Helper.Metas.html" xlink:title="Metas" target="_parent">
<polygon fill="none" stroke="black" points="539,-782 485,-782 485,-746 539,-746 539,-782"/>
<text text-anchor="middle" x="512" y="-759.6" font-family="Courier,monospace" font-size="11.00">Metas</text>
</a>
</g>
<!-- \\Aura\\View\\Helper\\Metas&#45;&gt;\\Aura\\View\\Helper\\AbstractHelper -->
<g id="edge32" class="edge"><title>\\Aura\\View\\Helper\\Metas&#45;&gt;\\Aura\\View\\Helper\\AbstractHelper</title>
<path fill="none" stroke="black" d="M484.921,-769.461C471.089,-773.472 454.604,-780.163 443,-791 392.584,-838.081 429.188,-887.076 376,-931 369.87,-936.062 362.701,-939.972 355.182,-942.99"/>
<polygon fill="none" stroke="black" points="353.813,-939.761 345.521,-946.355 356.116,-946.371 353.813,-939.761"/>
</g>
<!-- \\Aura\\View\\Helper\\Scripts -->
<g id="node20" class="node"><title>\\Aura\\View\\Helper\\Scripts</title>
<a xlink:href="Helper.Scripts.html" xlink:title="Scripts" target="_parent">
<polygon fill="none" stroke="black" points="543.208,-728 480.792,-728 480.792,-692 543.208,-692 543.208,-728"/>
<text text-anchor="middle" x="512" y="-705.6" font-family="Courier,monospace" font-size="11.00">Scripts</text>
</a>
</g>
<!-- \\Aura\\View\\Helper\\Scripts&#45;&gt;\\Aura\\View\\Helper\\AbstractHelper -->
<g id="edge34" class="edge"><title>\\Aura\\View\\Helper\\Scripts&#45;&gt;\\Aura\\View\\Helper\\AbstractHelper</title>
<path fill="none" stroke="black" d="M480.678,-716.043C467.583,-720.032 453.004,-726.531 443,-737 379.98,-802.95 442.918,-869.008 376,-931 369.946,-936.608 362.64,-940.824 354.895,-943.986"/>
<polygon fill="none" stroke="black" points="353.57,-940.742 345.283,-947.344 355.878,-947.35 353.57,-940.742"/>
</g>
<!-- \\Aura\\View\\Helper\\Styles -->
<g id="node21" class="node"><title>\\Aura\\View\\Helper\\Styles</title>
<a xlink:href="Helper.Styles.html" xlink:title="Styles" target="_parent">
<polygon fill="none" stroke="black" points="539.608,-1268 484.392,-1268 484.392,-1232 539.608,-1232 539.608,-1268"/>
<text text-anchor="middle" x="512" y="-1245.6" font-family="Courier,monospace" font-size="11.00">Styles</text>
</a>
</g>
<!-- \\Aura\\View\\Helper\\Styles&#45;&gt;\\Aura\\View\\Helper\\AbstractHelper -->
<g id="edge36" class="edge"><title>\\Aura\\View\\Helper\\Styles&#45;&gt;\\Aura\\View\\Helper\\AbstractHelper</title>
<path fill="none" stroke="black" d="M484.192,-1243.94C470.646,-1239.82 454.656,-1233.21 443,-1223 364.629,-1154.34 318.323,-1034.69 300.491,-980.761"/>
<polygon fill="none" stroke="black" points="303.801,-979.623 297.397,-971.183 297.14,-981.775 303.801,-979.623"/>
</g>
<!-- \\Aura\\View\\Helper\\Title -->
<g id="node22" class="node"><title>\\Aura\\View\\Helper\\Title</title>
<a xlink:href="Helper.Title.html" xlink:title="Title" target="_parent">
<polygon fill="none" stroke="black" points="539,-1214 485,-1214 485,-1178 539,-1178 539,-1214"/>
<text text-anchor="middle" x="512" y="-1191.6" font-family="Courier,monospace" font-size="11.00">Title</text>
</a>
</g>
<!-- \\Aura\\View\\Helper\\Title&#45;&gt;\\Aura\\View\\Helper\\AbstractHelper -->
<g id="edge38" class="edge"><title>\\Aura\\View\\Helper\\Title&#45;&gt;\\Aura\\View\\Helper\\AbstractHelper</title>
<path fill="none" stroke="black" d="M484.93,-1189.56C471.429,-1185.31 455.253,-1178.69 443,-1169 375.974,-1115.97 326.367,-1025.33 304.444,-980.196"/>
<polygon fill="none" stroke="black" points="307.535,-978.546 300.07,-971.029 301.218,-981.561 307.535,-978.546"/>
</g>
<!-- \\Aura\\View\\AbstractTemplate -->
<g id="node23" class="node"><title>\\Aura\\View\\AbstractTemplate</title>
<a xlink:href="AbstractTemplate.html" xlink:title="AbstractTemplate" target="_parent">
<polygon fill="none" stroke="black" points="351.618,-674 230.382,-674 230.382,-638 351.618,-638 351.618,-674"/>
<text text-anchor="middle" x="291" y="-651.6" font-family="Courier,monospace" font-size="11.00">AbstractTemplate</text>
</a>
</g>
<!-- \\Aura\\View\\EscaperFactory -->
<g id="node24" class="node"><title>\\Aura\\View\\EscaperFactory</title>
<a xlink:href="EscaperFactory.html" xlink:title="EscaperFactory" target="_parent">
<polygon fill="none" stroke="black" points="566.416,-493 457.584,-493 457.584,-457 566.416,-457 566.416,-493"/>
<text text-anchor="middle" x="512" y="-470.6" font-family="Courier,monospace" font-size="11.00">EscaperFactory</text>
</a>
</g>
<!-- \\Exception -->
<g id="node39" class="node"><title>\\Exception</title>
<ellipse fill="none" stroke="black" cx="67" cy="-556" rx="52.7417" ry="18"/>
<text text-anchor="middle" x="67" y="-550.4" font-family="Times,serif" font-size="14.00" fill="gray">\Exception</text>
</g>
<!-- \\Aura\\View\\Exception&#45;&gt;\\Exception -->
<g id="edge18" class="edge"><title>\\Aura\\View\\Exception&#45;&gt;\\Exception</title>
<path fill="none" stroke="black" d="M253.092,-556C219.633,-556 169.644,-556 130.047,-556"/>
<polygon fill="none" stroke="black" points="129.961,-552.5 119.961,-556 129.961,-559.5 129.961,-552.5"/>
</g>
<!-- \\Aura\\View\\FormatTypes -->
<g id="node26" class="node"><title>\\Aura\\View\\FormatTypes</title>
<a xlink:href="FormatTypes.html" xlink:title="FormatTypes" target="_parent">
<polygon fill="none" stroke="black" points="556.113,-439 467.887,-439 467.887,-403 556.113,-403 556.113,-439"/>
<text text-anchor="middle" x="512" y="-416.6" font-family="Courier,monospace" font-size="11.00">FormatTypes</text>
</a>
</g>
<!-- \\Aura\\View\\HelperLocator -->
<g id="node27" class="node"><title>\\Aura\\View\\HelperLocator</title>
<a xlink:href="HelperLocator.html" xlink:title="HelperLocator" target="_parent">
<polygon fill="none" stroke="black" points="562.814,-385 461.186,-385 461.186,-349 562.814,-349 562.814,-385"/>
<text text-anchor="middle" x="512" y="-362.6" font-family="Courier,monospace" font-size="11.00">HelperLocator</text>
</a>
</g>
<!-- \\Aura\\View\\Template -->
<g id="node28" class="node"><title>\\Aura\\View\\Template</title>
<a xlink:href="Template.html" xlink:title="Template" target="_parent">
<polygon fill="none" stroke="black" points="546.309,-674 477.691,-674 477.691,-638 546.309,-638 546.309,-674"/>
<text text-anchor="middle" x="512" y="-651.6" font-family="Courier,monospace" font-size="11.00">Template</text>
</a>
</g>
<!-- \\Aura\\View\\Template&#45;&gt;\\Aura\\View\\AbstractTemplate -->
<g id="edge40" class="edge"><title>\\Aura\\View\\Template&#45;&gt;\\Aura\\View\\AbstractTemplate</title>
<path fill="none" stroke="black" d="M477.261,-656C446.642,-656 400.521,-656 361.958,-656"/>
<polygon fill="none" stroke="black" points="361.818,-652.5 351.818,-656 361.818,-659.5 361.818,-652.5"/>
</g>
<!-- \\Aura\\View\\TemplateFinder -->
<g id="node29" class="node"><title>\\Aura\\View\\TemplateFinder</title>
<a xlink:href="TemplateFinder.html" xlink:title="TemplateFinder" target="_parent">
<polygon fill="none" stroke="black" points="566.416,-204 457.584,-204 457.584,-168 566.416,-168 566.416,-204"/>
<text text-anchor="middle" x="512" y="-181.6" font-family="Courier,monospace" font-size="11.00">TemplateFinder</text>
</a>
</g>
<!-- \\Aura\\View\\TwoStep -->
<g id="node30" class="node"><title>\\Aura\\View\\TwoStep</title>
<a xlink:href="TwoStep.html" xlink:title="TwoStep" target="_parent">
<polygon fill="none" stroke="black" points="543.208,-150 480.792,-150 480.792,-114 543.208,-114 543.208,-150"/>
<text text-anchor="middle" x="512" y="-127.6" font-family="Courier,monospace" font-size="11.00">TwoStep</text>
</a>
</g>
</g>
</svg>
