<?xml version="1.0" encoding="UTF-8" standalone="no"?>
<!DOCTYPE svg PUBLIC "-//W3C//DTD SVG 1.1//EN"
 "http://www.w3.org/Graphics/SVG/1.1/DTD/svg11.dtd">
<!-- Generated by graphviz version 2.28.0 (20111028.1807)
 -->
<!-- Title: G Pages: 1 -->
<svg width="604pt" height="675pt"
 viewBox="0.00 0.00 604.00 675.00" xmlns="http://www.w3.org/2000/svg" xmlns:xlink="http://www.w3.org/1999/xlink">
<g id="graph1" class="graph" transform="scale(1 1) rotate(0) translate(4 671)">
<title>G</title>
<polygon fill="white" stroke="white" points="-4,5 -4,-671 601,-671 601,5 -4,5"/>
<g id="graph2" class="cluster"><title>cluster_Aura</title>
<polyline fill="none" stroke="gray" points="30,-206 576,-206 "/>
<path fill="none" stroke="gray" d="M576,-206C582,-206 588,-212 588,-218"/>
<polyline fill="none" stroke="gray" points="588,-218 588,-647 "/>
<path fill="none" stroke="gray" d="M588,-647C588,-653 582,-659 576,-659"/>
<polyline fill="none" stroke="gray" points="576,-659 30,-659 "/>
<path fill="none" stroke="gray" d="M30,-659C24,-659 18,-653 18,-647"/>
<polyline fill="none" stroke="gray" points="18,-647 18,-218 "/>
<path fill="none" stroke="gray" d="M18,-218C18,-212 24,-206 30,-206"/>
<text text-anchor="middle" x="303" y="-644" font-family="Times,serif" font-size="11.00" fill="gray">Aura</text>
</g>
<g id="graph3" class="cluster"><title>cluster_Aura\Input</title>
<polyline fill="none" stroke="gray" points="38,-214 568,-214 "/>
<path fill="none" stroke="gray" d="M568,-214C574,-214 580,-220 580,-226"/>
<polyline fill="none" stroke="gray" points="580,-226 580,-618 "/>
<path fill="none" stroke="gray" d="M580,-618C580,-624 574,-630 568,-630"/>
<polyline fill="none" stroke="gray" points="568,-630 38,-630 "/>
<path fill="none" stroke="gray" d="M38,-630C32,-630 26,-624 26,-618"/>
<polyline fill="none" stroke="gray" points="26,-618 26,-226 "/>
<path fill="none" stroke="gray" d="M26,-226C26,-220 32,-214 38,-214"/>
<text text-anchor="middle" x="303" y="-615" font-family="Times,serif" font-size="11.00" fill="gray">Input</text>
</g>
<g id="graph4" class="cluster"><title>cluster_Aura\Input\Exception</title>
<polyline fill="none" stroke="gray" points="457,-268 551,-268 "/>
<path fill="none" stroke="gray" d="M551,-268C557,-268 563,-274 563,-280"/>
<polyline fill="none" stroke="gray" points="563,-280 563,-383 "/>
<path fill="none" stroke="gray" d="M563,-383C563,-389 557,-395 551,-395"/>
<polyline fill="none" stroke="gray" points="551,-395 457,-395 "/>
<path fill="none" stroke="gray" d="M457,-395C451,-395 445,-389 445,-383"/>
<polyline fill="none" stroke="gray" points="445,-383 445,-280 "/>
<path fill="none" stroke="gray" d="M445,-280C445,-274 451,-268 457,-268"/>
<text text-anchor="middle" x="504" y="-380" font-family="Times,serif" font-size="11.00" fill="gray">Exception</text>
</g>
<!-- \\Aura\\Input\\Exception\\CsrfViolation -->
<g id="node4" class="node"><title>\\Aura\\Input\\Exception\\CsrfViolation</title>
<a xlink:href="Exception.CsrfViolation.html" xlink:title="CsrfViolation" target="_parent">
<polygon fill="none" stroke="black" points="554.814,-366 453.186,-366 453.186,-330 554.814,-330 554.814,-366"/>
<text text-anchor="middle" x="504" y="-343.6" font-family="Courier,monospace" font-size="11.00">CsrfViolation</text>
</a>
</g>
<!-- \\Aura\\Input\\Exception -->
<g id="node12" class="node"><title>\\Aura\\Input\\Exception</title>
<a xlink:href="Exception.html" xlink:title="Exception" target="_parent">
<polygon fill="none" stroke="black" points="340.911,-285 265.089,-285 265.089,-249 340.911,-249 340.911,-285"/>
<text text-anchor="middle" x="303" y="-262.6" font-family="Courier,monospace" font-size="11.00">Exception</text>
</a>
</g>
<!-- \\Aura\\Input\\Exception\\CsrfViolation&#45;&gt;\\Aura\\Input\\Exception -->
<g id="edge8" class="edge"><title>\\Aura\\Input\\Exception\\CsrfViolation&#45;&gt;\\Aura\\Input\\Exception</title>
<path fill="none" stroke="black" d="M457.937,-329.878C450.602,-326.917 443.088,-323.878 436,-321 407.521,-309.436 375.622,-296.39 350.317,-286.017"/>
<polygon fill="none" stroke="black" points="351.543,-282.737 340.963,-282.182 348.887,-289.214 351.543,-282.737"/>
</g>
<!-- \\Aura\\Input\\Exception\\NoSuchInput -->
<g id="node5" class="node"><title>\\Aura\\Input\\Exception\\NoSuchInput</title>
<a xlink:href="Exception.NoSuchInput.html" xlink:title="NoSuchInput" target="_parent">
<polygon fill="none" stroke="black" points="548.113,-312 459.887,-312 459.887,-276 548.113,-276 548.113,-312"/>
<text text-anchor="middle" x="504" y="-289.6" font-family="Courier,monospace" font-size="11.00">NoSuchInput</text>
</a>
</g>
<!-- \\Aura\\Input\\Exception\\NoSuchInput&#45;&gt;\\Aura\\Input\\Exception -->
<g id="edge10" class="edge"><title>\\Aura\\Input\\Exception\\NoSuchInput&#45;&gt;\\Aura\\Input\\Exception</title>
<path fill="none" stroke="black" d="M459.82,-288.141C427.741,-283.789 384.016,-277.856 351.049,-273.384"/>
<polygon fill="none" stroke="black" points="351.131,-269.863 340.752,-271.986 350.19,-276.799 351.131,-269.863"/>
</g>
<!-- \\Aura\\Input\\AbstractInput -->
<g id="node6" class="node"><title>\\Aura\\Input\\AbstractInput</title>
<a xlink:href="AbstractInput.html" xlink:title="AbstractInput" target="_parent">
<polygon fill="none" stroke="black" points="135.814,-493 34.1859,-493 34.1859,-457 135.814,-457 135.814,-493"/>
<text text-anchor="middle" x="85" y="-470.6" font-family="Courier,monospace" font-size="11.00">AbstractInput</text>
</a>
</g>
<!-- \\Aura\\Input\\AntiCsrfInterface -->
<g id="node7" class="node"><title>\\Aura\\Input\\AntiCsrfInterface</title>
<a xlink:href="AntiCsrfInterface.html" xlink:title="AntiCsrfInterface" target="_parent">
<polygon fill="none" stroke="black" points="568.218,-547 439.782,-547 439.782,-511 568.218,-511 568.218,-547"/>
<text text-anchor="middle" x="504" y="-524.6" font-family="Courier,monospace" font-size="11.00">AntiCsrfInterface</text>
</a>
</g>
<!-- \\Aura\\Input\\Builder -->
<g id="node8" class="node"><title>\\Aura\\Input\\Builder</title>
<a xlink:href="Builder.html" xlink:title="Builder" target="_parent">
<polygon fill="none" stroke="black" points="535.208,-601 472.792,-601 472.792,-565 535.208,-565 535.208,-601"/>
<text text-anchor="middle" x="504" y="-578.6" font-family="Courier,monospace" font-size="11.00">Builder</text>
</a>
</g>
<!-- \\Aura\\Input\\BuilderInterface -->
<g id="node9" class="node"><title>\\Aura\\Input\\BuilderInterface</title>
<a xlink:href="BuilderInterface.html" xlink:title="BuilderInterface" target="_parent">
<polygon fill="none" stroke="black" points="363.618,-547 242.382,-547 242.382,-511 363.618,-511 363.618,-547"/>
<text text-anchor="middle" x="303" y="-524.6" font-family="Courier,monospace" font-size="11.00">BuilderInterface</text>
</a>
</g>
<!-- \\Aura\\Input\\Builder&#45;&gt;\\Aura\\Input\\BuilderInterface -->
<g id="edge20" class="edge"><title>\\Aura\\Input\\Builder&#45;&gt;\\Aura\\Input\\BuilderInterface</title>
<path fill="none" stroke="black" stroke-dasharray="1,5" d="M472.776,-574.799C446.552,-567.682 407.581,-557.107 373.692,-547.912"/>
<polygon fill="none" stroke="black" points="374.39,-544.474 363.822,-545.233 372.557,-551.23 374.39,-544.474"/>
</g>
<!-- \\Aura\\Input\\Collection -->
<g id="node10" class="node"><title>\\Aura\\Input\\Collection</title>
<a xlink:href="Collection.html" xlink:title="Collection" target="_parent">
<polygon fill="none" stroke="black" points="344.011,-393 261.989,-393 261.989,-357 344.011,-357 344.011,-393"/>
<text text-anchor="middle" x="303" y="-370.6" font-family="Courier,monospace" font-size="11.00">Collection</text>
</a>
</g>
<!-- \\Aura\\Input\\Collection&#45;&gt;\\Aura\\Input\\AbstractInput -->
<g id="edge6" class="edge"><title>\\Aura\\Input\\Collection&#45;&gt;\\Aura\\Input\\AbstractInput</title>
<path fill="none" stroke="black" d="M276.334,-393.095C250.524,-410.571 209.066,-436.716 170,-453 162.299,-456.21 154.002,-459.06 145.726,-461.556"/>
<polygon fill="none" stroke="black" points="144.709,-458.207 136.058,-464.324 146.635,-464.937 144.709,-458.207"/>
</g>
<!-- \\ArrayAccess -->
<g id="node29" class="node"><title>\\ArrayAccess</title>
<ellipse fill="none" stroke="black" cx="85" cy="-180" rx="66.044" ry="18"/>
<text text-anchor="middle" x="85" y="-174.4" font-family="Times,serif" font-size="14.00" fill="gray">\\ArrayAccess</text>
</g>
<!-- \\Aura\\Input\\Collection&#45;&gt;\\ArrayAccess -->
<g id="edge22" class="edge"><title>\\Aura\\Input\\Collection&#45;&gt;\\ArrayAccess</title>
<path fill="none" stroke="black" stroke-dasharray="1,5" d="M261.903,-361.486C254.734,-357.864 247.733,-353.409 242,-348 191.684,-300.523 222.17,-255.432 170,-210 163.053,-203.951 154.8,-199.093 146.221,-195.199"/>
<polygon fill="none" stroke="black" points="147.412,-191.905 136.832,-191.342 144.752,-198.38 147.412,-191.905"/>
</g>
<!-- \\Countable -->
<g id="node31" class="node"><title>\\Countable</title>
<ellipse fill="none" stroke="black" cx="85" cy="-126" rx="56.1921" ry="18"/>
<text text-anchor="middle" x="85" y="-120.4" font-family="Times,serif" font-size="14.00" fill="gray">\\Countable</text>
</g>
<!-- \\Aura\\Input\\Collection&#45;&gt;\\Countable -->
<g id="edge24" class="edge"><title>\\Aura\\Input\\Collection&#45;&gt;\\Countable</title>
<path fill="none" stroke="black" stroke-dasharray="1,5" d="M261.954,-362.368C254.612,-358.647 247.533,-353.93 242,-348 178.971,-280.454 236.706,-216.917 170,-153 163.022,-146.314 154.383,-141.284 145.324,-137.499"/>
<polygon fill="none" stroke="black" points="146.377,-134.158 135.784,-133.989 143.96,-140.727 146.377,-134.158"/>
</g>
<!-- \\IteratorAggregate -->
<g id="node33" class="node"><title>\\IteratorAggregate</title>
<ellipse fill="none" stroke="black" cx="85" cy="-72" rx="85.0676" ry="18"/>
<text text-anchor="middle" x="85" y="-66.4" font-family="Times,serif" font-size="14.00" fill="gray">\\IteratorAggregate</text>
</g>
<!-- \\Aura\\Input\\Collection&#45;&gt;\\IteratorAggregate -->
<g id="edge26" class="edge"><title>\\Aura\\Input\\Collection&#45;&gt;\\IteratorAggregate</title>
<path fill="none" stroke="black" stroke-dasharray="1,5" d="M261.922,-362.833C254.495,-359.065 247.39,-354.212 242,-348 166.498,-260.991 250.248,-181.652 170,-99 166.294,-95.1826 162.047,-91.904 157.474,-89.0884"/>
<polygon fill="none" stroke="black" points="158.808,-85.8333 148.336,-84.2243 155.519,-92.0125 158.808,-85.8333"/>
</g>
<!-- \\Aura\\Input\\CollectionIterator -->
<g id="node11" class="node"><title>\\Aura\\Input\\CollectionIterator</title>
<a xlink:href="CollectionIterator.html" xlink:title="CollectionIterator" target="_parent">
<polygon fill="none" stroke="black" points="571.319,-258 436.681,-258 436.681,-222 571.319,-222 571.319,-258"/>
<text text-anchor="middle" x="504" y="-235.6" font-family="Courier,monospace" font-size="11.00">CollectionIterator</text>
</a>
</g>
<!-- \\Iterator -->
<g id="node35" class="node"><title>\\Iterator</title>
<ellipse fill="none" stroke="black" cx="303" cy="-180" rx="44.6347" ry="18"/>
<text text-anchor="middle" x="303" y="-174.4" font-family="Times,serif" font-size="14.00" fill="gray">\\Iterator</text>
</g>
<!-- \\Aura\\Input\\CollectionIterator&#45;&gt;\\Iterator -->
<g id="edge28" class="edge"><title>\\Aura\\Input\\CollectionIterator&#45;&gt;\\Iterator</title>
<path fill="none" stroke="black" stroke-dasharray="1,5" d="M443.293,-221.998C413.112,-212.898 377.082,-202.035 349.228,-193.637"/>
<polygon fill="none" stroke="black" points="349.947,-190.198 339.362,-190.662 347.926,-196.9 349.947,-190.198"/>
</g>
<!-- \\Exception -->
<g id="node23" class="node"><title>\\Exception</title>
<ellipse fill="none" stroke="black" cx="85" cy="-18" rx="52.7417" ry="18"/>
<text text-anchor="middle" x="85" y="-12.4" font-family="Times,serif" font-size="14.00" fill="gray">\Exception</text>
</g>
<!-- \\Aura\\Input\\Exception&#45;&gt;\\Exception -->
<g id="edge12" class="edge"><title>\\Aura\\Input\\Exception&#45;&gt;\\Exception</title>
<path fill="none" stroke="black" d="M265.101,-259.148C256.669,-255.916 248.336,-251.373 242,-245 175.394,-178.001 237.947,-110.639 170,-45 162.486,-37.7413 153.013,-32.4338 143.159,-28.5532"/>
<polygon fill="none" stroke="black" points="144.241,-25.2238 133.646,-25.2526 141.947,-31.8371 144.241,-25.2238"/>
</g>
<!-- \\Aura\\Input\\Field -->
<g id="node13" class="node"><title>\\Aura\\Input\\Field</title>
<a xlink:href="Field.html" xlink:title="Field" target="_parent">
<polygon fill="none" stroke="black" points="330,-601 276,-601 276,-565 330,-565 330,-601"/>
<text text-anchor="middle" x="303" y="-578.6" font-family="Courier,monospace" font-size="11.00">Field</text>
</a>
</g>
<!-- \\Aura\\Input\\Field&#45;&gt;\\Aura\\Input\\AbstractInput -->
<g id="edge14" class="edge"><title>\\Aura\\Input\\Field&#45;&gt;\\Aura\\Input\\AbstractInput</title>
<path fill="none" stroke="black" d="M275.863,-571.62C265.288,-566.917 253.001,-561.326 242,-556 203.126,-537.18 159.555,-514.412 128.362,-497.814"/>
<polygon fill="none" stroke="black" points="129.973,-494.706 119.503,-493.088 126.679,-500.883 129.973,-494.706"/>
</g>
<!-- \\Aura\\Input\\Fieldset -->
<g id="node14" class="node"><title>\\Aura\\Input\\Fieldset</title>
<a xlink:href="Fieldset.html" xlink:title="Fieldset" target="_parent">
<polygon fill="none" stroke="black" points="337.309,-493 268.691,-493 268.691,-457 337.309,-457 337.309,-493"/>
<text text-anchor="middle" x="303" y="-470.6" font-family="Courier,monospace" font-size="11.00">Fieldset</text>
</a>
</g>
<!-- \\Aura\\Input\\Fieldset&#45;&gt;\\Aura\\Input\\AbstractInput -->
<g id="edge16" class="edge"><title>\\Aura\\Input\\Fieldset&#45;&gt;\\Aura\\Input\\AbstractInput</title>
<path fill="none" stroke="black" d="M268.25,-475C235.614,-475 185.445,-475 146,-475"/>
<polygon fill="none" stroke="black" points="145.962,-471.5 135.962,-475 145.962,-478.5 145.962,-471.5"/>
</g>
<!-- \\Aura\\Input\\Filter -->
<g id="node15" class="node"><title>\\Aura\\Input\\Filter</title>
<a xlink:href="Filter.html" xlink:title="Filter" target="_parent">
<polygon fill="none" stroke="black" points="531.608,-439 476.392,-439 476.392,-403 531.608,-403 531.608,-439"/>
<text text-anchor="middle" x="504" y="-416.6" font-family="Courier,monospace" font-size="11.00">Filter</text>
</a>
</g>
<!-- \\Aura\\Input\\FilterInterface -->
<g id="node16" class="node"><title>\\Aura\\Input\\FilterInterface</title>
<a xlink:href="FilterInterface.html" xlink:title="FilterInterface" target="_parent">
<polygon fill="none" stroke="black" points="360.516,-339 245.484,-339 245.484,-303 360.516,-303 360.516,-339"/>
<text text-anchor="middle" x="303" y="-316.6" font-family="Courier,monospace" font-size="11.00">FilterInterface</text>
</a>
</g>
<!-- \\Aura\\Input\\Filter&#45;&gt;\\Aura\\Input\\FilterInterface -->
<g id="edge30" class="edge"><title>\\Aura\\Input\\Filter&#45;&gt;\\Aura\\Input\\FilterInterface</title>
<path fill="none" stroke="black" stroke-dasharray="1,5" d="M476.182,-414.192C463.628,-410.507 448.683,-405.391 436,-399 400.981,-381.353 398.039,-367.47 364,-348 361.359,-346.489 358.617,-345 355.825,-343.545"/>
<polygon fill="none" stroke="black" points="357.305,-340.372 346.796,-339.028 354.173,-346.632 357.305,-340.372"/>
</g>
<!-- \\Aura\\Input\\Form -->
<g id="node17" class="node"><title>\\Aura\\Input\\Form</title>
<a xlink:href="Form.html" xlink:title="Form" target="_parent">
<polygon fill="none" stroke="black" points="531,-493 477,-493 477,-457 531,-457 531,-493"/>
<text text-anchor="middle" x="504" y="-470.6" font-family="Courier,monospace" font-size="11.00">Form</text>
</a>
</g>
<!-- \\Aura\\Input\\Form&#45;&gt;\\Aura\\Input\\Fieldset -->
<g id="edge18" class="edge"><title>\\Aura\\Input\\Form&#45;&gt;\\Aura\\Input\\Fieldset</title>
<path fill="none" stroke="black" d="M476.984,-475C444.102,-475 387.029,-475 347.476,-475"/>
<polygon fill="none" stroke="black" points="347.322,-471.5 337.322,-475 347.322,-478.5 347.322,-471.5"/>
</g>
</g>
</svg>
