<?xml version="1.0" encoding="UTF-8" standalone="no"?>
<!DOCTYPE svg PUBLIC "-//W3C//DTD SVG 1.1//EN"
 "http://www.w3.org/Graphics/SVG/1.1/DTD/svg11.dtd">
<!-- Generated by graphviz version 2.28.0 (20110509.1545)
 -->
<!-- Title: G Pages: 1 -->
<svg width="610pt" height="1036pt"
 viewBox="0.00 0.00 610.00 1036.00" xmlns="http://www.w3.org/2000/svg" xmlns:xlink="http://www.w3.org/1999/xlink">
<g id="graph1" class="graph" transform="scale(1 1) rotate(0) translate(4 1032)">
<title>G</title>
<polygon fill="white" stroke="white" points="-4,5 -4,-1032 607,-1032 607,5 -4,5"/>
<g id="graph2" class="cluster"><title>cluster_Aura</title>
<polyline fill="none" stroke="gray" points="230,-98 582,-98 "/>
<path fill="none" stroke="gray" d="M582,-98C588,-98 594,-104 594,-110"/>
<polyline fill="none" stroke="gray" points="594,-110 594,-1008 "/>
<path fill="none" stroke="gray" d="M594,-1008C594,-1014 588,-1020 582,-1020"/>
<polyline fill="none" stroke="gray" points="582,-1020 230,-1020 "/>
<path fill="none" stroke="gray" d="M230,-1020C224,-1020 218,-1014 218,-1008"/>
<polyline fill="none" stroke="gray" points="218,-1008 218,-110 "/>
<path fill="none" stroke="gray" d="M218,-110C218,-104 224,-98 230,-98"/>
<text text-anchor="middle" x="406" y="-1005" font-family="Times,serif" font-size="11.00" fill="gray">Aura</text>
</g>
<g id="graph3" class="cluster"><title>cluster_Aura\Marshal</title>
<polyline fill="none" stroke="gray" points="238,-106 574,-106 "/>
<path fill="none" stroke="gray" d="M574,-106C580,-106 586,-112 586,-118"/>
<polyline fill="none" stroke="gray" points="586,-118 586,-979 "/>
<path fill="none" stroke="gray" d="M586,-979C586,-985 580,-991 574,-991"/>
<polyline fill="none" stroke="gray" points="574,-991 238,-991 "/>
<path fill="none" stroke="gray" d="M238,-991C232,-991 226,-985 226,-979"/>
<polyline fill="none" stroke="gray" points="226,-979 226,-118 "/>
<path fill="none" stroke="gray" d="M226,-118C226,-112 232,-106 238,-106"/>
<text text-anchor="middle" x="406" y="-976" font-family="Times,serif" font-size="11.00" fill="gray">Marshal</text>
</g>
<g id="graph4" class="cluster"><title>cluster_Aura\Marshal\Collection</title>
<polyline fill="none" stroke="gray" points="249,-835 566,-835 "/>
<path fill="none" stroke="gray" d="M566,-835C572,-835 578,-841 578,-847"/>
<polyline fill="none" stroke="gray" points="578,-847 578,-950 "/>
<path fill="none" stroke="gray" d="M578,-950C578,-956 572,-962 566,-962"/>
<polyline fill="none" stroke="gray" points="566,-962 249,-962 "/>
<path fill="none" stroke="gray" d="M249,-962C243,-962 237,-956 237,-950"/>
<polyline fill="none" stroke="gray" points="237,-950 237,-847 "/>
<path fill="none" stroke="gray" d="M237,-847C237,-841 243,-835 249,-835"/>
<text text-anchor="middle" x="407.5" y="-947" font-family="Times,serif" font-size="11.00" fill="gray">Collection</text>
</g>
<g id="graph5" class="cluster"><title>cluster_Aura\Marshal\Record</title>
<polyline fill="none" stroke="gray" points="249,-565 553,-565 "/>
<path fill="none" stroke="gray" d="M553,-565C559,-565 565,-571 565,-577"/>
<polyline fill="none" stroke="gray" points="565,-577 565,-680 "/>
<path fill="none" stroke="gray" d="M565,-680C565,-686 559,-692 553,-692"/>
<polyline fill="none" stroke="gray" points="553,-692 249,-692 "/>
<path fill="none" stroke="gray" d="M249,-692C243,-692 237,-686 237,-680"/>
<polyline fill="none" stroke="gray" points="237,-680 237,-577 "/>
<path fill="none" stroke="gray" d="M237,-577C237,-571 243,-565 249,-565"/>
<text text-anchor="middle" x="401" y="-677" font-family="Times,serif" font-size="11.00" fill="gray">Record</text>
</g>
<g id="graph6" class="cluster"><title>cluster_Aura\Marshal\Relation</title>
<polyline fill="none" stroke="gray" points="246,-268 556,-268 "/>
<path fill="none" stroke="gray" d="M556,-268C562,-268 568,-274 568,-280"/>
<polyline fill="none" stroke="gray" points="568,-280 568,-545 "/>
<path fill="none" stroke="gray" d="M568,-545C568,-551 562,-557 556,-557"/>
<polyline fill="none" stroke="gray" points="556,-557 246,-557 "/>
<path fill="none" stroke="gray" d="M246,-557C240,-557 234,-551 234,-545"/>
<polyline fill="none" stroke="gray" points="234,-545 234,-280 "/>
<path fill="none" stroke="gray" d="M234,-280C234,-274 240,-268 246,-268"/>
<text text-anchor="middle" x="401" y="-542" font-family="Times,serif" font-size="11.00" fill="gray">Relation</text>
</g>
<g id="graph7" class="cluster"><title>cluster_Aura\Marshal\Type</title>
<polyline fill="none" stroke="gray" points="465,-700 547,-700 "/>
<path fill="none" stroke="gray" d="M547,-700C553,-700 559,-706 559,-712"/>
<polyline fill="none" stroke="gray" points="559,-712 559,-815 "/>
<path fill="none" stroke="gray" d="M559,-815C559,-821 553,-827 547,-827"/>
<polyline fill="none" stroke="gray" points="547,-827 465,-827 "/>
<path fill="none" stroke="gray" d="M465,-827C459,-827 453,-821 453,-815"/>
<polyline fill="none" stroke="gray" points="453,-815 453,-712 "/>
<path fill="none" stroke="gray" d="M453,-712C453,-706 459,-700 465,-700"/>
<text text-anchor="middle" x="506" y="-812" font-family="Times,serif" font-size="11.00" fill="gray">Type</text>
</g>
<!-- \\Aura\\Marshal\\Collection\\Builder -->
<g id="node4" class="node"><title>\\Aura\\Marshal\\Collection\\Builder</title>
<a xlink:href="db_Aura_Marshal_Collection_Builder.html" xlink:title="Builder" target="_parent">
<polygon fill="none" stroke="black" points="537.208,-933 474.792,-933 474.792,-897 537.208,-897 537.208,-933"/>
<text text-anchor="middle" x="506" y="-910.6" font-family="Courier,monospace" font-size="11.00">Builder</text>
</a>
</g>
<!-- \\Aura\\Marshal\\Collection\\BuilderInterface -->
<g id="node5" class="node"><title>\\Aura\\Marshal\\Collection\\BuilderInterface</title>
<a xlink:href="db_Aura_Marshal_Collection_BuilderInterface.html" xlink:title="BuilderInterface" target="_parent">
<polygon fill="none" stroke="black" points="366.618,-933 245.382,-933 245.382,-897 366.618,-897 366.618,-933"/>
<text text-anchor="middle" x="306" y="-910.6" font-family="Courier,monospace" font-size="11.00">BuilderInterface</text>
</a>
</g>
<!-- \\Aura\\Marshal\\Collection\\Builder&#45;&gt;\\Aura\\Marshal\\Collection\\BuilderInterface -->
<g id="edge28" class="edge"><title>\\Aura\\Marshal\\Collection\\Builder&#45;&gt;\\Aura\\Marshal\\Collection\\BuilderInterface</title>
<path fill="none" stroke="black" stroke-dasharray="1,5" d="M474.496,-915C448.543,-915 410.271,-915 376.86,-915"/>
<polygon fill="none" stroke="black" points="376.667,-911.5 366.667,-915 376.667,-918.5 376.667,-911.5"/>
</g>
<!-- \\Aura\\Marshal\\Collection\\GenericCollection -->
<g id="node6" class="node"><title>\\Aura\\Marshal\\Collection\\GenericCollection</title>
<a xlink:href="db_Aura_Marshal_Collection_GenericCollection.html" xlink:title="GenericCollection" target="_parent">
<polygon fill="none" stroke="black" points="570.218,-879 441.782,-879 441.782,-843 570.218,-843 570.218,-879"/>
<text text-anchor="middle" x="506" y="-856.6" font-family="Courier,monospace" font-size="11.00">GenericCollection</text>
</a>
</g>
<!-- \\Aura\\Marshal\\Data -->
<g id="node22" class="node"><title>\\Aura\\Marshal\\Data</title>
<a xlink:href="db_Aura_Marshal_Data.html" xlink:title="Data" target="_parent">
<polygon fill="none" stroke="black" points="333,-744 279,-744 279,-708 333,-708 333,-744"/>
<text text-anchor="middle" x="306" y="-721.6" font-family="Courier,monospace" font-size="11.00">Data</text>
</a>
</g>
<!-- \\Aura\\Marshal\\Collection\\GenericCollection&#45;&gt;\\Aura\\Marshal\\Data -->
<g id="edge12" class="edge"><title>\\Aura\\Marshal\\Collection\\GenericCollection&#45;&gt;\\Aura\\Marshal\\Data</title>
<path fill="none" stroke="black" d="M463.648,-842.891C456.288,-839.225 448.805,-835.198 442,-831 402.838,-806.842 361.619,-773.456 335.184,-750.866"/>
<polygon fill="none" stroke="black" points="337.335,-748.098 327.474,-744.224 332.766,-753.402 337.335,-748.098"/>
</g>
<!-- \\Aura\\Marshal\\Record\\Builder -->
<g id="node8" class="node"><title>\\Aura\\Marshal\\Record\\Builder</title>
<a xlink:href="db_Aura_Marshal_Record_Builder.html" xlink:title="Builder" target="_parent">
<polygon fill="none" stroke="black" points="537.208,-609 474.792,-609 474.792,-573 537.208,-573 537.208,-609"/>
<text text-anchor="middle" x="506" y="-586.6" font-family="Courier,monospace" font-size="11.00">Builder</text>
</a>
</g>
<!-- \\Aura\\Marshal\\Record\\BuilderInterface -->
<g id="node9" class="node"><title>\\Aura\\Marshal\\Record\\BuilderInterface</title>
<a xlink:href="db_Aura_Marshal_Record_BuilderInterface.html" xlink:title="BuilderInterface" target="_parent">
<polygon fill="none" stroke="black" points="366.618,-609 245.382,-609 245.382,-573 366.618,-573 366.618,-609"/>
<text text-anchor="middle" x="306" y="-586.6" font-family="Courier,monospace" font-size="11.00">BuilderInterface</text>
</a>
</g>
<!-- \\Aura\\Marshal\\Record\\Builder&#45;&gt;\\Aura\\Marshal\\Record\\BuilderInterface -->
<g id="edge38" class="edge"><title>\\Aura\\Marshal\\Record\\Builder&#45;&gt;\\Aura\\Marshal\\Record\\BuilderInterface</title>
<path fill="none" stroke="black" stroke-dasharray="1,5" d="M474.496,-591C448.543,-591 410.271,-591 376.86,-591"/>
<polygon fill="none" stroke="black" points="376.667,-587.5 366.667,-591 376.667,-594.5 376.667,-587.5"/>
</g>
<!-- \\Aura\\Marshal\\Record\\GenericRecord -->
<g id="node10" class="node"><title>\\Aura\\Marshal\\Record\\GenericRecord</title>
<a xlink:href="db_Aura_Marshal_Record_GenericRecord.html" xlink:title="GenericRecord" target="_parent">
<polygon fill="none" stroke="black" points="556.814,-663 455.186,-663 455.186,-627 556.814,-627 556.814,-663"/>
<text text-anchor="middle" x="506" y="-640.6" font-family="Courier,monospace" font-size="11.00">GenericRecord</text>
</a>
</g>
<!-- \\Aura\\Marshal\\Record\\GenericRecord&#45;&gt;\\Aura\\Marshal\\Data -->
<g id="edge16" class="edge"><title>\\Aura\\Marshal\\Record\\GenericRecord&#45;&gt;\\Aura\\Marshal\\Data</title>
<path fill="none" stroke="black" d="M460.565,-663.178C424.867,-677.782 375.403,-698.017 342.359,-711.535"/>
<polygon fill="none" stroke="black" points="341.013,-708.304 333.082,-715.33 343.663,-714.783 341.013,-708.304"/>
</g>
<!-- \\Aura\\Marshal\\Relation\\AbstractRelation -->
<g id="node12" class="node"><title>\\Aura\\Marshal\\Relation\\AbstractRelation</title>
<a xlink:href="db_Aura_Marshal_Relation_AbstractRelation.html" xlink:title="«abstract»&lt;br/&gt;AbstractRelation" target="_parent">
<polygon fill="none" stroke="black" points="367,-366 245,-366 245,-330 367,-330 367,-366"/>
<text text-anchor="start" x="273" y="-349.5" font-family="Courier,monospace" font-size="11.00">«abstract»</text>
<text text-anchor="start" x="253.5" y="-338.5" font-family="Courier,monospace" font-size="11.00">AbstractRelation</text>
</a>
</g>
<!-- \\Aura\\Marshal\\Relation\\BelongsTo -->
<g id="node13" class="node"><title>\\Aura\\Marshal\\Relation\\BelongsTo</title>
<a xlink:href="db_Aura_Marshal_Relation_BelongsTo.html" xlink:title="BelongsTo" target="_parent">
<polygon fill="none" stroke="black" points="543.911,-528 468.089,-528 468.089,-492 543.911,-492 543.911,-528"/>
<text text-anchor="middle" x="506" y="-505.6" font-family="Courier,monospace" font-size="11.00">BelongsTo</text>
</a>
</g>
<!-- \\Aura\\Marshal\\Relation\\BelongsTo&#45;&gt;\\Aura\\Marshal\\Relation\\AbstractRelation -->
<g id="edge18" class="edge"><title>\\Aura\\Marshal\\Relation\\BelongsTo&#45;&gt;\\Aura\\Marshal\\Relation\\AbstractRelation</title>
<path fill="none" stroke="black" d="M467.976,-498.327C458.885,-494.375 449.593,-489.316 442,-483 397.649,-446.108 414.351,-411.892 370,-375 368.648,-373.875 367.242,-372.79 365.792,-371.744"/>
<polygon fill="none" stroke="black" points="367.404,-368.62 357.095,-366.175 363.629,-374.515 367.404,-368.62"/>
</g>
<!-- \\Aura\\Marshal\\Relation\\RelationInterface -->
<g id="node18" class="node"><title>\\Aura\\Marshal\\Relation\\RelationInterface</title>
<a xlink:href="db_Aura_Marshal_Relation_RelationInterface.html" xlink:title="RelationInterface" target="_parent">
<polygon fill="none" stroke="black" points="370.218,-420 241.782,-420 241.782,-384 370.218,-384 370.218,-420"/>
<text text-anchor="middle" x="306" y="-397.6" font-family="Courier,monospace" font-size="11.00">RelationInterface</text>
</a>
</g>
<!-- \\Aura\\Marshal\\Relation\\BelongsTo&#45;&gt;\\Aura\\Marshal\\Relation\\RelationInterface -->
<g id="edge40" class="edge"><title>\\Aura\\Marshal\\Relation\\BelongsTo&#45;&gt;\\Aura\\Marshal\\Relation\\RelationInterface</title>
<path fill="none" stroke="black" stroke-dasharray="1,5" d="M467.968,-495.121C459.341,-491.383 450.264,-487.226 442,-483 407.564,-465.392 369.95,-442.502 343.193,-425.548"/>
<polygon fill="none" stroke="black" points="344.869,-422.466 334.555,-420.043 341.106,-428.369 344.869,-422.466"/>
</g>
<!-- \\Aura\\Marshal\\Relation\\Builder -->
<g id="node14" class="node"><title>\\Aura\\Marshal\\Relation\\Builder</title>
<a xlink:href="db_Aura_Marshal_Relation_Builder.html" xlink:title="Builder" target="_parent">
<polygon fill="none" stroke="black" points="537.208,-474 474.792,-474 474.792,-438 537.208,-438 537.208,-474"/>
<text text-anchor="middle" x="506" y="-451.6" font-family="Courier,monospace" font-size="11.00">Builder</text>
</a>
</g>
<!-- \\Aura\\Marshal\\Relation\\HasMany -->
<g id="node15" class="node"><title>\\Aura\\Marshal\\Relation\\HasMany</title>
<a xlink:href="db_Aura_Marshal_Relation_HasMany.html" xlink:title="HasMany" target="_parent">
<polygon fill="none" stroke="black" points="537.208,-312 474.792,-312 474.792,-276 537.208,-276 537.208,-312"/>
<text text-anchor="middle" x="506" y="-289.6" font-family="Courier,monospace" font-size="11.00">HasMany</text>
</a>
</g>
<!-- \\Aura\\Marshal\\Relation\\HasMany&#45;&gt;\\Aura\\Marshal\\Relation\\AbstractRelation -->
<g id="edge20" class="edge"><title>\\Aura\\Marshal\\Relation\\HasMany&#45;&gt;\\Aura\\Marshal\\Relation\\AbstractRelation</title>
<path fill="none" stroke="black" d="M474.496,-302.319C448.53,-309.401 410.233,-319.846 376.81,-328.961"/>
<polygon fill="none" stroke="black" points="375.798,-325.609 367.071,-331.617 377.64,-332.362 375.798,-325.609"/>
</g>
<!-- \\Aura\\Marshal\\Relation\\HasMany&#45;&gt;\\Aura\\Marshal\\Relation\\RelationInterface -->
<g id="edge42" class="edge"><title>\\Aura\\Marshal\\Relation\\HasMany&#45;&gt;\\Aura\\Marshal\\Relation\\RelationInterface</title>
<path fill="none" stroke="black" stroke-dasharray="1,5" d="M474.805,-305.224C464.168,-309.621 452.302,-315.044 442,-321 407.371,-341.021 404.629,-354.979 370,-375 367.355,-376.529 364.608,-378.023 361.804,-379.473"/>
<polygon fill="none" stroke="black" points="360.143,-376.39 352.718,-383.947 363.235,-382.67 360.143,-376.39"/>
</g>
<!-- \\Aura\\Marshal\\Relation\\HasManyThrough -->
<g id="node16" class="node"><title>\\Aura\\Marshal\\Relation\\HasManyThrough</title>
<a xlink:href="db_Aura_Marshal_Relation_HasManyThrough.html" xlink:title="HasManyThrough" target="_parent">
<polygon fill="none" stroke="black" points="560.416,-420 451.584,-420 451.584,-384 560.416,-384 560.416,-420"/>
<text text-anchor="middle" x="506" y="-397.6" font-family="Courier,monospace" font-size="11.00">HasManyThrough</text>
</a>
</g>
<!-- \\Aura\\Marshal\\Relation\\HasManyThrough&#45;&gt;\\Aura\\Marshal\\Relation\\AbstractRelation -->
<g id="edge22" class="edge"><title>\\Aura\\Marshal\\Relation\\HasManyThrough&#45;&gt;\\Aura\\Marshal\\Relation\\AbstractRelation</title>
<path fill="none" stroke="black" d="M451.679,-387.458C428.624,-381.17 401.336,-373.728 376.707,-367.011"/>
<polygon fill="none" stroke="black" points="377.624,-363.633 367.055,-364.379 375.782,-370.387 377.624,-363.633"/>
</g>
<!-- \\Aura\\Marshal\\Relation\\HasManyThrough&#45;&gt;\\Aura\\Marshal\\Relation\\RelationInterface -->
<g id="edge44" class="edge"><title>\\Aura\\Marshal\\Relation\\HasManyThrough&#45;&gt;\\Aura\\Marshal\\Relation\\RelationInterface</title>
<path fill="none" stroke="black" stroke-dasharray="1,5" d="M451.679,-402C429.73,-402 403.945,-402 380.269,-402"/>
<polygon fill="none" stroke="black" points="380.269,-398.5 370.269,-402 380.269,-405.5 380.269,-398.5"/>
</g>
<!-- \\Aura\\Marshal\\Relation\\HasOne -->
<g id="node17" class="node"><title>\\Aura\\Marshal\\Relation\\HasOne</title>
<a xlink:href="db_Aura_Marshal_Relation_HasOne.html" xlink:title="HasOne" target="_parent">
<polygon fill="none" stroke="black" points="533.608,-366 478.392,-366 478.392,-330 533.608,-330 533.608,-366"/>
<text text-anchor="middle" x="506" y="-343.6" font-family="Courier,monospace" font-size="11.00">HasOne</text>
</a>
</g>
<!-- \\Aura\\Marshal\\Relation\\HasOne&#45;&gt;\\Aura\\Marshal\\Relation\\AbstractRelation -->
<g id="edge24" class="edge"><title>\\Aura\\Marshal\\Relation\\HasOne&#45;&gt;\\Aura\\Marshal\\Relation\\AbstractRelation</title>
<path fill="none" stroke="black" d="M478.297,-348C452.549,-348 412.456,-348 377.529,-348"/>
<polygon fill="none" stroke="black" points="377.356,-344.5 367.356,-348 377.356,-351.5 377.356,-344.5"/>
</g>
<!-- \\Aura\\Marshal\\Relation\\HasOne&#45;&gt;\\Aura\\Marshal\\Relation\\RelationInterface -->
<g id="edge46" class="edge"><title>\\Aura\\Marshal\\Relation\\HasOne&#45;&gt;\\Aura\\Marshal\\Relation\\RelationInterface</title>
<path fill="none" stroke="black" stroke-dasharray="1,5" d="M478.297,-355.283C453.222,-362.121 414.54,-372.671 380.276,-382.016"/>
<polygon fill="none" stroke="black" points="379.003,-378.735 370.276,-384.743 380.844,-385.488 379.003,-378.735"/>
</g>
<!-- \\Aura\\Marshal\\Type\\Builder -->
<g id="node20" class="node"><title>\\Aura\\Marshal\\Type\\Builder</title>
<a xlink:href="db_Aura_Marshal_Type_Builder.html" xlink:title="Builder" target="_parent">
<polygon fill="none" stroke="black" points="537.208,-798 474.792,-798 474.792,-762 537.208,-762 537.208,-798"/>
<text text-anchor="middle" x="506" y="-775.6" font-family="Courier,monospace" font-size="11.00">Builder</text>
</a>
</g>
<!-- \\Aura\\Marshal\\Type\\GenericType -->
<g id="node21" class="node"><title>\\Aura\\Marshal\\Type\\GenericType</title>
<a xlink:href="db_Aura_Marshal_Type_GenericType.html" xlink:title="GenericType" target="_parent">
<polygon fill="none" stroke="black" points="550.113,-744 461.887,-744 461.887,-708 550.113,-708 550.113,-744"/>
<text text-anchor="middle" x="506" y="-721.6" font-family="Courier,monospace" font-size="11.00">GenericType</text>
</a>
</g>
<!-- \\Aura\\Marshal\\Type\\GenericType&#45;&gt;\\Aura\\Marshal\\Data -->
<g id="edge26" class="edge"><title>\\Aura\\Marshal\\Type\\GenericType&#45;&gt;\\Aura\\Marshal\\Data</title>
<path fill="none" stroke="black" d="M461.548,-726C426.11,-726 376.631,-726 343.286,-726"/>
<polygon fill="none" stroke="black" points="343.066,-722.5 333.066,-726 343.066,-729.5 343.066,-722.5"/>
</g>
<!-- \\ArrayAccess -->
<g id="node41" class="node"><title>\\ArrayAccess</title>
<ellipse fill="none" stroke="black" cx="85" cy="-780" rx="66.044" ry="18"/>
<text text-anchor="middle" x="85" y="-774.4" font-family="Times,serif" font-size="14.00" fill="gray">\\ArrayAccess</text>
</g>
<!-- \\Aura\\Marshal\\Data&#45;&gt;\\ArrayAccess -->
<g id="edge30" class="edge"><title>\\Aura\\Marshal\\Data&#45;&gt;\\ArrayAccess</title>
<path fill="none" stroke="black" stroke-dasharray="1,5" d="M278.583,-732.514C245.549,-740.659 188.039,-754.84 144.442,-765.59"/>
<polygon fill="none" stroke="black" points="143.397,-762.242 134.526,-768.035 145.073,-769.039 143.397,-762.242"/>
</g>
<!-- \\Countable -->
<g id="node43" class="node"><title>\\Countable</title>
<ellipse fill="none" stroke="black" cx="85" cy="-726" rx="56.1921" ry="18"/>
<text text-anchor="middle" x="85" y="-720.4" font-family="Times,serif" font-size="14.00" fill="gray">\\Countable</text>
</g>
<!-- \\Aura\\Marshal\\Data&#45;&gt;\\Countable -->
<g id="edge32" class="edge"><title>\\Aura\\Marshal\\Data&#45;&gt;\\Countable</title>
<path fill="none" stroke="black" stroke-dasharray="1,5" d="M278.583,-726C247.303,-726 194.079,-726 151.501,-726"/>
<polygon fill="none" stroke="black" points="151.483,-722.5 141.483,-726 151.483,-729.5 151.483,-722.5"/>
</g>
<!-- \\IteratorAggregate -->
<g id="node45" class="node"><title>\\IteratorAggregate</title>
<ellipse fill="none" stroke="black" cx="85" cy="-672" rx="85.0676" ry="18"/>
<text text-anchor="middle" x="85" y="-666.4" font-family="Times,serif" font-size="14.00" fill="gray">\\IteratorAggregate</text>
</g>
<!-- \\Aura\\Marshal\\Data&#45;&gt;\\IteratorAggregate -->
<g id="edge34" class="edge"><title>\\Aura\\Marshal\\Data&#45;&gt;\\IteratorAggregate</title>
<path fill="none" stroke="black" stroke-dasharray="1,5" d="M278.583,-719.486C247.132,-711.731 193.495,-698.506 150.802,-687.978"/>
<polygon fill="none" stroke="black" points="151.587,-684.567 141.04,-685.571 149.911,-691.364 151.587,-684.567"/>
</g>
<!-- \\Aura\\Marshal\\DataIterator -->
<g id="node23" class="node"><title>\\Aura\\Marshal\\DataIterator</title>
<a xlink:href="db_Aura_Marshal_DataIterator.html" xlink:title="DataIterator" target="_parent">
<polygon fill="none" stroke="black" points="553.713,-258 458.287,-258 458.287,-222 553.713,-222 553.713,-258"/>
<text text-anchor="middle" x="506" y="-235.6" font-family="Courier,monospace" font-size="11.00">DataIterator</text>
</a>
</g>
<!-- \\Iterator -->
<g id="node47" class="node"><title>\\Iterator</title>
<ellipse fill="none" stroke="black" cx="306" cy="-72" rx="44.6347" ry="18"/>
<text text-anchor="middle" x="306" y="-66.4" font-family="Times,serif" font-size="14.00" fill="gray">\\Iterator</text>
</g>
<!-- \\Aura\\Marshal\\DataIterator&#45;&gt;\\Iterator -->
<g id="edge36" class="edge"><title>\\Aura\\Marshal\\DataIterator&#45;&gt;\\Iterator</title>
<path fill="none" stroke="black" stroke-dasharray="1,5" d="M458.101,-222.438C452.489,-219.608 446.988,-216.457 442,-213 394.387,-180.004 350.171,-128.211 326.042,-97.4317"/>
<polygon fill="none" stroke="black" points="328.67,-95.1087 319.783,-89.3408 323.133,-99.3919 328.67,-95.1087"/>
</g>
<!-- \\Aura\\Marshal\\Exception -->
<g id="node24" class="node"><title>\\Aura\\Marshal\\Exception</title>
<a xlink:href="db_Aura_Marshal_Exception.html" xlink:title="Exception" target="_parent">
<polygon fill="none" stroke="black" points="543.911,-204 468.089,-204 468.089,-168 543.911,-168 543.911,-204"/>
<text text-anchor="middle" x="506" y="-181.6" font-family="Courier,monospace" font-size="11.00">Exception</text>
</a>
</g>
<!-- \\Exception -->
<g id="node32" class="node"><title>\\Exception</title>
<ellipse fill="none" stroke="black" cx="306" cy="-18" rx="52.7417" ry="18"/>
<text text-anchor="middle" x="306" y="-12.4" font-family="Times,serif" font-size="14.00" fill="gray">\Exception</text>
</g>
<!-- \\Aura\\Marshal\\Exception&#45;&gt;\\Exception -->
<g id="edge14" class="edge"><title>\\Aura\\Marshal\\Exception&#45;&gt;\\Exception</title>
<path fill="none" stroke="black" d="M468.197,-174.598C459.002,-170.623 449.605,-165.487 442,-159 396.406,-120.112 415.594,-83.8881 370,-45 365.418,-41.0919 360.185,-37.6738 354.739,-34.7046"/>
<polygon fill="none" stroke="black" points="355.964,-31.4065 345.447,-30.1244 352.869,-37.6851 355.964,-31.4065"/>
</g>
<!-- \\Aura\\Marshal\\Manager -->
<g id="node25" class="node"><title>\\Aura\\Marshal\\Manager</title>
<a xlink:href="db_Aura_Marshal_Manager.html" xlink:title="Manager" target="_parent">
<polygon fill="none" stroke="black" points="537.208,-150 474.792,-150 474.792,-114 537.208,-114 537.208,-150"/>
<text text-anchor="middle" x="506" y="-127.6" font-family="Courier,monospace" font-size="11.00">Manager</text>
</a>
</g>
</g>
</svg>
