<?xml version="1.0" encoding="UTF-8" standalone="no"?>
<!DOCTYPE svg PUBLIC "-//W3C//DTD SVG 1.1//EN"
 "http://www.w3.org/Graphics/SVG/1.1/DTD/svg11.dtd">
<!-- Generated by graphviz version 2.28.0 (20111028.1807)
 -->
<!-- Title: G Pages: 1 -->
<svg width="576pt" height="326pt"
 viewBox="0.00 0.00 576.00 326.00" xmlns="http://www.w3.org/2000/svg" xmlns:xlink="http://www.w3.org/1999/xlink">
<g id="graph1" class="graph" transform="scale(1 1) rotate(0) translate(4 322)">
<title>G</title>
<polygon fill="white" stroke="white" points="-4,5 -4,-322 573,-322 573,5 -4,5"/>
<g id="graph2" class="cluster"><title>cluster_Aura</title>
<polyline fill="none" stroke="gray" points="446,-8 548,-8 "/>
<path fill="none" stroke="gray" d="M548,-8C554,-8 560,-14 560,-20"/>
<polyline fill="none" stroke="gray" points="560,-20 560,-298 "/>
<path fill="none" stroke="gray" d="M560,-298C560,-304 554,-310 548,-310"/>
<polyline fill="none" stroke="gray" points="548,-310 446,-310 "/>
<path fill="none" stroke="gray" d="M446,-310C440,-310 434,-304 434,-298"/>
<polyline fill="none" stroke="gray" points="434,-298 434,-20 "/>
<path fill="none" stroke="gray" d="M434,-20C434,-14 440,-8 446,-8"/>
<text text-anchor="middle" x="497" y="-295" font-family="Times,serif" font-size="11.00" fill="gray">Aura</text>
</g>
<g id="graph3" class="cluster"><title>cluster_Aura\Demo</title>
<polyline fill="none" stroke="gray" points="454,-16 540,-16 "/>
<path fill="none" stroke="gray" d="M540,-16C546,-16 552,-22 552,-28"/>
<polyline fill="none" stroke="gray" points="552,-28 552,-269 "/>
<path fill="none" stroke="gray" d="M552,-269C552,-275 546,-281 540,-281"/>
<polyline fill="none" stroke="gray" points="540,-281 454,-281 "/>
<path fill="none" stroke="gray" d="M454,-281C448,-281 442,-275 442,-269"/>
<polyline fill="none" stroke="gray" points="442,-269 442,-28 "/>
<path fill="none" stroke="gray" d="M442,-28C442,-22 448,-16 454,-16"/>
<text text-anchor="middle" x="497" y="-266" font-family="Times,serif" font-size="11.00" fill="gray">Demo</text>
</g>
<g id="graph4" class="cluster"><title>cluster_Aura\Demo\Cli</title>
<polyline fill="none" stroke="gray" points="462,-142 532,-142 "/>
<path fill="none" stroke="gray" d="M532,-142C538,-142 544,-148 544,-154"/>
<polyline fill="none" stroke="gray" points="544,-154 544,-240 "/>
<path fill="none" stroke="gray" d="M544,-240C544,-246 538,-252 532,-252"/>
<polyline fill="none" stroke="gray" points="532,-252 462,-252 "/>
<path fill="none" stroke="gray" d="M462,-252C456,-252 450,-246 450,-240"/>
<polyline fill="none" stroke="gray" points="450,-240 450,-154 "/>
<path fill="none" stroke="gray" d="M450,-154C450,-148 456,-142 462,-142"/>
<text text-anchor="middle" x="497" y="-237" font-family="Times,serif" font-size="11.00" fill="gray">Cli</text>
</g>
<g id="graph5" class="cluster"><title>cluster_Aura\Demo\Cli\Hello</title>
<polyline fill="none" stroke="gray" points="470,-150 524,-150 "/>
<path fill="none" stroke="gray" d="M524,-150C530,-150 536,-156 536,-162"/>
<polyline fill="none" stroke="gray" points="536,-162 536,-211 "/>
<path fill="none" stroke="gray" d="M536,-211C536,-217 530,-223 524,-223"/>
<polyline fill="none" stroke="gray" points="524,-223 470,-223 "/>
<path fill="none" stroke="gray" d="M470,-223C464,-223 458,-217 458,-211"/>
<polyline fill="none" stroke="gray" points="458,-211 458,-162 "/>
<path fill="none" stroke="gray" d="M458,-162C458,-156 464,-150 470,-150"/>
<text text-anchor="middle" x="497" y="-208" font-family="Times,serif" font-size="11.00" fill="gray">Hello</text>
</g>
<g id="graph7" class="cluster"><title>cluster_Aura\Demo\Web</title>
<polyline fill="none" stroke="gray" points="466,-24 528,-24 "/>
<path fill="none" stroke="gray" d="M528,-24C534,-24 540,-30 540,-36"/>
<polyline fill="none" stroke="gray" points="540,-36 540,-122 "/>
<path fill="none" stroke="gray" d="M540,-122C540,-128 534,-134 528,-134"/>
<polyline fill="none" stroke="gray" points="528,-134 466,-134 "/>
<path fill="none" stroke="gray" d="M466,-134C460,-134 454,-128 454,-122"/>
<polyline fill="none" stroke="gray" points="454,-122 454,-36 "/>
<path fill="none" stroke="gray" d="M454,-36C454,-30 460,-24 466,-24"/>
<text text-anchor="middle" x="497" y="-119" font-family="Times,serif" font-size="11.00" fill="gray">Web</text>
</g>
<g id="graph8" class="cluster"><title>cluster_Aura\Demo\Web\Hello</title>
<polyline fill="none" stroke="gray" points="474,-32 520,-32 "/>
<path fill="none" stroke="gray" d="M520,-32C526,-32 532,-38 532,-44"/>
<polyline fill="none" stroke="gray" points="532,-44 532,-93 "/>
<path fill="none" stroke="gray" d="M532,-93C532,-99 526,-105 520,-105"/>
<polyline fill="none" stroke="gray" points="520,-105 474,-105 "/>
<path fill="none" stroke="gray" d="M474,-105C468,-105 462,-99 462,-93"/>
<polyline fill="none" stroke="gray" points="462,-93 462,-44 "/>
<path fill="none" stroke="gray" d="M462,-44C462,-38 468,-32 474,-32"/>
<text text-anchor="middle" x="497" y="-90" font-family="Times,serif" font-size="11.00" fill="gray">Hello</text>
</g>
<!-- \\Aura\\Demo\\Cli\\Hello\\Command -->
<g id="node5" class="node"><title>\\Aura\\Demo\\Cli\\Hello\\Command</title>
<a xlink:href="Cli.Hello.Command.html" xlink:title="Command" target="_parent">
<polygon fill="none" stroke="black" points="528.208,-194 465.792,-194 465.792,-158 528.208,-158 528.208,-194"/>
<text text-anchor="middle" x="497" y="-171.6" font-family="Courier,monospace" font-size="11.00">Command</text>
</a>
</g>
<!-- \\Aura\\Framework\\Cli\\AbstractCommand -->
<g id="node16" class="node"><title>\\Aura\\Framework\\Cli\\AbstractCommand</title>
<ellipse fill="none" stroke="black" cx="197" cy="-176" rx="170.196" ry="18"/>
<text text-anchor="middle" x="197" y="-170.4" font-family="Times,serif" font-size="14.00" fill="gray">\Aura\Framework\Cli\AbstractCommand</text>
</g>
<!-- \\Aura\\Demo\\Cli\\Hello\\Command&#45;&gt;\\Aura\\Framework\\Cli\\AbstractCommand -->
<g id="edge14" class="edge"><title>\\Aura\\Demo\\Cli\\Hello\\Command&#45;&gt;\\Aura\\Framework\\Cli\\AbstractCommand</title>
<path fill="none" stroke="black" d="M465.786,-176C443.767,-176 411.926,-176 377.833,-176"/>
<polygon fill="none" stroke="black" points="377.678,-172.5 367.678,-176 377.678,-179.5 377.678,-172.5"/>
</g>
<!-- \\Aura\\Demo\\Web\\Hello\\Page -->
<g id="node9" class="node"><title>\\Aura\\Demo\\Web\\Hello\\Page</title>
<a xlink:href="Web.Hello.Page.html" xlink:title="Page" target="_parent">
<polygon fill="none" stroke="black" points="524,-76 470,-76 470,-40 524,-40 524,-76"/>
<text text-anchor="middle" x="497" y="-53.6" font-family="Courier,monospace" font-size="11.00">Page</text>
</a>
</g>
<!-- \\Aura\\Framework\\Web\\Controller\\AbstractPage -->
<g id="node18" class="node"><title>\\Aura\\Framework\\Web\\Controller\\AbstractPage</title>
<ellipse fill="none" stroke="black" cx="197" cy="-58" rx="196.828" ry="18"/>
<text text-anchor="middle" x="197" y="-52.4" font-family="Times,serif" font-size="14.00" fill="gray">\Aura\Framework\Web\Controller\AbstractPage</text>
</g>
<!-- \\Aura\\Demo\\Web\\Hello\\Page&#45;&gt;\\Aura\\Framework\\Web\\Controller\\AbstractPage -->
<g id="edge16" class="edge"><title>\\Aura\\Demo\\Web\\Hello\\Page&#45;&gt;\\Aura\\Framework\\Web\\Controller\\AbstractPage</title>
<path fill="none" stroke="black" d="M469.816,-58C453.192,-58 429.963,-58 404.019,-58"/>
<polygon fill="none" stroke="black" points="403.95,-54.5001 393.95,-58 403.95,-61.5001 403.95,-54.5001"/>
</g>
</g>
</svg>
