<?xml version="1.0" encoding="UTF-8" standalone="no"?>
<!DOCTYPE svg PUBLIC "-//W3C//DTD SVG 1.1//EN"
 "http://www.w3.org/Graphics/SVG/1.1/DTD/svg11.dtd">
<!-- Generated by graphviz version 2.28.0 (20110509.1545)
 -->
<!-- Title: G Pages: 1 -->
<svg width="872pt" height="1596pt"
 viewBox="0.00 0.00 872.00 1596.00" xmlns="http://www.w3.org/2000/svg" xmlns:xlink="http://www.w3.org/1999/xlink">
<g id="graph1" class="graph" transform="scale(1 1) rotate(0) translate(4 1592)">
<title>G</title>
<polygon fill="white" stroke="white" points="-4,5 -4,-1592 869,-1592 869,5 -4,5"/>
<g id="graph2" class="cluster"><title>cluster_Aura</title>
<polyline fill="none" stroke="gray" points="395,-44 844,-44 "/>
<path fill="none" stroke="gray" d="M844,-44C850,-44 856,-50 856,-56"/>
<polyline fill="none" stroke="gray" points="856,-56 856,-1568 "/>
<path fill="none" stroke="gray" d="M856,-1568C856,-1574 850,-1580 844,-1580"/>
<polyline fill="none" stroke="gray" points="844,-1580 395,-1580 "/>
<path fill="none" stroke="gray" d="M395,-1580C389,-1580 383,-1574 383,-1568"/>
<polyline fill="none" stroke="gray" points="383,-1568 383,-56 "/>
<path fill="none" stroke="gray" d="M383,-56C383,-50 389,-44 395,-44"/>
<text text-anchor="middle" x="619.5" y="-1565" font-family="Times,serif" font-size="11.00" fill="gray">Aura</text>
</g>
<g id="graph3" class="cluster"><title>cluster_Aura\Framework</title>
<polyline fill="none" stroke="gray" points="403,-52 836,-52 "/>
<path fill="none" stroke="gray" d="M836,-52C842,-52 848,-58 848,-64"/>
<polyline fill="none" stroke="gray" points="848,-64 848,-1539 "/>
<path fill="none" stroke="gray" d="M848,-1539C848,-1545 842,-1551 836,-1551"/>
<polyline fill="none" stroke="gray" points="836,-1551 403,-1551 "/>
<path fill="none" stroke="gray" d="M403,-1551C397,-1551 391,-1545 391,-1539"/>
<polyline fill="none" stroke="gray" points="391,-1539 391,-64 "/>
<path fill="none" stroke="gray" d="M391,-64C391,-58 397,-52 403,-52"/>
<text text-anchor="middle" x="619.5" y="-1536" font-family="Times,serif" font-size="11.00" fill="gray">Framework</text>
</g>
<g id="graph4" class="cluster"><title>cluster_Aura\Framework\Cli</title>
<polyline fill="none" stroke="gray" points="411,-1169 797,-1169 "/>
<path fill="none" stroke="gray" d="M797,-1169C803,-1169 809,-1175 809,-1181"/>
<polyline fill="none" stroke="gray" points="809,-1181 809,-1510 "/>
<path fill="none" stroke="gray" d="M809,-1510C809,-1516 803,-1522 797,-1522"/>
<polyline fill="none" stroke="gray" points="797,-1522 411,-1522 "/>
<path fill="none" stroke="gray" d="M411,-1522C405,-1522 399,-1516 399,-1510"/>
<polyline fill="none" stroke="gray" points="399,-1510 399,-1181 "/>
<path fill="none" stroke="gray" d="M399,-1181C399,-1175 405,-1169 411,-1169"/>
<text text-anchor="middle" x="604" y="-1507" font-family="Times,serif" font-size="11.00" fill="gray">Cli</text>
</g>
<g id="graph5" class="cluster"><title>cluster_Aura\Framework\Cli\CacheClassmap</title>
<polyline fill="none" stroke="gray" points="727,-1420 789,-1420 "/>
<path fill="none" stroke="gray" d="M789,-1420C795,-1420 801,-1426 801,-1432"/>
<polyline fill="none" stroke="gray" points="801,-1432 801,-1481 "/>
<path fill="none" stroke="gray" d="M801,-1481C801,-1487 795,-1493 789,-1493"/>
<polyline fill="none" stroke="gray" points="789,-1493 727,-1493 "/>
<path fill="none" stroke="gray" d="M727,-1493C721,-1493 715,-1487 715,-1481"/>
<polyline fill="none" stroke="gray" points="715,-1481 715,-1432 "/>
<path fill="none" stroke="gray" d="M715,-1432C715,-1426 721,-1420 727,-1420"/>
<text text-anchor="middle" x="758" y="-1478" font-family="Times,serif" font-size="11.00" fill="gray">CacheClassmap</text>
</g>
<g id="graph6" class="cluster"><title>cluster_Aura\Framework\Cli\CacheConfig</title>
<polyline fill="none" stroke="gray" points="731,-1339 785,-1339 "/>
<path fill="none" stroke="gray" d="M785,-1339C791,-1339 797,-1345 797,-1351"/>
<polyline fill="none" stroke="gray" points="797,-1351 797,-1400 "/>
<path fill="none" stroke="gray" d="M797,-1400C797,-1406 791,-1412 785,-1412"/>
<polyline fill="none" stroke="gray" points="785,-1412 731,-1412 "/>
<path fill="none" stroke="gray" d="M731,-1412C725,-1412 719,-1406 719,-1400"/>
<polyline fill="none" stroke="gray" points="719,-1400 719,-1351 "/>
<path fill="none" stroke="gray" d="M719,-1351C719,-1345 725,-1339 731,-1339"/>
<text text-anchor="middle" x="758" y="-1397" font-family="Times,serif" font-size="11.00" fill="gray">CacheConfig</text>
</g>
<g id="graph7" class="cluster"><title>cluster_Aura\Framework\Cli\HelloWorld</title>
<polyline fill="none" stroke="gray" points="731,-1258 785,-1258 "/>
<path fill="none" stroke="gray" d="M785,-1258C791,-1258 797,-1264 797,-1270"/>
<polyline fill="none" stroke="gray" points="797,-1270 797,-1319 "/>
<path fill="none" stroke="gray" d="M797,-1319C797,-1325 791,-1331 785,-1331"/>
<polyline fill="none" stroke="gray" points="785,-1331 731,-1331 "/>
<path fill="none" stroke="gray" d="M731,-1331C725,-1331 719,-1325 719,-1319"/>
<polyline fill="none" stroke="gray" points="719,-1319 719,-1270 "/>
<path fill="none" stroke="gray" d="M719,-1270C719,-1264 725,-1258 731,-1258"/>
<text text-anchor="middle" x="758" y="-1316" font-family="Times,serif" font-size="11.00" fill="gray">HelloWorld</text>
</g>
<g id="graph8" class="cluster"><title>cluster_Aura\Framework\Cli\MakeTest</title>
<polyline fill="none" stroke="gray" points="731,-1177 785,-1177 "/>
<path fill="none" stroke="gray" d="M785,-1177C791,-1177 797,-1183 797,-1189"/>
<polyline fill="none" stroke="gray" points="797,-1189 797,-1238 "/>
<path fill="none" stroke="gray" d="M797,-1238C797,-1244 791,-1250 785,-1250"/>
<polyline fill="none" stroke="gray" points="785,-1250 731,-1250 "/>
<path fill="none" stroke="gray" d="M731,-1250C725,-1250 719,-1244 719,-1238"/>
<polyline fill="none" stroke="gray" points="719,-1238 719,-1189 "/>
<path fill="none" stroke="gray" d="M719,-1189C719,-1183 725,-1177 731,-1177"/>
<text text-anchor="middle" x="758" y="-1235" font-family="Times,serif" font-size="11.00" fill="gray">MakeTest</text>
</g>
<g id="graph13" class="cluster"><title>cluster_Aura\Framework\Exception</title>
<polyline fill="none" stroke="gray" points="688,-438 828,-438 "/>
<path fill="none" stroke="gray" d="M828,-438C834,-438 840,-444 840,-450"/>
<polyline fill="none" stroke="gray" points="840,-450 840,-769 "/>
<path fill="none" stroke="gray" d="M840,-769C840,-775 834,-781 828,-781"/>
<polyline fill="none" stroke="gray" points="828,-781 688,-781 "/>
<path fill="none" stroke="gray" d="M688,-781C682,-781 676,-775 676,-769"/>
<polyline fill="none" stroke="gray" points="676,-769 676,-450 "/>
<path fill="none" stroke="gray" d="M676,-450C676,-444 682,-438 688,-438"/>
<text text-anchor="middle" x="758" y="-766" font-family="Times,serif" font-size="11.00" fill="gray">Exception</text>
</g>
<g id="graph14" class="cluster"><title>cluster_Aura\Framework\View</title>
<polyline fill="none" stroke="gray" points="716,-266 800,-266 "/>
<path fill="none" stroke="gray" d="M800,-266C806,-266 812,-272 812,-278"/>
<polyline fill="none" stroke="gray" points="812,-278 812,-418 "/>
<path fill="none" stroke="gray" d="M812,-418C812,-424 806,-430 800,-430"/>
<polyline fill="none" stroke="gray" points="800,-430 716,-430 "/>
<path fill="none" stroke="gray" d="M716,-430C710,-430 704,-424 704,-418"/>
<polyline fill="none" stroke="gray" points="704,-418 704,-278 "/>
<path fill="none" stroke="gray" d="M704,-278C704,-272 710,-266 716,-266"/>
<text text-anchor="middle" x="758" y="-415" font-family="Times,serif" font-size="11.00" fill="gray">View</text>
</g>
<g id="graph15" class="cluster"><title>cluster_Aura\Framework\View\Helper</title>
<polyline fill="none" stroke="gray" points="724,-274 792,-274 "/>
<path fill="none" stroke="gray" d="M792,-274C798,-274 804,-280 804,-286"/>
<polyline fill="none" stroke="gray" points="804,-286 804,-389 "/>
<path fill="none" stroke="gray" d="M804,-389C804,-395 798,-401 792,-401"/>
<polyline fill="none" stroke="gray" points="792,-401 724,-401 "/>
<path fill="none" stroke="gray" d="M724,-401C718,-401 712,-395 712,-389"/>
<polyline fill="none" stroke="gray" points="712,-389 712,-286 "/>
<path fill="none" stroke="gray" d="M712,-286C712,-280 718,-274 724,-274"/>
<text text-anchor="middle" x="758" y="-386" font-family="Times,serif" font-size="11.00" fill="gray">Helper</text>
</g>
<g id="graph17" class="cluster"><title>cluster_Aura\Framework\Web</title>
<polyline fill="none" stroke="gray" points="421,-789 789,-789 "/>
<path fill="none" stroke="gray" d="M789,-789C795,-789 801,-795 801,-801"/>
<polyline fill="none" stroke="gray" points="801,-801 801,-1149 "/>
<path fill="none" stroke="gray" d="M801,-1149C801,-1155 795,-1161 789,-1161"/>
<polyline fill="none" stroke="gray" points="789,-1161 421,-1161 "/>
<path fill="none" stroke="gray" d="M421,-1161C415,-1161 409,-1155 409,-1149"/>
<polyline fill="none" stroke="gray" points="409,-1149 409,-801 "/>
<path fill="none" stroke="gray" d="M409,-801C409,-795 415,-789 421,-789"/>
<text text-anchor="middle" x="605" y="-1146" font-family="Times,serif" font-size="11.00" fill="gray">Web</text>
</g>
<g id="graph18" class="cluster"><title>cluster_Aura\Framework\Web\Asset</title>
<polyline fill="none" stroke="gray" points="735,-1059 781,-1059 "/>
<path fill="none" stroke="gray" d="M781,-1059C787,-1059 793,-1065 793,-1071"/>
<polyline fill="none" stroke="gray" points="793,-1071 793,-1120 "/>
<path fill="none" stroke="gray" d="M793,-1120C793,-1126 787,-1132 781,-1132"/>
<polyline fill="none" stroke="gray" points="781,-1132 735,-1132 "/>
<path fill="none" stroke="gray" d="M735,-1132C729,-1132 723,-1126 723,-1120"/>
<polyline fill="none" stroke="gray" points="723,-1120 723,-1071 "/>
<path fill="none" stroke="gray" d="M723,-1071C723,-1065 729,-1059 735,-1059"/>
<text text-anchor="middle" x="758" y="-1117" font-family="Times,serif" font-size="11.00" fill="gray">Asset</text>
</g>
<g id="graph19" class="cluster"><title>cluster_Aura\Framework\Web\Hello</title>
<polyline fill="none" stroke="gray" points="735,-978 781,-978 "/>
<path fill="none" stroke="gray" d="M781,-978C787,-978 793,-984 793,-990"/>
<polyline fill="none" stroke="gray" points="793,-990 793,-1039 "/>
<path fill="none" stroke="gray" d="M793,-1039C793,-1045 787,-1051 781,-1051"/>
<polyline fill="none" stroke="gray" points="781,-1051 735,-1051 "/>
<path fill="none" stroke="gray" d="M735,-1051C729,-1051 723,-1045 723,-1039"/>
<polyline fill="none" stroke="gray" points="723,-1039 723,-990 "/>
<path fill="none" stroke="gray" d="M723,-990C723,-984 729,-978 735,-978"/>
<text text-anchor="middle" x="758" y="-1036" font-family="Times,serif" font-size="11.00" fill="gray">Hello</text>
</g>
<g id="graph20" class="cluster"><title>cluster_Aura\Framework\Web\NotFound</title>
<polyline fill="none" stroke="gray" points="735,-897 781,-897 "/>
<path fill="none" stroke="gray" d="M781,-897C787,-897 793,-903 793,-909"/>
<polyline fill="none" stroke="gray" points="793,-909 793,-958 "/>
<path fill="none" stroke="gray" d="M793,-958C793,-964 787,-970 781,-970"/>
<polyline fill="none" stroke="gray" points="781,-970 735,-970 "/>
<path fill="none" stroke="gray" d="M735,-970C729,-970 723,-964 723,-958"/>
<polyline fill="none" stroke="gray" points="723,-958 723,-909 "/>
<path fill="none" stroke="gray" d="M723,-909C723,-903 729,-897 735,-897"/>
<text text-anchor="middle" x="758" y="-955" font-family="Times,serif" font-size="11.00" fill="gray">NotFound</text>
</g>
<!-- \\Aura\\Framework\\Cli\\CacheClassmap\\Command -->
<g id="node5" class="node"><title>\\Aura\\Framework\\Cli\\CacheClassmap\\Command</title>
<a xlink:href="db_Aura_Framework_Cli_CacheClassmap_Command.html" xlink:title="Command" target="_parent">
<polygon fill="none" stroke="black" points="789.208,-1464 726.792,-1464 726.792,-1428 789.208,-1428 789.208,-1464"/>
<text text-anchor="middle" x="758" y="-1441.6" font-family="Courier,monospace" font-size="11.00">Command</text>
</a>
</g>
<!-- \\Aura\\Framework\\Cli\\AbstractCommand -->
<g id="node12" class="node"><title>\\Aura\\Framework\\Cli\\AbstractCommand</title>
<a xlink:href="db_Aura_Framework_Cli_AbstractCommand.html" xlink:title="«abstract»&lt;br/&gt;AbstractCommand" target="_parent">
<polygon fill="none" stroke="black" points="523,-1342 407,-1342 407,-1306 523,-1306 523,-1342"/>
<text text-anchor="start" x="432" y="-1325.5" font-family="Courier,monospace" font-size="11.00">«abstract»</text>
<text text-anchor="start" x="415.5" y="-1314.5" font-family="Courier,monospace" font-size="11.00">AbstractCommand</text>
</a>
</g>
<!-- \\Aura\\Framework\\Cli\\CacheClassmap\\Command&#45;&gt;\\Aura\\Framework\\Cli\\AbstractCommand -->
<g id="edge46" class="edge"><title>\\Aura\\Framework\\Cli\\CacheClassmap\\Command&#45;&gt;\\Aura\\Framework\\Cli\\AbstractCommand</title>
<path fill="none" stroke="black" d="M726.836,-1435.3C711.527,-1429.75 692.686,-1422.74 676,-1416 620.242,-1393.48 557.159,-1365.5 514.815,-1346.35"/>
<polygon fill="none" stroke="black" points="516.129,-1343.1 505.576,-1342.16 513.238,-1349.48 516.129,-1343.1"/>
</g>
<!-- \\Aura\\Framework\\Cli\\CacheConfig\\Command -->
<g id="node7" class="node"><title>\\Aura\\Framework\\Cli\\CacheConfig\\Command</title>
<a xlink:href="db_Aura_Framework_Cli_CacheConfig_Command.html" xlink:title="Command" target="_parent">
<polygon fill="none" stroke="black" points="789.208,-1383 726.792,-1383 726.792,-1347 789.208,-1347 789.208,-1383"/>
<text text-anchor="middle" x="758" y="-1360.6" font-family="Courier,monospace" font-size="11.00">Command</text>
</a>
</g>
<!-- \\Aura\\Framework\\Cli\\CacheConfig\\Command&#45;&gt;\\Aura\\Framework\\Cli\\AbstractCommand -->
<g id="edge48" class="edge"><title>\\Aura\\Framework\\Cli\\CacheConfig\\Command&#45;&gt;\\Aura\\Framework\\Cli\\AbstractCommand</title>
<path fill="none" stroke="black" d="M726.681,-1360.73C681.176,-1354.32 594.065,-1342.04 533.114,-1333.46"/>
<polygon fill="none" stroke="black" points="533.58,-1329.99 523.19,-1332.06 532.604,-1336.92 533.58,-1329.99"/>
</g>
<!-- \\Aura\\Framework\\Cli\\HelloWorld\\Command -->
<g id="node9" class="node"><title>\\Aura\\Framework\\Cli\\HelloWorld\\Command</title>
<a xlink:href="db_Aura_Framework_Cli_HelloWorld_Command.html" xlink:title="Command" target="_parent">
<polygon fill="none" stroke="black" points="789.208,-1302 726.792,-1302 726.792,-1266 789.208,-1266 789.208,-1302"/>
<text text-anchor="middle" x="758" y="-1279.6" font-family="Courier,monospace" font-size="11.00">Command</text>
</a>
</g>
<!-- \\Aura\\Framework\\Cli\\HelloWorld\\Command&#45;&gt;\\Aura\\Framework\\Cli\\AbstractCommand -->
<g id="edge50" class="edge"><title>\\Aura\\Framework\\Cli\\HelloWorld\\Command&#45;&gt;\\Aura\\Framework\\Cli\\AbstractCommand</title>
<path fill="none" stroke="black" d="M726.681,-1288.17C681.176,-1294.42 594.065,-1306.4 533.114,-1314.77"/>
<polygon fill="none" stroke="black" points="532.62,-1311.31 523.19,-1316.14 533.573,-1318.24 532.62,-1311.31"/>
</g>
<!-- \\Aura\\Framework\\Cli\\MakeTest\\Command -->
<g id="node11" class="node"><title>\\Aura\\Framework\\Cli\\MakeTest\\Command</title>
<a xlink:href="db_Aura_Framework_Cli_MakeTest_Command.html" xlink:title="Command" target="_parent">
<polygon fill="none" stroke="black" points="789.208,-1221 726.792,-1221 726.792,-1185 789.208,-1185 789.208,-1221"/>
<text text-anchor="middle" x="758" y="-1198.6" font-family="Courier,monospace" font-size="11.00">Command</text>
</a>
</g>
<!-- \\Aura\\Framework\\Cli\\MakeTest\\Command&#45;&gt;\\Aura\\Framework\\Cli\\AbstractCommand -->
<g id="edge52" class="edge"><title>\\Aura\\Framework\\Cli\\MakeTest\\Command&#45;&gt;\\Aura\\Framework\\Cli\\AbstractCommand</title>
<path fill="none" stroke="black" d="M726.681,-1215.61C677.49,-1236.06 579.677,-1276.73 518.852,-1302.02"/>
<polygon fill="none" stroke="black" points="517.31,-1298.87 509.421,-1305.95 519.998,-1305.34 517.31,-1298.87"/>
</g>
<!-- \\Aura\\Cli\\AbstractCommand -->
<g id="node68" class="node"><title>\\Aura\\Cli\\AbstractCommand</title>
<ellipse fill="none" stroke="black" cx="123" cy="-1324" rx="123.295" ry="18"/>
<text text-anchor="middle" x="123" y="-1318.4" font-family="Times,serif" font-size="14.00" fill="gray">\Aura\Cli\AbstractCommand</text>
</g>
<!-- \\Aura\\Framework\\Cli\\AbstractCommand&#45;&gt;\\Aura\\Cli\\AbstractCommand -->
<g id="edge44" class="edge"><title>\\Aura\\Framework\\Cli\\AbstractCommand&#45;&gt;\\Aura\\Cli\\AbstractCommand</title>
<path fill="none" stroke="black" d="M406.708,-1324C365.638,-1324 308.594,-1324 256.496,-1324"/>
<polygon fill="none" stroke="black" points="256.49,-1320.5 246.49,-1324 256.49,-1327.5 256.49,-1320.5"/>
</g>
<!-- \\Aura\\Framework\\Exception\\NoClassForController -->
<g id="node18" class="node"><title>\\Aura\\Framework\\Exception\\NoClassForController</title>
<a xlink:href="db_Aura_Framework_Exception_NoClassForController.html" xlink:title="NoClassForController" target="_parent">
<polygon fill="none" stroke="black" points="832.021,-752 683.979,-752 683.979,-716 832.021,-716 832.021,-752"/>
<text text-anchor="middle" x="758" y="-729.6" font-family="Courier,monospace" font-size="11.00">NoClassForController</text>
</a>
</g>
<!-- \\Aura\\Framework\\Exception -->
<g id="node44" class="node"><title>\\Aura\\Framework\\Exception</title>
<a xlink:href="db_Aura_Framework_Exception.html" xlink:title="Exception" target="_parent">
<polygon fill="none" stroke="black" points="502.911,-617 427.089,-617 427.089,-581 502.911,-581 502.911,-617"/>
<text text-anchor="middle" x="465" y="-594.6" font-family="Courier,monospace" font-size="11.00">Exception</text>
</a>
</g>
<!-- \\Aura\\Framework\\Exception\\NoClassForController&#45;&gt;\\Aura\\Framework\\Exception -->
<g id="edge54" class="edge"><title>\\Aura\\Framework\\Exception\\NoClassForController&#45;&gt;\\Aura\\Framework\\Exception</title>
<path fill="none" stroke="black" d="M699.072,-715.897C691.247,-713.102 683.378,-710.105 676,-707 615.098,-681.367 547.642,-645.202 506.026,-621.926"/>
<polygon fill="none" stroke="black" points="507.728,-618.868 497.295,-617.02 504.298,-624.97 507.728,-618.868"/>
</g>
<!-- \\Aura\\Framework\\Exception\\SourceNotFound -->
<g id="node19" class="node"><title>\\Aura\\Framework\\Exception\\SourceNotFound</title>
<a xlink:href="db_Aura_Framework_Exception_SourceNotFound.html" xlink:title="SourceNotFound" target="_parent">
<polygon fill="none" stroke="black" points="812.416,-698 703.584,-698 703.584,-662 812.416,-662 812.416,-698"/>
<text text-anchor="middle" x="758" y="-675.6" font-family="Courier,monospace" font-size="11.00">SourceNotFound</text>
</a>
</g>
<!-- \\Aura\\Framework\\Exception\\SourceNotFound&#45;&gt;\\Aura\\Framework\\Exception -->
<g id="edge56" class="edge"><title>\\Aura\\Framework\\Exception\\SourceNotFound&#45;&gt;\\Aura\\Framework\\Exception</title>
<path fill="none" stroke="black" d="M703.626,-665.143C648.904,-649.912 564.648,-626.459 512.552,-611.958"/>
<polygon fill="none" stroke="black" points="513.469,-608.58 502.897,-609.27 511.592,-615.324 513.469,-608.58"/>
</g>
<!-- \\Aura\\Framework\\Exception\\TestFileExists -->
<g id="node20" class="node"><title>\\Aura\\Framework\\Exception\\TestFileExists</title>
<a xlink:href="db_Aura_Framework_Exception_TestFileExists.html" xlink:title="TestFileExists" target="_parent">
<polygon fill="none" stroke="black" points="812.416,-644 703.584,-644 703.584,-608 812.416,-608 812.416,-644"/>
<text text-anchor="middle" x="758" y="-621.6" font-family="Courier,monospace" font-size="11.00">TestFileExists</text>
</a>
</g>
<!-- \\Aura\\Framework\\Exception\\TestFileExists&#45;&gt;\\Aura\\Framework\\Exception -->
<g id="edge58" class="edge"><title>\\Aura\\Framework\\Exception\\TestFileExists&#45;&gt;\\Aura\\Framework\\Exception</title>
<path fill="none" stroke="black" d="M703.626,-621.048C649.018,-615.981 564.999,-608.185 512.878,-603.349"/>
<polygon fill="none" stroke="black" points="513.177,-599.862 502.897,-602.423 512.531,-606.832 513.177,-599.862"/>
</g>
<!-- \\Aura\\Framework\\Exception\\TestFileNotCreated -->
<g id="node21" class="node"><title>\\Aura\\Framework\\Exception\\TestFileNotCreated</title>
<a xlink:href="db_Aura_Framework_Exception_TestFileNotCreated.html" xlink:title="TestFileNotCreated" target="_parent">
<polygon fill="none" stroke="black" points="825.319,-590 690.681,-590 690.681,-554 825.319,-554 825.319,-590"/>
<text text-anchor="middle" x="758" y="-567.6" font-family="Courier,monospace" font-size="11.00">TestFileNotCreated</text>
</a>
</g>
<!-- \\Aura\\Framework\\Exception\\TestFileNotCreated&#45;&gt;\\Aura\\Framework\\Exception -->
<g id="edge60" class="edge"><title>\\Aura\\Framework\\Exception\\TestFileNotCreated&#45;&gt;\\Aura\\Framework\\Exception</title>
<path fill="none" stroke="black" d="M690.603,-578.161C636.375,-583.192 561.083,-590.178 512.947,-594.644"/>
<polygon fill="none" stroke="black" points="512.443,-591.176 502.809,-595.585 513.089,-598.146 512.443,-591.176"/>
</g>
<!-- \\Aura\\Framework\\Exception\\TestFileNotFound -->
<g id="node22" class="node"><title>\\Aura\\Framework\\Exception\\TestFileNotFound</title>
<a xlink:href="db_Aura_Framework_Exception_TestFileNotFound.html" xlink:title="TestFileNotFound" target="_parent">
<polygon fill="none" stroke="black" points="818.618,-536 697.382,-536 697.382,-500 818.618,-500 818.618,-536"/>
<text text-anchor="middle" x="758" y="-513.6" font-family="Courier,monospace" font-size="11.00">TestFileNotFound</text>
</a>
</g>
<!-- \\Aura\\Framework\\Exception\\TestFileNotFound&#45;&gt;\\Aura\\Framework\\Exception -->
<g id="edge62" class="edge"><title>\\Aura\\Framework\\Exception\\TestFileNotFound&#45;&gt;\\Aura\\Framework\\Exception</title>
<path fill="none" stroke="black" d="M699.54,-536.027C691.567,-538.854 683.532,-541.88 676,-545 646.619,-557.17 642.319,-567.401 612,-577 579.788,-587.198 542.04,-592.727 512.998,-595.691"/>
<polygon fill="none" stroke="black" points="512.341,-592.238 502.718,-596.671 513.005,-599.206 512.341,-592.238"/>
</g>
<!-- \\Aura\\Framework\\Exception\\TestFileNotMoved -->
<g id="node23" class="node"><title>\\Aura\\Framework\\Exception\\TestFileNotMoved</title>
<a xlink:href="db_Aura_Framework_Exception_TestFileNotMoved.html" xlink:title="TestFileNotMoved" target="_parent">
<polygon fill="none" stroke="black" points="818.618,-482 697.382,-482 697.382,-446 818.618,-446 818.618,-482"/>
<text text-anchor="middle" x="758" y="-459.6" font-family="Courier,monospace" font-size="11.00">TestFileNotMoved</text>
</a>
</g>
<!-- \\Aura\\Framework\\Exception\\TestFileNotMoved&#45;&gt;\\Aura\\Framework\\Exception -->
<g id="edge64" class="edge"><title>\\Aura\\Framework\\Exception\\TestFileNotMoved&#45;&gt;\\Aura\\Framework\\Exception</title>
<path fill="none" stroke="black" d="M696.984,-479.319C689.566,-482.539 682.365,-486.394 676,-491 637.401,-518.93 652.858,-552.492 612,-577 582.308,-594.81 543.303,-599.951 513.079,-600.833"/>
<polygon fill="none" stroke="black" points="512.733,-597.337 502.784,-600.981 512.833,-604.337 512.733,-597.337"/>
</g>
<!-- \\Aura\\Framework\\View\\Helper\\AssetHref -->
<g id="node26" class="node"><title>\\Aura\\Framework\\View\\Helper\\AssetHref</title>
<a xlink:href="db_Aura_Framework_View_Helper_AssetHref.html" xlink:title="AssetHref" target="_parent">
<polygon fill="none" stroke="black" points="795.911,-372 720.089,-372 720.089,-336 795.911,-336 795.911,-372"/>
<text text-anchor="middle" x="758" y="-349.6" font-family="Courier,monospace" font-size="11.00">AssetHref</text>
</a>
</g>
<!-- \\Aura\\View\\Helper\\AbstractHelper -->
<g id="node82" class="node"><title>\\Aura\\View\\Helper\\AbstractHelper</title>
<ellipse fill="none" stroke="black" cx="465" cy="-18" rx="146.854" ry="18"/>
<text text-anchor="middle" x="465" y="-12.4" font-family="Times,serif" font-size="14.00" fill="gray">\Aura\View\Helper\AbstractHelper</text>
</g>
<!-- \\Aura\\Framework\\View\\Helper\\AssetHref&#45;&gt;\\Aura\\View\\Helper\\AbstractHelper -->
<g id="edge68" class="edge"><title>\\Aura\\Framework\\View\\Helper\\AssetHref&#45;&gt;\\Aura\\View\\Helper\\AbstractHelper</title>
<path fill="none" stroke="black" d="M719.954,-349.746C704.362,-346.114 687.261,-339.4 676,-327 590.474,-232.818 702.98,-136.926 612,-48 606.08,-42.2134 599.359,-37.4045 592.13,-33.4195"/>
<polygon fill="none" stroke="black" points="593.243,-30.0669 582.725,-28.8007 590.158,-36.3502 593.243,-30.0669"/>
</g>
<!-- \\Aura\\Framework\\View\\Helper\\Route -->
<g id="node27" class="node"><title>\\Aura\\Framework\\View\\Helper\\Route</title>
<a xlink:href="db_Aura_Framework_View_Helper_Route.html" xlink:title="Route" target="_parent">
<polygon fill="none" stroke="black" points="785,-318 731,-318 731,-282 785,-282 785,-318"/>
<text text-anchor="middle" x="758" y="-295.6" font-family="Courier,monospace" font-size="11.00">Route</text>
</a>
</g>
<!-- \\Aura\\Framework\\View\\Helper\\Route&#45;&gt;\\Aura\\View\\Helper\\AbstractHelper -->
<g id="edge70" class="edge"><title>\\Aura\\Framework\\View\\Helper\\Route&#45;&gt;\\Aura\\View\\Helper\\AbstractHelper</title>
<path fill="none" stroke="black" d="M730.711,-299.362C713.012,-297.537 690.367,-292.278 676,-278 600.74,-203.204 689.562,-120.406 612,-48 605.746,-42.1618 598.672,-37.3312 591.095,-33.3453"/>
<polygon fill="none" stroke="black" points="592.524,-30.1496 581.987,-29.0445 589.535,-36.4794 592.524,-30.1496"/>
</g>
<!-- \\Aura\\Framework\\Web\\Asset\\Page -->
<g id="node31" class="node"><title>\\Aura\\Framework\\Web\\Asset\\Page</title>
<a xlink:href="db_Aura_Framework_Web_Asset_Page.html" xlink:title="Page" target="_parent">
<polygon fill="none" stroke="black" points="785,-1103 731,-1103 731,-1067 785,-1067 785,-1103"/>
<text text-anchor="middle" x="758" y="-1080.6" font-family="Courier,monospace" font-size="11.00">Page</text>
</a>
</g>
<!-- \\Aura\\Framework\\Web\\AbstractPage -->
<g id="node36" class="node"><title>\\Aura\\Framework\\Web\\AbstractPage</title>
<a xlink:href="db_Aura_Framework_Web_AbstractPage.html" xlink:title="«abstract»&lt;br/&gt;AbstractPage" target="_parent">
<polygon fill="none" stroke="black" points="513,-1022 417,-1022 417,-986 513,-986 513,-1022"/>
<text text-anchor="start" x="432" y="-1005.5" font-family="Courier,monospace" font-size="11.00">«abstract»</text>
<text text-anchor="start" x="425.5" y="-994.5" font-family="Courier,monospace" font-size="11.00">AbstractPage</text>
</a>
</g>
<!-- \\Aura\\Framework\\Web\\Asset\\Page&#45;&gt;\\Aura\\Framework\\Web\\AbstractPage -->
<g id="edge74" class="edge"><title>\\Aura\\Framework\\Web\\Asset\\Page&#45;&gt;\\Aura\\Framework\\Web\\AbstractPage</title>
<path fill="none" stroke="black" d="M730.92,-1077.74C684.308,-1064.77 585.711,-1037.32 522.829,-1019.82"/>
<polygon fill="none" stroke="black" points="523.63,-1016.41 513.057,-1017.1 521.753,-1023.15 523.63,-1016.41"/>
</g>
<!-- \\Aura\\Framework\\Web\\Hello\\Page -->
<g id="node33" class="node"><title>\\Aura\\Framework\\Web\\Hello\\Page</title>
<a xlink:href="db_Aura_Framework_Web_Hello_Page.html" xlink:title="Page" target="_parent">
<polygon fill="none" stroke="black" points="785,-1022 731,-1022 731,-986 785,-986 785,-1022"/>
<text text-anchor="middle" x="758" y="-999.6" font-family="Courier,monospace" font-size="11.00">Page</text>
</a>
</g>
<!-- \\Aura\\Framework\\Web\\Hello\\Page&#45;&gt;\\Aura\\Framework\\Web\\AbstractPage -->
<g id="edge76" class="edge"><title>\\Aura\\Framework\\Web\\Hello\\Page&#45;&gt;\\Aura\\Framework\\Web\\AbstractPage</title>
<path fill="none" stroke="black" d="M730.92,-1004C684.404,-1004 586.116,-1004 523.218,-1004"/>
<polygon fill="none" stroke="black" points="523.057,-1000.5 513.057,-1004 523.057,-1007.5 523.057,-1000.5"/>
</g>
<!-- \\Aura\\Framework\\Web\\NotFound\\Page -->
<g id="node35" class="node"><title>\\Aura\\Framework\\Web\\NotFound\\Page</title>
<a xlink:href="db_Aura_Framework_Web_NotFound_Page.html" xlink:title="Page" target="_parent">
<polygon fill="none" stroke="black" points="785,-941 731,-941 731,-905 785,-905 785,-941"/>
<text text-anchor="middle" x="758" y="-918.6" font-family="Courier,monospace" font-size="11.00">Page</text>
</a>
</g>
<!-- \\Aura\\Framework\\Web\\NotFound\\Page&#45;&gt;\\Aura\\Framework\\Web\\AbstractPage -->
<g id="edge78" class="edge"><title>\\Aura\\Framework\\Web\\NotFound\\Page&#45;&gt;\\Aura\\Framework\\Web\\AbstractPage</title>
<path fill="none" stroke="black" d="M730.932,-935.81C702.4,-949.303 654.98,-970.197 612,-982 583.287,-989.885 550.571,-995.144 523.397,-998.536"/>
<polygon fill="none" stroke="black" points="522.787,-995.084 513.273,-999.747 523.618,-1002.03 522.787,-995.084"/>
</g>
<!-- \\Aura\\Web\\AbstractPage -->
<g id="node85" class="node"><title>\\Aura\\Web\\AbstractPage</title>
<ellipse fill="none" stroke="black" cx="123" cy="-1004" rx="107.175" ry="18"/>
<text text-anchor="middle" x="123" y="-998.4" font-family="Times,serif" font-size="14.00" fill="gray">\Aura\Web\AbstractPage</text>
</g>
<!-- \\Aura\\Framework\\Web\\AbstractPage&#45;&gt;\\Aura\\Web\\AbstractPage -->
<g id="edge72" class="edge"><title>\\Aura\\Framework\\Web\\AbstractPage&#45;&gt;\\Aura\\Web\\AbstractPage</title>
<path fill="none" stroke="black" d="M416.724,-1004C371.446,-1004 301.298,-1004 241.022,-1004"/>
<polygon fill="none" stroke="black" points="240.667,-1000.5 230.667,-1004 240.667,-1007.5 240.667,-1000.5"/>
</g>
<!-- \\Aura\\Framework\\Web\\Factory -->
<g id="node37" class="node"><title>\\Aura\\Framework\\Web\\Factory</title>
<a xlink:href="db_Aura_Framework_Web_Factory.html" xlink:title="Factory" target="_parent">
<polygon fill="none" stroke="black" points="789.208,-887 726.792,-887 726.792,-851 789.208,-851 789.208,-887"/>
<text text-anchor="middle" x="758" y="-864.6" font-family="Courier,monospace" font-size="11.00">Factory</text>
</a>
</g>
<!-- \\Aura\\Framework\\Web\\Front -->
<g id="node38" class="node"><title>\\Aura\\Framework\\Web\\Front</title>
<a xlink:href="db_Aura_Framework_Web_Front.html" xlink:title="Front" target="_parent">
<polygon fill="none" stroke="black" points="785,-833 731,-833 731,-797 785,-797 785,-833"/>
<text text-anchor="middle" x="758" y="-810.6" font-family="Courier,monospace" font-size="11.00">Front</text>
</a>
</g>
<!-- \\Aura\\Framework\\Bootstrap -->
<g id="node42" class="node"><title>\\Aura\\Framework\\Bootstrap</title>
<a xlink:href="db_Aura_Framework_Bootstrap.html" xlink:title="Bootstrap" target="_parent">
<polygon fill="none" stroke="black" points="795.911,-258 720.089,-258 720.089,-222 795.911,-222 795.911,-258"/>
<text text-anchor="middle" x="758" y="-235.6" font-family="Courier,monospace" font-size="11.00">Bootstrap</text>
</a>
</g>
<!-- \\Aura\\Framework\\Config -->
<g id="node43" class="node"><title>\\Aura\\Framework\\Config</title>
<a xlink:href="db_Aura_Framework_Config.html" xlink:title="Config" target="_parent">
<polygon fill="none" stroke="black" points="785.608,-204 730.392,-204 730.392,-168 785.608,-168 785.608,-204"/>
<text text-anchor="middle" x="758" y="-181.6" font-family="Courier,monospace" font-size="11.00">Config</text>
</a>
</g>
<!-- \\Exception -->
<g id="node80" class="node"><title>\\Exception</title>
<ellipse fill="none" stroke="black" cx="123" cy="-599" rx="52.7417" ry="18"/>
<text text-anchor="middle" x="123" y="-593.4" font-family="Times,serif" font-size="14.00" fill="gray">\Exception</text>
</g>
<!-- \\Aura\\Framework\\Exception&#45;&gt;\\Exception -->
<g id="edge66" class="edge"><title>\\Aura\\Framework\\Exception&#45;&gt;\\Exception</title>
<path fill="none" stroke="black" d="M427.291,-599C369.518,-599 256.705,-599 186.138,-599"/>
<polygon fill="none" stroke="black" points="186.044,-595.5 176.044,-599 186.044,-602.5 186.044,-595.5"/>
</g>
<!-- \\Aura\\Framework\\Inflect -->
<g id="node45" class="node"><title>\\Aura\\Framework\\Inflect</title>
<a xlink:href="db_Aura_Framework_Inflect.html" xlink:title="Inflect" target="_parent">
<polygon fill="none" stroke="black" points="789.208,-150 726.792,-150 726.792,-114 789.208,-114 789.208,-150"/>
<text text-anchor="middle" x="758" y="-127.6" font-family="Courier,monospace" font-size="11.00">Inflect</text>
</a>
</g>
<!-- \\Aura\\Framework\\System -->
<g id="node46" class="node"><title>\\Aura\\Framework\\System</title>
<a xlink:href="db_Aura_Framework_System.html" xlink:title="System" target="_parent">
<polygon fill="none" stroke="black" points="785.608,-96 730.392,-96 730.392,-60 785.608,-60 785.608,-96"/>
<text text-anchor="middle" x="758" y="-73.6" font-family="Courier,monospace" font-size="11.00">System</text>
</a>
</g>
</g>
</svg>
